<svg xmlns="http://www.w3.org/2000/svg" width="300.576" height="66.984" viewBox="0 -1342 16606.9 3701" xmlns:xlink="http://www.w3.org/1999/xlink"><defs><path id="f" d="M492 213q-20 0-20 13 0 4 5 24t5 35q0 31-21 38t-97 7h-52q-1-2-35-138T243 52q0-4 11-4t80-2q94 0 124 2t60 13q49 16 81 56t71 131q10 22 13 24 7 2 15 2 20 0 20-13Q613 7 608 2q-3-2-286-2H133Q31 0 31 11q0 2 3 14 4 16 8 18t23 3q27 0 60 3 14 3 19 12 2 5 71 281t70 280q0 7-4 7-8 3-53 5h-31q-6 6-6 8t2 17q4 17 10 21h554q7-4 7-11 0-5-13-112t-14-110q-2-7-20-7h-12q-7 5-7 13l3 23q3 24 3 52 0 30-7 50t-19 31-35 16-47 7-64 2h-47q-88-1-93-3-4-2-6-9-1-3-31-123t-31-122q23-1 48-1h26q66 0 91 15t45 81q4 16 6 18t17 3h8q3 0 5-1t2-1 2-4 3-4l-33-132q-33-133-36-135-3-3-16-3z"/><path id="a" d="M31 249q-20 0-20 9 0 17 15 46t40 61 63 53 77 23q27 0 33-1 48-11 79-54t53-131q14-60 14-85 0-4 1-4l12 27q20 51 45 107t43 91 22 39q2 1 16 1h13q6-6 6-9 0-4-21-44t-59-127-72-180q-6-16-13-65t-21-106q-16-65-27-90t-27-26q-17 0-17 28 0 50 54 220l6 19 1 18q1 10 1 31 0 157-57 217-40 38-95 38-48 0-88-26t-57-69q-2-9-4-9-2-2-16-2z"/><path id="c" d="m213 578-13-5q-14-5-40-10t-58-7H83v46h19q47 2 87 15t56 24 28 22q2 3 12 3 9 0 17-6V361l1-300q7-7 12-9t24-4 62-2h26V0h-11q-21 3-159 3-136 0-157-3H88v46h64q16 0 25 1t16 3 8 2 6 5 6 4v517z"/><path id="d" d="M21 287q0 14 15 48t48 71 74 36q41 0 66-23t26-64q-2-19-3-21 0-3-16-46t-33-97-16-86q0-43 14-60t42-18q23 0 43 11t31 23 27 33q0 1 5 20t14 59 19 74q38 150 42 157 13 27 43 27 13 0 21-7t11-12 2-9q0-13-49-210T391-23q-28-83-97-132t-138-50q-45 0-79 22t-34 66q0 22 7 37t19 22 20 10 17 3q44 0 44-42 0-20-12-35t-23-20-13-5l-3-1q2-5 19-12t34-7h8q17 0 26 2 33 9 61 38t43 62 23 56 8 30l-6-4q-6-4-19-11T270-6q-20-5-39-5-46 0-81 22t-46 71q-1 7-1 31 0 57 35 149t35 117v14q0 3-4 7t-11 4h-4q-23 0-42-19t-30-41-17-42-8-22q-2-2-16-2H27q-6 6-6 9z"/><path id="e" d="M56 237v13l14 20h299v150l1 150q10 13 19 13 13 0 20-15V270h298q15-8 15-20t-15-20H409V-68q-8-14-18-14h-4q-12 0-18 14v298H70q-14 7-14 20z"/><path id="b" d="M56 347q0 13 14 20h637q15-8 15-20 0-11-14-19l-318-1H72q-16 5-16 20zm0-194q0 15 16 20h636q14-10 14-20 0-13-15-20H70q-14 7-14 20z"/><path id="g" d="M109 429q-27 0-43 18t-16 44q0 71 53 123t132 52q91 0 152-56t62-145q0-43-20-82t-48-68-80-74q-36-31-100-92l-59-56 76-1q157 0 167 5 7 2 24 89v3h40v-3q-1-3-13-91T421 3V0H50v31q0 7 6 15t30 35q29 32 50 56 9 10 34 37t34 37 29 33 28 34 23 30 21 32 15 29 13 32 7 30 3 33q0 63-34 109t-97 46q-33 0-58-17t-35-33-10-19q0-1 5-1 18 0 37-14t19-46q0-25-16-42t-45-18z"/><path id="h" d="M96 585q56 81 153 81 48 0 96-26t78-92q37-83 37-228 0-155-43-237-20-42-55-67t-61-31-51-7q-26 0-52 6t-61 32-55 67q-43 82-43 237 0 174 57 265zm225 12q-30 32-71 32-42 0-72-32-25-26-33-72t-8-192q0-158 8-208t36-79q28-30 69-30 40 0 68 30 29 30 36 84t8 203q0 145-8 191t-33 73z"/><path id="i" d="M701-940q0-3-6-9h-31q-2 2-28 27t-45 43-54 61-62 81-63 101-62 125-55 149-45 176-29 203-12 234q0 711 364 1110 23 25 43 44t33 32 15 13h31q6-6 6-9 0-5-20-26t-52-59-72-95-81-143-76-191-60-252-32-316q-2-38-2-109 0-389 94-680t290-494q11-12 11-16z"/><path id="j" d="M34 1438q0 8 3 10t13 2h21q2-2 28-27t45-43 54-61 62-81 63-101 62-124 55-149 45-176 29-203 12-234q0-117-7-198-47-572-357-913-23-25-43-44t-33-32-15-13H56q-13 0-17 2t-5 10q54 54 106 124Q428-430 428 251q0 202-26 377t-64 294-93 224-100 163-99 116l-4 4q-2 2-3 4t-3 3l-2 2z"/><path id="k" d="M73 647q0 10 4 23t12 13q1 0 72 5t73 6q12 0 12-9t-34-143q-8-34-17-70t-15-54l-4-19q0-3 6 3 49 40 101 40 62 0 100-46t39-116q0-111-79-201T173-11q-50 0-91 38T40 150v9q0 21 8 58t49 197q50 197 50 209t-38 14H83q-3 0-7 3t-3 7zm263-322v6q0 74-61 74-17 0-35-8t-33-21-26-24-18-22l-6-8-21-86q-22-86-22-122 0-48 24-72 16-16 40-16 33 0 67 32 25 23 40 56t33 105q18 72 18 106z"/></defs><g data-mml-node="math" stroke="currentColor" fill="currentColor" stroke-width="0"><use xlink:href="#a" data-mml-node="mi" transform="scale(1 -1)"/><use xlink:href="#b" data-mml-node="mo" transform="matrix(1 0 0 -1 795.8 0)"/><g data-mml-node="mfrac"><use xlink:href="#c" data-mml-node="mn" transform="matrix(1 0 0 -1 8979.3 -676)"/><g data-mml-node="mrow"><g data-mml-node="msub"><use xlink:href="#d" data-mml-node="mi" transform="matrix(1 0 0 -1 2071.6 1409.5)"/><g data-mml-node="TeXAtom"><text data-variant="normal" transform="matrix(.707 0 0 .707 2561.6 1586.2)" font-size="884" font-family="serif" data-mml-node="mo">п</text></g></g><use xlink:href="#e" data-mml-node="mo" transform="matrix(1 0 0 -1 3181.4 1409.5)"/><g data-mml-node="msub"><use xlink:href="#d" data-mml-node="mi" transform="matrix(1 0 0 -1 4181.6 1409.5)"/><g data-mml-node="TeXAtom"><text data-variant="normal" transform="matrix(.707 0 0 .707 4671.6 1586.2)" font-size="884" font-family="serif" data-mml-node="mo">б</text></g></g><g data-mml-node="mfrac"><g data-mml-node="msubsup"><use xlink:href="#f" data-mml-node="mi" transform="matrix(.707 0 0 -.707 5259.6 692.3)"/><g data-mml-node="TeXAtom"><g data-mml-node="mn" transform="matrix(.49985 0 0 -.49985 5781.366 431.276)"><use xlink:href="#g"/><use xlink:href="#h" transform="translate(500)"/></g></g><g data-mml-node="TeXAtom"><text data-variant="normal" transform="matrix(.49985 0 0 .49985 5781.366 944.487)" font-size="884" font-family="serif" data-mml-node="mo">б</text></g></g><g data-mml-node="msub"><use xlink:href="#f" data-mml-node="mi" transform="matrix(.707 0 0 -.707 5397.2 1754.5)"/><g data-mml-node="TeXAtom"><text data-variant="normal" transform="matrix(.49985 0 0 .49985 5918.966 1879.427)" font-size="884" font-family="serif" data-mml-node="mo">б</text></g></g><path stroke="none" d="M5159.6 1189.5h1257.2v-60H5159.6z"/></g><use xlink:href="#e" data-mml-node="mo" transform="matrix(1 0 0 -1 6759 1409.5)"/><g data-mml-node="mrow"><use xlink:href="#i" data-mml-node="mo" transform="matrix(1 0 0 -1 7759.2 1409.5)"/><g data-mml-node="msub"><use xlink:href="#d" data-mml-node="mi" transform="matrix(1 0 0 -1 8495.2 1409.5)"/><g data-mml-node="TeXAtom"><text data-variant="normal" transform="matrix(.707 0 0 .707 8985.2 1586.2)" font-size="884" font-family="serif" data-mml-node="mo">ф</text></g></g><g data-mml-node="mfrac"><g data-mml-node="msup"><use xlink:href="#f" data-mml-node="mi" transform="matrix(.707 0 0 -.707 9660.1 1015.5)"/><g data-mml-node="TeXAtom"><g data-mml-node="mn" transform="matrix(.49985 0 0 -.49985 10181.866 758.859)"><use xlink:href="#g"/><use xlink:href="#h" transform="translate(500)"/></g></g></g><use xlink:href="#f" data-mml-node="mi" transform="matrix(.707 0 0 -.707 9927.8 1754.5)"/><path stroke="none" d="M9560.1 1189.5h1257.2v-60H9560.1z"/></g><use xlink:href="#e" data-mml-node="mo" transform="matrix(1 0 0 -1 11159.5 1409.5)"/><g data-mml-node="msub"><use xlink:href="#d" data-mml-node="mi" transform="matrix(1 0 0 -1 12159.7 1409.5)"/><g data-mml-node="TeXAtom"><g data-mml-node="mo" font-size="884" font-family="serif"><text data-variant="normal" transform="matrix(.707 0 0 .707 12649.7 1586.2)">к</text><text data-variant="normal" transform="matrix(.707 0 0 .707 12958.588 1586.2)">р</text></g></g></g><g data-mml-node="mfrac"><g data-mml-node="msubsup"><use xlink:href="#f" data-mml-node="mi" transform="matrix(.707 0 0 -.707 13541.2 692.3)"/><g data-mml-node="TeXAtom"><g data-mml-node="mn" transform="matrix(.49985 0 0 -.49985 14062.966 431.276)"><use xlink:href="#g"/><use xlink:href="#h" transform="translate(500)"/></g></g><g data-mml-node="TeXAtom"><g data-mml-node="mo" font-size="884" font-family="serif"><text data-variant="normal" transform="matrix(.49985 0 0 .49985 14062.966 944.487)">к</text><text data-variant="normal" transform="matrix(.49985 0 0 .49985 14281.35 944.487)">р</text></g></g></g><g data-mml-node="msub"><use xlink:href="#f" data-mml-node="mi" transform="matrix(.707 0 0 -.707 13571.5 1754.5)"/><g data-mml-node="TeXAtom"><g data-mml-node="mo" font-size="884" font-family="serif"><text data-variant="normal" transform="matrix(.49985 0 0 .49985 14093.266 1879.427)">к</text><text data-variant="normal" transform="matrix(.49985 0 0 .49985 14311.65 1879.427)">р</text></g></g></g><path stroke="none" d="M13441.2 1189.5h1257.2v-60h-1257.2z"/></g><use xlink:href="#j" data-mml-node="mo" transform="matrix(1 0 0 -1 14818.4 1409.5)"/></g><g data-mml-node="msup"><use xlink:href="#k" data-mml-node="mi" transform="matrix(1 0 0 -1 15554.4 1409.5)"/><use xlink:href="#g" data-mml-node="mn" transform="matrix(.707 0 0 -.707 15983.4 1046.5)"/></g></g><path stroke="none" d="M1971.6-220h14515.3v-60H1971.6z"/></g></g></svg>