<svg xmlns="http://www.w3.org/2000/svg" width="328.296" height="59.712" viewBox="0 -1342 18138.4 3299" xmlns:xlink="http://www.w3.org/1999/xlink"><defs><path id="j" d="M42 313q0 163 81 258t180 95q69 0 99-36t30-80q0-25-14-40t-39-15q-23 0-38 14t-15 39q0 44 47 53-22 22-62 25-71 0-117-60-47-66-47-202l1-4q5 6 8 13 41 60 107 60h4q46 0 81-19 24-14 48-40t39-57q21-49 21-107v-18q0-23-5-43-11-59-64-115T253-22q-28 0-54 8t-56 30-51 59-36 97-14 141zm215 84q-30 0-52-17t-34-45-17-57-6-62q0-83 12-119t38-58q24-18 53-18 51 0 78 38 13 18 18 45t5 105q0 80-5 107t-18 45q-27 36-72 36z"/><path id="a" d="M495 384q0 22 19 40t41 19q19 0 34-18t15-61q0-30-12-86t-37-123-72-117-106-49q-80 0-110 77-1 2-7-5-59-72-135-72Q15-11 15 139q0 91 41 186t67 109q12 7 24 2 13-7 13-18 0-12-20-39t-46-73-32-98q-1-6-1-21 0-63 24-87t58-24q58 0 102 53l8 8v19q5 141 64 141 31 0 31-36 0-18-10-48t-20-55l-10-23q1-2 2-6t8-14 16-18 24-14 35-7q63 0 108 72t45 126q0 31-13 51t-25 32-13 27z"/><path id="c" d="M56 347q0 13 14 20h637q15-8 15-20 0-11-14-19l-318-1H72q-16 5-16 20zm0-194q0 15 16 20h636q14-10 14-20 0-13-15-20H70q-14 7-14 20z"/><path id="d" d="M56 237v13l14 20h299v150l1 150q10 13 19 13 13 0 20-15V270h298q15-8 15-20t-15-20H409V-68q-8-14-18-14h-4q-12 0-18 14v298H70q-14 7-14 20z"/><path id="e" d="M78 35v25l16 43 43 18q28 0 50-25t23-88q0-35-9-68t-21-57-26-41-24-27-13-9q-4 0-13 9t-9 13q0 4 11 16t25 30 26 50 16 73V9l-1-1q-2-1-5-2t-6-3-9-2-12-1q-27 0-44 17z"/><path id="f" d="M109 429q-27 0-43 18t-16 44q0 71 53 123t132 52q91 0 152-56t62-145q0-43-20-82t-48-68-80-74q-36-31-100-92l-59-56 76-1q157 0 167 5 7 2 24 89v3h40v-3q-1-3-13-91T421 3V0H50v31q0 7 6 15t30 35q29 32 50 56 9 10 34 37t34 37 29 33 28 34 23 30 21 32 15 29 13 32 7 30 3 33q0 63-34 109t-97 46q-33 0-58-17t-35-33-10-19q0-1 5-1 18 0 37-14t19-46q0-25-16-42t-45-18z"/><path id="g" d="M70 417v77l54 124 124 48q71 0 126-42t55-109q0-30-11-56t-26-42-31-28-26-18-11-8l14-9 28-20q14-10 16-11 75-59 75-149 0-79-58-137T249-22q-90 0-148 51T43 155q0 108 129 180l-18 13q-21 13-27 20-57 49-57 126zm216-31 6 4 9 6q3 2 10 7t12 10 11 12 11 13 10 16 9 17 5 20 2 22q0 43-29 73t-67 38q-7 1-33 1-41 0-77-26t-37-65q0-23 13-42t26-29 50-32q7-5 11-7l58-38zM250 21q58 0 100 34t42 82q0 17-5 32t-12 25-22 22-23 18-29 19-27 17q-14 9-30 19t-26 17l-8 5q-6 0-29-17t-48-55-26-82q0-59 43-97t100-39z"/><path id="h" d="M164 157q0-24-16-40t-39-16h-7q46-79 122-79 70 0 102 60 19 33 19 128 0 103-27 139-26 33-58 33h-6q-78 0-118-68-4-7-7-8t-15-2q-17 0-19 6-2 4-2 175v129q0 50 5 50 2 2 4 2 1 0 21-8t55-16 75-8q71 0 136 28 8 4 13 4 8 0 8-18v-13q-82-97-205-97-31 0-56 6l-10 2V374q19 14 30 22t36 16 51 8q81 0 137-65t56-154q0-92-64-157T229-22q-81 0-130 54T50 154q0 24 11 38t23 18 23 4q25 0 41-17t16-40z"/><path id="i" d="M166 673q0 12 17 21h19q90-3 114-50 6-15 57-158t101-279 50-140q7-20 13-33t9-19 5-9 4-4 1-4-6-9h-68q-25 14-32 29t-51 134l-45 125-14-15q-13-16-47-55t-57-66q-25-29-62-72-51-60-63-70T83-12q-36 0-36 32 0 17 14 32t138 135q30 29 67 65t55 54l17 16q0 1-50 140t-54 150q-20 45-51 45-17 0-17 16z"/><path id="b" d="m213 578-13-5q-14-5-40-10t-58-7H83v46h19q47 2 87 15t56 24 28 22q2 3 12 3 9 0 17-6V361l1-300q7-7 12-9t24-4 62-2h26V0h-11q-21 3-159 3-136 0-157-3H88v46h64q16 0 25 1t16 3 8 2 6 5 6 4v517z"/><path id="k" d="M127 463q-27 0-42 17t-16 44q0 55 48 98t116 43q35 0 44-1 74-12 113-53t40-89q0-52-34-101t-94-71l-3-2q0-1 9-3t29-9 38-21q82-53 82-140 0-79-62-138T238-22q-80 0-138 43T42 130q0 28 18 45t45 18q28 0 46-18t18-45q0-11-3-20t-7-16-11-12-12-8-10-4-8-3l-4-1q51-45 124-45 55 0 83 53 17 33 17 101v20q0 95-64 127-15 6-61 7l-42 1-3 2q-2 3-2 16 0 18 8 18 28 0 58 5 34 5 62 42t28 112v8q0 57-35 79-22 14-47 14-32 0-59-11t-38-23-11-12h3q3-1 8-2t10-5 12-7 10-11 8-15 3-20q0-22-14-39t-45-18z"/><path id="l" d="M180 96v154l25 291 61 229 87 174 91 125 83 81h28q6-6 6-9 0-4-16-21t-41-48-57-77-61-117-56-157-42-208-16-262q0-118 8-195 13-143 46-265t73-196 76-126 61-78 25-31q0-3-6-9h-28q-44 37-84 81t-90 125-87 173-61 229z"/><path id="m" d="M137 683q1 0 72 5t73 6q12 0 12-9 0-11-36-151-38-148-38-151 0-2 7 5 61 54 130 54 54 0 87-27t34-79q0-51-38-158T402 50q1-14 5-19t15-5q28 0 52 30t39 82q3 11 6 13t16 2q20 0 20-8 0-1-4-15-16-59-51-97-34-43-81-43h-5q-47 0-68 27t-21 57q0 16 36 118t37 153q0 59-44 59h-5q-83 0-144-98l-7-13-34-135Q132 28 127 16q-13-27-44-27-14 0-24 9T48 16q0 14 73 304l74 296q0 13-7 16t-39 5h-21q-6 6-6 8t2 19q5 19 13 19z"/><path id="n" d="M308 24q59 0 108 52t50 121q0 63-52 87-106 27-136 37t-42 20q-60 42-60 121 0 61 32 111t65 75q29 25 70 40t64 16h18q96 0 139-64 1 0 13 13t26 29 20 22h4q3 0 5 1 13 0 13-7t-28-121-32-118-16-3q-20 0-20 9 0 6 1 10 0 3 1 19t2 26q0 34-9 59t-18 37-25 25q-36 21-82 21-57 0-106-46t-50-106q0-30 15-52t41-31q4-2 70-19t67-18q34-11 66-48t32-100q0-26-8-56-5-22-18-49t-36-59-66-60-94-38q-12-2-34-2-99 0-154 55l-10 11-28-31Q83-14 78-18t-13-4q-13 0-13 8 0 3 58 235 2 6 20 6h13q6-6 6-11 0-2-1-9t-4-21-2-33q2-39 18-66t43-40 52-18 53-5z"/><path id="o" d="M96 585q56 81 153 81 48 0 96-26t78-92q37-83 37-228 0-155-43-237-20-42-55-67t-61-31-51-7q-26 0-52 6t-61 32-55 67q-43 82-43 237 0 174 57 265zm225 12q-30 32-71 32-42 0-72-32-25-26-33-72t-8-192q0-158 8-208t36-79q28-30 69-30 40 0 68 30 29 30 36 84t8 203q0 145-8 191t-33 73z"/><path id="p" d="M35 1138q0 12 16 12h18q44-37 84-81t90-125 87-173 61-230 25-291-25-290-61-230-87-173-91-125-83-81H56q-13 0-17 2t-4 10q30 30 75 89Q283-316 316 56q8 77 8 195 0 117-8 194-38 432-268 678-12 14-13 15z"/><path id="q" d="M117 59q0-33 25-33 37 0 63 105 6 20 10 21 2 1 10 1h16q3 0 5-2t2-7q-1-6-3-16t-11-38-20-47-31-37-46-17q-36 0-67 22T38 85q0 12 1 17l65 258q63 255 63 263 0 3-1 5t-4 4-5 2-8 1-8 1-9 1-10 0h-13q-3 0-8 1t-6 3-1 6q0 2 2 14 5 19 11 21t72 6q15 1 34 2t30 3 11 1q12 0 12-8 0-11-73-300T118 83v-8q0-6-1-10v-6z"/><path id="r" d="M311 43q-15-13-44-28T206 0q-63 0-101 45T66 160q0 105 77 193t171 89q47 0 87-48l3 4q2 3 5 6t9 8 13 7 16 3q14 0 23-9t10-19q0-15-57-242T363-80q-18-54-77-89t-135-36q-141 0-141 68 0 26 18 46t46 20q15 0 28-9t14-31q0-10-2-19t-7-14-8-10-7-8l-2-2h1q10-3 60-3 38 0 60 12 23 11 43 33t28 47q6 19 16 62 13 48 13 56zm73 285-4 11q-3 11-5 15t-6 14-10 14-13 11-18 9-22 3q-44 0-85-53-30-39-50-119t-20-116q0-79 62-79 56 0 110 70l8 10 53 210z"/><path id="s" d="M287 628q0 7-57 9-23 0-30 1t-7 9q0 8 4 20t7 15q2 1 199 1 167-1 187-1t40-6q72-17 122-79t51-166q0-156-107-280T444 3l-14-2-194-1H72Q48 0 41 2t-8 9q0 2 3 14 4 16 8 18t23 3q27 0 60 3 14 3 19 12 3 4 72 278t69 289zm416-159q0 38-11 68t-26 47-37 29-39 16-35 7h-43q-17 0-33 1h-43q-44 0-50-10-2-4-73-288T242 52q0-4 11-4t77-1h19q14 0 24-1 126 0 208 82 36 36 59 84t43 127 20 130z"/></defs><g data-mml-node="math" stroke="currentColor" fill="currentColor" stroke-width="0"><g data-mml-node="msub"><use xlink:href="#a" data-mml-node="mi" transform="scale(1 -1)"/><g data-mml-node="TeXAtom"><use xlink:href="#b" data-mml-node="mn" transform="matrix(.707 0 0 -.707 622 150)"/></g></g><use xlink:href="#c" data-mml-node="mo" transform="matrix(1 0 0 -1 1303.3 0)"/><g data-mml-node="mfrac"><use xlink:href="#b" data-mml-node="mn" transform="matrix(1 0 0 -1 9998.7 -676)"/><g data-mml-node="mrow"><use xlink:href="#b" data-mml-node="mn" transform="matrix(1 0 0 -1 2579.1 1307.5)"/><use xlink:href="#d" data-mml-node="mo" transform="matrix(1 0 0 -1 3301.3 1307.5)"/><use xlink:href="#b" data-mml-node="mn" transform="matrix(1 0 0 -1 4301.5 1307.5)"/><use xlink:href="#e" data-mml-node="mo" transform="matrix(1 0 0 -1 4801.5 1307.5)"/><g data-mml-node="mn" transform="matrix(1 0 0 -1 5246.2 1307.5)"><use xlink:href="#f"/><use xlink:href="#g" transform="translate(500)"/><use xlink:href="#h" transform="translate(1000)"/></g><g data-mml-node="msub"><use xlink:href="#i" data-mml-node="mi" transform="matrix(1 0 0 -1 6746.2 1307.5)"/><g data-mml-node="TeXAtom"><use xlink:href="#b" data-mml-node="mn" transform="matrix(.707 0 0 -.707 7329.2 1457.5)"/></g></g><use xlink:href="#d" data-mml-node="mo" transform="matrix(1 0 0 -1 7955 1307.5)"/><use xlink:href="#b" data-mml-node="mn" transform="matrix(1 0 0 -1 8955.2 1307.5)"/><use xlink:href="#e" data-mml-node="mo" transform="matrix(1 0 0 -1 9455.2 1307.5)"/><g data-mml-node="mn" transform="matrix(1 0 0 -1 9899.9 1307.5)"><use xlink:href="#j"/><use xlink:href="#k" transform="translate(500)"/></g><g data-mml-node="msub"><use xlink:href="#i" data-mml-node="mi" transform="matrix(1 0 0 -1 10899.9 1307.5)"/><g data-mml-node="TeXAtom"><use xlink:href="#b" data-mml-node="mn" transform="matrix(.707 0 0 -.707 11482.9 1457.5)"/></g></g><g data-mml-node="msup"><g data-mml-node="mrow"><use xlink:href="#l" data-mml-node="mo" transform="matrix(1 0 0 -1 11886.4 1307.5)"/><g data-mml-node="mfrac"><use xlink:href="#m" data-mml-node="mi" transform="matrix(.707 0 0 -.707 12859.2 913.5)"/><g data-mml-node="msub"><use xlink:href="#n" data-mml-node="mi" transform="matrix(.707 0 0 -.707 12703.4 1652.5)"/><g data-mml-node="TeXAtom"><use xlink:href="#o" data-mml-node="mn" transform="matrix(.49985 0 0 -.49985 13136.791 1758.55)"/></g></g><path stroke="none" d="M12603.4 1087.5h918.8v-60h-918.8z"/></g><use xlink:href="#p" data-mml-node="mo" transform="matrix(1 0 0 -1 13642.2 1307.5)"/></g><use xlink:href="#f" data-mml-node="mn" transform="matrix(.707 0 0 -.707 14239.2 430.9)"/></g><use xlink:href="#q" data-mml-node="mi" transform="matrix(1 0 0 -1 14642.8 1307.5)"/><use xlink:href="#r" data-mml-node="mi" transform="matrix(1 0 0 -1 14940.8 1307.5)"/><g data-mml-node="TeXAtom"><g data-mml-node="mrow"><use xlink:href="#l" data-mml-node="mo" transform="matrix(1 0 0 -1 15417.8 1307.5)"/><g data-mml-node="mfrac"><g data-mml-node="msub"><use xlink:href="#s" data-mml-node="mi" transform="matrix(.707 0 0 -.707 16234.8 717.5)"/><g data-mml-node="TeXAtom"><text data-variant="normal" transform="matrix(.49985 0 0 .49985 16820.196 842.427)" font-size="884" font-family="serif" data-mml-node="mo">н</text></g></g><use xlink:href="#s" data-mml-node="mi" transform="matrix(.707 0 0 -.707 16375.4 1652.5)"/><path stroke="none" d="M16134.8 1087.5h1066.6v-60h-1066.6z"/></g><use xlink:href="#p" data-mml-node="mo" transform="matrix(1 0 0 -1 17321.4 1307.5)"/></g></g></g><path stroke="none" d="M2479.1-220h15539.3v-60H2479.1z"/></g></g></svg>