<svg xmlns="http://www.w3.org/2000/svg" width="379.944" height="75.6" viewBox="0 -1818 20991.9 4177" xmlns:xlink="http://www.w3.org/1999/xlink"><defs><path id="m" d="M70 417v77l54 124 124 48q71 0 126-42t55-109q0-30-11-56t-26-42-31-28-26-18-11-8l14-9 28-20q14-10 16-11 75-59 75-149 0-79-58-137T249-22q-90 0-148 51T43 155q0 108 129 180l-18 13q-21 13-27 20-57 49-57 126zm216-31 6 4 9 6q3 2 10 7t12 10 11 12 11 13 10 16 9 17 5 20 2 22q0 43-29 73t-67 38q-7 1-33 1-41 0-77-26t-37-65q0-23 13-42t26-29 50-32q7-5 11-7l58-38zM250 21q58 0 100 34t42 82q0 17-5 32t-12 25-22 22-23 18-29 19-27 17q-14 9-30 19t-26 17l-8 5q-6 0-29-17t-48-55-26-82q0-59 43-97t100-39z"/><path id="a" d="M42 0h-2Q26 0 26 11q0 4 3 16 4 14 7 16t19 3q86 3 135 52 10 10 116 126t105 118Q302 620 297 625q-9 11-63 12h-28q-6 6-6 8t2 19q4 13 10 19h14q34-2 121-2h61q28 0 45 1t20 0q17 0 17-11 0-1-2-13-4-15-7-18t-16-3q-31-3-54-17l77-194 53 59q105 113 105 125 0 18-24 25-5 0-13 2-15 0-15 11 0 2 2 16 4 13 10 19h37q24 0 54-2t41-1q90 0 99 3h8q7-7 7-11-2-25-12-35h-16q-34-1-61-9t-41-17-24-18l-11-9q0 1-95-104l-87-96q0-1 31-80t65-162 37-86q10-9 61-10 35 0 35-9 0-2-2-14-4-16-7-19t-14-3h-33q-30 0-89 1h-93q-32 0-35-1-17 0-17 9 0 1 2 15 2 10 4 14t5 5 9 2 16 1 26 7q17 8 17 10-1 0-47 117l-47 118Q241 95 236 84q-4-8-4-12 0-19 29-25h6q5 0 6-1h4q1 0 3-1t3-3 1-7q0-9-2-16-3-13-6-15t-15-3h-18q-15 0-42 1t-59 0Q64 2 42 0z"/><path id="c" d="M96 585q56 81 153 81 48 0 96-26t78-92q37-83 37-228 0-155-43-237-20-42-55-67t-61-31-51-7q-26 0-52 6t-61 32-55 67q-43 82-43 237 0 174 57 265zm225 12q-30 32-71 32-42 0-72-32-25-26-33-72t-8-192q0-158 8-208t36-79q28-30 69-30 40 0 68 30 29 30 36 84t8 203q0 145-8 191t-33 73z"/><path id="d" d="M78 35v25l16 43 43 18q28 0 50-25t23-88q0-35-9-68t-21-57-26-41-24-27-13-9q-4 0-13 9t-9 13q0 4 11 16t25 30 26 50 16 73V9l-1-1q-2-1-5-2t-6-3-9-2-12-1q-27 0-44 17z"/><path id="e" d="M42 313q0 163 81 258t180 95q69 0 99-36t30-80q0-25-14-40t-39-15q-23 0-38 14t-15 39q0 44 47 53-22 22-62 25-71 0-117-60-47-66-47-202l1-4q5 6 8 13 41 60 107 60h4q46 0 81-19 24-14 48-40t39-57q21-49 21-107v-18q0-23-5-43-11-59-64-115T253-22q-28 0-54 8t-56 30-51 59-36 97-14 141zm215 84q-30 0-52-17t-34-45-17-57-6-62q0-83 12-119t38-58q24-18 53-18 51 0 78 38 13 18 18 45t5 105q0 80-5 107t-18 45q-27 36-72 36z"/><path id="f" d="M55 458q1 2 17 109l16 107q0 2 20 2h20v-4q0-10 15-17t52-9 169-2h121v-39l-68-93-30-40q-21-28-27-37t-21-32-20-36-14-37-13-46-8-54-6-68-3-82V52q0-14-1-24v-9q-4-17-19-29t-34-12q-11 0-21 3T179 0t-11 40q0 158 97 328 20 32 84 121l46 63h-93q-174 0-183-6-6-3-11-24t-10-43l-3-21v-3H55v3z"/><path id="g" d="M118-250V750h137v-40h-97v-920h97v-40H118z"/><path id="h" d="M285 628q0 7-57 9-23 0-30 1t-7 9q0 2 2 14 6 20 10 21 2 1 11 1h5q41-2 136-2h63q29 0 45 1t20 0q17 0 17-8 0-5-3-14-1-2-1-6t-1-6-2-4-3-3-4-2-7-1-9-1-14 0q-40-1-51-3t-18-11l-81-318q1 0 184 144t188 148q14 14 14 23 0 15-25 17-16 0-16 11 0 2 3 14t5 15q3 5 17 5 4 0 35-1t80-1q23 0 48 1t30 1q20 0 20-10 0-22-8-30-3-5-19-5-75-5-136-51-16-10-70-52t-100-79l-47-37 9-22q9-22 28-67t35-85q75-177 80-183 2-2 5-4 14-10 51-11h21q6-8 6-9t-3-18q-4-13-10-19h-11q-40 3-95 3-122 0-137-3h-10q-6 6-6 9t2 18q4 13 6 16t11 3h3q50 0 50 25 0 4-27 70t-32 75l-58 138-68-53-68-53-23-93q-23-92-23-97 0-7 8-9t50-3h31q6-9 6-11 0-16-7-30-5-5-16-5-3 0-37 1T180 2H85Q52 2 49 1 31 1 31 11q0 2 3 14 4 16 8 18t23 3q27 0 60 3 14 3 19 12 3 4 72 278t69 289z"/><path id="i" d="M109 429q-27 0-43 18t-16 44q0 71 53 123t132 52q91 0 152-56t62-145q0-43-20-82t-48-68-80-74q-36-31-100-92l-59-56 76-1q157 0 167 5 7 2 24 89v3h40v-3q-1-3-13-91T421 3V0H50v31q0 7 6 15t30 35q29 32 50 56 9 10 34 37t34 37 29 33 28 34 23 30 21 32 15 29 13 32 7 30 3 33q0 63-34 109t-97 46q-33 0-58-17t-35-33-10-19q0-1 5-1 18 0 37-14t19-46q0-25-16-42t-45-18z"/><path id="j" d="M94 250q0 69 10 131t23 107 37 88 38 67 42 52 33 34 25 21h17q14 0 14-9 0-3-17-21t-41-53-49-86-42-138-17-193 17-192 41-139 49-86 42-53 17-21q0-9-15-9h-16l-28 24q-94 85-137 212T94 250z"/><path id="k" d="m213 578-13-5q-14-5-40-10t-58-7H83v46h19q47 2 87 15t56 24 28 22q2 3 12 3 9 0 17-6V361l1-300q7-7 12-9t24-4 62-2h26V0h-11q-21 3-159 3-136 0-157-3H88v46h64q16 0 25 1t16 3 8 2 6 5 6 4v517z"/><path id="l" d="M56 237v13l14 20h299v150l1 150q10 13 19 13 13 0 20-15V270h298q15-8 15-20t-15-20H409V-68q-8-14-18-14h-4q-12 0-18 14v298H70q-14 7-14 20z"/><path id="b" d="M56 347q0 13 14 20h637q15-8 15-20 0-11-14-19l-318-1H72q-16 5-16 20zm0-194q0 15 16 20h636q14-10 14-20 0-13-15-20H70q-14 7-14 20z"/><path id="n" d="M164 157q0-24-16-40t-39-16h-7q46-79 122-79 70 0 102 60 19 33 19 128 0 103-27 139-26 33-58 33h-6q-78 0-118-68-4-7-7-8t-15-2q-17 0-19 6-2 4-2 175v129q0 50 5 50 2 2 4 2 1 0 21-8t55-16 75-8q71 0 136 28 8 4 13 4 8 0 8-18v-13q-82-97-205-97-31 0-56 6l-10 2V374q19 14 30 22t36 16 51 8q81 0 137-65t56-154q0-92-64-157T229-22q-81 0-130 54T50 154q0 24 11 38t23 18 23 4q25 0 41-17t16-40z"/><path id="p" d="M117 59q0-33 25-33 37 0 63 105 6 20 10 21 2 1 10 1h16q3 0 5-2t2-7q-1-6-3-16t-11-38-20-47-31-37-46-17q-36 0-67 22T38 85q0 12 1 17l65 258q63 255 63 263 0 3-1 5t-4 4-5 2-8 1-8 1-9 1-10 0h-13q-3 0-8 1t-6 3-1 6q0 2 2 14 5 19 11 21t72 6q15 1 34 2t30 3 11 1q12 0 12-8 0-11-73-300T118 83v-8q0-6-1-10v-6z"/><path id="q" d="M311 43q-15-13-44-28T206 0q-63 0-101 45T66 160q0 105 77 193t171 89q47 0 87-48l3 4q2 3 5 6t9 8 13 7 16 3q14 0 23-9t10-19q0-15-57-242T363-80q-18-54-77-89t-135-36q-141 0-141 68 0 26 18 46t46 20q15 0 28-9t14-31q0-10-2-19t-7-14-8-10-7-8l-2-2h1q10-3 60-3 38 0 60 12 23 11 43 33t28 47q6 19 16 62 13 48 13 56zm73 285-4 11q-3 11-5 15t-6 14-10 14-13 11-18 9-22 3q-44 0-85-53-30-39-50-119t-20-116q0-79 62-79 56 0 110 70l8 10 53 210z"/><path id="r" d="m60 749 4 1h22l28-24q94-85 137-212t43-264q0-68-10-131T261 12t-37-88-38-67-41-51-32-33-23-19l-4-4H63q-3 0-5 3t-3 9q1 1 11 13Q221-64 221 250T66 725q-10 12-11 13 0 8 5 11z"/><path id="s" d="M84 237v13l14 20h581q15-8 15-20t-15-20H98q-14 7-14 20z"/><path id="t" d="M22 710v40h137V-250H22v40h97v920H22z"/><path id="u" d="M247-949v2399h269v-62H309V-887h207v-62H247z"/><path id="v" d="M137 683q1 0 72 5t73 6q12 0 12-9 0-11-36-151-38-148-38-151 0-2 7 5 61 54 130 54 54 0 87-27t34-79q0-51-38-158T402 50q1-14 5-19t15-5q28 0 52 30t39 82q3 11 6 13t16 2q20 0 20-8 0-1-4-15-16-59-51-97-34-43-81-43h-5q-47 0-68 27t-21 57q0 16 36 118t37 153q0 59-44 59h-5q-83 0-144-98l-7-13-34-135Q132 28 127 16q-13-27-44-27-14 0-24 9T48 16q0 14 73 304l74 296q0 13-7 16t-39 5h-21q-6 6-6 8t2 19q5 19 13 19z"/><path id="w" d="M127 463q-27 0-42 17t-16 44q0 55 48 98t116 43q35 0 44-1 74-12 113-53t40-89q0-52-34-101t-94-71l-3-2q0-1 9-3t29-9 38-21q82-53 82-140 0-79-62-138T238-22q-80 0-138 43T42 130q0 28 18 45t45 18q28 0 46-18t18-45q0-11-3-20t-7-16-11-12-12-8-10-4-8-3l-4-1q51-45 124-45 55 0 83 53 17 33 17 101v20q0 95-64 127-15 6-61 7l-42 1-3 2q-2 3-2 16 0 18 8 18 28 0 58 5 34 5 62 42t28 112v8q0 57-35 79-22 14-47 14-32 0-59-11t-38-23-11-12h3q3-1 8-2t10-5 12-7 10-11 8-15 3-20q0-22-14-39t-45-18z"/><path id="x" d="M195 609q0 47 32 77t75 31q17-1 49-8t56-12 26-7q18-8 18-28 0-18-13-34t-35-16q-21 0-55 29t-60 30-39-14-14-29q0-44 99-165 67-84 67-171 0-123-61-212T205-10h-7q-71 0-115 46T36 153q0 133 115 229 40 31 101 52 0 1-7 15t-15 32-16 40-13 45-6 43zm-83-479q0-47 24-75t68-28q29 0 52 24t35 60 18 67 7 54q0 35-7 66t-14 46-26 56l-10-4q-44-15-76-54t-46-86-19-77-6-49z"/><path id="y" d="M11 1388v62h269V-949H11v62h207v2275H11z"/></defs><g data-mml-node="math" stroke="currentColor" fill="currentColor" stroke-width="0"><g data-mml-node="msub"><use xlink:href="#a" data-mml-node="mi" transform="scale(1 -1)"/><g data-mml-node="TeXAtom"><g data-mml-node="mo" font-size="884" font-family="serif"><text data-variant="normal" transform="matrix(.707 0 0 .707 828 176.7)">к</text><text data-variant="normal" transform="matrix(.707 0 0 .707 1136.888 176.7)">р</text></g></g></g><use xlink:href="#b" data-mml-node="mo" transform="matrix(1 0 0 -1 1777.2 0)"/><g data-mml-node="mfrac"><g data-mml-node="mrow"><use xlink:href="#c" data-mml-node="mn" transform="matrix(1 0 0 -1 5545.4 -984.1)"/><use xlink:href="#d" data-mml-node="mo" transform="matrix(1 0 0 -1 6045.4 -984.1)"/><g data-mml-node="mn" transform="matrix(1 0 0 -1 6490.1 -984.1)"><use xlink:href="#e"/><use xlink:href="#f" transform="translate(500)"/></g><use xlink:href="#g" data-mml-node="mo" transform="matrix(1 0 0 -1 7490.1 -984.1)"/><g data-mml-node="msubsup"><use xlink:href="#h" data-mml-node="mi" transform="matrix(1 0 0 -1 7768.1 -984.1)"/><use xlink:href="#i" data-mml-node="mn" transform="matrix(.707 0 0 -.707 8617.1 -1347.1)"/><g data-mml-node="TeXAtom"><g data-mml-node="mo" font-size="884" font-family="serif"><text data-variant="normal" transform="matrix(.707 0 0 .707 8617.1 -636.8)">к</text><text data-variant="normal" transform="matrix(.707 0 0 .707 8925.988 -636.8)">р</text></g></g></g><use xlink:href="#j" data-mml-node="mo" transform="matrix(1 0 0 -1 9288.5 -984.1)"/><use xlink:href="#k" data-mml-node="mn" transform="matrix(1 0 0 -1 9677.5 -984.1)"/><use xlink:href="#l" data-mml-node="mo" transform="matrix(1 0 0 -1 10399.8 -984.1)"/><use xlink:href="#m" data-mml-node="mn" transform="matrix(1 0 0 -1 11400 -984.1)"/><use xlink:href="#d" data-mml-node="mo" transform="matrix(1 0 0 -1 11900 -984.1)"/><g data-mml-node="mn" transform="matrix(1 0 0 -1 12344.6 -984.1)"><use xlink:href="#n"/><use xlink:href="#n" transform="translate(500)"/></g><use xlink:href="#o" data-mml-node="mtext" transform="matrix(1 0 0 -1 13344.6 -984.1)"/><use xlink:href="#p" data-mml-node="mi" transform="matrix(1 0 0 -1 13594.6 -984.1)"/><use xlink:href="#q" data-mml-node="mi" transform="matrix(1 0 0 -1 13892.6 -984.1)"/><g data-mml-node="TeXAtom"><g data-mml-node="msub"><use xlink:href="#h" data-mml-node="mi" transform="matrix(1 0 0 -1 14369.6 -984.1)"/><g data-mml-node="TeXAtom"><g data-mml-node="mo" font-size="884" font-family="serif"><text data-variant="normal" transform="matrix(.707 0 0 .707 15218.6 -807.4)">к</text><text data-variant="normal" transform="matrix(.707 0 0 .707 15527.488 -807.4)">р</text></g></g></g></g><use xlink:href="#r" data-mml-node="mo" transform="matrix(1 0 0 -1 15890.1 -984.1)"/><use xlink:href="#s" data-mml-node="mo" transform="matrix(1 0 0 -1 16501.3 -984.1)"/><use xlink:href="#k" data-mml-node="mn" transform="matrix(1 0 0 -1 17501.5 -984.1)"/><use xlink:href="#t" data-mml-node="mo" transform="matrix(1 0 0 -1 18001.5 -984.1)"/></g><g data-mml-node="mrow"><use xlink:href="#j" data-mml-node="mo" transform="matrix(1 0 0 -1 3053 1409.5)"/><g data-mml-node="msub"><use xlink:href="#h" data-mml-node="mi" transform="matrix(1 0 0 -1 3442 1409.5)"/><g data-mml-node="TeXAtom"><g data-mml-node="mo" font-size="884" font-family="serif"><text data-variant="normal" transform="matrix(.707 0 0 .707 4291 1586.2)">к</text><text data-variant="normal" transform="matrix(.707 0 0 .707 4599.888 1586.2)">р</text></g></g></g><use xlink:href="#s" data-mml-node="mo" transform="matrix(1 0 0 -1 5184.7 1409.5)"/><use xlink:href="#k" data-mml-node="mn" transform="matrix(1 0 0 -1 6184.9 1409.5)"/><use xlink:href="#r" data-mml-node="mo" transform="matrix(1 0 0 -1 6684.9 1409.5)"/><g data-mml-node="mrow"><use xlink:href="#u" data-mml-node="mo" transform="matrix(1 0 0 -1 7073.9 1409.5)"/><use xlink:href="#j" data-mml-node="mo" transform="matrix(1 0 0 -1 7601.9 1409.5)"/><g data-mml-node="msubsup"><use xlink:href="#h" data-mml-node="mi" transform="matrix(1 0 0 -1 7990.9 1409.5)"/><use xlink:href="#i" data-mml-node="mn" transform="matrix(.707 0 0 -.707 8839.9 1046.5)"/><g data-mml-node="TeXAtom"><g data-mml-node="mo" font-size="884" font-family="serif"><text data-variant="normal" transform="matrix(.707 0 0 .707 8839.9 1756.8)">к</text><text data-variant="normal" transform="matrix(.707 0 0 .707 9148.788 1756.8)">р</text></g></g></g><use xlink:href="#s" data-mml-node="mo" transform="matrix(1 0 0 -1 9733.6 1409.5)"/><use xlink:href="#k" data-mml-node="mn" transform="matrix(1 0 0 -1 10733.8 1409.5)"/><use xlink:href="#l" data-mml-node="mo" transform="matrix(1 0 0 -1 11456 1409.5)"/><use xlink:href="#j" data-mml-node="mo" transform="matrix(1 0 0 -1 12456.3 1409.5)"/><use xlink:href="#k" data-mml-node="mn" transform="matrix(1 0 0 -1 12845.3 1409.5)"/><use xlink:href="#d" data-mml-node="mo" transform="matrix(1 0 0 -1 13345.3 1409.5)"/><g data-mml-node="mn" transform="matrix(1 0 0 -1 13789.9 1409.5)"><use xlink:href="#m"/><use xlink:href="#n" transform="translate(500)"/><use xlink:href="#f" transform="translate(1000)"/></g><g data-mml-node="msubsup"><use xlink:href="#h" data-mml-node="mi" transform="matrix(1 0 0 -1 15289.9 1409.5)"/><use xlink:href="#i" data-mml-node="mn" transform="matrix(.707 0 0 -.707 16138.9 1046.5)"/><g data-mml-node="TeXAtom"><g data-mml-node="mo" font-size="884" font-family="serif"><text data-variant="normal" transform="matrix(.707 0 0 .707 16138.9 1756.8)">к</text><text data-variant="normal" transform="matrix(.707 0 0 .707 16447.788 1756.8)">р</text></g></g></g><use xlink:href="#l" data-mml-node="mo" transform="matrix(1 0 0 -1 17032.6 1409.5)"/><use xlink:href="#k" data-mml-node="mn" transform="matrix(1 0 0 -1 18032.8 1409.5)"/><use xlink:href="#r" data-mml-node="mo" transform="matrix(1 0 0 -1 18532.8 1409.5)"/><g data-mml-node="mfrac"><g data-mml-node="msubsup"><use xlink:href="#v" data-mml-node="mi" transform="matrix(.707 0 0 -.707 19141.8 692.3)"/><use xlink:href="#w" data-mml-node="mn" transform="matrix(.49985 0 0 -.49985 19549.032 431.276)"/><g data-mml-node="TeXAtom"><g data-mml-node="mo" font-size="884" font-family="serif"><text data-variant="normal" transform="matrix(.49985 0 0 .49985 19549.032 944.487)">к</text><text data-variant="normal" transform="matrix(.49985 0 0 .49985 19767.416 944.487)">р</text></g></g></g><g data-mml-node="msubsup"><use xlink:href="#x" data-mml-node="mi" transform="matrix(.707 0 0 -.707 19188.5 1843)"/><use xlink:href="#w" data-mml-node="mn" transform="matrix(.49985 0 0 -.49985 19502.408 1581.976)"/><g data-mml-node="TeXAtom"><g data-mml-node="mo" font-size="884" font-family="serif"><text data-variant="normal" transform="matrix(.49985 0 0 .49985 19502.408 2095.187)">к</text><text data-variant="normal" transform="matrix(.49985 0 0 .49985 19720.792 2095.187)">р</text></g></g></g><path stroke="none" d="M19041.8 1189.5h1082.1v-60h-1082.1z"/></g><use xlink:href="#y" data-mml-node="mo" transform="matrix(1 0 0 -1 20243.9 1409.5)"/></g></g><path stroke="none" d="M2953-220h17918.9v-60H2953z"/></g></g></svg>