<svg xmlns="http://www.w3.org/2000/svg" width="287.544" height="45.904" viewBox="0 -1496.5 15886.7 2536" xmlns:xlink="http://www.w3.org/1999/xlink"><defs><path id="k" d="M70 417v77l54 124 124 48q71 0 126-42t55-109q0-30-11-56t-26-42-31-28-26-18-11-8l14-9 28-20q14-10 16-11 75-59 75-149 0-79-58-137T249-22q-90 0-148 51T43 155q0 108 129 180l-18 13q-21 13-27 20-57 49-57 126zm216-31 6 4 9 6q3 2 10 7t12 10 11 12 11 13 10 16 9 17 5 20 2 22q0 43-29 73t-67 38q-7 1-33 1-41 0-77-26t-37-65q0-23 13-42t26-29 50-32q7-5 11-7l58-38zM250 21q58 0 100 34t42 82q0 17-5 32t-12 25-22 22-23 18-29 19-27 17q-14 9-30 19t-26 17l-8 5q-6 0-29-17t-48-55-26-82q0-59 43-97t100-39z"/><path id="a" d="M21 287q0 14 15 48t48 71 74 36q41 0 66-23t26-64q-2-19-3-21 0-3-16-46t-33-97-16-86q0-43 14-60t42-18q23 0 43 11t31 23 27 33q0 1 5 20t14 59 19 74q38 150 42 157 13 27 43 27 13 0 21-7t11-12 2-9q0-13-49-210T391-23q-28-83-97-132t-138-50q-45 0-79 22t-34 66q0 22 7 37t19 22 20 10 17 3q44 0 44-42 0-20-12-35t-23-20-13-5l-3-1q2-5 19-12t34-7h8q17 0 26 2 33 9 61 38t43 62 23 56 8 30l-6-4q-6-4-19-11T270-6q-20-5-39-5-46 0-81 22t-46 71q-1 7-1 31 0 57 35 149t35 117v14q0 3-4 7t-11 4h-4q-23 0-42-19t-30-41-17-42-8-22q-2-2-16-2H27q-6 6-6 9z"/><path id="c" d="M118-250V750h137v-40h-97v-920h97v-40H118z"/><path id="d" d="m213 578-13-5q-14-5-40-10t-58-7H83v46h19q47 2 87 15t56 24 28 22q2 3 12 3 9 0 17-6V361l1-300q7-7 12-9t24-4 62-2h26V0h-11q-21 3-159 3-136 0-157-3H88v46h64q16 0 25 1t16 3 8 2 6 5 6 4v517z"/><path id="e" d="M84 237v13l14 20h581q15-8 15-20t-15-20H98q-14 7-14 20z"/><path id="f" d="M495 384q0 22 19 40t41 19q19 0 34-18t15-61q0-30-12-86t-37-123-72-117-106-49q-80 0-110 77-1 2-7-5-59-72-135-72Q15-11 15 139q0 91 41 186t67 109q12 7 24 2 13-7 13-18 0-12-20-39t-46-73-32-98q-1-6-1-21 0-63 24-87t58-24q58 0 102 53l8 8v19q5 141 64 141 31 0 31-36 0-18-10-48t-20-55l-10-23q1-2 2-6t8-14 16-18 24-14 35-7q63 0 108 72t45 126q0 31-13 51t-25 32-13 27z"/><path id="g" d="M94 250q0 69 10 131t23 107 37 88 38 67 42 52 33 34 25 21h17q14 0 14-9 0-3-17-21t-41-53-49-86-42-138-17-193 17-192 41-139 49-86 42-53 17-21q0-9-15-9h-16l-28 24q-94 85-137 212T94 250z"/><path id="h" d="M56 237v13l14 20h299v150l1 150q10 13 19 13 13 0 20-15V270h298q15-8 15-20t-15-20H409V-68q-8-14-18-14h-4q-12 0-18 14v298H70q-14 7-14 20z"/><path id="i" d="M78 35v25l16 43 43 18q28 0 50-25t23-88q0-35-9-68t-21-57-26-41-24-27-13-9q-4 0-13 9t-9 13q0 4 11 16t25 30 26 50 16 73V9l-1-1q-2-1-5-2t-6-3-9-2-12-1q-27 0-44 17z"/><path id="j" d="M109 429q-27 0-43 18t-16 44q0 71 53 123t132 52q91 0 152-56t62-145q0-43-20-82t-48-68-80-74q-36-31-100-92l-59-56 76-1q157 0 167 5 7 2 24 89v3h40v-3q-1-3-13-91T421 3V0H50v31q0 7 6 15t30 35q29 32 50 56 9 10 34 37t34 37 29 33 28 34 23 30 21 32 15 29 13 32 7 30 3 33q0 63-34 109t-97 46q-33 0-58-17t-35-33-10-19q0-1 5-1 18 0 37-14t19-46q0-25-16-42t-45-18z"/><path id="b" d="M56 347q0 13 14 20h637q15-8 15-20 0-11-14-19l-318-1H72q-16 5-16 20zm0-194q0 15 16 20h636q14-10 14-20 0-13-15-20H70q-14 7-14 20z"/><path id="l" d="M164 157q0-24-16-40t-39-16h-7q46-79 122-79 70 0 102 60 19 33 19 128 0 103-27 139-26 33-58 33h-6q-78 0-118-68-4-7-7-8t-15-2q-17 0-19 6-2 4-2 175v129q0 50 5 50 2 2 4 2 1 0 21-8t55-16 75-8q71 0 136 28 8 4 13 4 8 0 8-18v-13q-82-97-205-97-31 0-56 6l-10 2V374q19 14 30 22t36 16 51 8q81 0 137-65t56-154q0-92-64-157T229-22q-81 0-130 54T50 154q0 24 11 38t23 18 23 4q25 0 41-17t16-40z"/><path id="m" d="M166 673q0 12 17 21h19q90-3 114-50 6-15 57-158t101-279 50-140q7-20 13-33t9-19 5-9 4-4 1-4-6-9h-68q-25 14-32 29t-51 134l-45 125-14-15q-13-16-47-55t-57-66q-25-29-62-72-51-60-63-70T83-12q-36 0-36 32 0 17 14 32t138 135q30 29 67 65t55 54l17 16q0 1-50 140t-54 150q-20 45-51 45-17 0-17 16z"/><path id="n" d="m60 749 4 1h22l28-24q94-85 137-212t43-264q0-68-10-131T261 12t-37-88-38-67-41-51-32-33-23-19l-4-4H63q-3 0-5 3t-3 9q1 1 11 13Q221-64 221 250T66 725q-10 12-11 13 0 8 5 11z"/><path id="o" d="M22 710v40h137V-250H22v40h97v920H22z"/><path id="p" d="M492 213q-20 0-20 13 0 4 5 24t5 35q0 31-21 38t-97 7h-52q-1-2-35-138T243 52q0-4 11-4t80-2q94 0 124 2t60 13q49 16 81 56t71 131q10 22 13 24 7 2 15 2 20 0 20-13Q613 7 608 2q-3-2-286-2H133Q31 0 31 11q0 2 3 14 4 16 8 18t23 3q27 0 60 3 14 3 19 12 2 5 71 281t70 280q0 7-4 7-8 3-53 5h-31q-6 6-6 8t2 17q4 17 10 21h554q7-4 7-11 0-5-13-112t-14-110q-2-7-20-7h-12q-7 5-7 13l3 23q3 24 3 52 0 30-7 50t-19 31-35 16-47 7-64 2h-47q-88-1-93-3-4-2-6-9-1-3-31-123t-31-122q23-1 48-1h26q66 0 91 15t45 81q4 16 6 18t17 3h8q3 0 5-1t2-1 2-4 3-4l-33-132q-33-133-36-135-3-3-16-3z"/><path id="q" d="M96 585q56 81 153 81 48 0 96-26t78-92q37-83 37-228 0-155-43-237-20-42-55-67t-61-31-51-7q-26 0-52 6t-61 32-55 67q-43 82-43 237 0 174 57 265zm225 12q-30 32-71 32-42 0-72-32-25-26-33-72t-8-192q0-158 8-208t36-79q28-30 69-30 40 0 68 30 29 30 36 84t8 203q0 145-8 191t-33 73z"/><path id="s" d="M137 683q1 0 72 5t73 6q12 0 12-9 0-11-36-151-38-148-38-151 0-2 7 5 61 54 130 54 54 0 87-27t34-79q0-51-38-158T402 50q1-14 5-19t15-5q28 0 52 30t39 82q3 11 6 13t16 2q20 0 20-8 0-1-4-15-16-59-51-97-34-43-81-43h-5q-47 0-68 27t-21 57q0 16 36 118t37 153q0 59-44 59h-5q-83 0-144-98l-7-13-34-135Q132 28 127 16q-13-27-44-27-14 0-24 9T48 16q0 14 73 304l74 296q0 13-7 16t-39 5h-21q-6 6-6 8t2 19q5 19 13 19z"/><path id="t" d="M127 463q-27 0-42 17t-16 44q0 55 48 98t116 43q35 0 44-1 74-12 113-53t40-89q0-52-34-101t-94-71l-3-2q0-1 9-3t29-9 38-21q82-53 82-140 0-79-62-138T238-22q-80 0-138 43T42 130q0 28 18 45t45 18q28 0 46-18t18-45q0-11-3-20t-7-16-11-12-12-8-10-4-8-3l-4-1q51-45 124-45 55 0 83 53 17 33 17 101v20q0 95-64 127-15 6-61 7l-42 1-3 2q-2 3-2 16 0 18 8 18 28 0 58 5 34 5 62 42t28 112v8q0 57-35 79-22 14-47 14-32 0-59-11t-38-23-11-12h3q3-1 8-2t10-5 12-7 10-11 8-15 3-20q0-22-14-39t-45-18z"/><path id="u" d="M287 628q0 7-57 9-23 0-30 1t-7 9q0 8 4 20t7 15q2 1 199 1 167-1 187-1t40-6q72-17 122-79t51-166q0-156-107-280T444 3l-14-2-194-1H72Q48 0 41 2t-8 9q0 2 3 14 4 16 8 18t23 3q27 0 60 3 14 3 19 12 3 4 72 278t69 289zm416-159q0 38-11 68t-26 47-37 29-39 16-35 7h-43q-17 0-33 1h-43q-44 0-50-10-2-4-73-288T242 52q0-4 11-4t77-1h19q14 0 24-1 126 0 208 82 36 36 59 84t43 127 20 130z"/></defs><g data-mml-node="math" stroke="currentColor" fill="currentColor" stroke-width="0"><g data-mml-node="msub"><use xlink:href="#a" data-mml-node="mi" transform="scale(1 -1)"/><g data-mml-node="TeXAtom"><g data-mml-node="mo" font-size="884" font-family="serif"><text data-variant="normal" transform="matrix(.707 0 0 .707 490 176.7)">к</text><text data-variant="normal" transform="matrix(.707 0 0 .707 798.888 176.7)">р</text></g></g></g><use xlink:href="#b" data-mml-node="mo" transform="matrix(1 0 0 -1 1439.2 0)"/><g data-mml-node="mfrac"><g data-mml-node="mrow"><use xlink:href="#c" data-mml-node="mo" transform="matrix(1 0 0 -1 2715 -710)"/><use xlink:href="#d" data-mml-node="mn" transform="matrix(1 0 0 -1 2993 -710)"/><use xlink:href="#e" data-mml-node="mo" transform="matrix(1 0 0 -1 3715.2 -710)"/><g data-mml-node="msub"><use xlink:href="#f" data-mml-node="mi" transform="matrix(1 0 0 -1 4715.4 -710)"/><g data-mml-node="TeXAtom"><use xlink:href="#d" data-mml-node="mn" transform="matrix(.707 0 0 -.707 5337.4 -560)"/></g></g><use xlink:href="#g" data-mml-node="mo" transform="matrix(1 0 0 -1 5741 -710)"/><use xlink:href="#d" data-mml-node="mn" transform="matrix(1 0 0 -1 6130 -710)"/><use xlink:href="#h" data-mml-node="mo" transform="matrix(1 0 0 -1 6852.2 -710)"/><use xlink:href="#d" data-mml-node="mn" transform="matrix(1 0 0 -1 7852.4 -710)"/><use xlink:href="#i" data-mml-node="mo" transform="matrix(1 0 0 -1 8352.4 -710)"/><g data-mml-node="mn" transform="matrix(1 0 0 -1 8797.1 -710)"><use xlink:href="#j"/><use xlink:href="#k" transform="translate(500)"/><use xlink:href="#l" transform="translate(1000)"/></g><g data-mml-node="msub"><use xlink:href="#m" data-mml-node="mi" transform="matrix(1 0 0 -1 10297.1 -710)"/><g data-mml-node="TeXAtom"><use xlink:href="#d" data-mml-node="mn" transform="matrix(.707 0 0 -.707 10880.1 -560)"/></g></g><use xlink:href="#n" data-mml-node="mo" transform="matrix(1 0 0 -1 11283.7 -710)"/><use xlink:href="#o" data-mml-node="mo" transform="matrix(1 0 0 -1 11672.7 -710)"/></g><g data-mml-node="mrow"><g data-mml-node="msup"><use xlink:href="#p" data-mml-node="mi" transform="matrix(1 0 0 -1 5970.5 793.9)"/><g data-mml-node="TeXAtom"><g data-mml-node="mn" transform="matrix(.707 0 0 -.707 6708.5 430.9)"><use xlink:href="#j"/><use xlink:href="#q" transform="translate(500)"/></g></g></g><use xlink:href="#r" data-mml-node="mtext" transform="matrix(1 0 0 -1 7465.6 793.9)"/><g data-mml-node="msup"><use xlink:href="#s" data-mml-node="mi" transform="matrix(1 0 0 -1 7715.6 793.9)"/><use xlink:href="#t" data-mml-node="mn" transform="matrix(.707 0 0 -.707 8291.6 430.9)"/></g></g><path stroke="none" d="M2615-220h9435.7v-60H2615z"/></g><g data-mml-node="mfrac"><g data-mml-node="mrow"><g data-mml-node="msub"><use xlink:href="#u" data-mml-node="mi" transform="matrix(1 0 0 -1 12390.7 -813.5)"/><g data-mml-node="TeXAtom"><text data-variant="normal" transform="matrix(.707 0 0 .707 13218.7 -636.8)" font-size="884" font-family="serif" data-mml-node="mo">н</text></g></g><use xlink:href="#h" data-mml-node="mo" transform="matrix(1 0 0 -1 13838.5 -813.5)"/><use xlink:href="#u" data-mml-node="mi" transform="matrix(1 0 0 -1 14838.7 -813.5)"/></g><g data-mml-node="mrow"><g data-mml-node="msub"><use xlink:href="#u" data-mml-node="mi" transform="matrix(1 0 0 -1 12390.7 686)"/><g data-mml-node="TeXAtom"><text data-variant="normal" transform="matrix(.707 0 0 .707 13218.7 862.7)" font-size="884" font-family="serif" data-mml-node="mo">н</text></g></g><use xlink:href="#e" data-mml-node="mo" transform="matrix(1 0 0 -1 13838.5 686)"/><use xlink:href="#u" data-mml-node="mi" transform="matrix(1 0 0 -1 14838.7 686)"/></g><path stroke="none" d="M12290.7-220h3476v-60h-3476z"/></g></g></svg>