<svg xmlns="http://www.w3.org/2000/svg" width="244.632" height="49.064" viewBox="0 -1563.5 13515.7 2710.9" xmlns:xlink="http://www.w3.org/1999/xlink"><defs><path id="f" d="M94 250q0 69 10 131t23 107 37 88 38 67 42 52 33 34 25 21h17q14 0 14-9 0-3-17-21t-41-53-49-86-42-138-17-193 17-192 41-139 49-86 42-53 17-21q0-9-15-9h-16l-28 24q-94 85-137 212T94 250z"/><path id="a" d="M34 156q0 114 86 200t189 86q70 0 112-40t57-98q6-29 7-67v-29q49 74 75 166 4 14 6 16t16 3q21 0 21-8 0-9-9-39t-36-85-61-100l-11-14 1-24q2-56 8-76t19-21q14 2 26 11t17 23q2 7 5 8t15 2q20 0 20-8 0-6-6-19-12-24-35-38t-44-15h-7q-67 0-91 72l-3 7-11-8q-10-8-30-20t-45-23-58-20-64-9q-79 0-124 50T34 156zM208 26q49 0 98 21t73 43l24 22q-2 143-7 178-14 115-92 115-69 0-121-73-27-40-44-108t-18-104q0-49 25-71t62-23z"/><path id="c" d="m213 578-13-5q-14-5-40-10t-58-7H83v46h19q47 2 87 15t56 24 28 22q2 3 12 3 9 0 17-6V361l1-300q7-7 12-9t24-4 62-2h26V0h-11q-21 3-159 3-136 0-157-3H88v46h64q16 0 25 1t16 3 8 2 6 5 6 4v517z"/><path id="d" d="M84 237v13l14 20h581q15-8 15-20t-15-20H98q-14 7-14 20z"/><path id="e" d="M21 287q0 14 15 48t48 71 74 36q41 0 66-23t26-64q-2-19-3-21 0-3-16-46t-33-97-16-86q0-43 14-60t42-18q23 0 43 11t31 23 27 33q0 1 5 20t14 59 19 74q38 150 42 157 13 27 43 27 13 0 21-7t11-12 2-9q0-13-49-210T391-23q-28-83-97-132t-138-50q-45 0-79 22t-34 66q0 22 7 37t19 22 20 10 17 3q44 0 44-42 0-20-12-35t-23-20-13-5l-3-1q2-5 19-12t34-7h8q17 0 26 2 33 9 61 38t43 62 23 56 8 30l-6-4q-6-4-19-11T270-6q-20-5-39-5-46 0-81 22t-46 71q-1 7-1 31 0 57 35 149t35 117v14q0 3-4 7t-11 4h-4q-23 0-42-19t-30-41-17-42-8-22q-2-2-16-2H27q-6 6-6 9z"/><path id="b" d="M56 347q0 13 14 20h637q15-8 15-20 0-11-14-19l-318-1H72q-16 5-16 20zm0-194q0 15 16 20h636q14-10 14-20 0-13-15-20H70q-14 7-14 20z"/><path id="h" d="M39 168q0 57 19 104t49 78 67 52 70 31 63 9h3q45 0 78-22t33-65q0-90-111-118-49-13-134-14-37 0-38-2 0-2-6-35t-7-58q0-47 21-74t63-28 93 19 92 66q9 10 12 10 4 0 13-9t10-14-9-16-30-27-46-31-63-25-76-10q-79 0-122 53T39 168zm334 185q-6 52-68 52-33 0-61-14t-45-34-29-41-16-36-5-19q0-1 20-1 113 0 158 24t46 69z"/><path id="i" d="M56 237v13l14 20h299v150l1 150q10 13 19 13 13 0 20-15V270h298q15-8 15-20t-15-20H409V-68q-8-14-18-14h-4q-12 0-18 14v298H70q-14 7-14 20z"/><path id="j" d="M73 647q0 10 4 23t12 13q1 0 72 5t73 6q12 0 12-9t-34-143q-8-34-17-70t-15-54l-4-19q0-3 6 3 49 40 101 40 62 0 100-46t39-116q0-111-79-201T173-11q-50 0-91 38T40 150v9q0 21 8 58t49 197q50 197 50 209t-38 14H83q-3 0-7 3t-3 7zm263-322v6q0 74-61 74-17 0-35-8t-33-21-26-24-18-22l-6-8-21-86q-22-86-22-122 0-48 24-72 16-16 40-16 33 0 67 32 25 23 40 56t33 105q18 72 18 106z"/><path id="k" d="m60 749 4 1h22l28-24q94-85 137-212t43-264q0-68-10-131T261 12t-37-88-38-67-41-51-32-33-23-19l-4-4H63q-3 0-5 3t-3 9q1 1 11 13Q221-64 221 250T66 725q-10 12-11 13 0 8 5 11z"/><path id="l" d="M109 429q-27 0-43 18t-16 44q0 71 53 123t132 52q91 0 152-56t62-145q0-43-20-82t-48-68-80-74q-36-31-100-92l-59-56 76-1q157 0 167 5 7 2 24 89v3h40v-3q-1-3-13-91T421 3V0H50v31q0 7 6 15t30 35q29 32 50 56 9 10 34 37t34 37 29 33 28 34 23 30 21 32 15 29 13 32 7 30 3 33q0 63-34 109t-97 46q-33 0-58-17t-35-33-10-19q0-1 5-1 18 0 37-14t19-46q0-25-16-42t-45-18z"/></defs><g data-mml-node="math" stroke="currentColor" fill="currentColor" stroke-width="0"><use xlink:href="#a" data-mml-node="mi" transform="scale(1 -1)"/><use xlink:href="#b" data-mml-node="mo" transform="matrix(1 0 0 -1 917.8 0)"/><use xlink:href="#c" data-mml-node="mn" transform="matrix(1 0 0 -1 1973.6 0)"/><use xlink:href="#d" data-mml-node="mo" transform="matrix(1 0 0 -1 2695.8 0)"/><g data-mml-node="mfrac"><g data-mml-node="mrow"><g data-mml-node="msub"><use xlink:href="#e" data-mml-node="mi" transform="matrix(1 0 0 -1 4460.5 -813.5)"/><g data-mml-node="TeXAtom"><text data-variant="normal" transform="matrix(.707 0 0 .707 4950.5 -636.8)" font-size="884" font-family="serif" data-mml-node="mo">п</text></g></g><use xlink:href="#d" data-mml-node="mo" transform="matrix(1 0 0 -1 5570.3 -813.5)"/><use xlink:href="#f" data-mml-node="mo" transform="matrix(1 0 0 -1 6570.5 -813.5)"/><g data-mml-node="msub"><use xlink:href="#e" data-mml-node="mi" transform="matrix(1 0 0 -1 6959.5 -813.5)"/><g data-mml-node="TeXAtom"><text data-variant="normal" transform="matrix(.707 0 0 .707 7449.5 -636.8)" font-size="884" font-family="serif" data-mml-node="mo">ф</text></g></g><use xlink:href="#g" data-mml-node="mtext" transform="matrix(1 0 0 -1 7904.3 -813.5)"/><use xlink:href="#h" data-mml-node="mi" transform="matrix(1 0 0 -1 8154.3 -813.5)"/><use xlink:href="#i" data-mml-node="mo" transform="matrix(1 0 0 -1 8842.6 -813.5)"/><g data-mml-node="msub"><use xlink:href="#e" data-mml-node="mi" transform="matrix(1 0 0 -1 9842.8 -813.5)"/><g data-mml-node="TeXAtom"><g data-mml-node="mo" font-size="884" font-family="serif"><text data-variant="normal" transform="matrix(.707 0 0 .707 10332.8 -636.8)">к</text><text data-variant="normal" transform="matrix(.707 0 0 .707 10641.688 -636.8)">р</text></g></g></g><use xlink:href="#g" data-mml-node="mtext" transform="matrix(1 0 0 -1 11004.2 -813.5)"/><use xlink:href="#j" data-mml-node="mi" transform="matrix(1 0 0 -1 11254.2 -813.5)"/><use xlink:href="#k" data-mml-node="mo" transform="matrix(1 0 0 -1 11683.2 -813.5)"/><use xlink:href="#g" data-mml-node="mtext" transform="matrix(1 0 0 -1 12072.2 -813.5)"/><use xlink:href="#j" data-mml-node="mi" transform="matrix(1 0 0 -1 12322.2 -813.5)"/></g><g data-mml-node="mrow"><g data-mml-node="msub"><use xlink:href="#e" data-mml-node="mi" transform="matrix(1 0 0 -1 3916 793.9)"/><g data-mml-node="TeXAtom"><text data-variant="normal" transform="matrix(.707 0 0 .707 4406 970.6)" font-size="884" font-family="serif" data-mml-node="mo">п</text></g></g><use xlink:href="#i" data-mml-node="mo" transform="matrix(1 0 0 -1 5025.8 793.9)"/><g data-mml-node="msub"><use xlink:href="#e" data-mml-node="mi" transform="matrix(1 0 0 -1 6026 793.9)"/><g data-mml-node="TeXAtom"><text data-variant="normal" transform="matrix(.707 0 0 .707 6516 970.6)" font-size="884" font-family="serif" data-mml-node="mo">б</text></g></g><use xlink:href="#i" data-mml-node="mo" transform="matrix(1 0 0 -1 7106.2 793.9)"/><use xlink:href="#f" data-mml-node="mo" transform="matrix(1 0 0 -1 8106.4 793.9)"/><g data-mml-node="msub"><use xlink:href="#e" data-mml-node="mi" transform="matrix(1 0 0 -1 8495.4 793.9)"/><g data-mml-node="TeXAtom"><text data-variant="normal" transform="matrix(.707 0 0 .707 8985.4 970.6)" font-size="884" font-family="serif" data-mml-node="mo">ф</text></g></g><use xlink:href="#i" data-mml-node="mo" transform="matrix(1 0 0 -1 9662.5 793.9)"/><g data-mml-node="msub"><use xlink:href="#e" data-mml-node="mi" transform="matrix(1 0 0 -1 10662.7 793.9)"/><g data-mml-node="TeXAtom"><g data-mml-node="mo" font-size="884" font-family="serif"><text data-variant="normal" transform="matrix(.707 0 0 .707 11152.7 970.6)">к</text><text data-variant="normal" transform="matrix(.707 0 0 .707 11461.588 970.6)">р</text></g></g></g><use xlink:href="#k" data-mml-node="mo" transform="matrix(1 0 0 -1 11824.2 793.9)"/><use xlink:href="#g" data-mml-node="mtext" transform="matrix(1 0 0 -1 12213.2 793.9)"/><g data-mml-node="msup"><use xlink:href="#j" data-mml-node="mi" transform="matrix(1 0 0 -1 12463.2 793.9)"/><use xlink:href="#l" data-mml-node="mn" transform="matrix(.707 0 0 -.707 12892.2 430.9)"/></g></g><path stroke="none" d="M3816-220h9579.7v-60H3816z"/></g></g></svg>