<svg xmlns="http://www.w3.org/2000/svg" width="106.696" height="33.664" viewBox="0 -1099.5 5895.1 1860" xmlns:xlink="http://www.w3.org/1999/xlink"><defs><path id="a" d="M117 59q0-33 25-33 37 0 63 105 6 20 10 21 2 1 10 1h16q3 0 5-2t2-7q-1-6-3-16t-11-38-20-47-31-37-46-17q-36 0-67 22T38 85q0 12 1 17l65 258q63 255 63 263 0 3-1 5t-4 4-5 2-8 1-8 1-9 1-10 0h-13q-3 0-8 1t-6 3-1 6q0 2 2 14 5 19 11 21t72 6q15 1 34 2t30 3 11 1q12 0 12-8 0-11-73-300T118 83v-8q0-6-1-10v-6z"/><path id="b" d="M96 585q56 81 153 81 48 0 96-26t78-92q37-83 37-228 0-155-43-237-20-42-55-67t-61-31-51-7q-26 0-52 6t-61 32-55 67q-43 82-43 237 0 174 57 265zm225 12q-30 32-71 32-42 0-72-32-25-26-33-72t-8-192q0-158 8-208t36-79q28-30 69-30 40 0 68 30 29 30 36 84t8 203q0 145-8 191t-33 73z"/><path id="c" d="M56 347q0 13 14 20h637q15-8 15-20 0-11-14-19l-318-1H72q-16 5-16 20zm0-194q0 15 16 20h636q14-10 14-20 0-13-15-20H70q-14 7-14 20z"/><path id="h" d="M1001 1150q16 0 19-18 0-5-279-888L460-643q-7-7-24-7h-12q-1 3-1 5t-2 5-2 9-4 14-7 23-9 34-14 48-18 64-24 84-31 105L203 119l-65-78-27 26 101 121 52 60 208-722 511 1614q5 10 18 10z"/><path id="d" d="M287 628q0 7-57 9-23 0-30 1t-7 9q0 8 4 20t7 15q2 1 199 1 167-1 187-1t40-6q72-17 122-79t51-166q0-156-107-280T444 3l-14-2-194-1H72Q48 0 41 2t-8 9q0 2 3 14 4 16 8 18t23 3q27 0 60 3 14 3 19 12 3 4 72 278t69 289zm416-159q0 38-11 68t-26 47-37 29-39 16-35 7h-43q-17 0-33 1h-43q-44 0-50-10-2-4-73-288T242 52q0-4 11-4t77-1h19q14 0 24-1 126 0 208 82 36 36 59 84t43 127 20 130z"/><path id="f" d="M131 289q0 32 16 65t56 61 97 27q62 0 90-27t29-60q0-32-17-47t-38-16q-13 0-24 8t-12 26q0 16 9 28t17 18 13 6q1 0 1 1 0 3-7 9t-25 11-39 6q-48 0-70-26t-23-53q0-25 19-35t55-17 52-15q66-29 66-96 0-28-11-56t-33-56-63-44-94-17q-77 0-109 29T53 87q0 39 21 56t44 17q15 0 28-9t14-31q0-26-18-44t-31-18q-2-1-3-1t-1-2q1-3 8-8t31-13 55-7q36 0 62 11t38 28 17 31 5 25q0 28-21 42t-48 17-59 15-47 35q-17 25-17 58z"/><path id="g" d="m213 578-13-5q-14-5-40-10t-58-7H83v46h19q47 2 87 15t56 24 28 22q2 3 12 3 9 0 17-6V361l1-300q7-7 12-9t24-4 62-2h26V0h-11q-21 3-159 3-136 0-157-3H88v46h64q16 0 25 1t16 3 8 2 6 5 6 4v517z"/></defs><g data-mml-node="math" stroke="currentColor" fill="currentColor" stroke-width="0"><g data-mml-node="msub"><use xlink:href="#a" data-mml-node="mi" transform="scale(1 -1)"/><g data-mml-node="TeXAtom"><use xlink:href="#b" data-mml-node="mn" transform="matrix(.707 0 0 -.707 298 150)"/></g></g><use xlink:href="#c" data-mml-node="mo" transform="matrix(1 0 0 -1 979.3 0)"/><g data-mml-node="msqrt"><use xlink:href="#d" data-mml-node="mi" transform="matrix(1 0 0 -1 3035.1 0)"/><use xlink:href="#e" data-mml-node="mtext" transform="matrix(1 0 0 -1 3863.1 0)"/><g data-mml-node="msub"><use xlink:href="#f" data-mml-node="mi" transform="matrix(1 0 0 -1 4113.1 0)"/><g data-mml-node="TeXAtom"><use xlink:href="#g" data-mml-node="mn" transform="matrix(.707 0 0 -.707 4582.1 176.7)"/><g data-mml-node="mo" font-size="884" font-family="serif"><text data-variant="normal" transform="matrix(.707 0 0 .707 4935.6 176.7)">п</text><text data-variant="normal" transform="matrix(.707 0 0 .707 5283.09 176.7)">л</text></g></g></g><use xlink:href="#e" data-mml-node="mtext" transform="matrix(1 0 0 -1 5645.1 0)"/><g data-mml-node="mo" transform="matrix(1 0 0 -1 2035.1 110.5)"><use xlink:href="#h"/></g><path stroke="none" d="M3035.1-979.5h2860v-60h-2860z"/></g></g></svg>