<svg data-name="Layer 1" xmlns="http://www.w3.org/2000/svg" viewBox="0 0 122.88 85.45"><path d="M74.69 32.21a.72.72 0 0 0-.52.21.72.72 0 0 0-.2.52v17.5a6.65 6.65 0 0 0-4.35 0v-17.5a5.12 5.12 0 0 1 5.09-5.1h43.08a5.12 5.12 0 0 1 5.09 5.1v47.42a5.12 5.12 0 0 1-5.09 5.09H78.45c1.14-1 2.84-2.69 4.55-4.36h34.81a.72.72 0 0 0 .73-.73V32.94a.72.72 0 0 0-.73-.73zM53.16 73v-7.13a2.59 2.59 0 0 1 2.58-2.58h13.87v-4.55a2.13 2.13 0 0 1 .86-1.82c1.44-1 2.85.35 3.85 1.25 2.81 2.57 8.49 8.39 10 9.66a2.09 2.09 0 0 1 0 3.28c-1.53 1.31-7.51 7.45-10.25 9.89-1 .85-2.26 1.89-3.58 1a2.14 2.14 0 0 1-.86-1.82v-4.56H55.74A2.62 2.62 0 0 1 53.16 73zM40.92 7.89l13.47 12.62H40.92V7.89zM13.71 33a2 2 0 0 1 1.47-.68h23.61a1.93 1.93 0 0 1 1.47.66 2.31 2.31 0 0 1 0 3.06 2 2 0 0 1-1.47.68H15.18a2 2 0 0 1-1.48-.67 2.33 2.33 0 0 1-.57-1.53 2.26 2.26 0 0 1 .58-1.52zm0 25.58a2 2 0 0 1 1.47-.67h30.39a2 2 0 0 1 1.43.63 2.28 2.28 0 0 1 .58 1.53 2.24 2.24 0 0 1-.57 1.53 2 2 0 0 1-1.48.67H15.18a2 2 0 0 1-1.44-.62v-.05a2.32 2.32 0 0 1 0-3.06zm32.43-13.45a2 2 0 0 1 1.47.68 2.32 2.32 0 0 1 0 3.06 2 2 0 0 1-1.48.67h-31a2 2 0 0 1-1.48-.67 2.32 2.32 0 0 1 0-3.06 2 2 0 0 1 1.43-.64zm-32.43-24.9a2 2 0 0 1 1.47-.68h9.38a2 2 0 0 1 1.43.63 2.25 2.25 0 0 1 .58 1.53 2.29 2.29 0 0 1-.54 1.48v.05a2 2 0 0 1-1.47.67h-9.38a2 2 0 0 1-1.44-.62 2.33 2.33 0 0 1-.57-1.54 2.27 2.27 0 0 1 .57-1.51zm48.18 2.37c0-1.05-1.44-2.26-2.12-2.92L40.4.83A2.19 2.19 0 0 0 38.67 0H4a4 4 0 0 0-4 4v69.08a4 4 0 0 0 4 4h42.79v-4.5H4.51V4.49h31.9v18.27A2.26 2.26 0 0 0 38.67 25h18.72v31.56h4.5v-34zm22.57 26.05a2.1 2.1 0 0 1-2-2.17 2.07 2.07 0 0 1 2-2.17H108a2.07 2.07 0 0 1 2 2.17 2.1 2.1 0 0 1-2 2.17H84.46zM91 62.79a2.11 2.11 0 0 1-2-2.17 2.07 2.07 0 0 1 2-2.17h17a2.07 2.07 0 0 1 2 2.17 2.1 2.1 0 0 1-2 2.17H91z"/></svg>