<svg data-name="Layer 1" xmlns="http://www.w3.org/2000/svg" viewBox="0 0 113.79 122.88"><path d="M65.59 67.32h38.82a9.41 9.41 0 0 1 9.38 9.38v36.79a9.41 9.41 0 0 1-9.38 9.39H65.59a9.41 9.41 0 0 1-9.38-9.39V76.7a9.41 9.41 0 0 1 9.38-9.38zM60 11.56l19.73 18.51H60V11.56zM20.87 54a2.14 2.14 0 0 0-2 2.23 2.12 2.12 0 0 0 2 2.23h38.78a2.14 2.14 0 0 0 2-2.23 2.1 2.1 0 0 0-2-2.23zm0 16a2.14 2.14 0 0 0-2 2.23 2.1 2.1 0 0 0 2 2.22h24.8V70zm0 16a2.14 2.14 0 0 0-2 2.23 2.1 2.1 0 0 0 2 2.23h24.8v-4.55zm0-47.89a2.14 2.14 0 0 0-2 2.23 2.11 2.11 0 0 0 2 2.23h22.94a2.14 2.14 0 0 0 2-2.23 2.11 2.11 0 0 0-2-2.23zm0-16a2.14 2.14 0 0 0-2 2.23 2.1 2.1 0 0 0 2 2.23h12.6a2.14 2.14 0 0 0 2-2.23 2.11 2.11 0 0 0-2-2.23zm69.85 10.61a3.28 3.28 0 0 0-2.39-3.17L59.23 1.21A3.27 3.27 0 0 0 56.69 0H5.91A5.91 5.91 0 0 0 0 5.91v101.21A5.91 5.91 0 0 0 5.91 113h39.85v-6.6H6.61V6.57h46.76v26.79a3.32 3.32 0 0 0 3.32 3.31h27.43v21.62h6.6V32.72zm6.45 65.1a2.4 2.4 0 0 0 2.06-1c1.08-1.62-.4-3.22-1.42-4.35-2.91-3.19-9.49-9-10.92-10.66a2.37 2.37 0 0 0-3.72 0c-1.49 1.73-8.43 7.86-11.19 11-1 1.08-2.15 2.56-1.15 4a2.42 2.42 0 0 0 2.07 1h5.17v9.27A2.92 2.92 0 0 0 81 110h8.1a2.92 2.92 0 0 0 2.9-2.91v-9.27z" style="fill-rule:evenodd"/></svg>