<svg xmlns="http://www.w3.org/2000/svg" width="105.84" height="43.184" viewBox="0 -1509.9 5847.5 2385.9" xmlns:xlink="http://www.w3.org/1999/xlink"><defs><path id="a" d="M29-194q-6 6-6 8 0 3 79 320t84 331q22 68 57 119t66 74q56 47 120 47h2q62 0 102-38t40-97q0-105-104-174l13-13q51-51 51-131 0-113-85-187T257-10q-30 0-54 8t-38 19-22 23-12 19-5 6L62-188q-2-6-20-6H29zm324 625q39 0 74-12l5 3 7 7 10 10q7 7 12 14t11 18 12 24 9 29 8 36q2 9 2 33 0 18-1 23-15 51-76 51-42 0-79-24t-61-61-39-68-23-59q-5-16-38-147t-34-140q-1-5-1-21 0-48 22-79 31-42 87-42 42 0 89 25t76 86q16 34 24 77t8 65q0 58-35 93-42-14-75-14h-10q-79 0-79 31 0 7 3 14 14 28 92 28z"/><path id="b" d="M58 8q0 15 6 27 0 1 265 299t267 301l-10 2H476q-34 0-56-2t-55-11-54-26-45-50-38-79l-2-6q-1-3-2-5t-1-5-1-3l-1-2q-3-5-19-5-17 0-20 10l32 108q14 45 27 90 8 28 12 30 3 2 234 2h231q5-5 5-8 0-2-6-26Q189 54 188 52l-3-3h89q95 1 103 2 75 9 123 49t79 147q8 25 11 30t13 5h4q21 0 21-11Q547 5 541 2q-3-2-241-2H124Q58 0 58 8z"/><path id="c" d="M56 347q0 13 14 20h637q15-8 15-20 0-11-14-19l-318-1H72q-16 5-16 20zm0-194q0 15 16 20h636q14-10 14-20 0-13-15-20H70q-14 7-14 20z"/><path id="d" d="M285 628q0 7-57 9-23 0-30 1t-7 9q0 2 2 14 6 20 10 21 2 1 11 1h5q41-2 136-2h63q29 0 45 1t20 0q17 0 17-8 0-5-3-14-1-2-1-6t-1-6-2-4-3-3-4-2-7-1-9-1-14 0q-40-1-51-3t-18-11l-81-318q1 0 184 144t188 148q14 14 14 23 0 15-25 17-16 0-16 11 0 2 3 14t5 15q3 5 17 5 4 0 35-1t80-1q23 0 48 1t30 1q20 0 20-10 0-22-8-30-3-5-19-5-75-5-136-51-16-10-70-52t-100-79l-47-37 9-22q9-22 28-67t35-85q75-177 80-183 2-2 5-4 14-10 51-11h21q6-8 6-9t-3-18q-4-13-10-19h-11q-40 3-95 3-122 0-137-3h-10q-6 6-6 9t2 18q4 13 6 16t11 3h3q50 0 50 25 0 4-27 70t-32 75l-58 138-68-53-68-53-23-93q-23-92-23-97 0-7 8-9t50-3h31q6-9 6-11 0-16-7-30-5-5-16-5-3 0-37 1T180 2H85Q52 2 49 1 31 1 31 11q0 2 3 14 4 16 8 18t23 3q27 0 60 3 14 3 19 12 3 4 72 278t69 289z"/><path id="e" d="M109 429q-27 0-43 18t-16 44q0 71 53 123t132 52q91 0 152-56t62-145q0-43-20-82t-48-68-80-74q-36-31-100-92l-59-56 76-1q157 0 167 5 7 2 24 89v3h40v-3q-1-3-13-91T421 3V0H50v31q0 7 6 15t30 35q29 32 50 56 9 10 34 37t34 37 29 33 28 34 23 30 21 32 15 29 13 32 7 30 3 33q0 63-34 109t-97 46q-33 0-58-17t-35-33-10-19q0-1 5-1 18 0 37-14t19-46q0-25-16-42t-45-18z"/><path id="f" d="M56 237v13l14 20h299v150l1 150q10 13 19 13 13 0 20-15V270h298q15-8 15-20t-15-20H409V-68q-8-14-18-14h-4q-12 0-18 14v298H70q-14 7-14 20z"/><path id="g" d="m213 578-13-5q-14-5-40-10t-58-7H83v46h19q47 2 87 15t56 24 28 22q2 3 12 3 9 0 17-6V361l1-300q7-7 12-9t24-4 62-2h26V0h-11q-21 3-159 3-136 0-157-3H88v46h64q16 0 25 1t16 3 8 2 6 5 6 4v517z"/><path id="h" d="M84 237v13l14 20h581q15-8 15-20t-15-20H98q-14 7-14 20z"/></defs><g data-mml-node="math" stroke="currentColor" fill="currentColor" stroke-width="0"><g data-mml-node="msub"><use xlink:href="#a" data-mml-node="mi" transform="scale(1 -1)"/><g data-mml-node="TeXAtom"><use xlink:href="#b" data-mml-node="mi" transform="matrix(.707 0 0 -.707 566 150)"/></g></g><use xlink:href="#c" data-mml-node="mo" transform="matrix(1 0 0 -1 1376.7 0)"/><g data-mml-node="mfrac"><g data-mml-node="mrow"><g data-mml-node="msup"><use xlink:href="#d" data-mml-node="mi" transform="matrix(1 0 0 -1 2652.5 -676)"/><use xlink:href="#e" data-mml-node="mn" transform="matrix(.707 0 0 -.707 3501.5 -1039)"/></g><use xlink:href="#f" data-mml-node="mo" transform="matrix(1 0 0 -1 4127.3 -676)"/><use xlink:href="#g" data-mml-node="mn" transform="matrix(1 0 0 -1 5127.5 -676)"/></g><g data-mml-node="mrow"><g data-mml-node="msup"><use xlink:href="#d" data-mml-node="mi" transform="matrix(1 0 0 -1 2652.5 793.9)"/><use xlink:href="#e" data-mml-node="mn" transform="matrix(.707 0 0 -.707 3501.5 430.9)"/></g><use xlink:href="#h" data-mml-node="mo" transform="matrix(1 0 0 -1 4127.3 793.9)"/><use xlink:href="#g" data-mml-node="mn" transform="matrix(1 0 0 -1 5127.5 793.9)"/></g><path stroke="none" d="M2552.5-220h3175v-60h-3175z"/></g></g></svg>