<svg xmlns="http://www.w3.org/2000/svg" width="245.848" height="64.912" viewBox="0 -2043.3 13582.9 3586.6" xmlns:xlink="http://www.w3.org/1999/xlink"><defs><path id="A" d="M722-14h-2q-12 0-18 14v306l1 306q10 13 19 13 12 0 20-15V0q-8-14-18-14h-2z"/><path id="a" d="M50 252q0 115 67 221t169 168 204 63q90 0 143-51 9-10 15-17t8-10l1-3q3 0 27 26 7 6 15 14t16 16 10 11l15 15h6q14 0 14-7 0-4-32-137-36-139-36-140-2-5-5-6t-18-2h-16q-6 6-6 9 0 1 1 7t2 20 1 32q0 71-32 124t-109 54q-26 0-56-7t-72-24-83-56-73-93q-32-57-51-133t-19-124q0-114 76-164 48-34 118-34 91 0 162 68t94 148q4 13 6 15t16 2q20 0 20-9 0-5-1-9-29-107-124-184T319-22q-113 0-191 75T50 252z"/><path id="c" d="M56 347q0 13 14 20h637q15-8 15-20 0-11-14-19l-318-1H72q-16 5-16 20zm0-194q0 15 16 20h636q14-10 14-20 0-13-15-20H70q-14 7-14 20z"/><path id="d" d="M21 287q1 6 3 16t12 38 20 47 32 37 44 17 43-7 30-18 16-22 8-19l2-7q0-2 1-2l11 11q60 64 141 64 17 0 31-2t26-7 19-10 15-12 10-13 8-13 4-12 3-9 2-7l8 10q63 75 149 75 54 0 87-27t34-79q0-51-38-158T704 50q1-14 5-19t15-5q28 0 52 30t39 82q3 11 6 13t16 2q20 0 20-8 0-1-4-15-8-29-22-57t-46-56-69-27q-47 0-68 27t-21 56q0 19 36 120t37 152q0 59-44 59h-5q-86 0-145-101l-7-12-33-134Q433 26 428 16q-13-27-43-27-13 0-21 7T353 8t-3 10q0 11 34 143l36 146q3 15 3 38 0 59-44 59h-5q-86 0-145-101l-7-12-33-134Q156 26 151 16q-13-27-43-27-13 0-21 6T76 7t-2 10q0 13 38 164 39 154 39 161 3 15 3 27 0 36-25 36-22 0-37-28t-23-61-12-36q-2-2-16-2H27q-6 6-6 9z"/><path id="e" d="M33 157q0 101 76 192t171 92q51 0 90-49 16 30 46 30 13 0 23-8t10-20q0-13-37-160T374 68q0-25 7-33t21-9q9 1 20 9 21 20 41 96 6 20 10 21 2 1 10 1h4q19 0 19-9 0-6-5-27t-20-54-32-50Q436 0 417-8q-8-2-24-2-34 0-57 15t-30 31l-6 15q-1 1-4-1l-4-4q-59-56-120-56-55 0-97 40T33 157zm318 171q0 6-5 22t-23 35-46 20q-35 0-67-31t-50-81q-29-79-41-164v-11q0-8-1-12 0-45 18-62t43-18q38 0 75 33t44 51q2 4 27 107t26 111z"/><path id="f" d="M52 289q7 42 54 97t116 56q35 0 64-18t43-45q42 63 101 63 37 0 64-22t28-59q0-29-14-47t-27-22-23-4q-19 0-31 11t-12 29q0 46 50 63-11 13-40 13-13 0-19-2-38-16-56-66-60-221-60-258 0-28 16-40t35-12q37 0 73 33t49 81q3 10 6 11t16 2h4q15 0 15-8 0-1-2-11-16-57-62-101T333-11q-70 0-106 63-41-62-94-62h-6q-49 0-70 26T35 71q0 32 19 52t45 20q43 0 43-42 0-20-12-35t-23-20-13-5l-3-1q0-1 6-4t16-7 19-3q36 0 62 45 9 16 23 68t28 108 16 66q5 27 5 39 0 28-15 40t-34 12q-40 0-75-32t-49-82q-2-9-5-10t-16-2H58q-6 6-6 11z"/><path id="g" d="m712 899 6-6v-28q0-11-14-19-77-53-127-136t-67-185q0-1-1-4-4-28-5-172V240q0-242-1-244-1-4-9-5t-50-1q-52 0-54 1-3 1-4 4-2 10-2 235v82q0 50-1 70 0 99 9 153t42 121q76 150 230 236l13 7h35z"/><path id="h" d="m718-893-6-6h-35l-11 6q-124 68-198 179t-83 238q-1 10-1 194 0 285 1 287l4 4q3 1 55 1 42 0 50-1t9-5q1-2 1-243v-127q0-104 4-147t22-96q16-48 39-89t48-69 44-45 38-31 18-13 1-20v-17z"/><path id="i" d="M389 1159q2 1 66 1 41 0 43-1 3-1 4-4 2-10 2-231 0-233-1-242-9-133-78-243T243 259l-14-9 14-9q106-66 178-175t82-248q1-9 1-242v-205q0-29-5-30h-1q-2-1-54-1t-54 1q-3 1-4 4-2 10-2 230v143q0 106-7 166T342 10q-17 44-41 82t-46 63-41 41-31 26-12 10q-1 1-1 18t1 18q0 1 20 16t49 47 60 76 54 117 29 155q1 12 1 246 0 227 1 230l4 4z"/><path id="j" d="M384 150v116q0 38 5 43 2 1 66 1 41 0 43-1 4-1 5-11 1-15 1-148V12q0-20-5-21h-1q-2-1-54-1t-54 1q-4 1-5 11-1 15-1 148z"/><path id="k" d="m213 578-13-5q-14-5-40-10t-58-7H83v46h19q47 2 87 15t56 24 28 22q2 3 12 3 9 0 17-6V361l1-300q7-7 12-9t24-4 62-2h26V0h-11q-21 3-159 3-136 0-157-3H88v46h64q16 0 25 1t16 3 8 2 6 5 6 4v517z"/><path id="l" d="M78 370q0 24 17 42t43 18q24 0 42-16t19-43q0-25-17-43t-43-18-43 17-18 43zm0-310q0 25 16 43t43 18q65 0 65-113 0-52-19-102t-39-75-26-25q-3 0-12 8t-11 12q-1 3 12 19t30 48 23 69q1 6 2 16t3 18 0 8q0 1-4 0t-19-4q-32 0-48 18T78 60z"/><path id="y" d="M702 589q4 12 16 16h343q15-8 15-20 0-13-15-20H742V0q-8-14-18-14h-4q-12 0-18 14v589z"/><path id="z" d="m742-871-5-5-4-4q-1-1-3-2t-6-2-10-1h-12L222 569l-42-85q-42-85-43-85-6 5-13 13l-13 13 154 311L702-586v754l1 754q10 13 19 13 12 0 20-15V-871z"/><path id="b" d="M48 1Q31 1 31 11q0 2 3 14 4 16 8 18t23 3q27 0 60 3 14 3 19 12 2 5 71 281t70 280q0 7-4 7-8 3-53 5h-31q-6 6-6 8t2 17q4 17 10 21h539q7-4 7-11 0-5-13-112t-14-110q-2-7-20-7h-12q-7 5-7 13 0 1 3 24t3 53q0 30-7 49t-19 31-37 16-51 7-72 1h-23q-82-1-87-3t-7-8q-1-1-34-131l-32-129h78q20 0 28 1t22 3 24 7 17 12q13 12 22 33t13 38 5 18q3 5 19 5h12q7-5 7-10 0-3-31-131t-34-132q-2-7-20-7h-12q-7 6-7 12 0 3 5 22t5 40q0 29-20 36t-89 7h-55l-32-127Q245 66 245 60q0-14 89-14h25q6-6 6-7t-2-20q-4-13-10-19h-17q-41 2-151 2H86Q52 2 48 1z"/><path id="m" d="M132-11q-34 0-34 33v11l13 28q75 158 109 273l8 24h-32q-38 0-54-3t-39-19q-11-7-22-18t-19-21-9-12q-2-1-15-1-19 0-19 10 0 6 19 35t55 62 71 38q7 2 225 2 160 0 164-1 20-7 20-28 0-31-32-42-6-2-69-2h-64l-3-17q-12-72-12-119 0-52 9-93t19-64 10-28q0-17-14-32t-36-15q-11 0-18 3t-16 24-16 60q-1 9-1 44 0 49 9 105t18 92 10 40h-98l-1-4q0-3-19-79t-43-161-31-97q-11-28-43-28z"/><path id="o" d="M287 628q0 7-57 9-23 0-30 1t-7 9q0 8 4 20t7 15q2 1 199 1 167-1 187-1t40-6q72-17 122-79t51-166q0-156-107-280T444 3l-14-2-194-1H72Q48 0 41 2t-8 9q0 2 3 14 4 16 8 18t23 3q27 0 60 3 14 3 19 12 3 4 72 278t69 289zm416-159q0 38-11 68t-26 47-37 29-39 16-35 7h-43q-17 0-33 1h-43q-44 0-50-10-2-4-73-288T242 52q0-4 11-4t77-1h19q14 0 24-1 126 0 208 82 36 36 59 84t43 127 20 130z"/><path id="p" d="M42 313q0 163 81 258t180 95q69 0 99-36t30-80q0-25-14-40t-39-15q-23 0-38 14t-15 39q0 44 47 53-22 22-62 25-71 0-117-60-47-66-47-202l1-4q5 6 8 13 41 60 107 60h4q46 0 81-19 24-14 48-40t39-57q21-49 21-107v-18q0-23-5-43-11-59-64-115T253-22q-28 0-54 8t-56 30-51 59-36 97-14 141zm215 84q-30 0-52-17t-34-45-17-57-6-62q0-83 12-119t38-58q24-18 53-18 51 0 78 38 13 18 18 45t5 105q0 80-5 107t-18 45q-27 36-72 36z"/><path id="q" d="M21 287q1 6 3 16t12 38 20 47 33 37 46 17q36 0 60-18t30-34 6-21q0-2 1-2l11 11q61 64 139 64 54 0 87-27t34-79-38-157-38-127q0-26 17-26 6 0 9 1 29 5 52 38t35 80q2 8 20 8 20 0 20-8 0-1-4-15-8-29-22-57t-46-56-69-27q-47 0-68 27t-21 56q0 19 36 120t37 152q0 59-44 59h-5q-86 0-145-101l-7-12-33-134Q156 26 151 16q-13-27-43-27-13 0-21 6T76 7t-2 10q0 13 38 163t40 163q1 5 1 23 0 39-24 39-38 0-63-100-6-20-6-21-2-6-19-6H27q-6 6-6 9z"/><path id="r" d="M109 429q-27 0-43 18t-16 44q0 71 53 123t132 52q91 0 152-56t62-145q0-43-20-82t-48-68-80-74q-36-31-100-92l-59-56 76-1q157 0 167 5 7 2 24 89v3h40v-3q-1-3-13-91T421 3V0H50v31q0 7 6 15t30 35q29 32 50 56 9 10 34 37t34 37 29 33 28 34 23 30 21 32 15 29 13 32 7 30 3 33q0 63-34 109t-97 46q-33 0-58-17t-35-33-10-19q0-1 5-1 18 0 37-14t19-46q0-25-16-42t-45-18z"/><path id="s" d="M366 683q1 0 72 5t73 6q12 0 12-8 0-7-73-302T375 83t-1-15q0-42 28-42 9 1 20 9 21 20 41 96 6 20 10 21 2 1 10 1h8q15 0 15-8 0-5-3-16-13-50-30-81T445 8 417-8q-8-2-24-2-34 0-57 15t-30 31l-6 15q-1 1-4-1l-4-4q-59-56-120-56-55 0-97 40T33 157q0 48 20 98t48 86q47 57 94 79t85 22q56 0 84-42 5-6 5-4 1 4 27 109t28 111q0 13-7 16t-39 5h-21q-6 6-6 8t2 19q5 19 13 19zm-14-357q-23 79-75 79-35 0-67-31t-50-81q-29-79-41-164v-11q0-8-1-12 0-45 18-62t43-18q54 0 111 72l8 11 54 217z"/><path id="t" d="M56 237v13l14 20h299v150l1 150q10 13 19 13 13 0 20-15V270h298q15-8 15-20t-15-20H409V-68q-8-14-18-14h-4q-12 0-18 14v298H70q-14 7-14 20z"/><path id="u" d="M137 683q1 0 72 5t73 6q12 0 12-9 0-11-36-151-38-148-38-151 0-2 7 5 61 54 130 54 54 0 87-27t34-79q0-51-38-158T402 50q1-14 5-19t15-5q28 0 52 30t39 82q3 11 6 13t16 2q20 0 20-8 0-1-4-15-16-59-51-97-34-43-81-43h-5q-47 0-68 27t-21 57q0 16 36 118t37 153q0 59-44 59h-5q-83 0-144-98l-7-13-34-135Q132 28 127 16q-13-27-44-27-14 0-24 9T48 16q0 14 73 304l74 296q0 13-7 16t-39 5h-21q-6 6-6 8t2 19q5 19 13 19z"/><path id="v" d="M96 585q56 81 153 81 48 0 96-26t78-92q37-83 37-228 0-155-43-237-20-42-55-67t-61-31-51-7q-26 0-52 6t-61 32-55 67q-43 82-43 237 0 174 57 265zm225 12q-30 32-71 32-42 0-72-32-25-26-33-72t-8-192q0-158 8-208t36-79q28-30 69-30 40 0 68 30 29 30 36 84t8 203q0 145-8 191t-33 73z"/><path id="w" d="M78 35v25l16 43 43 18q28 0 50-25t23-88q0-35-9-68t-21-57-26-41-24-27-13-9q-4 0-13 9t-9 13q0 4 11 16t25 30 26 50 16 73V9l-1-1q-2-1-5-2t-6-3-9-2-12-1q-27 0-44 17z"/><path id="x" d="M164 157q0-24-16-40t-39-16h-7q46-79 122-79 70 0 102 60 19 33 19 128 0 103-27 139-26 33-58 33h-6q-78 0-118-68-4-7-7-8t-15-2q-17 0-19 6-2 4-2 175v129q0 50 5 50 2 2 4 2 1 0 21-8t55-16 75-8q71 0 136 28 8 4 13 4 8 0 8-18v-13q-82-97-205-97-31 0-56 6l-10 2V374q19 14 30 22t36 16 51 8q81 0 137-65t56-154q0-92-64-157T229-22q-81 0-130 54T50 154q0 24 11 38t23 18 23 4q25 0 41-17t16-40z"/><path id="B" d="M170 875q0 17 2 20t17 4h22l11-6q123-67 198-178t83-239q1-9 1-246V21q0-30-5-30h-1q-2-1-54-1-42 0-50 1t-9 5q-1 2-1 244v126q0 103-4 147t-22 96q-16 48-39 89t-48 69-44 45-38 31-18 13-1 19z"/><path id="C" d="M384-239v182q0 61 5 66 2 1 66 1 41 0 43-1 3-1 4-4 2-10 2-235v-81q0-50 1-70 0-105-13-170t-57-140q-78-129-213-202l-11-6h-16q-19 0-22 3t-3 22q0 16 1 19t13 9q78 53 128 137t66 184q0 1 1 3 4 29 5 171v112z"/><path id="D" d="M389 1159q2 1 66 1 41 0 43-1 3-1 4-4 2-10 2-230V782q0-106 7-166t35-126q17-44 41-82t46-63 41-41 31-26 12-10q1-1 1-18t-1-18q0-1-20-16t-49-47-60-76-54-117-29-155q-1-12-1-246v-204q0-29-5-30h-1q-2-1-54-1t-54 1q-3 1-4 4-2 10-2 231 0 233 1 242 9 133 78 243t182 180l14 9-14 9q-106 66-178 175t-82 248q-1 10-1 191 0 280 1 282l4 4z"/></defs><g data-mml-node="math" stroke="currentColor" fill="currentColor" stroke-width="0"><g data-mml-node="msub"><use xlink:href="#a" data-mml-node="mi" transform="scale(1 -1)"/><g data-mml-node="TeXAtom"><use xlink:href="#b" data-mml-node="mi" transform="matrix(.707 0 0 -.707 715 150)"/></g></g><use xlink:href="#c" data-mml-node="mo" transform="matrix(1 0 0 -1 1572.4 0)"/><use xlink:href="#d" data-mml-node="mi" transform="matrix(1 0 0 -1 2628.2 0)"/><use xlink:href="#e" data-mml-node="mi" transform="matrix(1 0 0 -1 3506.2 0)"/><use xlink:href="#f" data-mml-node="mi" transform="matrix(1 0 0 -1 4035.2 0)"/><g data-mml-node="mrow"><g data-mml-node="mo" transform="matrix(1 0 0 -1 4607.2 0)"><use xlink:href="#g" transform="translate(0 1144.3)"/><use xlink:href="#h" transform="translate(0 -644.3)"/><use xlink:href="#i"/><svg width="889" height="174.3" y="1060" viewBox="0 30.7 889 174.3"><use xlink:href="#j" transform="scale(1 .857)"/></svg><svg width="889" height="174.3" y="-734.3" viewBox="0 30.7 889 174.3"><use xlink:href="#j" transform="scale(1 .857)"/></svg></g><use xlink:href="#k" data-mml-node="mn" transform="matrix(1 0 0 -1 5496.2 0)"/><use xlink:href="#l" data-mml-node="mo" transform="matrix(1 0 0 -1 5996.2 0)"/><g data-mml-node="msqrt"><g data-mml-node="mfrac"><g data-mml-node="mfrac"><g data-mml-node="mrow"><use xlink:href="#m" data-mml-node="mi" transform="matrix(.707 0 0 -.707 9370.1 -1269.9)"/><use xlink:href="#n" data-mml-node="mtext" transform="matrix(.707 0 0 -.707 9773.09 -1269.9)"/><g data-mml-node="msub"><use xlink:href="#o" data-mml-node="mi" transform="matrix(.707 0 0 -.707 9949.84 -1269.9)"/><g data-mml-node="TeXAtom"><use xlink:href="#p" data-mml-node="mn" transform="matrix(.49985 0 0 -.49985 10535.236 -1163.85)"/></g></g></g><use xlink:href="#q" data-mml-node="mi" transform="matrix(.707 0 0 -.707 9883.3 -467.8)"/><path stroke="none" d="M9270.1-1032.8h1650.7v-60H9270.1z"/></g><g data-mml-node="mrow"><use xlink:href="#r" data-mml-node="mn" transform="matrix(1 0 0 -1 7716.9 844.7)"/><use xlink:href="#s" data-mml-node="mi" transform="matrix(1 0 0 -1 8216.9 844.7)"/><use xlink:href="#t" data-mml-node="mo" transform="matrix(1 0 0 -1 8959.1 844.7)"/><g data-mml-node="mfrac"><g data-mml-node="mrow"><use xlink:href="#p" data-mml-node="mn" transform="matrix(.707 0 0 -.707 10836.2 450.7)"/><use xlink:href="#u" data-mml-node="mi" transform="matrix(.707 0 0 -.707 11189.7 450.7)"/></g><g data-mml-node="mrow"><use xlink:href="#d" data-mml-node="mi" transform="matrix(.707 0 0 -.707 10179.3 1189.7)"/><use xlink:href="#t" data-mml-node="mo" transform="matrix(.707 0 0 -.707 10800.046 1189.7)"/><use xlink:href="#v" data-mml-node="mn" transform="matrix(.707 0 0 -.707 11350.092 1189.7)"/><use xlink:href="#w" data-mml-node="mo" transform="matrix(.707 0 0 -.707 11703.592 1189.7)"/><use xlink:href="#x" data-mml-node="mn" transform="matrix(.707 0 0 -.707 11900.138 1189.7)"/></g><path stroke="none" d="M10079.3 624.7H12354v-60h-2274.7z"/></g></g><path stroke="none" d="M7616.9-220H12574v-60H7616.9z"/></g><g data-mml-node="mo" transform="matrix(1 0 0 -1 6440.9 0)"><use xlink:href="#y" transform="translate(0 1378.3)"/><use xlink:href="#z" transform="translate(0 -441.9)"/><svg width="1056" height="1071.2" y="393.1" viewBox="0 232.6 1056 1071.2"><use xlink:href="#A" transform="scale(1 2.515)"/></svg></g><path stroke="none" d="M7496.9-1923.3H12694v-60H7496.9z"/></g><g data-mml-node="mo" transform="matrix(1 0 0 -1 12694 0)"><use xlink:href="#B" transform="translate(0 1144.3)"/><use xlink:href="#C" transform="translate(0 -644.3)"/><use xlink:href="#D"/><svg width="889" height="174.3" y="1060" viewBox="0 30.7 889 174.3"><use xlink:href="#j" transform="scale(1 .857)"/></svg><svg width="889" height="174.3" y="-734.3" viewBox="0 30.7 889 174.3"><use xlink:href="#j" transform="scale(1 .857)"/></svg></g></g></g></svg>