<svg xmlns="http://www.w3.org/2000/svg" width="92.848" height="22.808" viewBox="0 -904.5 5129.7 1260" xmlns:xlink="http://www.w3.org/1999/xlink"><defs><path id="a" d="M117 59q0-33 25-33 37 0 63 105 6 20 10 21 2 1 10 1h16q3 0 5-2t2-7q-1-6-3-16t-11-38-20-47-31-37-46-17q-36 0-67 22T38 85q0 12 1 17l65 258q63 255 63 263 0 3-1 5t-4 4-5 2-8 1-8 1-9 1-10 0h-13q-3 0-8 1t-6 3-1 6q0 2 2 14 5 19 11 21t72 6q15 1 34 2t30 3 11 1q12 0 12-8 0-11-73-300T118 83v-8q0-6-1-10v-6z"/><path id="b" d="M96 585q56 81 153 81 48 0 96-26t78-92q37-83 37-228 0-155-43-237-20-42-55-67t-61-31-51-7q-26 0-52 6t-61 32-55 67q-43 82-43 237 0 174 57 265zm225 12q-30 32-71 32-42 0-72-32-25-26-33-72t-8-192q0-158 8-208t36-79q28-30 69-30 40 0 68 30 29 30 36 84t8 203q0 145-8 191t-33 73z"/><path id="c" d="M56 347q0 13 14 20h637q15-8 15-20 0-11-14-19l-318-1H72q-16 5-16 20zm0-194q0 15 16 20h636q14-10 14-20 0-13-15-20H70q-14 7-14 20z"/><path id="g" d="M263 249q1 0 52-119t102-238 53-120l255 530q256 535 257 537 7 11 19 11 7 0 12-6t7-12v-6L741 243Q645 43 540-176q-61-127-71-148t-16-24q-4-2-17-2l-12 1L315-96Q206 156 205 156l-34-26q-33-26-34-26l-26 26 152 119z"/><path id="d" d="M287 628q0 7-57 9-23 0-30 1t-7 9q0 8 4 20t7 15q2 1 199 1 167-1 187-1t40-6q72-17 122-79t51-166q0-156-107-280T444 3l-14-2-194-1H72Q48 0 41 2t-8 9q0 2 3 14 4 16 8 18t23 3q27 0 60 3 14 3 19 12 3 4 72 278t69 289zm416-159q0 38-11 68t-26 47-37 29-39 16-35 7h-43q-17 0-33 1h-43q-44 0-50-10-2-4-73-288T242 52q0-4 11-4t77-1h19q14 0 24-1 126 0 208 82 36 36 59 84t43 127 20 130z"/><path id="f" d="M308 24q59 0 108 52t50 121q0 63-52 87-106 27-136 37t-42 20q-60 42-60 121 0 61 32 111t65 75q29 25 70 40t64 16h18q96 0 139-64 1 0 13 13t26 29 20 22h4q3 0 5 1 13 0 13-7t-28-121-32-118-16-3q-20 0-20 9 0 6 1 10 0 3 1 19t2 26q0 34-9 59t-18 37-25 25q-36 21-82 21-57 0-106-46t-50-106q0-30 15-52t41-31q4-2 70-19t67-18q34-11 66-48t32-100q0-26-8-56-5-22-18-49t-36-59-66-60-94-38q-12-2-34-2-99 0-154 55l-10 11-28-31Q83-14 78-18t-13-4q-13 0-13 8 0 3 58 235 2 6 20 6h13q6-6 6-11 0-2-1-9t-4-21-2-33q2-39 18-66t43-40 52-18 53-5z"/></defs><g data-mml-node="math" stroke="currentColor" fill="currentColor" stroke-width="0"><g data-mml-node="msub"><use xlink:href="#a" data-mml-node="mi" transform="scale(1 -1)"/><g data-mml-node="TeXAtom"><use xlink:href="#b" data-mml-node="mn" transform="matrix(.707 0 0 -.707 298 150)"/></g></g><use xlink:href="#c" data-mml-node="mo" transform="matrix(1 0 0 -1 979.3 0)"/><g data-mml-node="msqrt"><use xlink:href="#d" data-mml-node="mi" transform="matrix(1 0 0 -1 3035.1 0)"/><use xlink:href="#e" data-mml-node="mtext" transform="matrix(1 0 0 -1 3863.1 0)"/><g data-mml-node="msub"><use xlink:href="#f" data-mml-node="mi" transform="matrix(1 0 0 -1 4113.1 0)"/><g data-mml-node="TeXAtom"><use xlink:href="#b" data-mml-node="mn" transform="matrix(.707 0 0 -.707 4726.1 150)"/></g></g><g data-mml-node="mo" transform="matrix(1 0 0 -1 2035.1 5.5)"><use xlink:href="#g"/></g><path stroke="none" d="M3035.1-784.5h2094.6v-60H3035.1z"/></g></g></svg>