<svg xmlns="http://www.w3.org/2000/svg" width="130.208" height="18.96" viewBox="0 -694 7194.2 1047.5" xmlns:xlink="http://www.w3.org/1999/xlink"><defs><path id="a" d="M228 637q-34 0-36 4-1 2-1 8 0 24 11 33 2 1 15 1 54-3 127-3 141 0 162 3h12q6-6 6-9t-2-18q-5-15-9-19h-38q-69-1-81-9-7-4-14-28t-67-264q-16-65-34-138T252 88l-9-36q0-4 9-4t59-2h17q32 0 51 1t49 7 50 18 44 34 42 55q16 30 30 67t17 42q5 3 17 3h13q6-9 6-11t-20-59-44-120-26-74q-2-5-4-6t-16-3-43-1h-76q-65 0-124 1H116Q32 0 32 10q0 7 2 14 5 19 10 21 4 1 15 1h6q27 0 60 3 14 3 19 12 3 4 72 278t69 289q0 7-57 9z"/><path id="b" d="M56 347q0 13 14 20h637q15-8 15-20 0-11-14-19l-318-1H72q-16 5-16 20zm0-194q0 15 16 20h636q14-10 14-20 0-13-15-20H70q-14 7-14 20z"/><path id="c" d="M96 585q56 81 153 81 48 0 96-26t78-92q37-83 37-228 0-155-43-237-20-42-55-67t-61-31-51-7q-26 0-52 6t-61 32-55 67q-43 82-43 237 0 174 57 265zm225 12q-30 32-71 32-42 0-72-32-25-26-33-72t-8-192q0-158 8-208t36-79q28-30 69-30 40 0 68 30 29 30 36 84t8 203q0 145-8 191t-33 73z"/><path id="d" d="M229 286q-13 134-13 150 0 18 24 28h5q4 0 6 1 12-1 22-9t10-20q0-17-6-80t-7-70l58 42q56 41 61 44t10 3q13 0 24-10t12-27q0-13-10-23-5-3-68-33t-68-32l66-31 70-35q9-9 9-23 0-15-9-25t-24-11q-8 0-18 6t-55 40l-58 42q13-134 13-150 0-10-7-19t-26-9q-19 0-26 9t-8 19q0 17 6 80t7 70l-58-42q-56-41-61-44-4-3-10-3-13 0-24 10t-12 27v8q0 3 3 6t5 6 9 7 13 7 19 9 25 11 32 15 40 20L74 315q-9 9-9 23 0 15 9 25t24 11q8 0 18-6t55-40l58-42z"/><path id="e" d="M78 35v25l16 43 43 18q28 0 50-25t23-88q0-35-9-68t-21-57-26-41-24-27-13-9q-4 0-13 9t-9 13q0 4 11 16t25 30 26 50 16 73V9l-1-1q-2-1-5-2t-6-3-9-2-12-1q-27 0-44 17z"/><path id="f" d="M109 429q-27 0-43 18t-16 44q0 71 53 123t132 52q91 0 152-56t62-145q0-43-20-82t-48-68-80-74q-36-31-100-92l-59-56 76-1q157 0 167 5 7 2 24 89v3h40v-3q-1-3-13-91T421 3V0H50v31q0 7 6 15t30 35q29 32 50 56 9 10 34 37t34 37 29 33 28 34 23 30 21 32 15 29 13 32 7 30 3 33q0 63-34 109t-97 46q-33 0-58-17t-35-33-10-19q0-1 5-1 18 0 37-14t19-46q0-25-16-42t-45-18z"/><path id="g" d="M70 417v77l54 124 124 48q71 0 126-42t55-109q0-30-11-56t-26-42-31-28-26-18-11-8l14-9 28-20q14-10 16-11 75-59 75-149 0-79-58-137T249-22q-90 0-148 51T43 155q0 108 129 180l-18 13q-21 13-27 20-57 49-57 126zm216-31 6 4 9 6q3 2 10 7t12 10 11 12 11 13 10 16 9 17 5 20 2 22q0 43-29 73t-67 38q-7 1-33 1-41 0-77-26t-37-65q0-23 13-42t26-29 50-32q7-5 11-7l58-38zM250 21q58 0 100 34t42 82q0 17-5 32t-12 25-22 22-23 18-29 19-27 17q-14 9-30 19t-26 17l-8 5q-6 0-29-17t-48-55-26-82q0-59 43-97t100-39z"/><path id="h" d="M366 683q1 0 72 5t73 6q12 0 12-8 0-7-73-302T375 83t-1-15q0-42 28-42 9 1 20 9 21 20 41 96 6 20 10 21 2 1 10 1h8q15 0 15-8 0-5-3-16-13-50-30-81T445 8 417-8q-8-2-24-2-34 0-57 15t-30 31l-6 15q-1 1-4-1l-4-4q-59-56-120-56-55 0-97 40T33 157q0 48 20 98t48 86q47 57 94 79t85 22q56 0 84-42 5-6 5-4 1 4 27 109t28 111q0 13-7 16t-39 5h-21q-6 6-6 8t2 19q5 19 13 19zm-14-357q-23 79-75 79-35 0-67-31t-50-81q-29-79-41-164v-11q0-8-1-12 0-45 18-62t43-18q54 0 111 72l8 11 54 217z"/></defs><g data-mml-node="math" stroke="currentColor" fill="currentColor" stroke-width="0"><g data-mml-node="msub"><use xlink:href="#a" data-mml-node="mi" transform="scale(1 -1)"/><g data-mml-node="TeXAtom"><text data-variant="normal" transform="matrix(.707 0 0 .707 681 176.7)" font-size="884" font-family="serif" data-mml-node="mo">б</text></g></g><use xlink:href="#b" data-mml-node="mo" transform="matrix(1 0 0 -1 1326.7 0)"/><g data-mml-node="msub"><use xlink:href="#a" data-mml-node="mi" transform="matrix(1 0 0 -1 2382.5 0)"/><g data-mml-node="TeXAtom"><text data-variant="normal" transform="matrix(.707 0 0 .707 3063.5 176.7)" font-size="884" font-family="serif" data-mml-node="mo">б</text><use xlink:href="#c" data-mml-node="mn" transform="matrix(.707 0 0 -.707 3381.438 176.7)"/></g></g><use xlink:href="#d" data-mml-node="mo" transform="matrix(1 0 0 -1 4007.3 0)"/><use xlink:href="#c" data-mml-node="mn" transform="matrix(1 0 0 -1 4729.5 0)"/><use xlink:href="#e" data-mml-node="mo" transform="matrix(1 0 0 -1 5229.5 0)"/><g data-mml-node="mn" transform="matrix(1 0 0 -1 5674.2 0)"><use xlink:href="#f"/><use xlink:href="#g" transform="translate(500)"/></g><use xlink:href="#h" data-mml-node="mi" transform="matrix(1 0 0 -1 6674.2 0)"/></g></svg>