<svg xmlns="http://www.w3.org/2000/svg" width="517.992" height="32.56" viewBox="0 -1149.5 28619 1799" xmlns:xlink="http://www.w3.org/1999/xlink"><defs><path id="j" d="M56 237v13l14 20h299v150l1 150q10 13 19 13 13 0 20-15V270h298q15-8 15-20t-15-20H409V-68q-8-14-18-14h-4q-12 0-18 14v298H70q-14 7-14 20z"/><path id="a" d="M21 287q1 6 3 16t12 38 20 47 32 37 44 17 43-7 30-18 16-22 8-19l2-7q0-2 1-2l11 11q60 64 141 64 17 0 31-2t26-7 19-10 15-12 10-13 8-13 4-12 3-9 2-7l8 10q63 75 149 75 54 0 87-27t34-79q0-51-38-158T704 50q1-14 5-19t15-5q28 0 52 30t39 82q3 11 6 13t16 2q20 0 20-8 0-1-4-15-8-29-22-57t-46-56-69-27q-47 0-68 27t-21 56q0 19 36 120t37 152q0 59-44 59h-5q-86 0-145-101l-7-12-33-134Q433 26 428 16q-13-27-43-27-13 0-21 7T353 8t-3 10q0 11 34 143l36 146q3 15 3 38 0 59-44 59h-5q-86 0-145-101l-7-12-33-134Q156 26 151 16q-13-27-43-27-13 0-21 6T76 7t-2 10q0 13 38 164 39 154 39 161 3 15 3 27 0 36-25 36-22 0-37-28t-23-61-12-36q-2-2-16-2H27q-6 6-6 9z"/><path id="c" d="M52 289q7 42 54 97t116 56q35 0 64-18t43-45q42 63 101 63 37 0 64-22t28-59q0-29-14-47t-27-22-23-4q-19 0-31 11t-12 29q0 46 50 63-11 13-40 13-13 0-19-2-38-16-56-66-60-221-60-258 0-28 16-40t35-12q37 0 73 33t49 81q3 10 6 11t16 2h4q15 0 15-8 0-1-2-11-16-57-62-101T333-11q-70 0-106 63-41-62-94-62h-6q-49 0-70 26T35 71q0 32 19 52t45 20q43 0 43-42 0-20-12-35t-23-20-13-5l-3-1q0-1 6-4t16-7 19-3q36 0 62 45 9 16 23 68t28 108 16 66q5 27 5 39 0 28-15 40t-34 12q-40 0-75-32t-49-82q-2-9-5-10t-16-2H58q-6 6-6 11z"/><path id="d" d="m547-643-6-6h-13q-13 0-25 4-179 63-210 179-4 17-4 38t-2 228l-1 242-2 11q-10 45-36 82t-52 55-50 32l-25 13q-2 4-2 15 0 12 2 16t12 7q129 63 151 176l2 11 1 241v93q1 155 5 169 1 3 1 4 32 113 215 181 8 2 19 2h14l6-6v-14q0-13-1-15t-10-6q-56-23-99-63t-56-96l-2-10-1-241V594q-1-142-4-156-1-1-1-2-23-88-130-154-51-25-57-28l-10-3 12-6q23-9 46-22t53-34 53-54 33-70q0-1 1-2 3-14 4-156v-105l1-240 2-11q12-55 55-95t100-64q8-3 9-5t2-16v-14z"/><path id="e" d="M139-249h-2q-12 0-18 14v486l1 486q10 13 19 13 13 0 20-15v-970q-8-14-18-14h-2z"/><path id="f" d="M184-11q-68 0-110 45T31 147q0 100 73 186t170 97q1 1 140 1h138q1-1 3-2t4-2 3-2 3-3 2-2 2-4 1-4 1-5 1-6q0-44-65-44h-17q-10 0-14 1h-60l5-10q18-38 18-85 0-110-80-192T184-11zm177 289q0 80-85 80-124 0-161-174-1-4-1-6-8-37-8-61 0-50 25-70t57-21q54 0 99 47 29 30 47 80t22 80 5 45z"/><path id="g" d="M23 287q1 3 2 8t5 22 10 31 15 33 20 30 26 22 33 9q75 0 96-64l10 9q62 55 118 55 65 0 102-47t37-114q0-108-76-199T249-10q-22 0-39 6-11 5-23 15t-19 17l-7 8q-1-1-22-87t-21-87q0-6 8-7t37-3h25q6-7 6-9t-3-18q-3-12-6-15t-13-4h-11q-9 0-34 1t-62 1q-70 0-89-2h-8q-7 7-7 11 2 27 13 35h20q34 1 39 12 3 6 61 239t61 247q1 5 1 14 0 41-25 41-22 0-37-28t-23-61-12-36q-2-2-16-2H29q-6 6-6 9zm155-185q22-76 74-76 30 0 58 23t46 58q18 34 36 108t19 110v6q0 74-61 74-11 0-22-3t-22-9-20-13-17-15-15-15-11-14-8-10l-3-4q0-1-3-14t-11-44-14-52q-26-106-26-110z"/><path id="h" d="m213 578-13-5q-14-5-40-10t-58-7H83v46h19q47 2 87 15t56 24 28 22q2 3 12 3 9 0 17-6V361l1-300q7-7 12-9t24-4 62-2h26V0h-11q-21 3-159 3-136 0-157-3H88v46h64q16 0 25 1t16 3 8 2 6 5 6 4v517z"/><path id="i" d="M84 237v13l14 20h581q15-8 15-20t-15-20H98q-14 7-14 20z"/><path id="b" d="M33 157q0 101 76 192t171 92q51 0 90-49 16 30 46 30 13 0 23-8t10-20q0-13-37-160T374 68q0-25 7-33t21-9q9 1 20 9 21 20 41 96 6 20 10 21 2 1 10 1h4q19 0 19-9 0-6-5-27t-20-54-32-50Q436 0 417-8q-8-2-24-2-34 0-57 15t-30 31l-6 15q-1 1-4-1l-4-4q-59-56-120-56-55 0-97 40T33 157zm318 171q0 6-5 22t-23 35-46 20q-35 0-67-31t-50-81q-29-79-41-164v-11q0-8-1-12 0-45 18-62t43-18q38 0 75 33t44 51q2 4 27 107t26 111z"/><path id="k" d="M230 637q-27 0-32 1t-5 11q0 27 11 33 2 1 174 1 172-1 186-3 56-8 94-28t54-46 21-43 6-34q0-45-29-84t-67-60-67-34-38-13l7-5q67-38 67-110 0-11-5-61t-5-82v-9q0-18 1-28t11-18 26-9q28 0 46 22t26 47q5 14 8 17t15 3q20 0 20-12 0-18-24-57-38-57-90-57h-9q-61 0-101 25t-44 78q0 27 15 84t15 73q0 51-43 74-15 7-25 8t-71 2h-69l-32-130Q244 61 244 59q0-4 1-5t7-4 17-2 33-2h31q6-8 6-9t-3-18q-4-13-10-19h-15q-36 2-131 2H71Q54 2 50 1q-17 0-17 9 0 2 3 14 5 19 10 21 4 1 15 1h6q27 0 60 3 14 3 19 12 3 4 72 278t69 289q0 7-57 9zm400-83q0 32-21 54t-86 28h-23q-21 0-38 1h-22q-47 0-54-10-1-3-34-133t-33-133q0-1 69-1 78 1 104 7 64 10 100 59 16 23 27 60t11 68z"/><path id="l" d="M78 370q0 24 17 42t43 18q24 0 42-16t19-43q0-25-17-43t-43-18-43 17-18 43zm0-310q0 25 16 43t43 18q65 0 65-113 0-52-19-102t-39-75-26-25q-3 0-12 8t-11 12q-1 3 12 19t30 48 23 69q1 6 2 16t3 18 0 8q0 1-4 0t-19-4q-32 0-48 18T78 60z"/><path id="m" d="M40 437q-19 0-19 8 0 5 16 56t34 101l17 49q5 18 13 26h558q32 0 38-1t7-9q0-6-17-114t-19-109q0-7-19-7h-12q-3 0-6 5l-2 3q0 6 6 45t6 61q0 35-13 53t-55 25q-5 1-58 2-46 0-58-1t-18-8q-1-1-71-279T298 60q0-12 88-14 32 0 41-1t9-9q0-5-3-14-4-18-9-21l-2-1h-7q-5 0-52 1T228 2Q99 2 64 0H49q-6 6-6 9t2 18q4 13 10 19h39q80 0 95 9 1 1 2 1 5 3 10 20t40 157q17 68 28 111 70 275 70 281 0 5-29 5h-31q-67 0-88-6-45-10-70-41T67 467q-7-22-10-26t-14-4h-3z"/><path id="n" d="M119 1130q0 14 2 17t14 3h4q12 0 43-12t70-33 74-59 47-82q5-22 5-262 0-233 1-240 7-68 60-123 43-43 96-67 9-4 10-6t2-15v-13q0-3-5-7t-11-4-21-10-33-23q-87-65-98-155-1-7-1-240 0-240-5-262-31-117-208-181-13-5-26-5-14 0-17 3t-3 17v10q0 3 2 5t3 4 8 3 11 5q52 23 92 63t50 92q1 12 2 248t2 250q5 23 11 40t29 47 61 59q22 16 46 29t39 18l14 6-17 8q-17 7-42 21t-53 34-50 53-34 68q-4 17-4 38t-2 227q-1 242-2 249-6 30-23 57t-35 43-43 32-33 20-22 9l-2 1q-8 3-8 20z"/><path id="o" d="M674 636q8 0 14-6t6-15-7-14q-1-1-270-129L151 346l248-118Q687 92 691 87q3-6 3-11 0-18-18-20h-6L382 192Q92 329 90 331q-7 5-7 17 1 11 13 17 8 4 286 135t283 134q4 2 9 2zM84-118q0 10 15 20h579q16-6 16-20 0-12-15-20H98q-14 7-14 20z"/><path id="p" d="M285 628q0 7-57 9-23 0-30 1t-7 9q0 2 2 14 6 20 10 21 2 1 11 1h5q41-2 136-2h63q29 0 45 1t20 0q17 0 17-8 0-5-3-14-1-2-1-6t-1-6-2-4-3-3-4-2-7-1-9-1-14 0q-40-1-51-3t-18-11l-81-318q1 0 184 144t188 148q14 14 14 23 0 15-25 17-16 0-16 11 0 2 3 14t5 15q3 5 17 5 4 0 35-1t80-1q23 0 48 1t30 1q20 0 20-10 0-22-8-30-3-5-19-5-75-5-136-51-16-10-70-52t-100-79l-47-37 9-22q9-22 28-67t35-85q75-177 80-183 2-2 5-4 14-10 51-11h21q6-8 6-9t-3-18q-4-13-10-19h-11q-40 3-95 3-122 0-137-3h-10q-6 6-6 9t2 18q4 13 6 16t11 3h3q50 0 50 25 0 4-27 70t-32 75l-58 138-68-53-68-53-23-93q-23-92-23-97 0-7 8-9t50-3h31q6-9 6-11 0-16-7-30-5-5-16-5-3 0-37 1T180 2H85Q52 2 49 1 31 1 31 11q0 2 3 14 4 16 8 18t23 3q27 0 60 3 14 3 19 12 3 4 72 278t69 289z"/><path id="q" d="M308 24q59 0 108 52t50 121q0 63-52 87-106 27-136 37t-42 20q-60 42-60 121 0 61 32 111t65 75q29 25 70 40t64 16h18q96 0 139-64 1 0 13 13t26 29 20 22h4q3 0 5 1 13 0 13-7t-28-121-32-118-16-3q-20 0-20 9 0 6 1 10 0 3 1 19t2 26q0 34-9 59t-18 37-25 25q-36 21-82 21-57 0-106-46t-50-106q0-30 15-52t41-31q4-2 70-19t67-18q34-11 66-48t32-100q0-26-8-56-5-22-18-49t-36-59-66-60-94-38q-12-2-34-2-99 0-154 55l-10 11-28-31Q83-14 78-18t-13-4q-13 0-13 8 0 3 58 235 2 6 20 6h13q6-6 6-11 0-2-1-9t-4-21-2-33q2-39 18-66t43-40 52-18 53-5z"/><path id="s" d="M118-250V750h137v-40h-97v-920h97v-40H118z"/><path id="t" d="M22 710v40h137V-250H22v40h97v920H22z"/></defs><g data-mml-node="math" stroke="currentColor" fill="currentColor" stroke-width="0"><use xlink:href="#a" data-mml-node="mi" transform="scale(1 -1)"/><use xlink:href="#b" data-mml-node="mi" transform="matrix(1 0 0 -1 878 0)"/><use xlink:href="#c" data-mml-node="mi" transform="matrix(1 0 0 -1 1407 0)"/><g data-mml-node="mrow"><use xlink:href="#d" data-mml-node="mo" transform="matrix(1 0 0 -1 1979 0)"/><g data-mml-node="TeXAtom"><use xlink:href="#e" data-mml-node="mo" transform="matrix(1 0 0 -1 2646 0)"/></g><g data-mml-node="msubsup"><use xlink:href="#f" data-mml-node="mi" transform="matrix(1 0 0 -1 2924 0)"/><use xlink:href="#g" data-mml-node="mi" transform="matrix(.707 0 0 -.707 3495 -490.8)"/><g data-mml-node="TeXAtom"><use xlink:href="#h" data-mml-node="mn" transform="matrix(.707 0 0 -.707 3495 297.3)"/></g></g><use xlink:href="#i" data-mml-node="mo" transform="matrix(1 0 0 -1 4122.9 0)"/><g data-mml-node="msubsup"><use xlink:href="#f" data-mml-node="mi" transform="matrix(1 0 0 -1 5123.1 0)"/><use xlink:href="#g" data-mml-node="mi" transform="matrix(.707 0 0 -.707 5694.1 -490.8)"/><g data-mml-node="TeXAtom"><use xlink:href="#h" data-mml-node="mn" transform="matrix(.707 0 0 -.707 5694.1 356.7)"/><g data-mml-node="mo" font-size="884" font-family="serif"><text data-variant="normal" transform="matrix(.707 0 0 .707 6047.6 356.7)">м</text><text data-variant="normal" transform="matrix(.707 0 0 .707 6442.742 356.7)">м</text></g></g></g><use xlink:href="#j" data-mml-node="mo" transform="matrix(1 0 0 -1 7110.3 0)"/><g data-mml-node="msubsup"><use xlink:href="#f" data-mml-node="mi" transform="matrix(1 0 0 -1 8110.5 0)"/><use xlink:href="#g" data-mml-node="mi" transform="matrix(.707 0 0 -.707 8681.5 -490.8)"/><g data-mml-node="TeXAtom"><use xlink:href="#k" data-mml-node="mi" transform="matrix(.707 0 0 -.707 8681.5 309.4)"/></g></g><g data-mml-node="TeXAtom"><use xlink:href="#e" data-mml-node="mo" transform="matrix(1 0 0 -1 9268.2 0)"/></g><use xlink:href="#l" data-mml-node="mo" transform="matrix(1 0 0 -1 9546.2 0)"/><g data-mml-node="TeXAtom"><use xlink:href="#e" data-mml-node="mo" transform="matrix(1 0 0 -1 9990.9 0)"/></g><g data-mml-node="msubsup"><use xlink:href="#f" data-mml-node="mi" transform="matrix(1 0 0 -1 10268.9 0)"/><use xlink:href="#g" data-mml-node="mi" transform="matrix(.707 0 0 -.707 10839.9 -490.8)"/><g data-mml-node="TeXAtom"><use xlink:href="#h" data-mml-node="mn" transform="matrix(.707 0 0 -.707 10839.9 297.3)"/></g></g><use xlink:href="#i" data-mml-node="mo" transform="matrix(1 0 0 -1 11467.8 0)"/><g data-mml-node="msubsup"><use xlink:href="#f" data-mml-node="mi" transform="matrix(1 0 0 -1 12468 0)"/><use xlink:href="#g" data-mml-node="mi" transform="matrix(.707 0 0 -.707 13039 -490.8)"/><g data-mml-node="TeXAtom"><use xlink:href="#h" data-mml-node="mn" transform="matrix(.707 0 0 -.707 13039 356.7)"/><g data-mml-node="mo" font-size="884" font-family="serif"><text data-variant="normal" transform="matrix(.707 0 0 .707 13392.5 356.7)">м</text><text data-variant="normal" transform="matrix(.707 0 0 .707 13787.642 356.7)">м</text></g></g></g><use xlink:href="#j" data-mml-node="mo" transform="matrix(1 0 0 -1 14455.2 0)"/><g data-mml-node="msubsup"><use xlink:href="#f" data-mml-node="mi" transform="matrix(1 0 0 -1 15455.4 0)"/><use xlink:href="#g" data-mml-node="mi" transform="matrix(.707 0 0 -.707 16026.4 -490.8)"/><g data-mml-node="TeXAtom"><use xlink:href="#m" data-mml-node="mi" transform="matrix(.707 0 0 -.707 16026.4 305.1)"/></g></g><g data-mml-node="TeXAtom"><use xlink:href="#e" data-mml-node="mo" transform="matrix(1 0 0 -1 16574.2 0)"/></g><use xlink:href="#l" data-mml-node="mo" transform="matrix(1 0 0 -1 16852.2 0)"/><g data-mml-node="TeXAtom"><use xlink:href="#e" data-mml-node="mo" transform="matrix(1 0 0 -1 17296.9 0)"/></g><g data-mml-node="msubsup"><use xlink:href="#f" data-mml-node="mi" transform="matrix(1 0 0 -1 17574.9 0)"/><use xlink:href="#g" data-mml-node="mi" transform="matrix(.707 0 0 -.707 18145.9 -490.8)"/><g data-mml-node="TeXAtom"><use xlink:href="#h" data-mml-node="mn" transform="matrix(.707 0 0 -.707 18145.9 297.3)"/></g></g><use xlink:href="#j" data-mml-node="mo" transform="matrix(1 0 0 -1 18773.8 0)"/><g data-mml-node="msubsup"><use xlink:href="#f" data-mml-node="mi" transform="matrix(1 0 0 -1 19774 0)"/><use xlink:href="#g" data-mml-node="mi" transform="matrix(.707 0 0 -.707 20345 -490.8)"/><g data-mml-node="TeXAtom"><use xlink:href="#h" data-mml-node="mn" transform="matrix(.707 0 0 -.707 20345 356.7)"/><g data-mml-node="mo" font-size="884" font-family="serif"><text data-variant="normal" transform="matrix(.707 0 0 .707 20698.5 356.7)">м</text><text data-variant="normal" transform="matrix(.707 0 0 .707 21093.642 356.7)">м</text></g></g></g><g data-mml-node="TeXAtom"><use xlink:href="#e" data-mml-node="mo" transform="matrix(1 0 0 -1 21538.9 0)"/></g><use xlink:href="#n" data-mml-node="mo" transform="matrix(1 0 0 -1 21816.9 0)"/></g><use xlink:href="#o" data-mml-node="mo" transform="matrix(1 0 0 -1 22761.7 0)"/><g data-mml-node="msub"><use xlink:href="#p" data-mml-node="mi" transform="matrix(1 0 0 -1 23817.5 0)"/><g data-mml-node="TeXAtom"><use xlink:href="#q" data-mml-node="mi" transform="matrix(.707 0 0 -.707 24666.5 150)"/></g></g><use xlink:href="#r" data-mml-node="mtext" transform="matrix(1 0 0 -1 25150 0)"/><g data-mml-node="msub"><use xlink:href="#p" data-mml-node="mi" transform="matrix(1 0 0 -1 25400 0)"/><g data-mml-node="TeXAtom"><use xlink:href="#m" data-mml-node="mi" transform="matrix(.707 0 0 -.707 26249 150)"/></g></g><use xlink:href="#r" data-mml-node="mtext" transform="matrix(1 0 0 -1 26796.8 0)"/><use xlink:href="#s" data-mml-node="mo" transform="matrix(1 0 0 -1 27046.8 0)"/><use xlink:href="#f" data-mml-node="mi" transform="matrix(1 0 0 -1 27324.8 0)"/><g data-mml-node="msub"><use xlink:href="#t" data-mml-node="mo" transform="matrix(1 0 0 -1 27895.8 0)"/><g data-mml-node="TeXAtom"><text data-variant="normal" transform="matrix(.707 0 0 .707 28173.8 176.7)" font-size="884" font-family="serif" data-mml-node="mo">м</text></g></g></g></svg>