<svg xmlns="http://www.w3.org/2000/svg" width="520.248" height="32.56" viewBox="0 -1149.5 28743.9 1799" xmlns:xlink="http://www.w3.org/1999/xlink"><defs><path id="l" d="M127 463q-27 0-42 17t-16 44q0 55 48 98t116 43q35 0 44-1 74-12 113-53t40-89q0-52-34-101t-94-71l-3-2q0-1 9-3t29-9 38-21q82-53 82-140 0-79-62-138T238-22q-80 0-138 43T42 130q0 28 18 45t45 18q28 0 46-18t18-45q0-11-3-20t-7-16-11-12-12-8-10-4-8-3l-4-1q51-45 124-45 55 0 83 53 17 33 17 101v20q0 95-64 127-15 6-61 7l-42 1-3 2q-2 3-2 16 0 18 8 18 28 0 58 5 34 5 62 42t28 112v8q0 57-35 79-22 14-47 14-32 0-59-11t-38-23-11-12h3q3-1 8-2t10-5 12-7 10-11 8-15 3-20q0-22-14-39t-45-18z"/><path id="a" d="M21 287q1 6 3 16t12 38 20 47 32 37 44 17 43-7 30-18 16-22 8-19l2-7q0-2 1-2l11 11q60 64 141 64 17 0 31-2t26-7 19-10 15-12 10-13 8-13 4-12 3-9 2-7l8 10q63 75 149 75 54 0 87-27t34-79q0-51-38-158T704 50q1-14 5-19t15-5q28 0 52 30t39 82q3 11 6 13t16 2q20 0 20-8 0-1-4-15-8-29-22-57t-46-56-69-27q-47 0-68 27t-21 56q0 19 36 120t37 152q0 59-44 59h-5q-86 0-145-101l-7-12-33-134Q433 26 428 16q-13-27-43-27-13 0-21 7T353 8t-3 10q0 11 34 143l36 146q3 15 3 38 0 59-44 59h-5q-86 0-145-101l-7-12-33-134Q156 26 151 16q-13-27-43-27-13 0-21 6T76 7t-2 10q0 13 38 164 39 154 39 161 3 15 3 27 0 36-25 36-22 0-37-28t-23-61-12-36q-2-2-16-2H27q-6 6-6 9z"/><path id="c" d="M52 289q7 42 54 97t116 56q35 0 64-18t43-45q42 63 101 63 37 0 64-22t28-59q0-29-14-47t-27-22-23-4q-19 0-31 11t-12 29q0 46 50 63-11 13-40 13-13 0-19-2-38-16-56-66-60-221-60-258 0-28 16-40t35-12q37 0 73 33t49 81q3 10 6 11t16 2h4q15 0 15-8 0-1-2-11-16-57-62-101T333-11q-70 0-106 63-41-62-94-62h-6q-49 0-70 26T35 71q0 32 19 52t45 20q43 0 43-42 0-20-12-35t-23-20-13-5l-3-1q0-1 6-4t16-7 19-3q36 0 62 45 9 16 23 68t28 108 16 66q5 27 5 39 0 28-15 40t-34 12q-40 0-75-32t-49-82q-2-9-5-10t-16-2H58q-6 6-6 11z"/><path id="d" d="m547-643-6-6h-13q-13 0-25 4-179 63-210 179-4 17-4 38t-2 228l-1 242-2 11q-10 45-36 82t-52 55-50 32l-25 13q-2 4-2 15 0 12 2 16t12 7q129 63 151 176l2 11 1 241v93q1 155 5 169 1 3 1 4 32 113 215 181 8 2 19 2h14l6-6v-14q0-13-1-15t-10-6q-56-23-99-63t-56-96l-2-10-1-241V594q-1-142-4-156-1-1-1-2-23-88-130-154-51-25-57-28l-10-3 12-6q23-9 46-22t53-34 53-54 33-70q0-1 1-2 3-14 4-156v-105l1-240 2-11q12-55 55-95t100-64q8-3 9-5t2-16v-14z"/><path id="e" d="M139-249h-2q-12 0-18 14v486l1 486q10 13 19 13 13 0 20-15v-970q-8-14-18-14h-2z"/><path id="f" d="M184-11q-68 0-110 45T31 147q0 100 73 186t170 97q1 1 140 1h138q1-1 3-2t4-2 3-2 3-3 2-2 2-4 1-4 1-5 1-6q0-44-65-44h-17q-10 0-14 1h-60l5-10q18-38 18-85 0-110-80-192T184-11zm177 289q0 80-85 80-124 0-161-174-1-4-1-6-8-37-8-61 0-50 25-70t57-21q54 0 99 47 29 30 47 80t22 80 5 45z"/><path id="g" d="M23 287q1 3 2 8t5 22 10 31 15 33 20 30 26 22 33 9q75 0 96-64l10 9q62 55 118 55 65 0 102-47t37-114q0-108-76-199T249-10q-22 0-39 6-11 5-23 15t-19 17l-7 8q-1-1-22-87t-21-87q0-6 8-7t37-3h25q6-7 6-9t-3-18q-3-12-6-15t-13-4h-11q-9 0-34 1t-62 1q-70 0-89-2h-8q-7 7-7 11 2 27 13 35h20q34 1 39 12 3 6 61 239t61 247q1 5 1 14 0 41-25 41-22 0-37-28t-23-61-12-36q-2-2-16-2H29q-6 6-6 9zm155-185q22-76 74-76 30 0 58 23t46 58q18 34 36 108t19 110v6q0 74-61 74-11 0-22-3t-22-9-20-13-17-15-15-15-11-14-8-10l-3-4q0-1-3-14t-11-44-14-52q-26-106-26-110z"/><path id="h" d="M96 585q56 81 153 81 48 0 96-26t78-92q37-83 37-228 0-155-43-237-20-42-55-67t-61-31-51-7q-26 0-52 6t-61 32-55 67q-43 82-43 237 0 174 57 265zm225 12q-30 32-71 32-42 0-72-32-25-26-33-72t-8-192q0-158 8-208t36-79q28-30 69-30 40 0 68 30 29 30 36 84t8 203q0 145-8 191t-33 73z"/><path id="i" d="M56 320v13l14 20h299v149q0 149 2 153 5 11 17 11 14 0 17-12t4-58V353h298q15-8 15-20 0-13-15-20H409V40h298q15-8 15-20T707 0H70Q56 7 56 20t14 20h299v273H70q-14 7-14 20z"/><path id="j" d="M78 370q0 24 17 42t43 18q24 0 42-16t19-43q0-25-17-43t-43-18-43 17-18 43zm0-310q0 25 16 43t43 18q65 0 65-113 0-52-19-102t-39-75-26-25q-3 0-12 8t-11 12q-1 3 12 19t30 48 23 69q1 6 2 16t3 18 0 8q0 1-4 0t-19-4q-32 0-48 18T78 60z"/><path id="k" d="M78 35v25l16 43 43 18q28 0 50-25t23-88q0-35-9-68t-21-57-26-41-24-27-13-9q-4 0-13 9t-9 13q0 4 11 16t25 30 26 50 16 73V9l-1-1q-2-1-5-2t-6-3-9-2-12-1q-27 0-44 17z"/><path id="b" d="M33 157q0 101 76 192t171 92q51 0 90-49 16 30 46 30 13 0 23-8t10-20q0-13-37-160T374 68q0-25 7-33t21-9q9 1 20 9 21 20 41 96 6 20 10 21 2 1 10 1h4q19 0 19-9 0-6-5-27t-20-54-32-50Q436 0 417-8q-8-2-24-2-34 0-57 15t-30 31l-6 15q-1 1-4-1l-4-4q-59-56-120-56-55 0-97 40T33 157zm318 171q0 6-5 22t-23 35-46 20q-35 0-67-31t-50-81q-29-79-41-164v-11q0-8-1-12 0-45 18-62t43-18q38 0 75 33t44 51q2 4 27 107t26 111z"/><path id="m" d="M55 458q1 2 17 109l16 107q0 2 20 2h20v-4q0-10 15-17t52-9 169-2h121v-39l-68-93-30-40q-21-28-27-37t-21-32-20-36-14-37-13-46-8-54-6-68-3-82V52q0-14-1-24v-9q-4-17-19-29t-34-12q-11 0-21 3T179 0t-11 40q0 158 97 328 20 32 84 121l46 63h-93q-174 0-183-6-6-3-11-24t-10-43l-3-21v-3H55v3z"/><path id="n" d="M94 250q0 69 10 131t23 107 37 88 38 67 42 52 33 34 25 21h17q14 0 14-9 0-3-17-21t-41-53-49-86-42-138-17-193 17-192 41-139 49-86 42-53 17-21q0-9-15-9h-16l-28 24q-94 85-137 212T94 250z"/><path id="o" d="M84 237v13l14 20h581q15-8 15-20t-15-20H98q-14 7-14 20z"/><path id="p" d="m60 749 4 1h22l28-24q94-85 137-212t43-264q0-68-10-131T261 12t-37-88-38-67-41-51-32-33-23-19l-4-4H63q-3 0-5 3t-3 9q1 1 11 13Q221-64 221 250T66 725q-10 12-11 13 0 8 5 11z"/><path id="q" d="M119 1130q0 14 2 17t14 3h4q12 0 43-12t70-33 74-59 47-82q5-22 5-262 0-233 1-240 7-68 60-123 43-43 96-67 9-4 10-6t2-15v-13q0-3-5-7t-11-4-21-10-33-23q-87-65-98-155-1-7-1-240 0-240-5-262-31-117-208-181-13-5-26-5-14 0-17 3t-3 17v10q0 3 2 5t3 4 8 3 11 5q52 23 92 63t50 92q1 12 2 248t2 250q5 23 11 40t29 47 61 59q22 16 46 29t39 18l14 6-17 8q-17 7-42 21t-53 34-50 53-34 68q-4 17-4 38t-2 227q-1 242-2 249-6 30-23 57t-35 43-43 32-33 20-22 9l-2 1q-8 3-8 20z"/><path id="r" d="M674 636q8 0 14-6t6-15-7-14q-1-1-270-129L151 346l248-118Q687 92 691 87q3-6 3-11 0-18-18-20h-6L382 192Q92 329 90 331q-7 5-7 17 1 11 13 17 8 4 286 135t283 134q4 2 9 2zM84-118q0 10 15 20h579q16-6 16-20 0-12-15-20H98q-14 7-14 20z"/><path id="s" d="m213 578-13-5q-14-5-40-10t-58-7H83v46h19q47 2 87 15t56 24 28 22q2 3 12 3 9 0 17-6V361l1-300q7-7 12-9t24-4 62-2h26V0h-11q-21 3-159 3-136 0-157-3H88v46h64q16 0 25 1t16 3 8 2 6 5 6 4v517z"/><path id="t" d="M118-250V750h137v-40h-97v-920h97v-40H118z"/><path id="u" d="M22 710v40h137V-250H22v40h97v920H22z"/><path id="v" d="M230 637q-27 0-32 1t-5 11q0 27 11 33 2 1 174 1 172-1 186-3 56-8 94-28t54-46 21-43 6-34q0-45-29-84t-67-60-67-34-38-13l7-5q67-38 67-110 0-11-5-61t-5-82v-9q0-18 1-28t11-18 26-9q28 0 46 22t26 47q5 14 8 17t15 3q20 0 20-12 0-18-24-57-38-57-90-57h-9q-61 0-101 25t-44 78q0 27 15 84t15 73q0 51-43 74-15 7-25 8t-71 2h-69l-32-130Q244 61 244 59q0-4 1-5t7-4 17-2 33-2h31q6-8 6-9t-3-18q-4-13-10-19h-15q-36 2-131 2H71Q54 2 50 1q-17 0-17 9 0 2 3 14 5 19 10 21 4 1 15 1h6q27 0 60 3 14 3 19 12 3 4 72 278t69 289q0 7-57 9zm400-83q0 32-21 54t-86 28h-23q-21 0-38 1h-22q-47 0-54-10-1-3-34-133t-33-133q0-1 69-1 78 1 104 7 64 10 100 59 16 23 27 60t11 68z"/></defs><g data-mml-node="math" stroke="currentColor" fill="currentColor" stroke-width="0"><use xlink:href="#a" data-mml-node="mi" transform="scale(1 -1)"/><use xlink:href="#b" data-mml-node="mi" transform="matrix(1 0 0 -1 878 0)"/><use xlink:href="#c" data-mml-node="mi" transform="matrix(1 0 0 -1 1407 0)"/><g data-mml-node="mrow"><use xlink:href="#d" data-mml-node="mo" transform="matrix(1 0 0 -1 1979 0)"/><g data-mml-node="TeXAtom"><use xlink:href="#e" data-mml-node="mo" transform="matrix(1 0 0 -1 2646 0)"/></g><g data-mml-node="msubsup"><use xlink:href="#f" data-mml-node="mi" transform="matrix(1 0 0 -1 2924 0)"/><use xlink:href="#g" data-mml-node="mi" transform="matrix(.707 0 0 -.707 3495 -490.8)"/><g data-mml-node="TeXAtom"><use xlink:href="#h" data-mml-node="mn" transform="matrix(.707 0 0 -.707 3495 297.3)"/></g></g><use xlink:href="#i" data-mml-node="mo" transform="matrix(1 0 0 -1 4122.9 0)"/><g data-mml-node="msubsup"><use xlink:href="#f" data-mml-node="mi" transform="matrix(1 0 0 -1 5123.1 0)"/><use xlink:href="#g" data-mml-node="mi" transform="matrix(.707 0 0 -.707 5694.1 -490.8)"/><g data-mml-node="TeXAtom"><use xlink:href="#h" data-mml-node="mn" transform="matrix(.707 0 0 -.707 5694.1 356.7)"/><g data-mml-node="mo" font-size="884" font-family="serif"><text data-variant="normal" transform="matrix(.707 0 0 .707 6047.6 356.7)">м</text><text data-variant="normal" transform="matrix(.707 0 0 .707 6442.742 356.7)">м</text></g></g></g><g data-mml-node="TeXAtom"><use xlink:href="#e" data-mml-node="mo" transform="matrix(1 0 0 -1 6888.1 0)"/></g><use xlink:href="#j" data-mml-node="mo" transform="matrix(1 0 0 -1 7166.1 0)"/><g data-mml-node="TeXAtom"><use xlink:href="#e" data-mml-node="mo" transform="matrix(1 0 0 -1 7610.7 0)"/></g><use xlink:href="#h" data-mml-node="mn" transform="matrix(1 0 0 -1 7888.7 0)"/><use xlink:href="#k" data-mml-node="mo" transform="matrix(1 0 0 -1 8388.7 0)"/><use xlink:href="#l" data-mml-node="mn" transform="matrix(1 0 0 -1 8833.4 0)"/><g data-mml-node="msubsup"><use xlink:href="#f" data-mml-node="mi" transform="matrix(1 0 0 -1 9333.4 0)"/><use xlink:href="#g" data-mml-node="mi" transform="matrix(.707 0 0 -.707 9904.4 -490.8)"/><g data-mml-node="TeXAtom"><use xlink:href="#h" data-mml-node="mn" transform="matrix(.707 0 0 -.707 9904.4 297.3)"/></g></g><use xlink:href="#i" data-mml-node="mo" transform="matrix(1 0 0 -1 10532.3 0)"/><g data-mml-node="msubsup"><use xlink:href="#f" data-mml-node="mi" transform="matrix(1 0 0 -1 11532.5 0)"/><use xlink:href="#g" data-mml-node="mi" transform="matrix(.707 0 0 -.707 12103.5 -490.8)"/><g data-mml-node="TeXAtom"><use xlink:href="#h" data-mml-node="mn" transform="matrix(.707 0 0 -.707 12103.5 356.7)"/><g data-mml-node="mo" font-size="884" font-family="serif"><text data-variant="normal" transform="matrix(.707 0 0 .707 12457 356.7)">м</text><text data-variant="normal" transform="matrix(.707 0 0 .707 12852.142 356.7)">о</text></g></g></g><g data-mml-node="TeXAtom"><use xlink:href="#e" data-mml-node="mo" transform="matrix(1 0 0 -1 13214.8 0)"/></g><use xlink:href="#j" data-mml-node="mo" transform="matrix(1 0 0 -1 13492.8 0)"/><g data-mml-node="TeXAtom"><use xlink:href="#e" data-mml-node="mo" transform="matrix(1 0 0 -1 13937.5 0)"/></g><use xlink:href="#h" data-mml-node="mn" transform="matrix(1 0 0 -1 14215.5 0)"/><use xlink:href="#k" data-mml-node="mo" transform="matrix(1 0 0 -1 14715.5 0)"/><use xlink:href="#m" data-mml-node="mn" transform="matrix(1 0 0 -1 15160.2 0)"/><g data-mml-node="msubsup"><use xlink:href="#f" data-mml-node="mi" transform="matrix(1 0 0 -1 15660.2 0)"/><use xlink:href="#g" data-mml-node="mi" transform="matrix(.707 0 0 -.707 16231.2 -490.8)"/><g data-mml-node="TeXAtom"><use xlink:href="#h" data-mml-node="mn" transform="matrix(.707 0 0 -.707 16231.2 297.3)"/></g></g><use xlink:href="#i" data-mml-node="mo" transform="matrix(1 0 0 -1 16859.1 0)"/><use xlink:href="#n" data-mml-node="mo" transform="matrix(1 0 0 -1 17859.3 0)"/><g data-mml-node="msubsup"><use xlink:href="#f" data-mml-node="mi" transform="matrix(1 0 0 -1 18248.3 0)"/><use xlink:href="#g" data-mml-node="mi" transform="matrix(.707 0 0 -.707 18819.3 -490.8)"/><g data-mml-node="TeXAtom"><use xlink:href="#h" data-mml-node="mn" transform="matrix(.707 0 0 -.707 18819.3 356.7)"/><g data-mml-node="mo" font-size="884" font-family="serif"><text data-variant="normal" transform="matrix(.707 0 0 .707 19172.8 356.7)">м</text><text data-variant="normal" transform="matrix(.707 0 0 .707 19567.942 356.7)">м</text></g></g></g><use xlink:href="#o" data-mml-node="mo" transform="matrix(1 0 0 -1 20235.5 0)"/><g data-mml-node="msubsup"><use xlink:href="#f" data-mml-node="mi" transform="matrix(1 0 0 -1 21235.7 0)"/><use xlink:href="#g" data-mml-node="mi" transform="matrix(.707 0 0 -.707 21806.7 -490.8)"/><g data-mml-node="TeXAtom"><use xlink:href="#h" data-mml-node="mn" transform="matrix(.707 0 0 -.707 21806.7 356.7)"/><g data-mml-node="mo" font-size="884" font-family="serif"><text data-variant="normal" transform="matrix(.707 0 0 .707 22160.2 356.7)">м</text><text data-variant="normal" transform="matrix(.707 0 0 .707 22555.342 356.7)">о</text></g></g></g><use xlink:href="#p" data-mml-node="mo" transform="matrix(1 0 0 -1 22918 0)"/><g data-mml-node="TeXAtom"><use xlink:href="#e" data-mml-node="mo" transform="matrix(1 0 0 -1 23307 0)"/></g><use xlink:href="#q" data-mml-node="mo" transform="matrix(1 0 0 -1 23585 0)"/></g><use xlink:href="#r" data-mml-node="mo" transform="matrix(1 0 0 -1 24529.8 0)"/><use xlink:href="#s" data-mml-node="mn" transform="matrix(1 0 0 -1 25585.5 0)"/><use xlink:href="#k" data-mml-node="mo" transform="matrix(1 0 0 -1 26085.5 0)"/><use xlink:href="#l" data-mml-node="mn" transform="matrix(1 0 0 -1 26530.2 0)"/><use xlink:href="#t" data-mml-node="mo" transform="matrix(1 0 0 -1 27030.2 0)"/><use xlink:href="#f" data-mml-node="mi" transform="matrix(1 0 0 -1 27308.2 0)"/><g data-mml-node="msub"><use xlink:href="#u" data-mml-node="mo" transform="matrix(1 0 0 -1 27879.2 0)"/><g data-mml-node="TeXAtom"><use xlink:href="#v" data-mml-node="mi" transform="matrix(.707 0 0 -.707 28157.2 150)"/></g></g></g></svg>