<svg xmlns="http://www.w3.org/2000/svg" width="361.224" height="67.408" viewBox="0 -2112.2 19957.8 3724.5" xmlns:xlink="http://www.w3.org/1999/xlink"><defs><path id="n" d="M56 237v13l14 20h299v150l1 150q10 13 19 13 13 0 20-15V270h298q15-8 15-20t-15-20H409V-68q-8-14-18-14h-4q-12 0-18 14v298H70q-14 7-14 20z"/><path id="a" d="M287 628q0 7-57 9-24 0-31 1t-7 10q0 1 2 11 6 20 9 22t194 2q190-1 203-3 64-11 107-49t44-101q0-77-66-141-69-68-178-86-7-1-105-2h-95l-30-119Q247 66 247 59q0-4 1-5t7-4 17-2 33-2h31q6-9 6-11 0-16-7-30-5-5-16-5-3 0-37 1T182 2H87Q54 2 51 1 33 1 33 11q0 2 3 14 4 16 8 18t23 3q27 0 60 3 14 3 19 12 3 4 72 278t69 289zm358-74q0 13-2 21t-9 22-25 22-49 16q-7 1-80 2h-35q-18 0-29-1t-12 0q-13-1-18-9-2-6-19-77t-35-138-18-68q0-2 81-2h35q112 0 160 50 27 27 41 79t14 83z"/><path id="c" d="M56 347q0 13 14 20h637q15-8 15-20 0-11-14-19l-318-1H72q-16 5-16 20zm0-194q0 15 16 20h636q14-10 14-20 0-13-15-20H70q-14 7-14 20z"/><path id="d" d="M21 287q1 6 3 16t12 38 20 47 32 37 44 17 43-7 30-18 16-22 8-19l2-7q0-2 1-2l11 11q60 64 141 64 17 0 31-2t26-7 19-10 15-12 10-13 8-13 4-12 3-9 2-7l8 10q63 75 149 75 54 0 87-27t34-79q0-51-38-158T704 50q1-14 5-19t15-5q28 0 52 30t39 82q3 11 6 13t16 2q20 0 20-8 0-1-4-15-8-29-22-57t-46-56-69-27q-47 0-68 27t-21 56q0 19 36 120t37 152q0 59-44 59h-5q-86 0-145-101l-7-12-33-134Q433 26 428 16q-13-27-43-27-13 0-21 7T353 8t-3 10q0 11 34 143l36 146q3 15 3 38 0 59-44 59h-5q-86 0-145-101l-7-12-33-134Q156 26 151 16q-13-27-43-27-13 0-21 6T76 7t-2 10q0 13 38 164 39 154 39 161 3 15 3 27 0 36-25 36-22 0-37-28t-23-61-12-36q-2-2-16-2H27q-6 6-6 9z"/><path id="e" d="M33 157q0 101 76 192t171 92q51 0 90-49 16 30 46 30 13 0 23-8t10-20q0-13-37-160T374 68q0-25 7-33t21-9q9 1 20 9 21 20 41 96 6 20 10 21 2 1 10 1h4q19 0 19-9 0-6-5-27t-20-54-32-50Q436 0 417-8q-8-2-24-2-34 0-57 15t-30 31l-6 15q-1 1-4-1l-4-4q-59-56-120-56-55 0-97 40T33 157zm318 171q0 6-5 22t-23 35-46 20q-35 0-67-31t-50-81q-29-79-41-164v-11q0-8-1-12 0-45 18-62t43-18q38 0 75 33t44 51q2 4 27 107t26 111z"/><path id="f" d="M52 289q7 42 54 97t116 56q35 0 64-18t43-45q42 63 101 63 37 0 64-22t28-59q0-29-14-47t-27-22-23-4q-19 0-31 11t-12 29q0 46 50 63-11 13-40 13-13 0-19-2-38-16-56-66-60-221-60-258 0-28 16-40t35-12q37 0 73 33t49 81q3 10 6 11t16 2h4q15 0 15-8 0-1-2-11-16-57-62-101T333-11q-70 0-106 63-41-62-94-62h-6q-49 0-70 26T35 71q0 32 19 52t45 20q43 0 43-42 0-20-12-35t-23-20-13-5l-3-1q0-1 6-4t16-7 19-3q36 0 62 45 9 16 23 68t28 108 16 66q5 27 5 39 0 28-15 40t-34 12q-40 0-75-32t-49-82q-2-9-5-10t-16-2H58q-6 6-6 11z"/><path id="g" d="m712 899 6-6v-28q0-11-14-19-77-53-127-136t-67-185q0-1-1-4-4-28-5-172V240q0-242-1-244-1-4-9-5t-50-1q-52 0-54 1-3 1-4 4-2 10-2 235v82q0 50-1 70 0 99 9 153t42 121q76 150 230 236l13 7h35z"/><path id="h" d="m718-893-6-6h-35l-11 6q-124 68-198 179t-83 238q-1 10-1 194 0 285 1 287l4 4q3 1 55 1 42 0 50-1t9-5q1-2 1-243v-127q0-104 4-147t22-96q16-48 39-89t48-69 44-45 38-31 18-13 1-20v-17z"/><path id="i" d="M389 1159q2 1 66 1 41 0 43-1 3-1 4-4 2-10 2-231 0-233-1-242-9-133-78-243T243 259l-14-9 14-9q106-66 178-175t82-248q1-9 1-242v-205q0-29-5-30h-1q-2-1-54-1t-54 1q-3 1-4 4-2 10-2 230v143q0 106-7 166T342 10q-17 44-41 82t-46 63-41 41-31 26-12 10q-1 1-1 18t1 18q0 1 20 16t49 47 60 76 54 117 29 155q1 12 1 246 0 227 1 230l4 4z"/><path id="j" d="M384 150v116q0 38 5 43 2 1 66 1 41 0 43-1 4-1 5-11 1-15 1-148V12q0-20-5-21h-1q-2-1-54-1t-54 1q-4 1-5 11-1 15-1 148z"/><path id="k" d="M34 156q0 114 86 200t189 86q70 0 112-40t57-98q6-29 7-67v-29q49 74 75 166 4 14 6 16t16 3q21 0 21-8 0-9-9-39t-36-85-61-100l-11-14 1-24q2-56 8-76t19-21q14 2 26 11t17 23q2 7 5 8t15 2q20 0 20-8 0-6-6-19-12-24-35-38t-44-15h-7q-67 0-91 72l-3 7-11-8q-10-8-30-20t-45-23-58-20-64-9q-79 0-124 50T34 156zM208 26q49 0 98 21t73 43l24 22q-2 143-7 178-14 115-92 115-69 0-121-73-27-40-44-108t-18-104q0-49 25-71t62-23z"/><path id="l" d="M94 250q0 69 10 131t23 107 37 88 38 67 42 52 33 34 25 21h17q14 0 14-9 0-3-17-21t-41-53-49-86-42-138-17-193 17-192 41-139 49-86 42-53 17-21q0-9-15-9h-16l-28 24q-94 85-137 212T94 250z"/><path id="m" d="M399-80q0 33 1 50t2 19v4l-15-4q-46-11-84-11-95 0-165 57T51 201q-1 8-1 43 0 102 48 194t129 163q124 103 249 103 38 0 48-1 97-14 156-86t60-182q0-180-148-328-63-60-131-91l-17-8V3q0-1 5-27t21-42 46-16q35 0 67 22t42 57q6 14 13 14 9 0 11-9 0-8-10-36t-28-66-54-65-76-29q-82 0-82 107v7zm237 548q0 55-15 96t-41 61-50 30-53 10q-48 0-98-25-102-49-164-176t-62-248q0-106 54-157 24-21 29-21v8q0 40 33 74t78 35q25 0 43-11t27-30 12-32 6-27l13 9q64 44 109 121t62 149 17 134zM314 18q48 0 90 21l-1 10q-4 55-37 66-12 2-19 2h-6q-3 0-4 1-20 0-41-20t-22-46q0-34 40-34z"/><path id="b" d="m213 578-13-5q-14-5-40-10t-58-7H83v46h19q47 2 87 15t56 24 28 22q2 3 12 3 9 0 17-6V361l1-300q7-7 12-9t24-4 62-2h26V0h-11q-21 3-159 3-136 0-157-3H88v46h64q16 0 25 1t16 3 8 2 6 5 6 4v517z"/><path id="o" d="M48 1Q31 1 31 11q0 2 3 14 4 16 8 18t23 3q27 0 60 3 14 3 19 12 2 5 71 281t70 280q0 7-4 7-8 3-53 5h-31q-6 6-6 8t2 17q4 17 10 21h539q7-4 7-11 0-5-13-112t-14-110q-2-7-20-7h-12q-7 5-7 13 0 1 3 24t3 53q0 30-7 49t-19 31-37 16-51 7-72 1h-23q-82-1-87-3t-7-8q-1-1-34-131l-32-129h78q20 0 28 1t22 3 24 7 17 12q13 12 22 33t13 38 5 18q3 5 19 5h12q7-5 7-10 0-3-31-131t-34-132q-2-7-20-7h-12q-7 6-7 12 0 3 5 22t5 40q0 29-20 36t-89 7h-55l-32-127Q245 66 245 60q0-14 89-14h25q6-6 6-7t-2-20q-4-13-10-19h-17q-41 2-151 2H86Q52 2 48 1z"/><path id="p" d="m60 749 4 1h22l28-24q94-85 137-212t43-264q0-68-10-131T261 12t-37-88-38-67-41-51-32-33-23-19l-4-4H63q-3 0-5 3t-3 9q1 1 11 13Q221-64 221 250T66 725q-10 12-11 13 0 8 5 11z"/><path id="q" d="M230 637q-27 0-32 1t-5 11q0 27 11 33 2 1 174 1 172-1 186-3 56-8 94-28t54-46 21-43 6-34q0-45-29-84t-67-60-67-34-38-13l7-5q67-38 67-110 0-11-5-61t-5-82v-9q0-18 1-28t11-18 26-9q28 0 46 22t26 47q5 14 8 17t15 3q20 0 20-12 0-18-24-57-38-57-90-57h-9q-61 0-101 25t-44 78q0 27 15 84t15 73q0 51-43 74-15 7-25 8t-71 2h-69l-32-130Q244 61 244 59q0-4 1-5t7-4 17-2 33-2h31q6-8 6-9t-3-18q-4-13-10-19h-15q-36 2-131 2H71Q54 2 50 1q-17 0-17 9 0 2 3 14 5 19 10 21 4 1 15 1h6q27 0 60 3 14 3 19 12 3 4 72 278t69 289q0 7-57 9zm400-83q0 32-21 54t-86 28h-23q-21 0-38 1h-22q-47 0-54-10-1-3-34-133t-33-133q0-1 69-1 78 1 104 7 64 10 100 59 16 23 27 60t11 68z"/><path id="r" d="M462 0q-18 3-129 3-116 0-134-3h-9v46h58q7 0 17 2t14 5 7 8q1 2 1 54v50H28v46l151 231q153 232 155 233 2 2 21 2h18l6-6V211h92v-46h-92V66q0-7 6-12 8-7 57-8h29V0h-9zM293 211v334L74 212l109-1h110z"/><path id="s" d="M139-249h-2q-12 0-18 14v486l1 486q10 13 19 13 13 0 20-15v-970q-8-14-18-14h-2z"/><path id="t" d="M289 629q0 6-57 8-24 0-31 1t-7 10q0 1 2 11 1 3 2 7t1 5 2 5 2 3 4 2 5 2 8 0 12 1h30q24 0 45-1h91q12 0 16-5 1-4 37-282l36-279 23 37q24 36 64 100t88 140q175 279 177 281l3 3q2 2 4 3l6 2h136q23 0 29 1 34 0 34-11 0-5-3-17t-3-13q-4-6-37-6-40-1-51-3t-18-11q-3-5-72-283T797 59q0-4 1-5t7-4 17-2 33-2h31q6-9 6-11 0-16-7-30-5-5-16-5-5 0-41 1t-92 1h-92q-31 0-35-1-17 0-17 10 0 2 2 14 4 16 8 18t23 3q27 0 60 3 14 3 19 12 2 4 38 146t71 283 35 141L654 322Q458 10 453 5l-4-2q-5-3-16-3-15 0-18 7-2 4-41 310l-39 307-68-270Q200 88 200 79q6-33 72-33h10q6-5 7-9t-3-18q-4-16-8-18-4-1-11-1h-12q-10 0-34 1t-64 1q-30 0-62-1T58 0Q43 0 39 2t-4 9q0 2 3 14t5 15q2 6 22 6 70 0 89 40 4 6 69 268t66 275z"/><path id="u" d="M287 628q0 7-57 9-23 0-30 1t-7 9q0 8 4 20t7 15q2 1 199 1 167-1 187-1t40-6q72-17 122-79t51-166q0-156-107-280T444 3l-14-2-194-1H72Q48 0 41 2t-8 9q0 2 3 14 4 16 8 18t23 3q27 0 60 3 14 3 19 12 3 4 72 278t69 289zm416-159q0 38-11 68t-26 47-37 29-39 16-35 7h-43q-17 0-33 1h-43q-44 0-50-10-2-4-73-288T242 52q0-4 11-4t77-1h19q14 0 24-1 126 0 208 82 36 36 59 84t43 127 20 130z"/><path id="v" d="M84 237v13l14 20h581q15-8 15-20t-15-20H98q-14 7-14 20z"/><path id="w" d="M26 385q-7 7-7 10 0 4 3 16t5 14q2 5 9 5t51 1h53l19 80q3 11 7 29t7 26 6 20 8 17 10 12 14 9 18 2q18-1 25-11t7-19q0-7-9-47t-20-79l-10-37q0-2 50-2h51q7-7 7-11 0-22-13-35H210l-36-145Q135 80 135 68q0-42 27-42 35 0 68 34t53 84q2 6 5 7t15 2h4q15 0 15-8 0-3-3-12-5-16-18-38t-34-47-51-42-61-17q-30 0-57 15T59 56q-2 8-2 27v18l35 140q35 141 36 142 0 2-51 2H26z"/><path id="x" d="M170 875q0 17 2 20t17 4h22l11-6q123-67 198-178t83-239q1-9 1-246V21q0-30-5-30h-1q-2-1-54-1-42 0-50 1t-9 5q-1 2-1 244v126q0 103-4 147t-22 96q-16 48-39 89t-48 69-44 45-38 31-18 13-1 19z"/><path id="y" d="M384-239v182q0 61 5 66 2 1 66 1 41 0 43-1 3-1 4-4 2-10 2-235v-81q0-50 1-70 0-105-13-170t-57-140q-78-129-213-202l-11-6h-16q-19 0-22 3t-3 22q0 16 1 19t13 9q78 53 128 137t66 184q0 1 1 3 4 29 5 171v112z"/><path id="z" d="M389 1159q2 1 66 1 41 0 43-1 3-1 4-4 2-10 2-230V782q0-106 7-166t35-126q17-44 41-82t46-63 41-41 31-26 12-10q1-1 1-18t-1-18q0-1-20-16t-49-47-60-76-54-117-29-155q-1-12-1-246v-204q0-29-5-30h-1q-2-1-54-1t-54 1q-3 1-4 4-2 10-2 231 0 233 1 242 9 133 78 243t182 180l14 9-14 9q-106 66-178 175t-82 248q-1 10-1 191 0 280 1 282l4 4z"/></defs><g data-mml-node="math" stroke="currentColor" fill="currentColor" stroke-width="0"><g data-mml-node="msub"><use xlink:href="#a" data-mml-node="mi" transform="scale(1 -1)"/><g data-mml-node="TeXAtom"><text data-variant="normal" transform="matrix(.707 0 0 .707 642 176.7)" font-size="884" font-family="serif" data-mml-node="mo">б</text><use xlink:href="#b" data-mml-node="mn" transform="matrix(.707 0 0 -.707 959.938 176.7)"/></g></g><use xlink:href="#c" data-mml-node="mo" transform="matrix(1 0 0 -1 1641.3 0)"/><use xlink:href="#d" data-mml-node="mi" transform="matrix(1 0 0 -1 2697.1 0)"/><use xlink:href="#e" data-mml-node="mi" transform="matrix(1 0 0 -1 3575.1 0)"/><use xlink:href="#f" data-mml-node="mi" transform="matrix(1 0 0 -1 4104.1 0)"/><g data-mml-node="mrow"><g data-mml-node="mo" transform="matrix(1 0 0 -1 4676.1 0)"><use xlink:href="#g" transform="translate(0 1213.2)"/><use xlink:href="#h" transform="translate(0 -713.2)"/><use xlink:href="#i"/><svg width="889" height="243.2" y="1060" viewBox="0 42.9 889 243.2"><use xlink:href="#j" transform="scale(1 1.196)"/></svg><svg width="889" height="243.2" y="-803.2" viewBox="0 42.9 889 243.2"><use xlink:href="#j" transform="scale(1 1.196)"/></svg></g><g data-mml-node="mtable"><g data-mml-node="mtr"><g data-mml-node="mtd"><use xlink:href="#k" data-mml-node="mi" transform="matrix(1 0 0 -1 6724.5 -992.3)"/><use xlink:href="#l" data-mml-node="mo" transform="matrix(1 0 0 -1 7364.5 -992.3)"/><g data-mml-node="msub"><use xlink:href="#m" data-mml-node="mi" transform="matrix(1 0 0 -1 7753.5 -992.3)"/><g data-mml-node="TeXAtom"><text data-variant="normal" transform="matrix(.707 0 0 .707 8544.5 -815.6)" font-size="884" font-family="serif" data-mml-node="mo">Д</text></g></g><use xlink:href="#n" data-mml-node="mo" transform="matrix(1 0 0 -1 9243.3 -992.3)"/><use xlink:href="#o" data-mml-node="mi" transform="matrix(1 0 0 -1 10243.5 -992.3)"/><use xlink:href="#p" data-mml-node="mo" transform="matrix(1 0 0 -1 10992.5 -992.3)"/><use xlink:href="#n" data-mml-node="mo" transform="matrix(1 0 0 -1 11603.7 -992.3)"/><g data-mml-node="msub"><use xlink:href="#q" data-mml-node="mi" transform="matrix(1 0 0 -1 12604 -992.3)"/><g data-mml-node="TeXAtom"><text data-variant="normal" transform="matrix(.707 0 0 .707 13363 -815.6)" font-size="884" font-family="serif" data-mml-node="mo">П</text></g></g><use xlink:href="#n" data-mml-node="mo" transform="matrix(1 0 0 -1 14098.6 -992.3)"/><g data-mml-node="mfrac"><g data-mml-node="mrow"><use xlink:href="#r" data-mml-node="mn" transform="matrix(.707 0 0 -.707 15318.8 -1582.3)"/><g data-mml-node="msub"><use xlink:href="#k" data-mml-node="mi" transform="matrix(.707 0 0 -.707 15672.3 -1582.3)"/><g data-mml-node="TeXAtom"><text data-variant="normal" transform="matrix(.49985 0 0 .49985 16124.78 -1457.373)" font-size="884" font-family="serif" data-mml-node="mo">М</text></g></g><g data-mml-node="TeXAtom"><use xlink:href="#s" data-mml-node="mo" transform="matrix(.707 0 0 -.707 16553.01 -1582.3)"/></g><use xlink:href="#t" data-mml-node="mi" transform="matrix(.707 0 0 -.707 16749.556 -1582.3)"/><use xlink:href="#s" data-mml-node="mo" transform="matrix(.707 0 0 -.707 17492.613 -1582.3)"/></g><g data-mml-node="msub"><use xlink:href="#u" data-mml-node="mi" transform="matrix(.707 0 0 -.707 15882.5 -647.3)"/><g data-mml-node="TeXAtom"><g data-mml-node="mo" font-size="884" font-family="serif"><text data-variant="normal" transform="matrix(.49985 0 0 .49985 16467.896 -522.373)">С</text><text data-variant="normal" transform="matrix(.49985 0 0 .49985 16762.607 -522.373)">П</text></g></g></g><path stroke="none" d="M15218.8-1212.3h2570.7v-60h-2570.7z"/></g></g></g><g data-mml-node="mtr"><g data-mml-node="mtd"><use xlink:href="#k" data-mml-node="mi" transform="matrix(1 0 0 -1 5565.1 1017.3)"/><use xlink:href="#l" data-mml-node="mo" transform="matrix(1 0 0 -1 6205.1 1017.3)"/><g data-mml-node="msub"><use xlink:href="#m" data-mml-node="mi" transform="matrix(1 0 0 -1 6594.1 1017.3)"/><g data-mml-node="TeXAtom"><text data-variant="normal" transform="matrix(.707 0 0 .707 7385.1 1194)" font-size="884" font-family="serif" data-mml-node="mo">Д</text></g></g><use xlink:href="#n" data-mml-node="mo" transform="matrix(1 0 0 -1 8083.9 1017.3)"/><use xlink:href="#o" data-mml-node="mi" transform="matrix(1 0 0 -1 9084.1 1017.3)"/><use xlink:href="#p" data-mml-node="mo" transform="matrix(1 0 0 -1 9833.1 1017.3)"/><use xlink:href="#n" data-mml-node="mo" transform="matrix(1 0 0 -1 10444.3 1017.3)"/><g data-mml-node="msub"><use xlink:href="#q" data-mml-node="mi" transform="matrix(1 0 0 -1 11444.6 1017.3)"/><g data-mml-node="TeXAtom"><text data-variant="normal" transform="matrix(.707 0 0 .707 12203.6 1194)" font-size="884" font-family="serif" data-mml-node="mo">П</text></g></g><use xlink:href="#n" data-mml-node="mo" transform="matrix(1 0 0 -1 12939.2 1017.3)"/><g data-mml-node="mfrac"><g data-mml-node="mrow"><use xlink:href="#r" data-mml-node="mn" transform="matrix(.707 0 0 -.707 14159.4 427.3)"/><g data-mml-node="msub"><use xlink:href="#k" data-mml-node="mi" transform="matrix(.707 0 0 -.707 14512.9 427.3)"/><g data-mml-node="TeXAtom"><text data-variant="normal" transform="matrix(.49985 0 0 .49985 14965.38 552.227)" font-size="884" font-family="serif" data-mml-node="mo">М</text></g></g><g data-mml-node="TeXAtom"><use xlink:href="#s" data-mml-node="mo" transform="matrix(.707 0 0 -.707 15393.61 427.3)"/></g><use xlink:href="#t" data-mml-node="mi" transform="matrix(.707 0 0 -.707 15590.156 427.3)"/><use xlink:href="#s" data-mml-node="mo" transform="matrix(.707 0 0 -.707 16333.213 427.3)"/></g><g data-mml-node="msub"><use xlink:href="#u" data-mml-node="mi" transform="matrix(.707 0 0 -.707 14723.1 1362.3)"/><g data-mml-node="TeXAtom"><g data-mml-node="mo" font-size="884" font-family="serif"><text data-variant="normal" transform="matrix(.49985 0 0 .49985 15308.496 1487.227)">С</text><text data-variant="normal" transform="matrix(.49985 0 0 .49985 15603.207 1487.227)">П</text></g></g></g><path stroke="none" d="M14059.4 797.3h2570.7v-60h-2570.7z"/></g><use xlink:href="#v" data-mml-node="mo" transform="matrix(1 0 0 -1 16972.3 1017.3)"/><g data-mml-node="msub"><use xlink:href="#m" data-mml-node="mi" transform="matrix(1 0 0 -1 17972.5 1017.3)"/><g data-mml-node="TeXAtom"><use xlink:href="#w" data-mml-node="mi" transform="matrix(.707 0 0 -.707 18763.5 1167.3)"/></g></g></g></g></g><g data-mml-node="mo" transform="matrix(1 0 0 -1 19068.8 0)"><use xlink:href="#x" transform="translate(0 1213.2)"/><use xlink:href="#y" transform="translate(0 -713.2)"/><use xlink:href="#z"/><svg width="889" height="243.2" y="1060" viewBox="0 42.9 889 243.2"><use xlink:href="#j" transform="scale(1 1.196)"/></svg><svg width="889" height="243.2" y="-803.2" viewBox="0 42.9 889 243.2"><use xlink:href="#j" transform="scale(1 1.196)"/></svg></g></g></g></svg>