<svg xmlns="http://www.w3.org/2000/svg" width="50.344" height="18.096" viewBox="0 -750 2781.6 1000" xmlns:xlink="http://www.w3.org/1999/xlink"><defs><path id="a" d="M33 157q0 101 76 192t171 92q60 0 92-52 1 1 5 6t11 11 16 12q34 24 46 24 4 0 7-3t3-5q0-9-69-285-71-284-71-288 0-8 45-9h25q6-8 6-9t-3-18q-4-13-10-19h-13q-31 2-108 2h-88q-14 0-17-1-14 0-14 8 0 3 2 15 4 16 7 19t20 3q48 0 58 7 8 5 28 88t21 85q0 1-7-3-48-39-100-39-55 0-97 40T33 157zm319 169q-23 79-75 79-35 0-67-31t-50-81q-29-79-41-164v-11q0-8-1-12 0-45 18-62t43-18q54 0 111 72l8 11 54 217z"/><path id="b" d="M56 347q0 13 14 20h637q15-8 15-20 0-11-14-19l-318-1H72q-16 5-16 20zm0-194q0 15 16 20h636q14-10 14-20 0-13-15-20H70q-14 7-14 20z"/><path id="c" d="M118-250V750h137v-40h-97v-920h97v-40H118z"/><path id="d" d="M22 710v40h137V-250H22v40h97v920H22z"/></defs><g data-mml-node="math" stroke="currentColor" fill="currentColor" stroke-width="0"><use xlink:href="#a" data-mml-node="mi" transform="scale(1 -1)"/><use xlink:href="#b" data-mml-node="mo" transform="matrix(1 0 0 -1 723.8 0)"/><use xlink:href="#c" data-mml-node="mo" transform="matrix(1 0 0 -1 1779.6 0)"/><use xlink:href="#a" data-mml-node="mi" transform="matrix(1 0 0 -1 2057.6 0)"/><use xlink:href="#d" data-mml-node="mo" transform="matrix(1 0 0 -1 2503.6 0)"/></g></svg>