<svg xmlns="http://www.w3.org/2000/svg" width="144.176" height="45.224" viewBox="0 -1459 7965.8 2498.5" xmlns:xlink="http://www.w3.org/1999/xlink"><defs><path id="a" d="M399-80q0 33 1 50t2 19v4l-15-4q-46-11-84-11-95 0-165 57T51 201q-1 8-1 43 0 102 48 194t129 163q124 103 249 103 38 0 48-1 97-14 156-86t60-182q0-180-148-328-63-60-131-91l-17-8V3q0-1 5-27t21-42 46-16q35 0 67 22t42 57q6 14 13 14 9 0 11-9 0-8-10-36t-28-66-54-65-76-29q-82 0-82 107v7zm237 548q0 55-15 96t-41 61-50 30-53 10q-48 0-98-25-102-49-164-176t-62-248q0-106 54-157 24-21 29-21v8q0 40 33 74t78 35q25 0 43-11t27-30 12-32 6-27l13 9q64 44 109 121t62 149 17 134zM314 18q48 0 90 21l-1 10q-4 55-37 66-12 2-19 2h-6q-3 0-4 1-20 0-41-20t-22-46q0-34 40-34z"/><path id="b" d="M48 1Q31 1 31 11q0 2 3 14 4 16 8 18t23 3q27 0 60 3 14 3 19 12 2 5 71 281t70 280q0 7-4 7-8 3-53 5h-31q-6 6-6 8t2 17q4 17 10 21h539q7-4 7-11 0-5-13-112t-14-110q-2-7-20-7h-12q-7 5-7 13 0 1 3 24t3 53q0 30-7 49t-19 31-37 16-51 7-72 1h-23q-82-1-87-3t-7-8q-1-1-34-131l-32-129h78q20 0 28 1t22 3 24 7 17 12q13 12 22 33t13 38 5 18q3 5 19 5h12q7-5 7-10 0-3-31-131t-34-132q-2-7-20-7h-12q-7 6-7 12 0 3 5 22t5 40q0 29-20 36t-89 7h-55l-32-127Q245 66 245 60q0-14 89-14h25q6-6 6-7t-2-20q-4-13-10-19h-17q-41 2-151 2H86Q52 2 48 1z"/><path id="c" d="M289 629q0 6-57 8-24 0-31 1t-7 10q0 1 2 11 1 3 2 7t1 5 2 5 2 3 4 2 5 2 8 0 12 1h30q24 0 45-1h91q12 0 16-5 1-4 37-282l36-279 23 37q24 36 64 100t88 140q175 279 177 281l3 3q2 2 4 3l6 2h136q23 0 29 1 34 0 34-11 0-5-3-17t-3-13q-4-6-37-6-40-1-51-3t-18-11q-3-5-72-283T797 59q0-4 1-5t7-4 17-2 33-2h31q6-9 6-11 0-16-7-30-5-5-16-5-5 0-41 1t-92 1h-92q-31 0-35-1-17 0-17 10 0 2 2 14 4 16 8 18t23 3q27 0 60 3 14 3 19 12 2 4 38 146t71 283 35 141L654 322Q458 10 453 5l-4-2q-5-3-16-3-15 0-18 7-2 4-41 310l-39 307-68-270Q200 88 200 79q6-33 72-33h10q6-5 7-9t-3-18q-4-16-8-18-4-1-11-1h-12q-10 0-34 1t-64 1q-30 0-62-1T58 0Q43 0 39 2t-4 9q0 2 3 14t5 15q2 6 22 6 70 0 89 40 4 6 69 268t66 275z"/><path id="d" d="M56 347q0 13 14 20h637q15-8 15-20 0-11-14-19l-318-1H72q-16 5-16 20zm0-194q0 15 16 20h636q14-10 14-20 0-13-15-20H70q-14 7-14 20z"/><path id="e" d="M56 320v13l14 20h299v149q0 149 2 153 5 11 17 11 14 0 17-12t4-58V353h298q15-8 15-20 0-13-15-20H409V40h298q15-8 15-20T707 0H70Q56 7 56 20t14 20h299v273H70q-14 7-14 20z"/><path id="f" d="M462 0q-18 3-129 3-116 0-134-3h-9v46h58q7 0 17 2t14 5 7 8q1 2 1 54v50H28v46l151 231q153 232 155 233 2 2 21 2h18l6-6V211h92v-46h-92V66q0-7 6-12 8-7 57-8h29V0h-9zM293 211v334L74 212l109-1h110z"/><path id="g" d="M139-249h-2q-12 0-18 14v486l1 486q10 13 19 13 13 0 20-15v-970q-8-14-18-14h-2z"/><path id="h" d="M287 628q0 7-57 9-23 0-30 1t-7 9q0 8 4 20t7 15q2 1 199 1 167-1 187-1t40-6q72-17 122-79t51-166q0-156-107-280T444 3l-14-2-194-1H72Q48 0 41 2t-8 9q0 2 3 14 4 16 8 18t23 3q27 0 60 3 14 3 19 12 3 4 72 278t69 289zm416-159q0 38-11 68t-26 47-37 29-39 16-35 7h-43q-17 0-33 1h-43q-44 0-50-10-2-4-73-288T242 52q0-4 11-4t77-1h19q14 0 24-1 126 0 208 82 36 36 59 84t43 127 20 130z"/></defs><g data-mml-node="math" stroke="currentColor" fill="currentColor" stroke-width="0"><g data-mml-node="msub"><use xlink:href="#a" data-mml-node="mi" transform="scale(1 -1)"/><g data-mml-node="TeXAtom"><use xlink:href="#b" data-mml-node="mi" transform="matrix(.707 0 0 -.707 791 150)"/><use xlink:href="#c" data-mml-node="mi" transform="matrix(.707 0 0 -.707 1320.543 150)"/></g></g><use xlink:href="#d" data-mml-node="mo" transform="matrix(1 0 0 -1 2391.6 0)"/><use xlink:href="#b" data-mml-node="mi" transform="matrix(1 0 0 -1 3447.3 0)"/><use xlink:href="#e" data-mml-node="mo" transform="matrix(1 0 0 -1 4418.6 0)"/><g data-mml-node="mfrac"><g data-mml-node="mrow"><use xlink:href="#f" data-mml-node="mn" transform="matrix(1 0 0 -1 5638.8 -709.5)"/><g data-mml-node="TeXAtom"><use xlink:href="#g" data-mml-node="mo" transform="matrix(1 0 0 -1 6138.8 -709.5)"/></g><use xlink:href="#c" data-mml-node="mi" transform="matrix(1 0 0 -1 6416.8 -709.5)"/><use xlink:href="#g" data-mml-node="mo" transform="matrix(1 0 0 -1 7467.8 -709.5)"/></g><g data-mml-node="msub"><use xlink:href="#h" data-mml-node="mi" transform="matrix(1 0 0 -1 5813.1 686)"/><g data-mml-node="TeXAtom"><g data-mml-node="mo" font-size="884" font-family="serif"><text data-variant="normal" transform="matrix(.707 0 0 .707 6641.1 862.7)">ะก</text><text data-variant="normal" transform="matrix(.707 0 0 .707 7057.947 862.7)">ะ</text></g></g></g><path stroke="none" d="M5538.8-220h2307v-60h-2307z"/></g></g></svg>