<svg xmlns="http://www.w3.org/2000/svg" width="395.496" height="70.584" viewBox="0 -2199.9 21851.1 3899.9" xmlns:xlink="http://www.w3.org/1999/xlink"><defs><path id="k" d="m213 578-13-5q-14-5-40-10t-58-7H83v46h19q47 2 87 15t56 24 28 22q2 3 12 3 9 0 17-6V361l1-300q7-7 12-9t24-4 62-2h26V0h-11q-21 3-159 3-136 0-157-3H88v46h64q16 0 25 1t16 3 8 2 6 5 6 4v517z"/><path id="a" d="M399-80q0 33 1 50t2 19v4l-15-4q-46-11-84-11-95 0-165 57T51 201q-1 8-1 43 0 102 48 194t129 163q124 103 249 103 38 0 48-1 97-14 156-86t60-182q0-180-148-328-63-60-131-91l-17-8V3q0-1 5-27t21-42 46-16q35 0 67 22t42 57q6 14 13 14 9 0 11-9 0-8-10-36t-28-66-54-65-76-29q-82 0-82 107v7zm237 548q0 55-15 96t-41 61-50 30-53 10q-48 0-98-25-102-49-164-176t-62-248q0-106 54-157 24-21 29-21v8q0 40 33 74t78 35q25 0 43-11t27-30 12-32 6-27l13 9q64 44 109 121t62 149 17 134zM314 18q48 0 90 21l-1 10q-4 55-37 66-12 2-19 2h-6q-3 0-4 1-20 0-41-20t-22-46q0-34 40-34z"/><path id="c" d="M56 347q0 13 14 20h637q15-8 15-20 0-11-14-19l-318-1H72q-16 5-16 20zm0-194q0 15 16 20h636q14-10 14-20 0-13-15-20H70q-14 7-14 20z"/><path id="d" d="M31 249q-20 0-20 9 0 17 15 46t40 61 63 53 77 23q27 0 33-1 48-11 79-54t53-131q14-60 14-85 0-4 1-4l12 27q20 51 45 107t43 91 22 39q2 1 16 1h13q6-6 6-9 0-4-21-44t-59-127-72-180q-6-16-13-65t-21-106q-16-65-27-90t-27-26q-17 0-17 28 0 50 54 220l6 19 1 18q1 10 1 31 0 157-57 217-40 38-95 38-48 0-88-26t-57-69q-2-9-4-9-2-2-16-2z"/><path id="f" d="M319-645v1799h347v-84H403V-645h-84z"/><path id="g" d="M319-644v1799h84V-560h263v-84H319z"/><path id="h" d="M319 0v602h84V0h-84z"/><path id="i" d="M94 250q0 69 10 131t23 107 37 88 38 67 42 52 33 34 25 21h17q14 0 14-9 0-3-17-21t-41-53-49-86-42-138-17-193 17-192 41-139 49-86 42-53 17-21q0-9-15-9h-16l-28 24q-94 85-137 212T94 250z"/><path id="j" d="M34 156q0 114 86 200t189 86q70 0 112-40t57-98q6-29 7-67v-29q49 74 75 166 4 14 6 16t16 3q21 0 21-8 0-9-9-39t-36-85-61-100l-11-14 1-24q2-56 8-76t19-21q14 2 26 11t17 23q2 7 5 8t15 2q20 0 20-8 0-6-6-19-12-24-35-38t-44-15h-7q-67 0-91 72l-3 7-11-8q-10-8-30-20t-45-23-58-20-64-9q-79 0-124 50T34 156zM208 26q49 0 98 21t73 43l24 22q-2 143-7 178-14 115-92 115-69 0-121-73-27-40-44-108t-18-104q0-49 25-71t62-23z"/><path id="b" d="M26 385q-7 7-7 10 0 4 3 16t5 14q2 5 9 5t51 1h53l19 80q3 11 7 29t7 26 6 20 8 17 10 12 14 9 18 2q18-1 25-11t7-19q0-7-9-47t-20-79l-10-37q0-2 50-2h51q7-7 7-11 0-22-13-35H210l-36-145Q135 80 135 68q0-42 27-42 35 0 68 34t53 84q2 6 5 7t15 2h4q15 0 15-8 0-3-3-12-5-16-18-38t-34-47-51-42-61-17q-30 0-57 15T59 56q-2 8-2 27v18l35 140q35 141 36 142 0 2-51 2H26z"/><path id="l" d="M137 683q1 0 72 5t73 6q12 0 12-9 0-11-36-151-38-148-38-151 0-2 7 5 61 54 130 54 54 0 87-27t34-79q0-51-38-158T402 50q1-14 5-19t15-5q28 0 52 30t39 82q3 11 6 13t16 2q20 0 20-8 0-1-4-15-16-59-51-97-34-43-81-43h-5q-47 0-68 27t-21 57q0 16 36 118t37 153q0 59-44 59h-5q-83 0-144-98l-7-13-34-135Q132 28 127 16q-13-27-44-27-14 0-24 9T48 16q0 14 73 304l74 296q0 13-7 16t-39 5h-21q-6 6-6 8t2 19q5 19 13 19z"/><path id="m" d="m60 749 4 1h22l28-24q94-85 137-212t43-264q0-68-10-131T261 12t-37-88-38-67-41-51-32-33-23-19l-4-4H63q-3 0-5 3t-3 9q1 1 11 13Q221-64 221 250T66 725q-10 12-11 13 0 8 5 11z"/><path id="n" d="M84 237v13l14 20h581q15-8 15-20t-15-20H98q-14 7-14 20z"/><path id="o" d="M109 429q-27 0-43 18t-16 44q0 71 53 123t132 52q91 0 152-56t62-145q0-43-20-82t-48-68-80-74q-36-31-100-92l-59-56 76-1q157 0 167 5 7 2 24 89v3h40v-3q-1-3-13-91T421 3V0H50v31q0 7 6 15t30 35q29 32 50 56 9 10 34 37t34 37 29 33 28 34 23 30 21 32 15 29 13 32 7 30 3 33q0 63-34 109t-97 46q-33 0-58-17t-35-33-10-19q0-1 5-1 18 0 37-14t19-46q0-25-16-42t-45-18z"/><path id="p" d="M96 585q56 81 153 81 48 0 96-26t78-92q37-83 37-228 0-155-43-237-20-42-55-67t-61-31-51-7q-26 0-52 6t-61 32-55 67q-43 82-43 237 0 174 57 265zm225 12q-30 32-71 32-42 0-72-32-25-26-33-72t-8-192q0-158 8-208t36-79q28-30 69-30 40 0 68 30 29 30 36 84t8 203q0 145-8 191t-33 73z"/><path id="q" d="M56 237v13l14 20h299v150l1 150q10 13 19 13 13 0 20-15V270h298q15-8 15-20t-15-20H409V-68q-8-14-18-14h-4q-12 0-18 14v298H70q-14 7-14 20z"/><path id="r" d="M0 1070v84h347V-645h-84v1715H0z"/><path id="s" d="M263-560v1715h84V-644H0v84h263z"/><path id="t" d="M263 0v602h84V0h-84z"/></defs><g data-mml-node="math" stroke="currentColor" fill="currentColor" stroke-width="0"><g data-mml-node="msub"><use xlink:href="#a" data-mml-node="mi" transform="scale(1 -1)"/><g data-mml-node="TeXAtom"><use xlink:href="#b" data-mml-node="mi" transform="matrix(.707 0 0 -.707 791 150)"/></g></g><use xlink:href="#c" data-mml-node="mo" transform="matrix(1 0 0 -1 1374 0)"/><use xlink:href="#d" data-mml-node="mi" transform="matrix(1 0 0 -1 2429.8 0)"/><use xlink:href="#e" data-mml-node="mtext" transform="matrix(1 0 0 -1 2947.8 0)"/><g data-mml-node="mrow"><g data-mml-node="mo" transform="matrix(1 0 0 -1 3197.8 0)"><use xlink:href="#f" transform="translate(104 1045.9)"/><use xlink:href="#g" transform="translate(104 -1055.9)"/><svg width="667" height="501.9" y="-.9" x="104" viewBox="0 125.5 667 501.9"><use xlink:href="#h" transform="scale(1 1.25)"/></svg></g><g data-mml-node="mtable"><g data-mml-node="mtr"><g data-mml-node="mtd"><use xlink:href="#i" data-mml-node="mo" transform="matrix(1 0 0 -1 4148.4 -1449.9)"/><g data-mml-node="msub"><use xlink:href="#j" data-mml-node="mi" transform="matrix(1 0 0 -1 4537.4 -1449.9)"/><g data-mml-node="TeXAtom"><text data-variant="normal" transform="matrix(.707 0 0 .707 5177.4 -1273.2)" font-size="884" font-family="serif" data-mml-node="mo">ф</text><use xlink:href="#k" data-mml-node="mn" transform="matrix(.707 0 0 -.707 5582.228 -1273.2)"/></g></g><g data-mml-node="msub"><use xlink:href="#l" data-mml-node="mi" transform="matrix(1 0 0 -1 5985.8 -1449.9)"/><g data-mml-node="TeXAtom"><use xlink:href="#k" data-mml-node="mn" transform="matrix(.707 0 0 -.707 6561.8 -1299.9)"/></g></g><use xlink:href="#m" data-mml-node="mo" transform="matrix(1 0 0 -1 6965.4 -1449.9)"/><use xlink:href="#i" data-mml-node="mo" transform="matrix(1 0 0 -1 7354.4 -1449.9)"/><g data-mml-node="msub"><use xlink:href="#b" data-mml-node="mi" transform="matrix(1 0 0 -1 7743.4 -1449.9)"/><g data-mml-node="TeXAtom"><text data-variant="normal" transform="matrix(.707 0 0 .707 8104.4 -1273.2)" font-size="884" font-family="serif" data-mml-node="mo">ф</text><use xlink:href="#k" data-mml-node="mn" transform="matrix(.707 0 0 -.707 8509.228 -1273.2)"/></g></g><use xlink:href="#n" data-mml-node="mo" transform="matrix(1 0 0 -1 9135 -1449.9)"/><g data-mml-node="mn" transform="matrix(1 0 0 -1 10135.2 -1449.9)"><use xlink:href="#o"/><use xlink:href="#p" transform="translate(500)"/></g><use xlink:href="#m" data-mml-node="mo" transform="matrix(1 0 0 -1 11135.2 -1449.9)"/><use xlink:href="#q" data-mml-node="mo" transform="matrix(1 0 0 -1 11746.4 -1449.9)"/><use xlink:href="#i" data-mml-node="mo" transform="matrix(1 0 0 -1 12746.7 -1449.9)"/><g data-mml-node="msub"><use xlink:href="#j" data-mml-node="mi" transform="matrix(1 0 0 -1 13135.7 -1449.9)"/><g data-mml-node="TeXAtom"><text data-variant="normal" transform="matrix(.707 0 0 .707 13775.7 -1273.2)" font-size="884" font-family="serif" data-mml-node="mo">ф</text><use xlink:href="#o" data-mml-node="mn" transform="matrix(.707 0 0 -.707 14180.528 -1273.2)"/></g></g><g data-mml-node="msub"><use xlink:href="#l" data-mml-node="mi" transform="matrix(1 0 0 -1 14584.1 -1449.9)"/><g data-mml-node="TeXAtom"><use xlink:href="#o" data-mml-node="mn" transform="matrix(.707 0 0 -.707 15160.1 -1299.9)"/></g></g><use xlink:href="#m" data-mml-node="mo" transform="matrix(1 0 0 -1 15563.6 -1449.9)"/><use xlink:href="#i" data-mml-node="mo" transform="matrix(1 0 0 -1 15952.6 -1449.9)"/><g data-mml-node="msub"><use xlink:href="#b" data-mml-node="mi" transform="matrix(1 0 0 -1 16341.6 -1449.9)"/><g data-mml-node="TeXAtom"><text data-variant="normal" transform="matrix(.707 0 0 .707 16702.6 -1273.2)" font-size="884" font-family="serif" data-mml-node="mo">ф</text><use xlink:href="#o" data-mml-node="mn" transform="matrix(.707 0 0 -.707 17107.428 -1273.2)"/></g></g><use xlink:href="#n" data-mml-node="mo" transform="matrix(1 0 0 -1 17733.3 -1449.9)"/><g data-mml-node="mn" transform="matrix(1 0 0 -1 18733.5 -1449.9)"><use xlink:href="#o"/><use xlink:href="#p" transform="translate(500)"/></g><use xlink:href="#m" data-mml-node="mo" transform="matrix(1 0 0 -1 19733.5 -1449.9)"/><use xlink:href="#q" data-mml-node="mo" transform="matrix(1 0 0 -1 20122.5 -1449.9)"/></g></g><g data-mml-node="mtr"><g data-mml-node="mtd"><use xlink:href="#q" data-mml-node="mo" transform="matrix(1 0 0 -1 4072.8 -51.8)"/><g data-mml-node="msub"><use xlink:href="#j" data-mml-node="mi" transform="matrix(1 0 0 -1 4850.8 -51.8)"/><g data-mml-node="TeXAtom"><text data-variant="normal" transform="matrix(.707 0 0 .707 5490.8 124.9)" font-size="884" font-family="serif" data-mml-node="mo">К</text><use xlink:href="#k" data-mml-node="mn" transform="matrix(.707 0 0 -.707 5915.495 124.9)"/></g></g><g data-mml-node="msub"><use xlink:href="#l" data-mml-node="mi" transform="matrix(1 0 0 -1 6319.1 -51.8)"/><g data-mml-node="TeXAtom"><text data-variant="normal" transform="matrix(.707 0 0 .707 6895.1 124.9)" font-size="884" font-family="serif" data-mml-node="mo">К</text><use xlink:href="#k" data-mml-node="mn" transform="matrix(.707 0 0 -.707 7319.795 124.9)"/></g></g><use xlink:href="#i" data-mml-node="mo" transform="matrix(1 0 0 -1 7723.4 -51.8)"/><g data-mml-node="msub"><use xlink:href="#b" data-mml-node="mi" transform="matrix(1 0 0 -1 8112.4 -51.8)"/><g data-mml-node="TeXAtom"><text data-variant="normal" transform="matrix(.707 0 0 .707 8473.4 124.9)" font-size="884" font-family="serif" data-mml-node="mo">К</text><use xlink:href="#k" data-mml-node="mn" transform="matrix(.707 0 0 -.707 8898.095 124.9)"/></g></g><use xlink:href="#n" data-mml-node="mo" transform="matrix(1 0 0 -1 9524 -51.8)"/><g data-mml-node="mn" transform="matrix(1 0 0 -1 10524.2 -51.8)"><use xlink:href="#o"/><use xlink:href="#p" transform="translate(500)"/></g><use xlink:href="#m" data-mml-node="mo" transform="matrix(1 0 0 -1 11524.2 -51.8)"/><use xlink:href="#q" data-mml-node="mo" transform="matrix(1 0 0 -1 12135.4 -51.8)"/><g data-mml-node="msub"><use xlink:href="#j" data-mml-node="mi" transform="matrix(1 0 0 -1 13135.6 -51.8)"/><g data-mml-node="TeXAtom"><text data-variant="normal" transform="matrix(.707 0 0 .707 13775.6 124.9)" font-size="884" font-family="serif" data-mml-node="mo">К</text><use xlink:href="#o" data-mml-node="mn" transform="matrix(.707 0 0 -.707 14200.295 124.9)"/></g></g><g data-mml-node="msub"><use xlink:href="#l" data-mml-node="mi" transform="matrix(1 0 0 -1 14604 -51.8)"/><g data-mml-node="TeXAtom"><text data-variant="normal" transform="matrix(.707 0 0 .707 15180 124.9)" font-size="884" font-family="serif" data-mml-node="mo">К</text><use xlink:href="#o" data-mml-node="mn" transform="matrix(.707 0 0 -.707 15604.695 124.9)"/></g></g><use xlink:href="#i" data-mml-node="mo" transform="matrix(1 0 0 -1 16008.3 -51.8)"/><g data-mml-node="msub"><use xlink:href="#b" data-mml-node="mi" transform="matrix(1 0 0 -1 16397.3 -51.8)"/><g data-mml-node="TeXAtom"><text data-variant="normal" transform="matrix(.707 0 0 .707 16758.3 124.9)" font-size="884" font-family="serif" data-mml-node="mo">К</text><use xlink:href="#o" data-mml-node="mn" transform="matrix(.707 0 0 -.707 17182.995 124.9)"/></g></g><use xlink:href="#n" data-mml-node="mo" transform="matrix(1 0 0 -1 17808.8 -51.8)"/><g data-mml-node="mn" transform="matrix(1 0 0 -1 18809.1 -51.8)"><use xlink:href="#o"/><use xlink:href="#p" transform="translate(500)"/></g><use xlink:href="#m" data-mml-node="mo" transform="matrix(1 0 0 -1 19809.1 -51.8)"/><use xlink:href="#q" data-mml-node="mo" transform="matrix(1 0 0 -1 20198.1 -51.8)"/></g></g><g data-mml-node="mtr"><g data-mml-node="mtd"><use xlink:href="#q" data-mml-node="mo" transform="matrix(1 0 0 -1 4343.2 1346.4)"/><g data-mml-node="msub"><use xlink:href="#j" data-mml-node="mi" transform="matrix(1 0 0 -1 5121.2 1346.4)"/><g data-mml-node="TeXAtom"><text data-variant="normal" transform="matrix(.707 0 0 .707 5761.2 1523.1)" font-size="884" font-family="serif" data-mml-node="mo">р</text></g></g><g data-mml-node="msub"><use xlink:href="#l" data-mml-node="mi" transform="matrix(1 0 0 -1 6123.7 1346.4)"/><g data-mml-node="TeXAtom"><text data-variant="normal" transform="matrix(.707 0 0 .707 6699.7 1523.1)" font-size="884" font-family="serif" data-mml-node="mo">р</text></g></g><use xlink:href="#i" data-mml-node="mo" transform="matrix(1 0 0 -1 7062.3 1346.4)"/><g data-mml-node="msub"><use xlink:href="#b" data-mml-node="mi" transform="matrix(1 0 0 -1 7451.3 1346.4)"/><g data-mml-node="TeXAtom"><text data-variant="normal" transform="matrix(.707 0 0 .707 7812.3 1523.1)" font-size="884" font-family="serif" data-mml-node="mo">р</text></g></g><use xlink:href="#n" data-mml-node="mo" transform="matrix(1 0 0 -1 8397 1346.4)"/><g data-mml-node="mn" transform="matrix(1 0 0 -1 9397.3 1346.4)"><use xlink:href="#o"/><use xlink:href="#p" transform="translate(500)"/></g><use xlink:href="#m" data-mml-node="mo" transform="matrix(1 0 0 -1 10397.3 1346.4)"/><use xlink:href="#n" data-mml-node="mo" transform="matrix(1 0 0 -1 11008.5 1346.4)"/><g data-mml-node="msub"><use xlink:href="#j" data-mml-node="mi" transform="matrix(1 0 0 -1 12008.7 1346.4)"/><g data-mml-node="TeXAtom"><text data-variant="normal" transform="matrix(.707 0 0 .707 12648.7 1523.1)" font-size="884" font-family="serif" data-mml-node="mo">б</text></g></g><use xlink:href="#i" data-mml-node="mo" transform="matrix(1 0 0 -1 13016.7 1346.4)"/><g data-mml-node="msub"><use xlink:href="#l" data-mml-node="mi" transform="matrix(1 0 0 -1 13405.7 1346.4)"/><g data-mml-node="TeXAtom"><use xlink:href="#k" data-mml-node="mn" transform="matrix(.707 0 0 -.707 13981.7 1496.4)"/></g></g><use xlink:href="#q" data-mml-node="mo" transform="matrix(1 0 0 -1 14607.5 1346.4)"/><g data-mml-node="msub"><use xlink:href="#l" data-mml-node="mi" transform="matrix(1 0 0 -1 15607.7 1346.4)"/><g data-mml-node="TeXAtom"><use xlink:href="#o" data-mml-node="mn" transform="matrix(.707 0 0 -.707 16183.7 1496.4)"/></g></g><use xlink:href="#m" data-mml-node="mo" transform="matrix(1 0 0 -1 16587.2 1346.4)"/><use xlink:href="#i" data-mml-node="mo" transform="matrix(1 0 0 -1 16976.2 1346.4)"/><g data-mml-node="msub"><use xlink:href="#b" data-mml-node="mi" transform="matrix(1 0 0 -1 17365.2 1346.4)"/><g data-mml-node="TeXAtom"><text data-variant="normal" transform="matrix(.707 0 0 .707 17726.2 1523.1)" font-size="884" font-family="serif" data-mml-node="mo">б</text></g></g><use xlink:href="#n" data-mml-node="mo" transform="matrix(1 0 0 -1 18316.4 1346.4)"/><g data-mml-node="mn" transform="matrix(1 0 0 -1 19316.7 1346.4)"><use xlink:href="#o"/><use xlink:href="#p" transform="translate(500)"/></g><use xlink:href="#m" data-mml-node="mo" transform="matrix(1 0 0 -1 20316.7 1346.4)"/></g></g></g><g data-mml-node="mo" transform="matrix(1 0 0 -1 20976.1 0)"><use xlink:href="#r" transform="translate(104 1045.9)"/><use xlink:href="#s" transform="translate(104 -1055.9)"/><svg width="667" height="501.9" y="-.9" x="104" viewBox="0 125.5 667 501.9"><use xlink:href="#t" transform="scale(1 1.25)"/></svg></g></g></g></svg>