<svg xmlns="http://www.w3.org/2000/svg" width="75.4" height="24.864" viewBox="0 -1060.7 4166 1373.6" xmlns:xlink="http://www.w3.org/1999/xlink"><defs><path id="a" d="M184-11q-68 0-110 45T31 147q0 100 73 186t170 97q1 1 140 1h138q1-1 3-2t4-2 3-2 3-3 2-2 2-4 1-4 1-5 1-6q0-44-65-44h-17q-10 0-14 1h-60l5-10q18-38 18-85 0-110-80-192T184-11zm177 289q0 80-85 80-124 0-161-174-1-4-1-6-8-37-8-61 0-50 25-70t57-21q54 0 99 47 29 30 47 80t22 80 5 45z"/><path id="b" d="M96 585q56 81 153 81 48 0 96-26t78-92q37-83 37-228 0-155-43-237-20-42-55-67t-61-31-51-7q-26 0-52 6t-61 32-55 67q-43 82-43 237 0 174 57 265zm225 12q-30 32-71 32-42 0-72-32-25-26-33-72t-8-192q0-158 8-208t36-79q28-30 69-30 40 0 68 30 29 30 36 84t8 203q0 145-8 191t-33 73z"/><path id="c" d="M56 347q0 13 14 20h637q15-8 15-20 0-11-14-19l-318-1H72q-16 5-16 20zm0-194q0 15 16 20h636q14-10 14-20 0-13-15-20H70q-14 7-14 20z"/><path id="d" d="M118-162q2 0 6-2t11-3 12-1q13 0 24 13t16 29q10 27 34 153t46 240 22 115v3h-47q-47 0-50 2-4 3-4 10l7 28q2 5 8 5t47 1q48 0 48 1 0 2 9 50t12 58q37 165 146 165 37-2 61-22t24-53q0-36-21-52t-42-17q-44 0-44 42 0 19 11 33t24 21l9 5q-16 6-30 6-12 0-23-10t-15-28q-7-29-16-78t-16-83-7-36q0-2 55-2 45 0 52-1t11-6q1-4-2-17t-5-16q-2-5-9-5t-54-1h-56l-23-122Q301 15 282-47q-27-85-70-126-37-32-73-32-32 0-58 19t-26 54q0 37 21 54t42 17q44 0 44-42 0-19-11-33t-24-21l-9-5z"/><path id="f" d="m213 578-13-5q-14-5-40-10t-58-7H83v46h19q47 2 87 15t56 24 28 22q2 3 12 3 9 0 17-6V361l1-300q7-7 12-9t24-4 62-2h26V0h-11q-21 3-159 3-136 0-157-3H88v46h64q16 0 25 1t16 3 8 2 6 5 6 4v517z"/></defs><g data-mml-node="math" stroke="currentColor" fill="currentColor" stroke-width="0"><g data-mml-node="msubsup"><use xlink:href="#a" data-mml-node="mi" transform="scale(1 -1)"/><text data-variant="normal" transform="matrix(.707 0 0 .707 571 -530.4)" font-size="884" font-family="serif" data-mml-node="mo">м</text><g data-mml-node="TeXAtom"><use xlink:href="#b" data-mml-node="mn" transform="matrix(.707 0 0 -.707 571 297.3)"/></g></g><use xlink:href="#c" data-mml-node="mo" transform="matrix(1 0 0 -1 1294 0)"/><use xlink:href="#d" data-mml-node="mi" transform="matrix(1 0 0 -1 2349.8 0)"/><use xlink:href="#e" data-mml-node="mtext" transform="matrix(1 0 0 -1 2899.8 0)"/><g data-mml-node="msubsup"><use xlink:href="#a" data-mml-node="mi" transform="matrix(1 0 0 -1 3149.8 0)"/><text data-variant="normal" transform="matrix(.707 0 0 .707 3720.8 -530.4)" font-size="884" font-family="serif" data-mml-node="mo">м</text><g data-mml-node="TeXAtom"><use xlink:href="#f" data-mml-node="mn" transform="matrix(.707 0 0 -.707 3720.8 297.3)"/></g></g></g></svg>