<svg xmlns="http://www.w3.org/2000/svg" width="199.736" height="43.496" viewBox="0 -1359 11035.6 2402.9" xmlns:xlink="http://www.w3.org/1999/xlink"><defs><path id="h" d="M94 250q0 69 10 131t23 107 37 88 38 67 42 52 33 34 25 21h17q14 0 14-9 0-3-17-21t-41-53-49-86-42-138-17-193 17-192 41-139 49-86 42-53 17-21q0-9-15-9h-16l-28 24q-94 85-137 212T94 250z"/><path id="a" d="M184-11q-68 0-110 45T31 147q0 100 73 186t170 97q1 1 140 1h138q1-1 3-2t4-2 3-2 3-3 2-2 2-4 1-4 1-5 1-6q0-44-65-44h-17q-10 0-14 1h-60l5-10q18-38 18-85 0-110-80-192T184-11zm177 289q0 80-85 80-124 0-161-174-1-4-1-6-8-37-8-61 0-50 25-70t57-21q54 0 99 47 29 30 47 80t22 80 5 45z"/><path id="c" d="M96 585q56 81 153 81 48 0 96-26t78-92q37-83 37-228 0-155-43-237-20-42-55-67t-61-31-51-7q-26 0-52 6t-61 32-55 67q-43 82-43 237 0 174 57 265zm225 12q-30 32-71 32-42 0-72-32-25-26-33-72t-8-192q0-158 8-208t36-79q28-30 69-30 40 0 68 30 29 30 36 84t8 203q0 145-8 191t-33 73z"/><path id="d" d="M56 347q0 13 14 20h637q15-8 15-20 0-11-14-19l-318-1H72q-16 5-16 20zm0-194q0 15 16 20h636q14-10 14-20 0-13-15-20H70q-14 7-14 20z"/><path id="e" d="m213 578-13-5q-14-5-40-10t-58-7H83v46h19q47 2 87 15t56 24 28 22q2 3 12 3 9 0 17-6V361l1-300q7-7 12-9t24-4 62-2h26V0h-11q-21 3-159 3-136 0-157-3H88v46h64q16 0 25 1t16 3 8 2 6 5 6 4v517z"/><path id="f" d="M289 629q0 6-57 8-24 0-31 1t-7 10q0 1 2 11 1 3 2 7t1 5 2 5 2 3 4 2 5 2 8 0 12 1h30q24 0 45-1h91q12 0 16-5 1-4 37-282l36-279 23 37q24 36 64 100t88 140q175 279 177 281l3 3q2 2 4 3l6 2h136q23 0 29 1 34 0 34-11 0-5-3-17t-3-13q-4-6-37-6-40-1-51-3t-18-11q-3-5-72-283T797 59q0-4 1-5t7-4 17-2 33-2h31q6-9 6-11 0-16-7-30-5-5-16-5-5 0-41 1t-92 1h-92q-31 0-35-1-17 0-17 10 0 2 2 14 4 16 8 18t23 3q27 0 60 3 14 3 19 12 2 4 38 146t71 283 35 141L654 322Q458 10 453 5l-4-2q-5-3-16-3-15 0-18 7-2 4-41 310l-39 307-68-270Q200 88 200 79q6-33 72-33h10q6-5 7-9t-3-18q-4-16-8-18-4-1-11-1h-12q-10 0-34 1t-64 1q-30 0-62-1T58 0Q43 0 39 2t-4 9q0 2 3 14t5 15q2 6 22 6 70 0 89 40 4 6 69 268t66 275z"/><path id="g" d="M34 156q0 114 86 200t189 86q70 0 112-40t57-98q6-29 7-67v-29q49 74 75 166 4 14 6 16t16 3q21 0 21-8 0-9-9-39t-36-85-61-100l-11-14 1-24q2-56 8-76t19-21q14 2 26 11t17 23q2 7 5 8t15 2q20 0 20-8 0-6-6-19-12-24-35-38t-44-15h-7q-67 0-91 72l-3 7-11-8q-10-8-30-20t-45-23-58-20-64-9q-79 0-124 50T34 156zM208 26q49 0 98 21t73 43l24 22q-2 143-7 178-14 115-92 115-69 0-121-73-27-40-44-108t-18-104q0-49 25-71t62-23z"/><path id="b" d="M23 287q1 3 2 8t5 22 10 31 15 33 20 30 26 22 33 9q75 0 96-64l10 9q62 55 118 55 65 0 102-47t37-114q0-108-76-199T249-10q-22 0-39 6-11 5-23 15t-19 17l-7 8q-1-1-22-87t-21-87q0-6 8-7t37-3h25q6-7 6-9t-3-18q-3-12-6-15t-13-4h-11q-9 0-34 1t-62 1q-70 0-89-2h-8q-7 7-7 11 2 27 13 35h20q34 1 39 12 3 6 61 239t61 247q1 5 1 14 0 41-25 41-22 0-37-28t-23-61-12-36q-2-2-16-2H29q-6 6-6 9zm155-185q22-76 74-76 30 0 58 23t46 58q18 34 36 108t19 110v6q0 74-61 74-11 0-22-3t-22-9-20-13-17-15-15-15-11-14-8-10l-3-4q0-1-3-14t-11-44-14-52q-26-106-26-110z"/><path id="i" d="M308 24q59 0 108 52t50 121q0 63-52 87-106 27-136 37t-42 20q-60 42-60 121 0 61 32 111t65 75q29 25 70 40t64 16h18q96 0 139-64 1 0 13 13t26 29 20 22h4q3 0 5 1 13 0 13-7t-28-121-32-118-16-3q-20 0-20 9 0 6 1 10 0 3 1 19t2 26q0 34-9 59t-18 37-25 25q-36 21-82 21-57 0-106-46t-50-106q0-30 15-52t41-31q4-2 70-19t67-18q34-11 66-48t32-100q0-26-8-56-5-22-18-49t-36-59-66-60-94-38q-12-2-34-2-99 0-154 55l-10 11-28-31Q83-14 78-18t-13-4q-13 0-13 8 0 3 58 235 2 6 20 6h13q6-6 6-11 0-2-1-9t-4-21-2-33q2-39 18-66t43-40 52-18 53-5z"/><path id="j" d="M84 237v13l14 20h581q15-8 15-20t-15-20H98q-14 7-14 20z"/><path id="k" d="M34 159q0 109 86 196t186 87q56 0 88-24t33-63q0-29-19-49t-48-21q-19 0-30 10t-11 30 11 34 22 21 14 6h1q0 2-6 6t-21 8-34 4q-30 0-57-14-21-9-43-31-44-44-64-124t-21-116q0-46 26-69 22-24 58-24h4q112 0 185 85 9 10 12 10 4 0 13-9t10-14-9-15-29-28-45-30-64-25-80-11q-75 0-121 48T34 159z"/><path id="l" d="m60 749 4 1h22l28-24q94-85 137-212t43-264q0-68-10-131T261 12t-37-88-38-67-41-51-32-33-23-19l-4-4H63q-3 0-5 3t-3 9q1 1 11 13Q221-64 221 250T66 725q-10 12-11 13 0 8 5 11z"/><path id="m" d="M109 429q-27 0-43 18t-16 44q0 71 53 123t132 52q91 0 152-56t62-145q0-43-20-82t-48-68-80-74q-36-31-100-92l-59-56 76-1q157 0 167 5 7 2 24 89v3h40v-3q-1-3-13-91T421 3V0H50v31q0 7 6 15t30 35q29 32 50 56 9 10 34 37t34 37 29 33 28 34 23 30 21 32 15 29 13 32 7 30 3 33q0 63-34 109t-97 46q-33 0-58-17t-35-33-10-19q0-1 5-1 18 0 37-14t19-46q0-25-16-42t-45-18z"/><path id="o" d="M287 628q0 7-57 9-23 0-30 1t-7 9q0 8 4 20t7 15q2 1 199 1 167-1 187-1t40-6q72-17 122-79t51-166q0-156-107-280T444 3l-14-2-194-1H72Q48 0 41 2t-8 9q0 2 3 14 4 16 8 18t23 3q27 0 60 3 14 3 19 12 3 4 72 278t69 289zm416-159q0 38-11 68t-26 47-37 29-39 16-35 7h-43q-17 0-33 1h-43q-44 0-50-10-2-4-73-288T242 52q0-4 11-4t77-1h19q14 0 24-1 126 0 208 82 36 36 59 84t43 127 20 130z"/><path id="p" d="M229 286q-13 134-13 150 0 18 24 28h5q4 0 6 1 12-1 22-9t10-20q0-17-6-80t-7-70l58 42q56 41 61 44t10 3q13 0 24-10t12-27q0-13-10-23-5-3-68-33t-68-32l66-31 70-35q9-9 9-23 0-15-9-25t-24-11q-8 0-18 6t-55 40l-58 42q13-134 13-150 0-10-7-19t-26-9q-19 0-26 9t-8 19q0 17 6 80t7 70l-58-42q-56-41-61-44-4-3-10-3-13 0-24 10t-12 27v8q0 3 3 6t5 6 9 7 13 7 19 9 25 11 32 15 40 20L74 315q-9 9-9 23 0 15 9 25t24 11q8 0 18-6t55-40l58-42z"/></defs><g data-mml-node="math" stroke="currentColor" fill="currentColor" stroke-width="0"><g data-mml-node="msubsup"><use xlink:href="#a" data-mml-node="mi" transform="scale(1 -1)"/><use xlink:href="#b" data-mml-node="mi" transform="matrix(.707 0 0 -.707 571 -490.8)"/><g data-mml-node="TeXAtom"><use xlink:href="#c" data-mml-node="mn" transform="matrix(.707 0 0 -.707 571 297.3)"/></g></g><use xlink:href="#d" data-mml-node="mo" transform="matrix(1 0 0 -1 1254.5 0)"/><g data-mml-node="msubsup"><use xlink:href="#a" data-mml-node="mi" transform="matrix(1 0 0 -1 2310.2 0)"/><use xlink:href="#b" data-mml-node="mi" transform="matrix(.707 0 0 -.707 2881.2 -490.8)"/><g data-mml-node="TeXAtom"><use xlink:href="#e" data-mml-node="mn" transform="matrix(.707 0 0 -.707 2881.2 297.3)"/></g></g><use xlink:href="#d" data-mml-node="mo" transform="matrix(1 0 0 -1 3564.7 0)"/><g data-mml-node="mfrac"><g data-mml-node="msup"><use xlink:href="#f" data-mml-node="mi" transform="matrix(1 0 0 -1 7066.6 -676)"/><use xlink:href="#b" data-mml-node="mi" transform="matrix(.707 0 0 -.707 8183.8 -1039)"/></g><g data-mml-node="mrow"><use xlink:href="#g" data-mml-node="mi" transform="matrix(1 0 0 -1 4840.5 793.9)"/><use xlink:href="#h" data-mml-node="mo" transform="matrix(1 0 0 -1 5480.5 793.9)"/><g data-mml-node="msub"><use xlink:href="#i" data-mml-node="mi" transform="matrix(1 0 0 -1 5869.5 793.9)"/><g data-mml-node="TeXAtom"><use xlink:href="#c" data-mml-node="mn" transform="matrix(.707 0 0 -.707 6482.5 943.9)"/></g></g><use xlink:href="#j" data-mml-node="mo" transform="matrix(1 0 0 -1 7108.3 793.9)"/><use xlink:href="#k" data-mml-node="mi" transform="matrix(1 0 0 -1 8108.5 793.9)"/><g data-mml-node="msup"><use xlink:href="#l" data-mml-node="mo" transform="matrix(1 0 0 -1 8541.5 793.9)"/><use xlink:href="#m" data-mml-node="mn" transform="matrix(.707 0 0 -.707 8930.5 430.9)"/></g><use xlink:href="#n" data-mml-node="mtext" transform="matrix(1 0 0 -1 9334.1 793.9)"/><g data-mml-node="msup"><use xlink:href="#o" data-mml-node="mi" transform="matrix(1 0 0 -1 9584.1 793.9)"/><use xlink:href="#p" data-mml-node="mo" transform="matrix(.707 0 0 -.707 10412.1 430.9)"/></g></g><path stroke="none" d="M4740.5-220h6175.1v-60H4740.5z"/></g></g></svg>