<svg xmlns="http://www.w3.org/2000/svg" width="101.584" height="19.976" viewBox="0 -750 5612.5 1103.5" xmlns:xlink="http://www.w3.org/1999/xlink"><defs><path id="a" d="M56 340q0 83 30 154t78 116 106 70 118 25q133 0 233-104t101-260q0-81-29-150T617 75 510 4 388-22 267 3 160 74 85 189 56 340zm554-1q0 89-20 156t-55 103-72 53-79 17q-52 0-95-30t-68-72q-53-81-53-227 0-65 8-104 13-77 52-130t96-77q32-12 64-12 27 0 54 8t59 30 54 57 39 94 16 134zm-387-76v159h40v-34h251v34h40V263h-40v34H263v-34h-40z"/><path id="b" d="M674 636q8 0 14-6t6-15-7-14q-1-1-270-129L151 346l248-118Q687 92 691 87q3-6 3-11 0-18-18-20h-6L382 192Q92 329 90 331q-7 5-7 17 1 11 13 17 8 4 286 135t283 134q4 2 9 2zM84-118q0 10 15 20h579q16-6 16-20 0-12-15-20H98q-14 7-14 20z"/><path id="c" d="M285 628q0 7-57 9-23 0-30 1t-7 9q0 2 2 14 6 20 10 21 2 1 11 1h5q41-2 136-2h63q29 0 45 1t20 0q17 0 17-8 0-5-3-14-1-2-1-6t-1-6-2-4-3-3-4-2-7-1-9-1-14 0q-40-1-51-3t-18-11l-81-318q1 0 184 144t188 148q14 14 14 23 0 15-25 17-16 0-16 11 0 2 3 14t5 15q3 5 17 5 4 0 35-1t80-1q23 0 48 1t30 1q20 0 20-10 0-22-8-30-3-5-19-5-75-5-136-51-16-10-70-52t-100-79l-47-37 9-22q9-22 28-67t35-85q75-177 80-183 2-2 5-4 14-10 51-11h21q6-8 6-9t-3-18q-4-13-10-19h-11q-40 3-95 3-122 0-137-3h-10q-6 6-6 9t2 18q4 13 6 16t11 3h3q50 0 50 25 0 4-27 70t-32 75l-58 138-68-53-68-53-23-93q-23-92-23-97 0-7 8-9t50-3h31q6-9 6-11 0-16-7-30-5-5-16-5-3 0-37 1T180 2H85Q52 2 49 1 31 1 31 11q0 2 3 14 4 16 8 18t23 3q27 0 60 3 14 3 19 12 3 4 72 278t69 289z"/><path id="d" d="M118-250V750h137v-40h-97v-920h97v-40H118z"/><path id="e" d="M22 710v40h137V-250H22v40h97v920H22z"/></defs><g data-mml-node="math" stroke="currentColor" fill="currentColor" stroke-width="0"><g data-mml-node="msub"><use xlink:href="#a" data-mml-node="mi" transform="scale(1 -1)"/><g data-mml-node="TeXAtom"><text data-variant="normal" transform="matrix(.707 0 0 .707 778 176.7)" font-size="884" font-family="serif" data-mml-node="mo">ะบ</text></g></g><use xlink:href="#b" data-mml-node="mo" transform="matrix(1 0 0 -1 1414.7 0)"/><g data-mml-node="msub"><use xlink:href="#c" data-mml-node="mi" transform="matrix(1 0 0 -1 2470.5 0)"/><g data-mml-node="TeXAtom"><use xlink:href="#a" data-mml-node="mi" transform="matrix(.707 0 0 -.707 3319.5 150)"/></g></g><use xlink:href="#d" data-mml-node="mo" transform="matrix(1 0 0 -1 3919.6 0)"/><use xlink:href="#a" data-mml-node="mi" transform="matrix(1 0 0 -1 4197.6 0)"/><g data-mml-node="msub"><use xlink:href="#e" data-mml-node="mo" transform="matrix(1 0 0 -1 4975.6 0)"/><g data-mml-node="TeXAtom"><text data-variant="normal" transform="matrix(.707 0 0 .707 5253.6 176.7)" font-size="884" font-family="serif" data-mml-node="mo">ะบ</text></g></g></g></svg>