<svg xmlns="http://www.w3.org/2000/svg" width="207.84" height="43.416" viewBox="0 -1118 11483.2 2398.7" xmlns:xlink="http://www.w3.org/1999/xlink"><defs><path id="f" d="M29-194q-6 6-6 8 0 3 79 320t84 331q22 68 57 119t66 74q56 47 120 47h2q62 0 102-38t40-97q0-105-104-174l13-13q51-51 51-131 0-113-85-187T257-10q-30 0-54 8t-38 19-22 23-12 19-5 6L62-188q-2-6-20-6H29zm324 625q39 0 74-12l5 3 7 7 10 10q7 7 12 14t11 18 12 24 9 29 8 36q2 9 2 33 0 18-1 23-15 51-76 51-42 0-79-24t-61-61-39-68-23-59q-5-16-38-147t-34-140q-1-5-1-21 0-48 22-79 31-42 87-42 42 0 89 25t76 86q16 34 24 77t8 65q0 58-35 93-42-14-75-14h-10q-79 0-79 31 0 7 3 14 14 28 92 28z"/><path id="a" d="M268 632q0 72 28 72 18 0 18-17 0-5-3-23t-3-29 1-15v-4h6q27 3 45 3 83 0 83-33-4-38-85-40h-14q-18 0-27 3t-27 17q-33-16-64-61t-31-100q0-24 6-41t10-22 7-5q48 10 80 10 77 0 77-33-1-17-16-26t-32-11-47-2q-46 0-72 8l-13 3q-46-26-76-72t-31-84q0-14 2-22 11-29 39-45t100-43q9-3 14-5 94-36 111-48 29-20 29-61 0-43-32-77t-78-34q-33 0-71 15t-44 23q-2 4-2 8 0 8 5 13t15 6q6 0 13-3 43-25 85-25 12 0 18 3 21 14 21 36 0 17-12 25t-69 29q-18 7-28 11-6 2-33 12t-35 14-29 14T78-8 56 12 36 37 26 66t-5 37q0 46 34 103t90 95l9 6-6 6q-7 6-12 10t-12 15-13 20-8 24-4 31q0 58 44 111t116 78l12 5q-3 11-3 25z"/><path id="c" d="m213 578-13-5q-14-5-40-10t-58-7H83v46h19q47 2 87 15t56 24 28 22q2 3 12 3 9 0 17-6V361l1-300q7-7 12-9t24-4 62-2h26V0h-11q-21 3-159 3-136 0-157-3H88v46h64q16 0 25 1t16 3 8 2 6 5 6 4v517z"/><path id="d" d="M56 237v13l14 20h299v150l1 150q10 13 19 13 13 0 20-15V270h298q15-8 15-20t-15-20H409V-68q-8-14-18-14h-4q-12 0-18 14v298H70q-14 7-14 20z"/><path id="e" d="M94 250q0 69 10 131t23 107 37 88 38 67 42 52 33 34 25 21h17q14 0 14-9 0-3-17-21t-41-53-49-86-42-138-17-193 17-192 41-139 49-86 42-53 17-21q0-9-15-9h-16l-28 24q-94 85-137 212T94 250z"/><path id="b" d="M56 347q0 13 14 20h637q15-8 15-20 0-11-14-19l-318-1H72q-16 5-16 20zm0-194q0 15 16 20h636q14-10 14-20 0-13-15-20H70q-14 7-14 20z"/><path id="g" d="M84 237v13l14 20h581q15-8 15-20t-15-20H98q-14 7-14 20z"/><path id="h" d="m60 749 4 1h22l28-24q94-85 137-212t43-264q0-68-10-131T261 12t-37-88-38-67-41-51-32-33-23-19l-4-4H63q-3 0-5 3t-3 9q1 1 11 13Q221-64 221 250T66 725q-10 12-11 13 0 8 5 11z"/><path id="i" d="M229 286q-13 134-13 150 0 18 24 28h5q4 0 6 1 12-1 22-9t10-20q0-17-6-80t-7-70l58 42q56 41 61 44t10 3q13 0 24-10t12-27q0-13-10-23-5-3-68-33t-68-32l66-31 70-35q9-9 9-23 0-15-9-25t-24-11q-8 0-18 6t-55 40l-58 42q13-134 13-150 0-10-7-19t-26-9q-19 0-26 9t-8 19q0 17 6 80t7 70l-58-42q-56-41-61-44-4-3-10-3-13 0-24 10t-12 27v8q0 3 3 6t5 6 9 7 13 7 19 9 25 11 32 15 40 20L74 315q-9 9-9 23 0 15 9 25t24 11q8 0 18-6t55-40l58-42z"/><path id="j" d="M52 289q7 42 54 97t116 56q35 0 64-18t43-45q42 63 101 63 37 0 64-22t28-59q0-29-14-47t-27-22-23-4q-19 0-31 11t-12 29q0 46 50 63-11 13-40 13-13 0-19-2-38-16-56-66-60-221-60-258 0-28 16-40t35-12q37 0 73 33t49 81q3 10 6 11t16 2h4q15 0 15-8 0-1-2-11-16-57-62-101T333-11q-70 0-106 63-41-62-94-62h-6q-49 0-70 26T35 71q0 32 19 52t45 20q43 0 43-42 0-20-12-35t-23-20-13-5l-3-1q0-1 6-4t16-7 19-3q36 0 62 45 9 16 23 68t28 108 16 66q5 27 5 39 0 28-15 40t-34 12q-40 0-75-32t-49-82q-2-9-5-10t-16-2H58q-6 6-6 11z"/><path id="k" d="M462 0q-18 3-129 3-116 0-134-3h-9v46h58q7 0 17 2t14 5 7 8q1 2 1 54v50H28v46l151 231q153 232 155 233 2 2 21 2h18l6-6V211h92v-46h-92V66q0-7 6-12 8-7 57-8h29V0h-9zM293 211v334L74 212l109-1h110z"/></defs><g data-mml-node="math" stroke="currentColor" fill="currentColor" stroke-width="0"><use xlink:href="#a" data-mml-node="mi" transform="scale(1 -1)"/><use xlink:href="#b" data-mml-node="mo" transform="matrix(1 0 0 -1 715.8 0)"/><use xlink:href="#c" data-mml-node="mn" transform="matrix(1 0 0 -1 1771.6 0)"/><use xlink:href="#d" data-mml-node="mo" transform="matrix(1 0 0 -1 2493.8 0)"/><use xlink:href="#e" data-mml-node="mo" transform="matrix(1 0 0 -1 3494 0)"/><use xlink:href="#f" data-mml-node="mi" transform="matrix(1 0 0 -1 3883 0)"/><use xlink:href="#g" data-mml-node="mo" transform="matrix(1 0 0 -1 4671.2 0)"/><use xlink:href="#c" data-mml-node="mn" transform="matrix(1 0 0 -1 5671.4 0)"/><use xlink:href="#h" data-mml-node="mo" transform="matrix(1 0 0 -1 6171.4 0)"/><use xlink:href="#i" data-mml-node="mo" transform="matrix(1 0 0 -1 6782.7 0)"/><g data-mml-node="mfrac"><use xlink:href="#j" data-mml-node="mi" transform="matrix(1 0 0 -1 9208.1 -676)"/><g data-mml-node="mrow"><use xlink:href="#j" data-mml-node="mi" transform="matrix(1 0 0 -1 7724.9 935.7)"/><use xlink:href="#d" data-mml-node="mo" transform="matrix(1 0 0 -1 8519.1 935.7)"/><g data-mml-node="mfrac"><g data-mml-node="mrow"><use xlink:href="#c" data-mml-node="mn" transform="matrix(.707 0 0 -.707 9739.3 458.5)"/><use xlink:href="#d" data-mml-node="mo" transform="matrix(.707 0 0 -.707 10092.8 458.5)"/><use xlink:href="#f" data-mml-node="mi" transform="matrix(.707 0 0 -.707 10642.846 458.5)"/></g><use xlink:href="#k" data-mml-node="mn" transform="matrix(.707 0 0 -.707 10214.5 1280.7)"/><path stroke="none" d="M9639.3 715.7h1503.9v-60H9639.3z"/></g></g><path stroke="none" d="M7624.9-220h3738.3v-60H7624.9z"/></g></g></svg>