<svg xmlns="http://www.w3.org/2000/svg" width="110.128" height="51.224" viewBox="0 -1496.5 6084.6 2830.1" xmlns:xlink="http://www.w3.org/1999/xlink"><defs><path id="a" d="M21 287q0 14 15 48t48 71 74 36q41 0 66-23t26-64q-2-19-3-21 0-3-16-46t-33-97-16-86q0-43 14-60t42-18q23 0 43 11t31 23 27 33q0 1 5 20t14 59 19 74q38 150 42 157 13 27 43 27 13 0 21-7t11-12 2-9q0-13-49-210T391-23q-28-83-97-132t-138-50q-45 0-79 22t-34 66q0 22 7 37t19 22 20 10 17 3q44 0 44-42 0-20-12-35t-23-20-13-5l-3-1q2-5 19-12t34-7h8q17 0 26 2 33 9 61 38t43 62 23 56 8 30l-6-4q-6-4-19-11T270-6q-20-5-39-5-46 0-81 22t-46 71q-1 7-1 31 0 57 35 149t35 117v14q0 3-4 7t-11 4h-4q-23 0-42-19t-30-41-17-42-8-22q-2-2-16-2H27q-6 6-6 9z"/><path id="b" d="M56 347q0 13 14 20h637q15-8 15-20 0-11-14-19l-318-1H72q-16 5-16 20zm0-194q0 15 16 20h636q14-10 14-20 0-13-15-20H70q-14 7-14 20z"/><path id="c" d="M228 637q-34 0-36 4-1 2-1 8 0 24 11 33 2 1 15 1 54-3 127-3 141 0 162 3h12q6-6 6-9t-2-18q-5-15-9-19h-38q-69-1-81-9-7-4-14-28t-67-264q-16-65-34-138T252 88l-9-36q0-4 9-4t59-2h17q32 0 51 1t49 7 50 18 44 34 42 55q16 30 30 67t17 42q5 3 17 3h13q6-9 6-11t-20-59-44-120-26-74q-2-5-4-6t-16-3-43-1h-76q-65 0-124 1H116Q32 0 32 10q0 7 2 14 5 19 10 21 4 1 15 1h6q27 0 60 3 14 3 19 12 3 4 72 278t69 289q0 7-57 9z"/><path id="d" d="M492 213q-20 0-20 13 0 4 5 24t5 35q0 31-21 38t-97 7h-52q-1-2-35-138T243 52q0-4 11-4t80-2q94 0 124 2t60 13q49 16 81 56t71 131q10 22 13 24 7 2 15 2 20 0 20-13Q613 7 608 2q-3-2-286-2H133Q31 0 31 11q0 2 3 14 4 16 8 18t23 3q27 0 60 3 14 3 19 12 2 5 71 281t70 280q0 7-4 7-8 3-53 5h-31q-6 6-6 8t2 17q4 17 10 21h554q7-4 7-11 0-5-13-112t-14-110q-2-7-20-7h-12q-7 5-7 13l3 23q3 24 3 52 0 30-7 50t-19 31-35 16-47 7-64 2h-47q-88-1-93-3-4-2-6-9-1-3-31-123t-31-122q23-1 48-1h26q66 0 91 15t45 81q4 16 6 18t17 3h8q3 0 5-1t2-1 2-4 3-4l-33-132q-33-133-36-135-3-3-16-3z"/><path id="e" d="M109 429q-27 0-43 18t-16 44q0 71 53 123t132 52q91 0 152-56t62-145q0-43-20-82t-48-68-80-74q-36-31-100-92l-59-56 76-1q157 0 167 5 7 2 24 89v3h40v-3q-1-3-13-91T421 3V0H50v31q0 7 6 15t30 35q29 32 50 56 9 10 34 37t34 37 29 33 28 34 23 30 21 32 15 29 13 32 7 30 3 33q0 63-34 109t-97 46q-33 0-58-17t-35-33-10-19q0-1 5-1 18 0 37-14t19-46q0-25-16-42t-45-18z"/><path id="f" d="M96 585q56 81 153 81 48 0 96-26t78-92q37-83 37-228 0-155-43-237-20-42-55-67t-61-31-51-7q-26 0-52 6t-61 32-55 67q-43 82-43 237 0 174 57 265zm225 12q-30 32-71 32-42 0-72-32-25-26-33-72t-8-192q0-158 8-208t36-79q28-30 69-30 40 0 68 30 29 30 36 84t8 203q0 145-8 191t-33 73z"/><path id="h" d="M118-162q2 0 6-2t11-3 12-1q13 0 24 13t16 29q10 27 34 153t46 240 22 115v3h-47q-47 0-50 2-4 3-4 10l7 28q2 5 8 5t47 1q48 0 48 1 0 2 9 50t12 58q37 165 146 165 37-2 61-22t24-53q0-36-21-52t-42-17q-44 0-44 42 0 19 11 33t24 21l9 5q-16 6-30 6-12 0-23-10t-15-28q-7-29-16-78t-16-83-7-36q0-2 55-2 45 0 52-1t11-6q1-4-2-17t-5-16q-2-5-9-5t-54-1h-56l-23-122Q301 15 282-47q-27-85-70-126-37-32-73-32-32 0-58 19t-26 54q0 37 21 54t42 17q44 0 44-42 0-19-11-33t-24-21l-9-5z"/><path id="i" d="M21 287q1 6 3 16t12 38 20 47 33 37 46 17q36 0 60-18t30-34 6-21q0-2 1-2l11 11q61 64 139 64 54 0 87-27t34-79-38-157-38-127q0-26 17-26 6 0 9 1 29 5 52 38t35 80q2 8 20 8 20 0 20-8 0-1-4-15-8-29-22-57t-46-56-69-27q-47 0-68 27t-21 56q0 19 36 120t37 152q0 59-44 59h-5q-86 0-145-101l-7-12-33-134Q156 26 151 16q-13-27-43-27-13 0-21 6T76 7t-2 10q0 13 38 163t40 163q1 5 1 23 0 39-24 39-38 0-63-100-6-20-6-21-2-6-19-6H27q-6 6-6 9z"/></defs><g data-mml-node="math" stroke="currentColor" fill="currentColor" stroke-width="0"><g data-mml-node="msub"><use xlink:href="#a" data-mml-node="mi" transform="scale(1 -1)"/><g data-mml-node="TeXAtom"><text data-variant="normal" transform="matrix(.707 0 0 .707 490 176.7)" font-size="884" font-family="serif" data-mml-node="mo">б</text></g></g><use xlink:href="#b" data-mml-node="mo" transform="matrix(1 0 0 -1 1135.7 0)"/><g data-mml-node="mfrac"><g data-mml-node="msub"><use xlink:href="#c" data-mml-node="mi" transform="matrix(1 0 0 -1 3613.6 -813.5)"/><g data-mml-node="TeXAtom"><text data-variant="normal" transform="matrix(.707 0 0 .707 4294.6 -636.8)" font-size="884" font-family="serif" data-mml-node="mo">б</text></g></g><g data-mml-node="mrow"><g data-mml-node="msubsup"><use xlink:href="#d" data-mml-node="mi" transform="matrix(1 0 0 -1 2411.5 800.1)"/><g data-mml-node="TeXAtom"><g data-mml-node="mn" transform="matrix(.707 0 0 -.707 3149.5 430.9)"><use xlink:href="#e"/><use xlink:href="#f" transform="translate(500)"/></g></g><g data-mml-node="TeXAtom"><text data-variant="normal" transform="matrix(.707 0 0 .707 3149.5 1156.8)" font-size="884" font-family="serif" data-mml-node="mo">б</text></g></g><use xlink:href="#g" data-mml-node="mtext" transform="matrix(1 0 0 -1 3906.6 800.1)"/><g data-mml-node="msub"><use xlink:href="#h" data-mml-node="mi" transform="matrix(1 0 0 -1 4156.6 800.1)"/><g data-mml-node="TeXAtom"><text data-variant="normal" transform="matrix(.707 0 0 .707 4646.6 976.8)" font-size="884" font-family="serif" data-mml-node="mo">б</text></g></g><use xlink:href="#g" data-mml-node="mtext" transform="matrix(1 0 0 -1 5014.6 800.1)"/><use xlink:href="#i" data-mml-node="mi" transform="matrix(1 0 0 -1 5264.6 800.1)"/></g><path stroke="none" d="M2311.5-220h3653.1v-60H2311.5z"/></g></g></svg>