<svg xmlns="http://www.w3.org/2000/svg" width="134.776" height="46.096" viewBox="0 -1507.5 7446.2 2547" xmlns:xlink="http://www.w3.org/1999/xlink"><defs><path id="a" d="M21 287q0 14 15 48t48 71 74 36q41 0 66-23t26-64q-2-19-3-21 0-3-16-46t-33-97-16-86q0-43 14-60t42-18q23 0 43 11t31 23 27 33q0 1 5 20t14 59 19 74q38 150 42 157 13 27 43 27 13 0 21-7t11-12 2-9q0-13-49-210T391-23q-28-83-97-132t-138-50q-45 0-79 22t-34 66q0 22 7 37t19 22 20 10 17 3q44 0 44-42 0-20-12-35t-23-20-13-5l-3-1q2-5 19-12t34-7h8q17 0 26 2 33 9 61 38t43 62 23 56 8 30l-6-4q-6-4-19-11T270-6q-20-5-39-5-46 0-81 22t-46 71q-1 7-1 31 0 57 35 149t35 117v14q0 3-4 7t-11 4h-4q-23 0-42-19t-30-41-17-42-8-22q-2-2-16-2H27q-6 6-6 9z"/><path id="b" d="M56 347q0 13 14 20h637q15-8 15-20 0-11-14-19l-318-1H72q-16 5-16 20zm0-194q0 15 16 20h636q14-10 14-20 0-13-15-20H70q-14 7-14 20z"/><path id="c" d="M137 683q1 0 72 5t73 6q12 0 12-9 0-11-36-151-38-148-38-151 0-2 7 5 61 54 130 54 54 0 87-27t34-79q0-51-38-158T402 50q1-14 5-19t15-5q28 0 52 30t39 82q3 11 6 13t16 2q20 0 20-8 0-1-4-15-16-59-51-97-34-43-81-43h-5q-47 0-68 27t-21 57q0 16 36 118t37 153q0 59-44 59h-5q-83 0-144-98l-7-13-34-135Q132 28 127 16q-13-27-44-27-14 0-24 9T48 16q0 14 73 304l74 296q0 13-7 16t-39 5h-21q-6 6-6 8t2 19q5 19 13 19z"/><path id="e" d="M285 628q0 7-57 9-23 0-30 1t-7 9q0 2 2 14 6 20 10 21 2 1 11 1h5q41-2 136-2h63q29 0 45 1t20 0q17 0 17-8 0-5-3-14-1-2-1-6t-1-6-2-4-3-3-4-2-7-1-9-1-14 0q-40-1-51-3t-18-11l-81-318q1 0 184 144t188 148q14 14 14 23 0 15-25 17-16 0-16 11 0 2 3 14t5 15q3 5 17 5 4 0 35-1t80-1q23 0 48 1t30 1q20 0 20-10 0-22-8-30-3-5-19-5-75-5-136-51-16-10-70-52t-100-79l-47-37 9-22q9-22 28-67t35-85q75-177 80-183 2-2 5-4 14-10 51-11h21q6-8 6-9t-3-18q-4-13-10-19h-11q-40 3-95 3-122 0-137-3h-10q-6 6-6 9t2 18q4 13 6 16t11 3h3q50 0 50 25 0 4-27 70t-32 75l-58 138-68-53-68-53-23-93q-23-92-23-97 0-7 8-9t50-3h31q6-9 6-11 0-16-7-30-5-5-16-5-3 0-37 1T180 2H85Q52 2 49 1 31 1 31 11q0 2 3 14 4 16 8 18t23 3q27 0 60 3 14 3 19 12 3 4 72 278t69 289z"/><path id="f" d="M492 213q-20 0-20 13 0 4 5 24t5 35q0 31-21 38t-97 7h-52q-1-2-35-138T243 52q0-4 11-4t80-2q94 0 124 2t60 13q49 16 81 56t71 131q10 22 13 24 7 2 15 2 20 0 20-13Q613 7 608 2q-3-2-286-2H133Q31 0 31 11q0 2 3 14 4 16 8 18t23 3q27 0 60 3 14 3 19 12 2 5 71 281t70 280q0 7-4 7-8 3-53 5h-31q-6 6-6 8t2 17q4 17 10 21h554q7-4 7-11 0-5-13-112t-14-110q-2-7-20-7h-12q-7 5-7 13l3 23q3 24 3 52 0 30-7 50t-19 31-35 16-47 7-64 2h-47q-88-1-93-3-4-2-6-9-1-3-31-123t-31-122q23-1 48-1h26q66 0 91 15t45 81q4 16 6 18t17 3h8q3 0 5-1t2-1 2-4 3-4l-33-132q-33-133-36-135-3-3-16-3z"/><path id="g" d="M132-11q-34 0-34 33v11l13 28q75 158 109 273l8 24h-32q-38 0-54-3t-39-19q-11-7-22-18t-19-21-9-12q-2-1-15-1-19 0-19 10 0 6 19 35t55 62 71 38q7 2 225 2 160 0 164-1 20-7 20-28 0-31-32-42-6-2-69-2h-64l-3-17q-12-72-12-119 0-52 9-93t19-64 10-28q0-17-14-32t-36-15q-11 0-18 3t-16 24-16 60q-1 9-1 44 0 49 9 105t18 92 10 40h-98l-1-4q0-3-19-79t-43-161-31-97q-11-28-43-28z"/><path id="h" d="M287 628q0 7-57 9-23 0-30 1t-7 9q0 8 4 20t7 15q2 1 199 1 167-1 187-1t40-6q72-17 122-79t51-166q0-156-107-280T444 3l-14-2-194-1H72Q48 0 41 2t-8 9q0 2 3 14 4 16 8 18t23 3q27 0 60 3 14 3 19 12 3 4 72 278t69 289zm416-159q0 38-11 68t-26 47-37 29-39 16-35 7h-43q-17 0-33 1h-43q-44 0-50-10-2-4-73-288T242 52q0-4 11-4t77-1h19q14 0 24-1 126 0 208 82 36 36 59 84t43 127 20 130z"/><path id="i" d="M73 647q0 10 4 23t12 13q1 0 72 5t73 6q12 0 12-9t-34-143q-8-34-17-70t-15-54l-4-19q0-3 6 3 49 40 101 40 62 0 100-46t39-116q0-111-79-201T173-11q-50 0-91 38T40 150v9q0 21 8 58t49 197q50 197 50 209t-38 14H83q-3 0-7 3t-3 7zm263-322v6q0 74-61 74-17 0-35-8t-33-21-26-24-18-22l-6-8-21-86q-22-86-22-122 0-48 24-72 16-16 40-16 33 0 67 32 25 23 40 56t33 105q18 72 18 106z"/></defs><g data-mml-node="math" stroke="currentColor" fill="currentColor" stroke-width="0"><g data-mml-node="msub"><use xlink:href="#a" data-mml-node="mi" transform="scale(1 -1)"/><g data-mml-node="TeXAtom"><text data-variant="normal" transform="matrix(.707 0 0 .707 490 176.7)" font-size="884" font-family="serif" data-mml-node="mo">п</text></g></g><use xlink:href="#b" data-mml-node="mo" transform="matrix(1 0 0 -1 1165.3 0)"/><g data-mml-node="mfrac"><g data-mml-node="mrow"><g data-mml-node="msub"><use xlink:href="#c" data-mml-node="mi" transform="matrix(1 0 0 -1 3206.2 -813.5)"/><g data-mml-node="TeXAtom"><text data-variant="normal" transform="matrix(.707 0 0 .707 3782.2 -636.8)" font-size="884" font-family="serif" data-mml-node="mo">п</text></g></g><use xlink:href="#d" data-mml-node="mtext" transform="matrix(1 0 0 -1 4179.7 -813.5)"/><g data-mml-node="msub"><use xlink:href="#e" data-mml-node="mi" transform="matrix(1 0 0 -1 4429.7 -813.5)"/><g data-mml-node="TeXAtom"><g data-mml-node="mo" font-size="884" font-family="serif"><text data-variant="normal" transform="matrix(.707 0 0 .707 5278.7 -636.8)">о</text><text data-variant="normal" transform="matrix(.707 0 0 .707 5591.194 -636.8)">б</text><text data-variant="normal" transform="matrix(.707 0 0 .707 5909.132 -636.8)">ж</text></g></g></g></g><g data-mml-node="mrow"><g data-mml-node="msub"><use xlink:href="#f" data-mml-node="mi" transform="matrix(1 0 0 -1 2441.1 686)"/><g data-mml-node="TeXAtom"><text data-variant="normal" transform="matrix(.707 0 0 .707 3179.1 862.7)" font-size="884" font-family="serif" data-mml-node="mo">п</text></g></g><use xlink:href="#d" data-mml-node="mtext" transform="matrix(1 0 0 -1 3576.6 686)"/><use xlink:href="#g" data-mml-node="mi" transform="matrix(1 0 0 -1 3826.6 686)"/><use xlink:href="#d" data-mml-node="mtext" transform="matrix(1 0 0 -1 4396.6 686)"/><g data-mml-node="msub"><use xlink:href="#h" data-mml-node="mi" transform="matrix(1 0 0 -1 4646.6 686)"/><g data-mml-node="TeXAtom"><g data-mml-node="mo" font-size="884" font-family="serif"><text data-variant="normal" transform="matrix(.707 0 0 .707 5474.6 862.7)">с</text><text data-variant="normal" transform="matrix(.707 0 0 .707 5752.098 862.7)">п</text></g></g></g><use xlink:href="#d" data-mml-node="mtext" transform="matrix(1 0 0 -1 6149.7 686)"/><g data-mml-node="msub"><use xlink:href="#i" data-mml-node="mi" transform="matrix(1 0 0 -1 6399.7 686)"/><g data-mml-node="TeXAtom"><text data-variant="normal" transform="matrix(.707 0 0 .707 6828.7 862.7)" font-size="884" font-family="serif" data-mml-node="mo">п</text></g></g></g><path stroke="none" d="M2341.1-220h4985.2v-60H2341.1z"/></g></g></svg>