<svg xmlns="http://www.w3.org/2000/svg" width="535.136" height="75.024" viewBox="0 -2188.2 29566.4 4145.2" xmlns:xlink="http://www.w3.org/1999/xlink"><defs><path id="j" d="M73 647q0 10 4 23t12 13q1 0 72 5t73 6q12 0 12-9t-34-143q-8-34-17-70t-15-54l-4-19q0-3 6 3 49 40 101 40 62 0 100-46t39-116q0-111-79-201T173-11q-50 0-91 38T40 150v9q0 21 8 58t49 197q50 197 50 209t-38 14H83q-3 0-7 3t-3 7zm263-322v6q0 74-61 74-17 0-35-8t-33-21-26-24-18-22l-6-8-21-86q-22-86-22-122 0-48 24-72 16-16 40-16 33 0 67 32 25 23 40 56t33 105q18 72 18 106z"/><path id="a" d="M34 156q0 114 86 200t189 86q70 0 112-40t57-98q6-29 7-67v-29q49 74 75 166 4 14 6 16t16 3q21 0 21-8 0-9-9-39t-36-85-61-100l-11-14 1-24q2-56 8-76t19-21q14 2 26 11t17 23q2 7 5 8t15 2q20 0 20-8 0-6-6-19-12-24-35-38t-44-15h-7q-67 0-91 72l-3 7-11-8q-10-8-30-20t-45-23-58-20-64-9q-79 0-124 50T34 156zM208 26q49 0 98 21t73 43l24 22q-2 143-7 178-14 115-92 115-69 0-121-73-27-40-44-108t-18-104q0-49 25-71t62-23z"/><path id="c" d="M21 287q0 14 15 48t48 71 74 36q41 0 66-23t26-64q-2-19-3-21 0-3-16-46t-33-97-16-86q0-43 14-60t42-18q23 0 43 11t31 23 27 33q0 1 5 20t14 59 19 74q38 150 42 157 13 27 43 27 13 0 21-7t11-12 2-9q0-13-49-210T391-23q-28-83-97-132t-138-50q-45 0-79 22t-34 66q0 22 7 37t19 22 20 10 17 3q44 0 44-42 0-20-12-35t-23-20-13-5l-3-1q2-5 19-12t34-7h8q17 0 26 2 33 9 61 38t43 62 23 56 8 30l-6-4q-6-4-19-11T270-6q-20-5-39-5-46 0-81 22t-46 71q-1 7-1 31 0 57 35 149t35 117v14q0 3-4 7t-11 4h-4q-23 0-42-19t-30-41-17-42-8-22q-2-2-16-2H27q-6 6-6 9z"/><path id="d" d="M56 237v13l14 20h299v150l1 150q10 13 19 13 13 0 20-15V270h298q15-8 15-20t-15-20H409V-68q-8-14-18-14h-4q-12 0-18 14v298H70q-14 7-14 20z"/><path id="e" d="M78 60q0 24 17 42t43 18q24 0 42-16t19-43q0-25-17-43T139 0 96 17 78 60z"/><path id="f" d="M109 429q-27 0-43 18t-16 44q0 71 53 123t132 52q91 0 152-56t62-145q0-43-20-82t-48-68-80-74q-36-31-100-92l-59-56 76-1q157 0 167 5 7 2 24 89v3h40v-3q-1-3-13-91T421 3V0H50v31q0 7 6 15t30 35q29 32 50 56 9 10 34 37t34 37 29 33 28 34 23 30 21 32 15 29 13 32 7 30 3 33q0 63-34 109t-97 46q-33 0-58-17t-35-33-10-19q0-1 5-1 18 0 37-14t19-46q0-25-16-42t-45-18z"/><path id="h" d="M33 157q0 101 76 192t171 92q51 0 90-49 16 30 46 30 13 0 23-8t10-20q0-13-37-160T374 68q0-25 7-33t21-9q9 1 20 9 21 20 41 96 6 20 10 21 2 1 10 1h4q19 0 19-9 0-6-5-27t-20-54-32-50Q436 0 417-8q-8-2-24-2-34 0-57 15t-30 31l-6 15q-1 1-4-1l-4-4q-59-56-120-56-55 0-97 40T33 157zm318 171q0 6-5 22t-23 35-46 20q-35 0-67-31t-50-81q-29-79-41-164v-11q0-8-1-12 0-45 18-62t43-18q38 0 75 33t44 51q2 4 27 107t26 111z"/><path id="i" d="m213 578-13-5q-14-5-40-10t-58-7H83v46h19q47 2 87 15t56 24 28 22q2 3 12 3 9 0 17-6V361l1-300q7-7 12-9t24-4 62-2h26V0h-11q-21 3-159 3-136 0-157-3H88v46h64q16 0 25 1t16 3 8 2 6 5 6 4v517z"/><path id="b" d="M56 347q0 13 14 20h637q15-8 15-20 0-11-14-19l-318-1H72q-16 5-16 20zm0-194q0 15 16 20h636q14-10 14-20 0-13-15-20H70q-14 7-14 20z"/><path id="k" d="M94 250q0 69 10 131t23 107 37 88 38 67 42 52 33 34 25 21h17q14 0 14-9 0-3-17-21t-41-53-49-86-42-138-17-193 17-192 41-139 49-86 42-53 17-21q0-9-15-9h-16l-28 24q-94 85-137 212T94 250z"/><path id="l" d="M39 168q0 57 19 104t49 78 67 52 70 31 63 9h3q45 0 78-22t33-65q0-90-111-118-49-13-134-14-37 0-38-2 0-2-6-35t-7-58q0-47 21-74t63-28 93 19 92 66q9 10 12 10 4 0 13-9t10-14-9-16-30-27-46-31-63-25-76-10q-79 0-122 53T39 168zm334 185q-6 52-68 52-33 0-61-14t-45-34-29-41-16-36-5-19q0-1 20-1 113 0 158 24t46 69z"/><path id="m" d="M84 237v13l14 20h581q15-8 15-20t-15-20H98q-14 7-14 20z"/><path id="n" d="M287 628q0 7-57 9-23 0-30 1t-7 9q0 8 4 20t7 15q2 1 199 1 167-1 187-1t40-6q72-17 122-79t51-166q0-156-107-280T444 3l-14-2-194-1H72Q48 0 41 2t-8 9q0 2 3 14 4 16 8 18t23 3q27 0 60 3 14 3 19 12 3 4 72 278t69 289zm416-159q0 38-11 68t-26 47-37 29-39 16-35 7h-43q-17 0-33 1h-43q-44 0-50-10-2-4-73-288T242 52q0-4 11-4t77-1h19q14 0 24-1 126 0 208 82 36 36 59 84t43 127 20 130z"/><path id="o" d="m60 749 4 1h22l28-24q94-85 137-212t43-264q0-68-10-131T261 12t-37-88-38-67-41-51-32-33-23-19l-4-4H63q-3 0-5 3t-3 9q1 1 11 13Q221-64 221 250T66 725q-10 12-11 13 0 8 5 11z"/><path id="p" d="M180 96v154l25 291 61 229 87 174 91 125 83 81h28q6-6 6-9 0-4-16-21t-41-48-57-77-61-117-56-157-42-208-16-262q0-118 8-195 13-143 46-265t73-196 76-126 61-78 25-31q0-3-6-9h-28q-44 37-84 81t-90 125-87 173-61 229z"/><path id="q" d="M42 313q0 163 81 258t180 95q69 0 99-36t30-80q0-25-14-40t-39-15q-23 0-38 14t-15 39q0 44 47 53-22 22-62 25-71 0-117-60-47-66-47-202l1-4q5 6 8 13 41 60 107 60h4q46 0 81-19 24-14 48-40t39-57q21-49 21-107v-18q0-23-5-43-11-59-64-115T253-22q-28 0-54 8t-56 30-51 59-36 97-14 141zm215 84q-30 0-52-17t-34-45-17-57-6-62q0-83 12-119t38-58q24-18 53-18 51 0 78 38 13 18 18 45t5 105q0 80-5 107t-18 45q-27 36-72 36z"/><path id="r" d="M35 1138q0 12 16 12h18q44-37 84-81t90-125 87-173 61-230 25-291-25-290-61-230-87-173-91-125-83-81H56q-13 0-17 2t-4 10q30 30 75 89Q283-316 316 56q8 77 8 195 0 117-8 194-38 432-268 678-12 14-13 15z"/></defs><g data-mml-node="math" stroke="currentColor" fill="currentColor" stroke-width="0"><g data-mml-node="msub"><use xlink:href="#a" data-mml-node="mi" transform="scale(1 -1)"/><g data-mml-node="TeXAtom"><text data-variant="normal" transform="matrix(.707 0 0 .707 640 176.7)" font-size="884" font-family="serif" data-mml-node="mo">М</text></g></g><use xlink:href="#b" data-mml-node="mo" transform="matrix(1 0 0 -1 1523.5 0)"/><g data-mml-node="mfrac"><g data-mml-node="mrow"><g data-mml-node="msub"><use xlink:href="#c" data-mml-node="mi" transform="matrix(1 0 0 -1 2799.3 -1055)"/><g data-mml-node="TeXAtom"><text data-variant="normal" transform="matrix(.707 0 0 .707 3289.3 -878.3)" font-size="884" font-family="serif" data-mml-node="mo">б</text></g></g><use xlink:href="#d" data-mml-node="mo" transform="matrix(1 0 0 -1 3879.5 -1055)"/><g data-mml-node="msub"><use xlink:href="#c" data-mml-node="mi" transform="matrix(1 0 0 -1 4879.7 -1055)"/><g data-mml-node="TeXAtom"><text data-variant="normal" transform="matrix(.707 0 0 .707 5369.7 -878.3)" font-size="884" font-family="serif" data-mml-node="mo">ф</text><use xlink:href="#e" data-mml-node="mo" transform="matrix(.707 0 0 -.707 5774.528 -878.3)"/><text data-variant="normal" transform="matrix(.707 0 0 .707 5971.074 -878.3)" font-size="884" font-family="serif" data-mml-node="mo">с</text><use xlink:href="#f" data-mml-node="mn" transform="matrix(.707 0 0 -.707 6248.572 -878.3)"/></g></g><use xlink:href="#g" data-mml-node="mtext" transform="matrix(1 0 0 -1 6652.2 -1055)"/><g data-mml-node="msubsup"><use xlink:href="#h" data-mml-node="mi" transform="matrix(1 0 0 -1 6902.2 -1055)"/><use xlink:href="#f" data-mml-node="mn" transform="matrix(.707 0 0 -.707 7431.2 -1418)"/><g data-mml-node="TeXAtom"><use xlink:href="#f" data-mml-node="mn" transform="matrix(.707 0 0 -.707 7431.2 -767.1)"/></g></g><use xlink:href="#d" data-mml-node="mo" transform="matrix(1 0 0 -1 8057 -1055)"/><g data-mml-node="msub"><use xlink:href="#c" data-mml-node="mi" transform="matrix(1 0 0 -1 9057.2 -1055)"/><g data-mml-node="TeXAtom"><text data-variant="normal" transform="matrix(.707 0 0 .707 9547.2 -878.3)" font-size="884" font-family="serif" data-mml-node="mo">ф</text><use xlink:href="#e" data-mml-node="mo" transform="matrix(.707 0 0 -.707 9952.028 -878.3)"/><text data-variant="normal" transform="matrix(.707 0 0 .707 10148.574 -878.3)" font-size="884" font-family="serif" data-mml-node="mo">н</text><use xlink:href="#i" data-mml-node="mn" transform="matrix(.707 0 0 -.707 10495.994 -878.3)"/></g></g><use xlink:href="#g" data-mml-node="mtext" transform="matrix(1 0 0 -1 10899.8 -1055)"/><g data-mml-node="msub"><use xlink:href="#j" data-mml-node="mi" transform="matrix(1 0 0 -1 11149.8 -1055)"/><g data-mml-node="TeXAtom"><use xlink:href="#i" data-mml-node="mn" transform="matrix(.707 0 0 -.707 11578.8 -905)"/></g></g><use xlink:href="#k" data-mml-node="mo" transform="matrix(1 0 0 -1 11982.3 -1055)"/><g data-mml-node="msub"><use xlink:href="#j" data-mml-node="mi" transform="matrix(1 0 0 -1 12371.3 -1055)"/><g data-mml-node="TeXAtom"><use xlink:href="#i" data-mml-node="mn" transform="matrix(.707 0 0 -.707 12800.3 -905)"/></g></g><use xlink:href="#d" data-mml-node="mo" transform="matrix(1 0 0 -1 13426.1 -1055)"/><g data-mml-node="msub"><use xlink:href="#l" data-mml-node="mi" transform="matrix(1 0 0 -1 14426.3 -1055)"/><g data-mml-node="TeXAtom"><use xlink:href="#i" data-mml-node="mn" transform="matrix(.707 0 0 -.707 14892.3 -905)"/></g></g><use xlink:href="#m" data-mml-node="mo" transform="matrix(1 0 0 -1 15518.1 -1055)"/><g data-mml-node="mfrac"><g data-mml-node="msubsup"><use xlink:href="#l" data-mml-node="mi" transform="matrix(.707 0 0 -.707 17052.5 -1598.6)"/><use xlink:href="#f" data-mml-node="mn" transform="matrix(.49985 0 0 -.49985 17381.962 -1855.241)"/><g data-mml-node="TeXAtom"><use xlink:href="#i" data-mml-node="mn" transform="matrix(.49985 0 0 -.49985 17381.962 -1395.055)"/></g></g><g data-mml-node="msub"><use xlink:href="#n" data-mml-node="mi" transform="matrix(.707 0 0 -.707 16738.3 -710)"/><g data-mml-node="TeXAtom"><g data-mml-node="mo" font-size="884" font-family="serif"><text data-variant="normal" transform="matrix(.49985 0 0 .49985 17323.696 -585.073)">С</text><text data-variant="normal" transform="matrix(.49985 0 0 .49985 17618.407 -585.073)">П</text></g></g></g><path stroke="none" d="M16638.3-1275h1443.3v-60h-1443.3z"/></g><use xlink:href="#o" data-mml-node="mo" transform="matrix(1 0 0 -1 18201.6 -1055)"/><use xlink:href="#d" data-mml-node="mo" transform="matrix(1 0 0 -1 18812.8 -1055)"/><g data-mml-node="msub"><use xlink:href="#c" data-mml-node="mi" transform="matrix(1 0 0 -1 19813.1 -1055)"/><g data-mml-node="TeXAtom"><text data-variant="normal" transform="matrix(.707 0 0 .707 20303.1 -878.3)" font-size="884" font-family="serif" data-mml-node="mo">ф</text><use xlink:href="#e" data-mml-node="mo" transform="matrix(.707 0 0 -.707 20707.928 -878.3)"/><text data-variant="normal" transform="matrix(.707 0 0 .707 20904.474 -878.3)" font-size="884" font-family="serif" data-mml-node="mo">н</text><use xlink:href="#f" data-mml-node="mn" transform="matrix(.707 0 0 -.707 21251.894 -878.3)"/></g></g><use xlink:href="#g" data-mml-node="mtext" transform="matrix(1 0 0 -1 21655.6 -1055)"/><g data-mml-node="msub"><use xlink:href="#j" data-mml-node="mi" transform="matrix(1 0 0 -1 21905.6 -1055)"/><g data-mml-node="TeXAtom"><use xlink:href="#f" data-mml-node="mn" transform="matrix(.707 0 0 -.707 22334.6 -905)"/></g></g><use xlink:href="#k" data-mml-node="mo" transform="matrix(1 0 0 -1 22738.1 -1055)"/><g data-mml-node="msub"><use xlink:href="#j" data-mml-node="mi" transform="matrix(1 0 0 -1 23127.1 -1055)"/><g data-mml-node="TeXAtom"><use xlink:href="#f" data-mml-node="mn" transform="matrix(.707 0 0 -.707 23556.1 -905)"/></g></g><use xlink:href="#d" data-mml-node="mo" transform="matrix(1 0 0 -1 24181.9 -1055)"/><g data-mml-node="msub"><use xlink:href="#l" data-mml-node="mi" transform="matrix(1 0 0 -1 25182.1 -1055)"/><g data-mml-node="TeXAtom"><use xlink:href="#f" data-mml-node="mn" transform="matrix(.707 0 0 -.707 25648.1 -905)"/></g></g><use xlink:href="#m" data-mml-node="mo" transform="matrix(1 0 0 -1 26273.9 -1055)"/><g data-mml-node="mfrac"><g data-mml-node="msubsup"><use xlink:href="#l" data-mml-node="mi" transform="matrix(.707 0 0 -.707 27808.3 -1598.6)"/><use xlink:href="#f" data-mml-node="mn" transform="matrix(.49985 0 0 -.49985 28137.762 -1855.241)"/><g data-mml-node="TeXAtom"><use xlink:href="#f" data-mml-node="mn" transform="matrix(.49985 0 0 -.49985 28137.762 -1395.055)"/></g></g><g data-mml-node="msub"><use xlink:href="#n" data-mml-node="mi" transform="matrix(.707 0 0 -.707 27494.1 -710)"/><g data-mml-node="TeXAtom"><g data-mml-node="mo" font-size="884" font-family="serif"><text data-variant="normal" transform="matrix(.49985 0 0 .49985 28079.496 -585.073)">С</text><text data-variant="normal" transform="matrix(.49985 0 0 .49985 28374.207 -585.073)">П</text></g></g></g><path stroke="none" d="M27394.1-1275h1443.3v-60h-1443.3z"/></g><use xlink:href="#o" data-mml-node="mo" transform="matrix(1 0 0 -1 28957.4 -1055)"/></g><g data-mml-node="mrow"><g data-mml-node="msub"><use xlink:href="#c" data-mml-node="mi" transform="matrix(1 0 0 -1 6809.4 1307.5)"/><g data-mml-node="TeXAtom"><text data-variant="normal" transform="matrix(.707 0 0 .707 7299.4 1484.2)" font-size="884" font-family="serif" data-mml-node="mo">б</text></g></g><use xlink:href="#d" data-mml-node="mo" transform="matrix(1 0 0 -1 7889.6 1307.5)"/><g data-mml-node="msub"><use xlink:href="#c" data-mml-node="mi" transform="matrix(1 0 0 -1 8889.8 1307.5)"/><g data-mml-node="TeXAtom"><text data-variant="normal" transform="matrix(.707 0 0 .707 9379.8 1484.2)" font-size="884" font-family="serif" data-mml-node="mo">п</text></g></g><g data-mml-node="msup"><g data-mml-node="mrow"><use xlink:href="#p" data-mml-node="mo" transform="matrix(1 0 0 -1 9777.4 1307.5)"/><g data-mml-node="mfrac"><g data-mml-node="msub"><use xlink:href="#n" data-mml-node="mi" transform="matrix(.707 0 0 -.707 10780.6 850.4)"/><g data-mml-node="TeXAtom"><use xlink:href="#q" data-mml-node="mn" transform="matrix(.49985 0 0 -.49985 11365.996 956.45)"/></g></g><g data-mml-node="msub"><use xlink:href="#n" data-mml-node="mi" transform="matrix(.707 0 0 -.707 10594.4 1652.5)"/><g data-mml-node="TeXAtom"><g data-mml-node="mo" font-size="884" font-family="serif"><text data-variant="normal" transform="matrix(.49985 0 0 .49985 11179.796 1777.427)">С</text><text data-variant="normal" transform="matrix(.49985 0 0 .49985 11474.507 1777.427)">П</text></g></g></g><path stroke="none" d="M10494.4 1087.5h1443.3v-60h-1443.3z"/></g><use xlink:href="#r" data-mml-node="mo" transform="matrix(1 0 0 -1 12057.7 1307.5)"/></g><use xlink:href="#f" data-mml-node="mn" transform="matrix(.707 0 0 -.707 12654.7 430.9)"/></g><use xlink:href="#d" data-mml-node="mo" transform="matrix(1 0 0 -1 13058.2 1307.5)"/><use xlink:href="#g" data-mml-node="mtext" transform="matrix(1 0 0 -1 13836.2 1307.5)"/><g data-mml-node="msub"><use xlink:href="#c" data-mml-node="mi" transform="matrix(1 0 0 -1 14086.2 1307.5)"/><g data-mml-node="TeXAtom"><text data-variant="normal" transform="matrix(.707 0 0 .707 14576.2 1484.2)" font-size="884" font-family="serif" data-mml-node="mo">ф</text><use xlink:href="#e" data-mml-node="mo" transform="matrix(.707 0 0 -.707 14981.028 1484.2)"/><text data-variant="normal" transform="matrix(.707 0 0 .707 15177.574 1484.2)" font-size="884" font-family="serif" data-mml-node="mo">с</text><use xlink:href="#f" data-mml-node="mn" transform="matrix(.707 0 0 -.707 15455.072 1484.2)"/></g></g><use xlink:href="#g" data-mml-node="mtext" transform="matrix(1 0 0 -1 15858.7 1307.5)"/><g data-mml-node="msubsup"><use xlink:href="#h" data-mml-node="mi" transform="matrix(1 0 0 -1 16108.7 1307.5)"/><use xlink:href="#f" data-mml-node="mn" transform="matrix(.707 0 0 -.707 16637.7 944.5)"/><g data-mml-node="TeXAtom"><use xlink:href="#f" data-mml-node="mn" transform="matrix(.707 0 0 -.707 16637.7 1595.4)"/></g></g><use xlink:href="#d" data-mml-node="mo" transform="matrix(1 0 0 -1 17263.5 1307.5)"/><g data-mml-node="msub"><use xlink:href="#c" data-mml-node="mi" transform="matrix(1 0 0 -1 18263.7 1307.5)"/><g data-mml-node="TeXAtom"><text data-variant="normal" transform="matrix(.707 0 0 .707 18753.7 1484.2)" font-size="884" font-family="serif" data-mml-node="mo">ф</text><use xlink:href="#e" data-mml-node="mo" transform="matrix(.707 0 0 -.707 19158.528 1484.2)"/><text data-variant="normal" transform="matrix(.707 0 0 .707 19355.074 1484.2)" font-size="884" font-family="serif" data-mml-node="mo">н</text><use xlink:href="#i" data-mml-node="mn" transform="matrix(.707 0 0 -.707 19702.494 1484.2)"/></g></g><use xlink:href="#g" data-mml-node="mtext" transform="matrix(1 0 0 -1 20106.3 1307.5)"/><g data-mml-node="msubsup"><use xlink:href="#j" data-mml-node="mi" transform="matrix(1 0 0 -1 20356.3 1307.5)"/><use xlink:href="#f" data-mml-node="mn" transform="matrix(.707 0 0 -.707 20785.3 944.5)"/><g data-mml-node="TeXAtom"><use xlink:href="#i" data-mml-node="mn" transform="matrix(.707 0 0 -.707 20785.3 1595.4)"/></g></g><use xlink:href="#d" data-mml-node="mo" transform="matrix(1 0 0 -1 21411 1307.5)"/><g data-mml-node="msub"><use xlink:href="#c" data-mml-node="mi" transform="matrix(1 0 0 -1 22411.3 1307.5)"/><g data-mml-node="TeXAtom"><text data-variant="normal" transform="matrix(.707 0 0 .707 22901.3 1484.2)" font-size="884" font-family="serif" data-mml-node="mo">ф</text><use xlink:href="#e" data-mml-node="mo" transform="matrix(.707 0 0 -.707 23306.128 1484.2)"/><text data-variant="normal" transform="matrix(.707 0 0 .707 23502.674 1484.2)" font-size="884" font-family="serif" data-mml-node="mo">н</text><use xlink:href="#f" data-mml-node="mn" transform="matrix(.707 0 0 -.707 23850.094 1484.2)"/></g></g><use xlink:href="#g" data-mml-node="mtext" transform="matrix(1 0 0 -1 24253.8 1307.5)"/><g data-mml-node="msubsup"><use xlink:href="#j" data-mml-node="mi" transform="matrix(1 0 0 -1 24503.8 1307.5)"/><use xlink:href="#f" data-mml-node="mn" transform="matrix(.707 0 0 -.707 24932.8 944.5)"/><g data-mml-node="TeXAtom"><use xlink:href="#f" data-mml-node="mn" transform="matrix(.707 0 0 -.707 24932.8 1595.4)"/></g></g></g><path stroke="none" d="M2699.3-220h26747.1v-60H2699.3z"/></g></g></svg>