<svg xmlns="http://www.w3.org/2000/svg" width="205.536" height="48.112" viewBox="0 -1579.1 11355.9 2658.2" xmlns:xlink="http://www.w3.org/1999/xlink"><defs><path id="h" d="M78 35v25l16 43 43 18q28 0 50-25t23-88q0-35-9-68t-21-57-26-41-24-27-13-9q-4 0-13 9t-9 13q0 4 11 16t25 30 26 50 16 73V9l-1-1q-2-1-5-2t-6-3-9-2-12-1q-27 0-44 17z"/><path id="a" d="M73 647q0 10 4 23t12 13q1 0 72 5t73 6q12 0 12-9t-34-143q-8-34-17-70t-15-54l-4-19q0-3 6 3 49 40 101 40 62 0 100-46t39-116q0-111-79-201T173-11q-50 0-91 38T40 150v9q0 21 8 58t49 197q50 197 50 209t-38 14H83q-3 0-7 3t-3 7zm263-322v6q0 74-61 74-17 0-35-8t-33-21-26-24-18-22l-6-8-21-86q-22-86-22-122 0-48 24-72 16-16 40-16 33 0 67 32 25 23 40 56t33 105q18 72 18 106z"/><path id="c" d="M56 347q0 13 14 20h637q15-8 15-20 0-11-14-19l-318-1H72q-16 5-16 20zm0-194q0 15 16 20h636q14-10 14-20 0-13-15-20H70q-14 7-14 20z"/><path id="e" d="M674 636q8 0 14-6t6-15-7-14q-1-1-270-129L151 346l248-118Q687 92 691 87q3-6 3-11 0-18-18-20h-6L382 192Q92 329 90 331q-7 5-7 17 1 11 13 17 8 4 286 135t283 134q4 2 9 2zM84-118q0 10 15 20h579q16-6 16-20 0-12-15-20H98q-14 7-14 20z"/><path id="f" d="m213 578-13-5q-14-5-40-10t-58-7H83v46h19q47 2 87 15t56 24 28 22q2 3 12 3 9 0 17-6V361l1-300q7-7 12-9t24-4 62-2h26V0h-11q-21 3-159 3-136 0-157-3H88v46h64q16 0 25 1t16 3 8 2 6 5 6 4v517z"/><path id="g" d="M164 157q0-24-16-40t-39-16h-7q46-79 122-79 70 0 102 60 19 33 19 128 0 103-27 139-26 33-58 33h-6q-78 0-118-68-4-7-7-8t-15-2q-17 0-19 6-2 4-2 175v129q0 50 5 50 2 2 4 2 1 0 21-8t55-16 75-8q71 0 136 28 8 4 13 4 8 0 8-18v-13q-82-97-205-97-31 0-56 6l-10 2V374q19 14 30 22t36 16 51 8q81 0 137-65t56-154q0-92-64-157T229-22q-81 0-130 54T50 154q0 24 11 38t23 18 23 4q25 0 41-17t16-40z"/><path id="b" d="M96 585q56 81 153 81 48 0 96-26t78-92q37-83 37-228 0-155-43-237-20-42-55-67t-61-31-51-7q-26 0-52 6t-61 32-55 67q-43 82-43 237 0 174 57 265zm225 12q-30 32-71 32-42 0-72-32-25-26-33-72t-8-192q0-158 8-208t36-79q28-30 69-30 40 0 68 30 29 30 36 84t8 203q0 145-8 191t-33 73z"/><path id="i" d="M127 463q-27 0-42 17t-16 44q0 55 48 98t116 43q35 0 44-1 74-12 113-53t40-89q0-52-34-101t-94-71l-3-2q0-1 9-3t29-9 38-21q82-53 82-140 0-79-62-138T238-22q-80 0-138 43T42 130q0 28 18 45t45 18q28 0 46-18t18-45q0-11-3-20t-7-16-11-12-12-8-10-4-8-3l-4-1q51-45 124-45 55 0 83 53 17 33 17 101v20q0 95-64 127-15 6-61 7l-42 1-3 2q-2 3-2 16 0 18 8 18 28 0 58 5 34 5 62 42t28 112v8q0 57-35 79-22 14-47 14-32 0-59-11t-38-23-11-12h3q3-1 8-2t10-5 12-7 10-11 8-15 3-20q0-22-14-39t-45-18z"/><path id="j" d="M70 417v77l54 124 124 48q71 0 126-42t55-109q0-30-11-56t-26-42-31-28-26-18-11-8l14-9 28-20q14-10 16-11 75-59 75-149 0-79-58-137T249-22q-90 0-148 51T43 155q0 108 129 180l-18 13q-21 13-27 20-57 49-57 126zm216-31 6 4 9 6q3 2 10 7t12 10 11 12 11 13 10 16 9 17 5 20 2 22q0 43-29 73t-67 38q-7 1-33 1-41 0-77-26t-37-65q0-23 13-42t26-29 50-32q7-5 11-7l58-38zM250 21q58 0 100 34t42 82q0 17-5 32t-12 25-22 22-23 18-29 19-27 17q-14 9-30 19t-26 17l-8 5q-6 0-29-17t-48-55-26-82q0-59 43-97t100-39z"/><path id="k" d="M263 249q1 0 52-119t102-238 53-120l255 530q256 535 257 537 7 11 19 11 7 0 12-6t7-12v-6L741 243Q645 43 540-176q-61-127-71-148t-16-24q-4-2-17-2l-12 1L315-96Q206 156 205 156l-34-26q-33-26-34-26l-26 26 152 119z"/><path id="l" d="M84 520q0 8 4 13t8 6l3 1q7 0 154-69t291-137l143-69q7-5 7-15t-7-15q-2-2-292-139L107-40h-6q-18 2-18 20v3q-1 7 15 16 19 10 150 72 78 37 130 61l248 118-248 118Q90 504 86 509q-2 4-2 11z"/><path id="m" d="M78 370q0 24 17 42t43 18q24 0 42-16t19-43q0-25-17-43t-43-18-43 17-18 43zm0-310q0 25 16 43t43 18q65 0 65-113 0-52-19-102t-39-75-26-25q-3 0-12 8t-11 12q-1 3 12 19t30 48 23 69q1 6 2 16t3 18 0 8q0 1-4 0t-19-4q-32 0-48 18T78 60z"/></defs><g data-mml-node="math" stroke="currentColor" fill="currentColor" stroke-width="0"><g data-mml-node="mtable"><g data-mml-node="mtr"><g data-mml-node="mtd"><g data-mml-node="msub"><use xlink:href="#a" data-mml-node="mi" transform="matrix(1 0 0 -1 1222.3 -829.1)"/><g data-mml-node="TeXAtom"><use xlink:href="#b" data-mml-node="mn" transform="matrix(.707 0 0 -.707 1651.3 -679.1)"/></g></g><use xlink:href="#c" data-mml-node="mo" transform="matrix(1 0 0 -1 2332.6 -829.1)"/><g data-mml-node="msub"><use xlink:href="#a" data-mml-node="mi" transform="matrix(1 0 0 -1 3388.4 -829.1)"/><g data-mml-node="TeXAtom"><text data-variant="normal" transform="matrix(.707 0 0 .707 3817.4 -652.4)" font-size="884" font-family="serif" data-mml-node="mo">п</text></g></g><use xlink:href="#d" data-mml-node="mtext" transform="matrix(1 0 0 -1 4214.9 -829.1)"/><g data-mml-node="mo" font-size="884" font-family="serif"><text data-variant="normal" transform="translate(4742.7 -829.1)">п</text><text data-variant="normal" transform="translate(5234.2 -829.1)">р</text><text data-variant="normal" transform="translate(5676.2 -829.1)">и</text></g><use xlink:href="#d" data-mml-node="mtext" transform="matrix(1 0 0 -1 6445.5 -829.1)"/><g data-mml-node="msub"><use xlink:href="#a" data-mml-node="mi" transform="matrix(1 0 0 -1 6695.5 -829.1)"/><g data-mml-node="TeXAtom"><text data-variant="normal" transform="matrix(.707 0 0 .707 7124.5 -652.4)" font-size="884" font-family="serif" data-mml-node="mo">п</text></g></g><use xlink:href="#e" data-mml-node="mo" transform="matrix(1 0 0 -1 7799.8 -829.1)"/><g data-mml-node="mn" transform="matrix(1 0 0 -1 8855.6 -829.1)"><use xlink:href="#f"/><use xlink:href="#g" transform="translate(500)"/></g><use xlink:href="#h" data-mml-node="mo" transform="matrix(1 0 0 -1 9855.6 -829.1)"/></g></g><g data-mml-node="mtr"><g data-mml-node="mtd"><g data-mml-node="msub"><use xlink:href="#a" data-mml-node="mi" transform="matrix(1 0 0 -1 0 671.8)"/><g data-mml-node="TeXAtom"><use xlink:href="#b" data-mml-node="mn" transform="matrix(.707 0 0 -.707 429 821.8)"/></g></g><use xlink:href="#c" data-mml-node="mo" transform="matrix(1 0 0 -1 1110.3 671.8)"/><use xlink:href="#i" data-mml-node="mn" transform="matrix(1 0 0 -1 2166.1 671.8)"/><use xlink:href="#h" data-mml-node="mo" transform="matrix(1 0 0 -1 2666.1 671.8)"/><use xlink:href="#j" data-mml-node="mn" transform="matrix(1 0 0 -1 3110.8 671.8)"/><g data-mml-node="msqrt"><g data-mml-node="msub"><use xlink:href="#a" data-mml-node="mi" transform="matrix(1 0 0 -1 4610.8 671.8)"/><g data-mml-node="TeXAtom"><text data-variant="normal" transform="matrix(.707 0 0 .707 5039.8 848.5)" font-size="884" font-family="serif" data-mml-node="mo">п</text></g></g><use xlink:href="#k" data-mml-node="mo" transform="matrix(1 0 0 -1 3610.8 729.1)"/><path stroke="none" d="M4610.8-60.9h826.5v-60h-826.5z"/></g><use xlink:href="#d" data-mml-node="mtext" transform="matrix(1 0 0 -1 5437.3 671.8)"/><g data-mml-node="mo" font-size="884" font-family="serif"><text data-variant="normal" transform="translate(5965.1 671.8)">п</text><text data-variant="normal" transform="translate(6456.6 671.8)">р</text><text data-variant="normal" transform="translate(6898.6 671.8)">и</text></g><use xlink:href="#d" data-mml-node="mtext" transform="matrix(1 0 0 -1 7667.8 671.8)"/><g data-mml-node="msub"><use xlink:href="#a" data-mml-node="mi" transform="matrix(1 0 0 -1 7917.8 671.8)"/><g data-mml-node="TeXAtom"><text data-variant="normal" transform="matrix(.707 0 0 .707 8346.8 848.5)" font-size="884" font-family="serif" data-mml-node="mo">п</text></g></g><use xlink:href="#l" data-mml-node="mo" transform="matrix(1 0 0 -1 9022.2 671.8)"/><g data-mml-node="mn" transform="matrix(1 0 0 -1 10077.9 671.8)"><use xlink:href="#f"/><use xlink:href="#g" transform="translate(500)"/></g><use xlink:href="#m" data-mml-node="mo" transform="matrix(1 0 0 -1 11077.9 671.8)"/></g></g></g></g></svg>