<svg xmlns="http://www.w3.org/2000/svg" width="251.208" height="46.84" viewBox="0 -1543.9 13879.1 2587.9" xmlns:xlink="http://www.w3.org/1999/xlink"><defs><path id="k" d="M78 35v25l16 43 43 18q28 0 50-25t23-88q0-35-9-68t-21-57-26-41-24-27-13-9q-4 0-13 9t-9 13q0 4 11 16t25 30 26 50 16 73V9l-1-1q-2-1-5-2t-6-3-9-2-12-1q-27 0-44 17z"/><path id="a" d="M29-194q-6 6-6 8 0 3 79 320t84 331q22 68 57 119t66 74q56 47 120 47h2q62 0 102-38t40-97q0-105-104-174l13-13q51-51 51-131 0-113-85-187T257-10q-30 0-54 8t-38 19-22 23-12 19-5 6L62-188q-2-6-20-6H29zm324 625q39 0 74-12l5 3 7 7 10 10q7 7 12 14t11 18 12 24 9 29 8 36q2 9 2 33 0 18-1 23-15 51-76 51-42 0-79-24t-61-61-39-68-23-59q-5-16-38-147t-34-140q-1-5-1-21 0-48 22-79 31-42 87-42 42 0 89 25t76 86q16 34 24 77t8 65q0 58-35 93-42-14-75-14h-10q-79 0-79 31 0 7 3 14 14 28 92 28z"/><path id="c" d="M56 347q0 13 14 20h637q15-8 15-20 0-11-14-19l-318-1H72q-16 5-16 20zm0-194q0 15 16 20h636q14-10 14-20 0-13-15-20H70q-14 7-14 20z"/><path id="d" d="M285 628q0 7-57 9-23 0-30 1t-7 9q0 2 2 14 6 20 10 21 2 1 11 1h5q41-2 136-2h63q29 0 45 1t20 0q17 0 17-8 0-5-3-14-1-2-1-6t-1-6-2-4-3-3-4-2-7-1-9-1-14 0q-40-1-51-3t-18-11l-81-318q1 0 184 144t188 148q14 14 14 23 0 15-25 17-16 0-16 11 0 2 3 14t5 15q3 5 17 5 4 0 35-1t80-1q23 0 48 1t30 1q20 0 20-10 0-22-8-30-3-5-19-5-75-5-136-51-16-10-70-52t-100-79l-47-37 9-22q9-22 28-67t35-85q75-177 80-183 2-2 5-4 14-10 51-11h21q6-8 6-9t-3-18q-4-13-10-19h-11q-40 3-95 3-122 0-137-3h-10q-6 6-6 9t2 18q4 13 6 16t11 3h3q50 0 50 25 0 4-27 70t-32 75l-58 138-68-53-68-53-23-93q-23-92-23-97 0-7 8-9t50-3h31q6-9 6-11 0-16-7-30-5-5-16-5-3 0-37 1T180 2H85Q52 2 49 1 31 1 31 11q0 2 3 14 4 16 8 18t23 3q27 0 60 3 14 3 19 12 3 4 72 278t69 289z"/><path id="e" d="M109 429q-27 0-43 18t-16 44q0 71 53 123t132 52q91 0 152-56t62-145q0-43-20-82t-48-68-80-74q-36-31-100-92l-59-56 76-1q157 0 167 5 7 2 24 89v3h40v-3q-1-3-13-91T421 3V0H50v31q0 7 6 15t30 35q29 32 50 56 9 10 34 37t34 37 29 33 28 34 23 30 21 32 15 29 13 32 7 30 3 33q0 63-34 109t-97 46q-33 0-58-17t-35-33-10-19q0-1 5-1 18 0 37-14t19-46q0-25-16-42t-45-18z"/><path id="g" d="M94 250q0 69 10 131t23 107 37 88 38 67 42 52 33 34 25 21h17q14 0 14-9 0-3-17-21t-41-53-49-86-42-138-17-193 17-192 41-139 49-86 42-53 17-21q0-9-15-9h-16l-28 24q-94 85-137 212T94 250z"/><path id="h" d="m213 578-13-5q-14-5-40-10t-58-7H83v46h19q47 2 87 15t56 24 28 22q2 3 12 3 9 0 17-6V361l1-300q7-7 12-9t24-4 62-2h26V0h-11q-21 3-159 3-136 0-157-3H88v46h64q16 0 25 1t16 3 8 2 6 5 6 4v517z"/><path id="i" d="M56 237v13l14 20h299v150l1 150q10 13 19 13 13 0 20-15V270h298q15-8 15-20t-15-20H409V-68q-8-14-18-14h-4q-12 0-18 14v298H70q-14 7-14 20z"/><path id="j" d="M70 417v77l54 124 124 48q71 0 126-42t55-109q0-30-11-56t-26-42-31-28-26-18-11-8l14-9 28-20q14-10 16-11 75-59 75-149 0-79-58-137T249-22q-90 0-148 51T43 155q0 108 129 180l-18 13q-21 13-27 20-57 49-57 126zm216-31 6 4 9 6q3 2 10 7t12 10 11 12 11 13 10 16 9 17 5 20 2 22q0 43-29 73t-67 38q-7 1-33 1-41 0-77-26t-37-65q0-23 13-42t26-29 50-32q7-5 11-7l58-38zM250 21q58 0 100 34t42 82q0 17-5 32t-12 25-22 22-23 18-29 19-27 17q-14 9-30 19t-26 17l-8 5q-6 0-29-17t-48-55-26-82q0-59 43-97t100-39z"/><path id="b" d="M40 437q-19 0-19 8 0 5 16 56t34 101l17 49q5 18 13 26h558q32 0 38-1t7-9q0-6-17-114t-19-109q0-7-19-7h-12q-3 0-6 5l-2 3q0 6 6 45t6 61q0 35-13 53t-55 25q-5 1-58 2-46 0-58-1t-18-8q-1-1-71-279T298 60q0-12 88-14 32 0 41-1t9-9q0-5-3-14-4-18-9-21l-2-1h-7q-5 0-52 1T228 2Q99 2 64 0H49q-6 6-6 9t2 18q4 13 10 19h39q80 0 95 9 1 1 2 1 5 3 10 20t40 157q17 68 28 111 70 275 70 281 0 5-29 5h-31q-67 0-88-6-45-10-70-41T67 467q-7-22-10-26t-14-4h-3z"/><path id="l" d="M164 157q0-24-16-40t-39-16h-7q46-79 122-79 70 0 102 60 19 33 19 128 0 103-27 139-26 33-58 33h-6q-78 0-118-68-4-7-7-8t-15-2q-17 0-19 6-2 4-2 175v129q0 50 5 50 2 2 4 2 1 0 21-8t55-16 75-8q71 0 136 28 8 4 13 4 8 0 8-18v-13q-82-97-205-97-31 0-56 6l-10 2V374q19 14 30 22t36 16 51 8q81 0 137-65t56-154q0-92-64-157T229-22q-81 0-130 54T50 154q0 24 11 38t23 18 23 4q25 0 41-17t16-40z"/><path id="m" d="M117 59q0-33 25-33 37 0 63 105 6 20 10 21 2 1 10 1h16q3 0 5-2t2-7q-1-6-3-16t-11-38-20-47-31-37-46-17q-36 0-67 22T38 85q0 12 1 17l65 258q63 255 63 263 0 3-1 5t-4 4-5 2-8 1-8 1-9 1-10 0h-13q-3 0-8 1t-6 3-1 6q0 2 2 14 5 19 11 21t72 6q15 1 34 2t30 3 11 1q12 0 12-8 0-11-73-300T118 83v-8q0-6-1-10v-6z"/><path id="n" d="M311 43q-15-13-44-28T206 0q-63 0-101 45T66 160q0 105 77 193t171 89q47 0 87-48l3 4q2 3 5 6t9 8 13 7 16 3q14 0 23-9t10-19q0-15-57-242T363-80q-18-54-77-89t-135-36q-141 0-141 68 0 26 18 46t46 20q15 0 28-9t14-31q0-10-2-19t-7-14-8-10-7-8l-2-2h1q10-3 60-3 38 0 60 12 23 11 43 33t28 47q6 19 16 62 13 48 13 56zm73 285-4 11q-3 11-5 15t-6 14-10 14-13 11-18 9-22 3q-44 0-85-53-30-39-50-119t-20-116q0-79 62-79 56 0 110 70l8 10 53 210z"/><path id="o" d="m60 749 4 1h22l28-24q94-85 137-212t43-264q0-68-10-131T261 12t-37-88-38-67-41-51-32-33-23-19l-4-4H63q-3 0-5 3t-3 9q1 1 11 13Q221-64 221 250T66 725q-10 12-11 13 0 8 5 11z"/><path id="p" d="M84 237v13l14 20h581q15-8 15-20t-15-20H98q-14 7-14 20z"/><path id="q" d="M96 585q56 81 153 81 48 0 96-26t78-92q37-83 37-228 0-155-43-237-20-42-55-67t-61-31-51-7q-26 0-52 6t-61 32-55 67q-43 82-43 237 0 174 57 265zm225 12q-30 32-71 32-42 0-72-32-25-26-33-72t-8-192q0-158 8-208t36-79q28-30 69-30 40 0 68 30 29 30 36 84t8 203q0 145-8 191t-33 73z"/><path id="r" d="M352 287q-48-76-120-76-78 0-128 59T44 396q-2 16-2 40v8q0 93 69 162 60 60 132 60h6q4 0 8-1h4q12 0 25-2t37-12 47-32 43-59q43-88 43-226 0-140-60-237-35-56-84-87T208-22q-61 0-100 29T68 93t53 56q22 0 37-14t15-39q0-18-9-31t-16-16-13-5l-4-1q0-2 7-6t26-10 42-5h6q60 0 101 64 39 56 39 194v7zm-108-39q48 0 77 49t30 133q0 78-8 112-2 10-6 20t-14 26-30 27-47 10q-38 0-65-27-21-22-27-52t-7-105q0-83 5-112t20-47q25-34 72-34z"/><path id="s" d="M462 0q-18 3-129 3-116 0-134-3h-9v46h58q7 0 17 2t14 5 7 8q1 2 1 54v50H28v46l151 231q153 232 155 233 2 2 21 2h18l6-6V211h92v-46h-92V66q0-7 6-12 8-7 57-8h29V0h-9zM293 211v334L74 212l109-1h110z"/></defs><g data-mml-node="math" stroke="currentColor" fill="currentColor" stroke-width="0"><g data-mml-node="msub"><use xlink:href="#a" data-mml-node="mi" transform="scale(1 -1)"/><g data-mml-node="TeXAtom"><use xlink:href="#b" data-mml-node="mi" transform="matrix(.707 0 0 -.707 566 150)"/></g></g><use xlink:href="#c" data-mml-node="mo" transform="matrix(1 0 0 -1 1391.6 0)"/><g data-mml-node="mfrac"><g data-mml-node="mrow"><g data-mml-node="msup"><use xlink:href="#d" data-mml-node="mi" transform="matrix(1 0 0 -1 3516.2 -710)"/><use xlink:href="#e" data-mml-node="mn" transform="matrix(.707 0 0 -.707 4365.2 -1073)"/></g><use xlink:href="#f" data-mml-node="mtext" transform="matrix(1 0 0 -1 4768.8 -710)"/><use xlink:href="#g" data-mml-node="mo" transform="matrix(1 0 0 -1 5018.8 -710)"/><use xlink:href="#h" data-mml-node="mn" transform="matrix(1 0 0 -1 5407.8 -710)"/><use xlink:href="#i" data-mml-node="mo" transform="matrix(1 0 0 -1 6130 -710)"/><use xlink:href="#j" data-mml-node="mn" transform="matrix(1 0 0 -1 7130.2 -710)"/><use xlink:href="#k" data-mml-node="mo" transform="matrix(1 0 0 -1 7630.2 -710)"/><g data-mml-node="mn" transform="matrix(1 0 0 -1 8074.9 -710)"><use xlink:href="#l"/><use xlink:href="#l" transform="translate(500)"/></g><use xlink:href="#m" data-mml-node="mi" transform="matrix(1 0 0 -1 9074.9 -710)"/><use xlink:href="#n" data-mml-node="mi" transform="matrix(1 0 0 -1 9372.9 -710)"/><use xlink:href="#d" data-mml-node="mi" transform="matrix(1 0 0 -1 9849.9 -710)"/><use xlink:href="#o" data-mml-node="mo" transform="matrix(1 0 0 -1 10698.9 -710)"/><use xlink:href="#p" data-mml-node="mo" transform="matrix(1 0 0 -1 11310.1 -710)"/><use xlink:href="#h" data-mml-node="mn" transform="matrix(1 0 0 -1 12310.3 -710)"/></g><g data-mml-node="mrow"><use xlink:href="#g" data-mml-node="mo" transform="matrix(1 0 0 -1 2667.4 793.9)"/><use xlink:href="#h" data-mml-node="mn" transform="matrix(1 0 0 -1 3056.4 793.9)"/><use xlink:href="#k" data-mml-node="mo" transform="matrix(1 0 0 -1 3556.4 793.9)"/><g data-mml-node="mn" transform="matrix(1 0 0 -1 4001.1 793.9)"><use xlink:href="#q"/><use xlink:href="#l" transform="translate(500)"/></g><use xlink:href="#i" data-mml-node="mo" transform="matrix(1 0 0 -1 5223.3 793.9)"/><use xlink:href="#h" data-mml-node="mn" transform="matrix(1 0 0 -1 6223.5 793.9)"/><use xlink:href="#k" data-mml-node="mo" transform="matrix(1 0 0 -1 6723.5 793.9)"/><g data-mml-node="mn" transform="matrix(1 0 0 -1 7168.2 793.9)"><use xlink:href="#r"/><use xlink:href="#s" transform="translate(500)"/><use xlink:href="#l" transform="translate(1000)"/></g><g data-mml-node="msup"><use xlink:href="#d" data-mml-node="mi" transform="matrix(1 0 0 -1 8668.2 793.9)"/><use xlink:href="#e" data-mml-node="mn" transform="matrix(.707 0 0 -.707 9517.2 430.9)"/></g><use xlink:href="#o" data-mml-node="mo" transform="matrix(1 0 0 -1 9920.7 793.9)"/><use xlink:href="#g" data-mml-node="mo" transform="matrix(1 0 0 -1 10309.7 793.9)"/><use xlink:href="#d" data-mml-node="mi" transform="matrix(1 0 0 -1 10698.7 793.9)"/><use xlink:href="#p" data-mml-node="mo" transform="matrix(1 0 0 -1 11770 793.9)"/><use xlink:href="#h" data-mml-node="mn" transform="matrix(1 0 0 -1 12770.2 793.9)"/><use xlink:href="#o" data-mml-node="mo" transform="matrix(1 0 0 -1 13270.2 793.9)"/></g><path stroke="none" d="M2567.4-220h11191.8v-60H2567.4z"/></g></g></svg>