<svg xmlns="http://www.w3.org/2000/svg" width="299.136" height="64.968" viewBox="0 -2044.7 16527.4 3589.3" xmlns:xlink="http://www.w3.org/1999/xlink"><defs><path id="i" d="M308 24q59 0 108 52t50 121q0 63-52 87-106 27-136 37t-42 20q-60 42-60 121 0 61 32 111t65 75q29 25 70 40t64 16h18q96 0 139-64 1 0 13 13t26 29 20 22h4q3 0 5 1 13 0 13-7t-28-121-32-118-16-3q-20 0-20 9 0 6 1 10 0 3 1 19t2 26q0 34-9 59t-18 37-25 25q-36 21-82 21-57 0-106-46t-50-106q0-30 15-52t41-31q4-2 70-19t67-18q34-11 66-48t32-100q0-26-8-56-5-22-18-49t-36-59-66-60-94-38q-12-2-34-2-99 0-154 55l-10 11-28-31Q83-14 78-18t-13-4q-13 0-13 8 0 3 58 235 2 6 20 6h13q6-6 6-11 0-2-1-9t-4-21-2-33q2-39 18-66t43-40 52-18 53-5z"/><path id="a" d="M287 628q0 7-57 9-23 0-30 1t-7 9q0 8 4 20t7 15q2 1 199 1 167-1 187-1t40-6q72-17 122-79t51-166q0-156-107-280T444 3l-14-2-194-1H72Q48 0 41 2t-8 9q0 2 3 14 4 16 8 18t23 3q27 0 60 3 14 3 19 12 3 4 72 278t69 289zm416-159q0 38-11 68t-26 47-37 29-39 16-35 7h-43q-17 0-33 1h-43q-44 0-50-10-2-4-73-288T242 52q0-4 11-4t77-1h19q14 0 24-1 126 0 208 82 36 36 59 84t43 127 20 130z"/><path id="c" d="M56 347q0 13 14 20h637q15-8 15-20 0-11-14-19l-318-1H72q-16 5-16 20zm0-194q0 15 16 20h636q14-10 14-20 0-13-15-20H70q-14 7-14 20z"/><path id="e" d="M84 237v13l14 20h581q15-8 15-20t-15-20H98q-14 7-14 20z"/><path id="f" d="M83 616q0 8 6 14t10 6q8 0 154-68t290-137 144-70q7-5 7-15t-7-15q-2-2-292-139L107 56h-6q-18 2-18 20v3q-1 7 15 16 19 10 150 72 78 37 130 61l248 118-266 126q-69 33-160 76-88 41-102 49t-15 19zm1-734q0 10 15 20h579q16-6 16-20 0-12-15-20H98q-14 7-14 20z"/><path id="g" d="M109 429q-27 0-43 18t-16 44q0 71 53 123t132 52q91 0 152-56t62-145q0-43-20-82t-48-68-80-74q-36-31-100-92l-59-56 76-1q157 0 167 5 7 2 24 89v3h40v-3q-1-3-13-91T421 3V0H50v31q0 7 6 15t30 35q29 32 50 56 9 10 34 37t34 37 29 33 28 34 23 30 21 32 15 29 13 32 7 30 3 33q0 63-34 109t-97 46q-33 0-58-17t-35-33-10-19q0-1 5-1 18 0 37-14t19-46q0-25-16-42t-45-18z"/><path id="h" d="M96 585q56 81 153 81 48 0 96-26t78-92q37-83 37-228 0-155-43-237-20-42-55-67t-61-31-51-7q-26 0-52 6t-61 32-55 67q-43 82-43 237 0 174 57 265zm225 12q-30 32-71 32-42 0-72-32-25-26-33-72t-8-192q0-158 8-208t36-79q28-30 69-30 40 0 68 30 29 30 36 84t8 203q0 145-8 191t-33 73z"/><path id="b" d="M229 286q-13 134-13 150 0 18 24 28h5q4 0 6 1 12-1 22-9t10-20q0-17-6-80t-7-70l58 42q56 41 61 44t10 3q13 0 24-10t12-27q0-13-10-23-5-3-68-33t-68-32l66-31 70-35q9-9 9-23 0-15-9-25t-24-11q-8 0-18 6t-55 40l-58 42q13-134 13-150 0-10-7-19t-26-9q-19 0-26 9t-8 19q0 17 6 80t7 70l-58-42q-56-41-61-44-4-3-10-3-13 0-24 10t-12 27v8q0 3 3 6t5 6 9 7 13 7 19 9 25 11 32 15 40 20L74 315q-9 9-9 23 0 15 9 25t24 11q8 0 18-6t55-40l58-42z"/><path id="j" d="m213 578-13-5q-14-5-40-10t-58-7H83v46h19q47 2 87 15t56 24 28 22q2 3 12 3 9 0 17-6V361l1-300q7-7 12-9t24-4 62-2h26V0h-11q-21 3-159 3-136 0-157-3H88v46h64q16 0 25 1t16 3 8 2 6 5 6 4v517z"/><path id="k" d="M78 370q0 24 17 42t43 18q24 0 42-16t19-43q0-25-17-43t-43-18-43 17-18 43zm0-310q0 25 16 43t43 18q65 0 65-113 0-52-19-102t-39-75-26-25q-3 0-12 8t-11 12q-1 3 12 19t30 48 23 69q1 6 2 16t3 18 0 8q0 1-4 0t-19-4q-32 0-48 18T78 60z"/><path id="l" d="M56 237v13l14 20h299v150l1 150q10 13 19 13 13 0 20-15V270h298q15-8 15-20t-15-20H409V-68q-8-14-18-14h-4q-12 0-18 14v298H70q-14 7-14 20z"/><path id="m" d="M694-11v-8l-6-14-10-7q-7 0-154 69T234 166L90 235q-7 5-7 15 0 11 8 16 573 274 587 274 3 0 9-6t7-15-7-14q-1-1-270-129L151 250l266-126Q686-4 687-5q7-6 7-14z"/><path id="n" d="M118-162q2 0 6-2t11-3 12-1q13 0 24 13t16 29q10 27 34 153t46 240 22 115v3h-47q-47 0-50 2-4 3-4 10l7 28q2 5 8 5t47 1q48 0 48 1 0 2 9 50t12 58q37 165 146 165 37-2 61-22t24-53q0-36-21-52t-42-17q-44 0-44 42 0 19 11 33t24 21l9 5q-16 6-30 6-12 0-23-10t-15-28q-7-29-16-78t-16-83-7-36q0-2 55-2 45 0 52-1t11-6q1-4-2-17t-5-16q-2-5-9-5t-54-1h-56l-23-122Q301 15 282-47q-27-85-70-126-37-32-73-32-32 0-58 19t-26 54q0 37 21 54t42 17q44 0 44-42 0-19-11-33t-24-21l-9-5z"/><path id="o" d="M84 520q0 8 4 13t8 6l3 1q7 0 154-69t291-137l143-69q7-5 7-15t-7-15q-2-2-292-139L107-40h-6q-18 2-18 20v3q-1 7 15 16 19 10 150 72 78 37 130 61l248 118-248 118Q90 504 86 509q-2 4-2 11z"/><path id="p" d="M78 60q0 24 17 42t43 18q24 0 42-16t19-43q0-25-17-43T139 0 96 17 78 60z"/></defs><g data-mml-node="math" stroke="currentColor" fill="currentColor" stroke-width="0"><g data-mml-node="mtable"><g data-mml-node="mtr"><g data-mml-node="mtd"><g data-mml-node="msup"><use xlink:href="#a" data-mml-node="mi" transform="matrix(1 0 0 -1 2834.8 -1294.7)"/><use xlink:href="#b" data-mml-node="mo" transform="matrix(.707 0 0 -.707 3662.8 -1657.7)"/></g><use xlink:href="#c" data-mml-node="mo" transform="matrix(1 0 0 -1 4344.1 -1294.7)"/><use xlink:href="#a" data-mml-node="mi" transform="matrix(1 0 0 -1 5399.9 -1294.7)"/><use xlink:href="#d" data-mml-node="mtext" transform="matrix(1 0 0 -1 6227.9 -1294.7)"/><use xlink:href="#e" data-mml-node="mo" transform="matrix(1 0 0 -1 6477.9 -1294.7)"/><g data-mml-node="mo" font-size="884" font-family="serif"><text data-variant="normal" transform="translate(7533.7 -1294.7)">п</text><text data-variant="normal" transform="translate(8025.2 -1294.7)">р</text><text data-variant="normal" transform="translate(8467.2 -1294.7)">и</text></g><use xlink:href="#a" data-mml-node="mi" transform="matrix(1 0 0 -1 9236.4 -1294.7)"/><use xlink:href="#f" data-mml-node="mo" transform="matrix(1 0 0 -1 10342.2 -1294.7)"/><g data-mml-node="mn" transform="matrix(1 0 0 -1 11398 -1294.7)"><use xlink:href="#g"/><use xlink:href="#h" transform="translate(500)"/></g><g data-mml-node="msub"><use xlink:href="#i" data-mml-node="mi" transform="matrix(1 0 0 -1 12398 -1294.7)"/><g data-mml-node="TeXAtom"><use xlink:href="#j" data-mml-node="mn" transform="matrix(.707 0 0 -.707 13011 -1144.7)"/></g></g><use xlink:href="#k" data-mml-node="mo" transform="matrix(1 0 0 -1 13414.6 -1294.7)"/></g></g><g data-mml-node="mtr"><g data-mml-node="mtd"><g data-mml-node="msup"><use xlink:href="#a" data-mml-node="mi" transform="scale(1 -1)"/><use xlink:href="#b" data-mml-node="mo" transform="matrix(.707 0 0 -.707 828 -363)"/></g><use xlink:href="#c" data-mml-node="mo" transform="matrix(1 0 0 -1 1509.3 0)"/><use xlink:href="#a" data-mml-node="mi" transform="matrix(1 0 0 -1 2565.1 0)"/><use xlink:href="#l" data-mml-node="mo" transform="matrix(1 0 0 -1 3615.3 0)"/><g data-mml-node="msub"><use xlink:href="#i" data-mml-node="mi" transform="matrix(1 0 0 -1 4615.6 0)"/><g data-mml-node="TeXAtom"><use xlink:href="#h" data-mml-node="mn" transform="matrix(.707 0 0 -.707 5228.6 150)"/></g></g><use xlink:href="#d" data-mml-node="mtext" transform="matrix(1 0 0 -1 5632.1 0)"/><use xlink:href="#e" data-mml-node="mo" transform="matrix(1 0 0 -1 5882.1 0)"/><g data-mml-node="mo" font-size="884" font-family="serif"><text data-variant="normal" transform="translate(6937.9)">п</text><text data-variant="normal" transform="translate(7429.4)">р</text><text data-variant="normal" transform="translate(7871.4)">и</text></g><use xlink:href="#a" data-mml-node="mi" transform="matrix(1 0 0 -1 8640.6 0)"/><use xlink:href="#m" data-mml-node="mo" transform="matrix(1 0 0 -1 9746.4 0)"/><g data-mml-node="mn" transform="matrix(1 0 0 -1 10802.2 0)"><use xlink:href="#g"/><use xlink:href="#h" transform="translate(500)"/></g><g data-mml-node="msub"><use xlink:href="#i" data-mml-node="mi" transform="matrix(1 0 0 -1 11802.2 0)"/><g data-mml-node="TeXAtom"><use xlink:href="#j" data-mml-node="mn" transform="matrix(.707 0 0 -.707 12415.2 150)"/></g></g><text data-variant="normal" transform="translate(13096.5)" font-size="884" font-family="serif" data-mml-node="mo">и</text><use xlink:href="#n" data-mml-node="mi" transform="matrix(1 0 0 -1 13865.8 0)"/><use xlink:href="#o" data-mml-node="mo" transform="matrix(1 0 0 -1 14693.6 0)"/><use xlink:href="#j" data-mml-node="mn" transform="matrix(1 0 0 -1 15749.4 0)"/><use xlink:href="#k" data-mml-node="mo" transform="matrix(1 0 0 -1 16249.4 0)"/></g></g><g data-mml-node="mtr"><g data-mml-node="mtd"><g data-mml-node="msup"><use xlink:href="#a" data-mml-node="mi" transform="matrix(1 0 0 -1 0 1294.7)"/><use xlink:href="#b" data-mml-node="mo" transform="matrix(.707 0 0 -.707 828 931.7)"/></g><use xlink:href="#c" data-mml-node="mo" transform="matrix(1 0 0 -1 1509.3 1294.7)"/><use xlink:href="#a" data-mml-node="mi" transform="matrix(1 0 0 -1 2565.1 1294.7)"/><use xlink:href="#l" data-mml-node="mo" transform="matrix(1 0 0 -1 3615.3 1294.7)"/><g data-mml-node="msub"><use xlink:href="#i" data-mml-node="mi" transform="matrix(1 0 0 -1 4615.6 1294.7)"/><g data-mml-node="TeXAtom"><use xlink:href="#j" data-mml-node="mn" transform="matrix(.707 0 0 -.707 5228.6 1444.7)"/></g></g><use xlink:href="#d" data-mml-node="mtext" transform="matrix(1 0 0 -1 5632.1 1294.7)"/><use xlink:href="#e" data-mml-node="mo" transform="matrix(1 0 0 -1 5882.1 1294.7)"/><g data-mml-node="mo" font-size="884" font-family="serif"><text data-variant="normal" transform="translate(6937.9 1294.7)">п</text><text data-variant="normal" transform="translate(7429.4 1294.7)">р</text><text data-variant="normal" transform="translate(7871.4 1294.7)">и</text></g><use xlink:href="#a" data-mml-node="mi" transform="matrix(1 0 0 -1 8640.6 1294.7)"/><use xlink:href="#m" data-mml-node="mo" transform="matrix(1 0 0 -1 9746.4 1294.7)"/><g data-mml-node="mn" transform="matrix(1 0 0 -1 10802.2 1294.7)"><use xlink:href="#g"/><use xlink:href="#h" transform="translate(500)"/></g><g data-mml-node="msub"><use xlink:href="#i" data-mml-node="mi" transform="matrix(1 0 0 -1 11802.2 1294.7)"/><g data-mml-node="TeXAtom"><use xlink:href="#j" data-mml-node="mn" transform="matrix(.707 0 0 -.707 12415.2 1444.7)"/></g></g><text data-variant="normal" transform="translate(13096.5 1294.7)" font-size="884" font-family="serif" data-mml-node="mo">и</text><use xlink:href="#n" data-mml-node="mi" transform="matrix(1 0 0 -1 13865.8 1294.7)"/><use xlink:href="#c" data-mml-node="mo" transform="matrix(1 0 0 -1 14693.6 1294.7)"/><g data-mml-node="mn" transform="matrix(1 0 0 -1 15749.4 1294.7)"><use xlink:href="#j"/><use xlink:href="#p" transform="translate(500)"/></g></g></g></g></g></svg>