<svg xmlns="http://www.w3.org/2000/svg" width="185.792" height="28.856" viewBox="0 -1060.7 10265 1594.2" xmlns:xlink="http://www.w3.org/1999/xlink"><defs><path id="a" d="M118-250V750h137v-40h-97v-920h97v-40H118z"/><path id="b" d="M184-11q-68 0-110 45T31 147q0 100 73 186t170 97q1 1 140 1h138q1-1 3-2t4-2 3-2 3-3 2-2 2-4 1-4 1-5 1-6q0-44-65-44h-17q-10 0-14 1h-60l5-10q18-38 18-85 0-110-80-192T184-11zm177 289q0 80-85 80-124 0-161-174-1-4-1-6-8-37-8-61 0-50 25-70t57-21q54 0 99 47 29 30 47 80t22 80 5 45z"/><path id="c" d="M22 710v40h137V-250H22v40h97v920H22z"/><path id="d" d="M56 347q0 13 14 20h637q15-8 15-20 0-11-14-19l-318-1H72q-16 5-16 20zm0-194q0 15 16 20h636q14-10 14-20 0-13-15-20H70q-14 7-14 20z"/><path id="e" d="M285 628q0 7-57 9-23 0-30 1t-7 9q0 2 2 14 6 20 10 21 2 1 11 1h5q41-2 136-2h63q29 0 45 1t20 0q17 0 17-8 0-5-3-14-1-2-1-6t-1-6-2-4-3-3-4-2-7-1-9-1-14 0q-40-1-51-3t-18-11l-81-318q1 0 184 144t188 148q14 14 14 23 0 15-25 17-16 0-16 11 0 2 3 14t5 15q3 5 17 5 4 0 35-1t80-1q23 0 48 1t30 1q20 0 20-10 0-22-8-30-3-5-19-5-75-5-136-51-16-10-70-52t-100-79l-47-37 9-22q9-22 28-67t35-85q75-177 80-183 2-2 5-4 14-10 51-11h21q6-8 6-9t-3-18q-4-13-10-19h-11q-40 3-95 3-122 0-137-3h-10q-6 6-6 9t2 18q4 13 6 16t11 3h3q50 0 50 25 0 4-27 70t-32 75l-58 138-68-53-68-53-23-93q-23-92-23-97 0-7 8-9t50-3h31q6-9 6-11 0-16-7-30-5-5-16-5-3 0-37 1T180 2H85Q52 2 49 1 31 1 31 11q0 2 3 14 4 16 8 18t23 3q27 0 60 3 14 3 19 12 3 4 72 278t69 289z"/><path id="f" d="M78 60q0 24 17 42t43 18q24 0 42-16t19-43q0-25-17-43T139 0 96 17 78 60z"/></defs><g data-mml-node="math" stroke="currentColor" fill="currentColor" stroke-width="0"><use xlink:href="#a" data-mml-node="mo" transform="scale(1 -1)"/><use xlink:href="#b" data-mml-node="mi" transform="matrix(1 0 0 -1 278 0)"/><g data-mml-node="msubsup"><use xlink:href="#c" data-mml-node="mo" transform="matrix(1 0 0 -1 849 0)"/><text data-variant="normal" transform="matrix(.707 0 0 .707 1127 -530.4)" font-size="884" font-family="serif" data-mml-node="mo">б</text><g data-mml-node="TeXAtom"><text data-variant="normal" transform="matrix(.707 0 0 .707 1127 356.7)" font-size="884" font-family="serif" data-mml-node="mo">р</text></g></g><use xlink:href="#d" data-mml-node="mo" transform="matrix(1 0 0 -1 1772.7 0)"/><g data-mml-node="msub"><use xlink:href="#e" data-mml-node="mi" transform="matrix(1 0 0 -1 2828.5 0)"/><g data-mml-node="TeXAtom"><text data-variant="normal" transform="matrix(.707 0 0 .707 3677.5 176.7)" font-size="884" font-family="serif" data-mml-node="mo">у</text><use xlink:href="#f" data-mml-node="mo" transform="matrix(.707 0 0 -.707 4024.99 176.7)"/><text data-variant="normal" transform="matrix(.707 0 0 .707 4221.537 176.7)" font-size="884" font-family="serif" data-mml-node="mo">р</text></g></g><use xlink:href="#g" data-mml-node="mtext" transform="matrix(1 0 0 -1 4584.2 0)"/><g data-mml-node="msub"><use xlink:href="#e" data-mml-node="mi" transform="matrix(1 0 0 -1 4834.2 0)"/><g data-mml-node="TeXAtom"><text data-variant="normal" transform="matrix(.707 0 0 .707 5683.2 176.7)" font-size="884" font-family="serif" data-mml-node="mo">у</text><use xlink:href="#f" data-mml-node="mo" transform="matrix(.707 0 0 -.707 6030.69 176.7)"/><text data-variant="normal" transform="matrix(.707 0 0 .707 6227.236 176.7)" font-size="884" font-family="serif" data-mml-node="mo">з</text></g></g><use xlink:href="#g" data-mml-node="mtext" transform="matrix(1 0 0 -1 6524.1 0)"/><g data-mml-node="msub"><use xlink:href="#e" data-mml-node="mi" transform="matrix(1 0 0 -1 6774.1 0)"/><g data-mml-node="TeXAtom"><text data-variant="normal" transform="matrix(.707 0 0 .707 7623.1 176.7)" font-size="884" font-family="serif" data-mml-node="mo">у</text><use xlink:href="#f" data-mml-node="mo" transform="matrix(.707 0 0 -.707 7970.59 176.7)"/><text data-variant="normal" transform="matrix(.707 0 0 .707 8167.137 176.7)" font-size="884" font-family="serif" data-mml-node="mo">т</text></g></g><use xlink:href="#g" data-mml-node="mtext" transform="matrix(1 0 0 -1 8490.5 0)"/><use xlink:href="#a" data-mml-node="mo" transform="matrix(1 0 0 -1 8740.5 0)"/><use xlink:href="#b" data-mml-node="mi" transform="matrix(1 0 0 -1 9018.5 0)"/><g data-mml-node="msubsup"><use xlink:href="#c" data-mml-node="mo" transform="matrix(1 0 0 -1 9589.5 0)"/><text data-variant="normal" transform="matrix(.707 0 0 .707 9867.5 -530.4)" font-size="884" font-family="serif" data-mml-node="mo">б</text><g data-mml-node="TeXAtom"><text data-variant="normal" transform="matrix(.707 0 0 .707 9867.5 356.7)" font-size="884" font-family="serif" data-mml-node="mo">н</text></g></g></g></svg>