<svg xmlns="http://www.w3.org/2000/svg" width="69.648" height="39.504" viewBox="0 -1496.5 3848.1 2182.5" xmlns:xlink="http://www.w3.org/1999/xlink"><defs><path id="a" d="M285 628q0 7-57 9-23 0-30 1t-7 9q0 2 2 14 6 20 10 21 2 1 11 1h5q41-2 136-2h63q29 0 45 1t20 0q17 0 17-8 0-5-3-14-1-2-1-6t-1-6-2-4-3-3-4-2-7-1-9-1-14 0q-40-1-51-3t-18-11l-81-318q1 0 184 144t188 148q14 14 14 23 0 15-25 17-16 0-16 11 0 2 3 14t5 15q3 5 17 5 4 0 35-1t80-1q23 0 48 1t30 1q20 0 20-10 0-22-8-30-3-5-19-5-75-5-136-51-16-10-70-52t-100-79l-47-37 9-22q9-22 28-67t35-85q75-177 80-183 2-2 5-4 14-10 51-11h21q6-8 6-9t-3-18q-4-13-10-19h-11q-40 3-95 3-122 0-137-3h-10q-6 6-6 9t2 18q4 13 6 16t11 3h3q50 0 50 25 0 4-27 70t-32 75l-58 138-68-53-68-53-23-93q-23-92-23-97 0-7 8-9t50-3h31q6-9 6-11 0-16-7-30-5-5-16-5-3 0-37 1T180 2H85Q52 2 49 1 31 1 31 11q0 2 3 14 4 16 8 18t23 3q27 0 60 3 14 3 19 12 3 4 72 278t69 289z"/><path id="b" d="M56 347q0 13 14 20h637q15-8 15-20 0-11-14-19l-318-1H72q-16 5-16 20zm0-194q0 15 16 20h636q14-10 14-20 0-13-15-20H70q-14 7-14 20z"/><path id="c" d="M287 628q0 7-57 9-23 0-30 1t-7 9q0 8 4 20t7 15q2 1 199 1 167-1 187-1t40-6q72-17 122-79t51-166q0-156-107-280T444 3l-14-2-194-1H72Q48 0 41 2t-8 9q0 2 3 14 4 16 8 18t23 3q27 0 60 3 14 3 19 12 3 4 72 278t69 289zm416-159q0 38-11 68t-26 47-37 29-39 16-35 7h-43q-17 0-33 1h-43q-44 0-50-10-2-4-73-288T242 52q0-4 11-4t77-1h19q14 0 24-1 126 0 208 82 36 36 59 84t43 127 20 130z"/></defs><g data-mml-node="math" stroke="currentColor" fill="currentColor" stroke-width="0"><use xlink:href="#a" data-mml-node="mi" transform="scale(1 -1)"/><use xlink:href="#b" data-mml-node="mo" transform="matrix(1 0 0 -1 1126.8 0)"/><g data-mml-node="mfrac"><g data-mml-node="msub"><use xlink:href="#c" data-mml-node="mi" transform="matrix(1 0 0 -1 2402.6 -813.5)"/><g data-mml-node="TeXAtom"><text data-variant="normal" transform="matrix(.707 0 0 .707 3230.6 -636.8)" font-size="884" font-family="serif" data-mml-node="mo">н</text></g></g><use xlink:href="#c" data-mml-node="mi" transform="matrix(1 0 0 -1 2601.4 686)"/><path stroke="none" d="M2302.6-220h1425.5v-60H2302.6z"/></g></g></svg>