<svg xmlns="http://www.w3.org/2000/svg" width="99.696" height="24.864" viewBox="0 -1060.7 5508.1 1373.6" xmlns:xlink="http://www.w3.org/1999/xlink"><defs><path id="a" d="M184-11q-68 0-110 45T31 147q0 100 73 186t170 97q1 1 140 1h138q1-1 3-2t4-2 3-2 3-3 2-2 2-4 1-4 1-5 1-6q0-44-65-44h-17q-10 0-14 1h-60l5-10q18-38 18-85 0-110-80-192T184-11zm177 289q0 80-85 80-124 0-161-174-1-4-1-6-8-37-8-61 0-50 25-70t57-21q54 0 99 47 29 30 47 80t22 80 5 45z"/><path id="b" d="M96 585q56 81 153 81 48 0 96-26t78-92q37-83 37-228 0-155-43-237-20-42-55-67t-61-31-51-7q-26 0-52 6t-61 32-55 67q-43 82-43 237 0 174 57 265zm225 12q-30 32-71 32-42 0-72-32-25-26-33-72t-8-192q0-158 8-208t36-79q28-30 69-30 40 0 68 30 29 30 36 84t8 203q0 145-8 191t-33 73z"/><path id="c" d="M674 636q8 0 14-6t6-15-7-14q-1-1-270-129L151 346l248-118Q687 92 691 87q3-6 3-11 0-18-18-20h-6L382 192Q92 329 90 331q-7 5-7 17 1 11 13 17 8 4 286 135t283 134q4 2 9 2zM84-118q0 10 15 20h579q16-6 16-20 0-12-15-20H98q-14 7-14 20z"/><path id="d" d="m213 578-13-5q-14-5-40-10t-58-7H83v46h19q47 2 87 15t56 24 28 22q2 3 12 3 9 0 17-6V361l1-300q7-7 12-9t24-4 62-2h26V0h-11q-21 3-159 3-136 0-157-3H88v46h64q16 0 25 1t16 3 8 2 6 5 6 4v517z"/><path id="e" d="M78 35v25l16 43 43 18q28 0 50-25t23-88q0-35-9-68t-21-57-26-41-24-27-13-9q-4 0-13 9t-9 13q0 4 11 16t25 30 26 50 16 73V9l-1-1q-2-1-5-2t-6-3-9-2-12-1q-27 0-44 17z"/><path id="f" d="M127 463q-27 0-42 17t-16 44q0 55 48 98t116 43q35 0 44-1 74-12 113-53t40-89q0-52-34-101t-94-71l-3-2q0-1 9-3t29-9 38-21q82-53 82-140 0-79-62-138T238-22q-80 0-138 43T42 130q0 28 18 45t45 18q28 0 46-18t18-45q0-11-3-20t-7-16-11-12-12-8-10-4-8-3l-4-1q51-45 124-45 55 0 83 53 17 33 17 101v20q0 95-64 127-15 6-61 7l-42 1-3 2q-2 3-2 16 0 18 8 18 28 0 58 5 34 5 62 42t28 112v8q0 57-35 79-22 14-47 14-32 0-59-11t-38-23-11-12h3q3-1 8-2t10-5 12-7 10-11 8-15 3-20q0-22-14-39t-45-18z"/><path id="g" d="M118-250V750h137v-40h-97v-920h97v-40H118z"/><path id="h" d="M22 710v40h137V-250H22v40h97v920H22z"/><path id="i" d="M230 637q-27 0-32 1t-5 11q0 27 11 33 2 1 174 1 172-1 186-3 56-8 94-28t54-46 21-43 6-34q0-45-29-84t-67-60-67-34-38-13l7-5q67-38 67-110 0-11-5-61t-5-82v-9q0-18 1-28t11-18 26-9q28 0 46 22t26 47q5 14 8 17t15 3q20 0 20-12 0-18-24-57-38-57-90-57h-9q-61 0-101 25t-44 78q0 27 15 84t15 73q0 51-43 74-15 7-25 8t-71 2h-69l-32-130Q244 61 244 59q0-4 1-5t7-4 17-2 33-2h31q6-8 6-9t-3-18q-4-13-10-19h-15q-36 2-131 2H71Q54 2 50 1q-17 0-17 9 0 2 3 14 5 19 10 21 4 1 15 1h6q27 0 60 3 14 3 19 12 3 4 72 278t69 289q0 7-57 9zm400-83q0 32-21 54t-86 28h-23q-21 0-38 1h-22q-47 0-54-10-1-3-34-133t-33-133q0-1 69-1 78 1 104 7 64 10 100 59 16 23 27 60t11 68z"/></defs><g data-mml-node="math" stroke="currentColor" fill="currentColor" stroke-width="0"><g data-mml-node="msubsup"><use xlink:href="#a" data-mml-node="mi" transform="scale(1 -1)"/><text data-variant="normal" transform="matrix(.707 0 0 .707 571 -530.4)" font-size="884" font-family="serif" data-mml-node="mo">м</text><g data-mml-node="TeXAtom"><use xlink:href="#b" data-mml-node="mn" transform="matrix(.707 0 0 -.707 571 297.3)"/></g></g><use xlink:href="#c" data-mml-node="mo" transform="matrix(1 0 0 -1 1294 0)"/><use xlink:href="#d" data-mml-node="mn" transform="matrix(1 0 0 -1 2349.8 0)"/><use xlink:href="#e" data-mml-node="mo" transform="matrix(1 0 0 -1 2849.8 0)"/><use xlink:href="#f" data-mml-node="mn" transform="matrix(1 0 0 -1 3294.4 0)"/><use xlink:href="#g" data-mml-node="mo" transform="matrix(1 0 0 -1 3794.4 0)"/><use xlink:href="#a" data-mml-node="mi" transform="matrix(1 0 0 -1 4072.4 0)"/><g data-mml-node="msub"><use xlink:href="#h" data-mml-node="mo" transform="matrix(1 0 0 -1 4643.4 0)"/><g data-mml-node="TeXAtom"><use xlink:href="#i" data-mml-node="mi" transform="matrix(.707 0 0 -.707 4921.4 150)"/></g></g></g></svg>