<svg xmlns="http://www.w3.org/2000/svg" width="408.904" height="28.856" viewBox="0 -1060.7 22592 1594.2" xmlns:xlink="http://www.w3.org/1999/xlink"><defs><path id="k" d="M73 647q0 10 4 23t12 13q1 0 72 5t73 6q12 0 12-9t-34-143q-8-34-17-70t-15-54l-4-19q0-3 6 3 49 40 101 40 62 0 100-46t39-116q0-111-79-201T173-11q-50 0-91 38T40 150v9q0 21 8 58t49 197q50 197 50 209t-38 14H83q-3 0-7 3t-3 7zm263-322v6q0 74-61 74-17 0-35-8t-33-21-26-24-18-22l-6-8-21-86q-22-86-22-122 0-48 24-72 16-16 40-16 33 0 67 32 25 23 40 56t33 105q18 72 18 106z"/><path id="a" d="M289 629q0 6-57 8-24 0-31 1t-7 10q0 1 2 11 1 3 2 7t1 5 2 5 2 3 4 2 5 2 8 0 12 1h30q24 0 45-1h91q12 0 16-5 1-4 37-282l36-279 23 37q24 36 64 100t88 140q175 279 177 281l3 3q2 2 4 3l6 2h136q23 0 29 1 34 0 34-11 0-5-3-17t-3-13q-4-6-37-6-40-1-51-3t-18-11q-3-5-72-283T797 59q0-4 1-5t7-4 17-2 33-2h31q6-9 6-11 0-16-7-30-5-5-16-5-5 0-41 1t-92 1h-92q-31 0-35-1-17 0-17 10 0 2 2 14 4 16 8 18t23 3q27 0 60 3 14 3 19 12 2 4 38 146t71 283 35 141L654 322Q458 10 453 5l-4-2q-5-3-16-3-15 0-18 7-2 4-41 310l-39 307-68-270Q200 88 200 79q6-33 72-33h10q6-5 7-9t-3-18q-4-16-8-18-4-1-11-1h-12q-10 0-34 1t-64 1q-30 0-62-1T58 0Q43 0 39 2t-4 9q0 2 3 14t5 15q2 6 22 6 70 0 89 40 4 6 69 268t66 275z"/><path id="c" d="M50 252q0 115 67 221t169 168 204 63q90 0 143-51 9-10 15-17t8-10l1-3q3 0 27 26 7 6 15 14t16 16 10 11l15 15h6q14 0 14-7 0-4-32-137-36-139-36-140-2-5-5-6t-18-2h-16q-6 6-6 9 0 1 1 7t2 20 1 32q0 71-32 124t-109 54q-26 0-56-7t-72-24-83-56-73-93q-32-57-51-133t-19-124q0-114 76-164 48-34 118-34 91 0 162 68t94 148q4 13 6 15t16 2q20 0 20-9 0-5-1-9-29-107-124-184T319-22q-113 0-191 75T50 252z"/><path id="d" d="M48 1Q31 1 31 11q0 2 3 14 4 16 8 18t23 3q27 0 60 3 14 3 19 12 2 5 71 281t70 280q0 7-4 7-8 3-53 5h-31q-6 6-6 8t2 17q4 17 10 21h539q7-4 7-11 0-5-13-112t-14-110q-2-7-20-7h-12q-7 5-7 13 0 1 3 24t3 53q0 30-7 49t-19 31-37 16-51 7-72 1h-23q-82-1-87-3t-7-8q-1-1-34-131l-32-129h78q20 0 28 1t22 3 24 7 17 12q13 12 22 33t13 38 5 18q3 5 19 5h12q7-5 7-10 0-3-31-131t-34-132q-2-7-20-7h-12q-7 6-7 12 0 3 5 22t5 40q0 29-20 36t-89 7h-55l-32-127Q245 66 245 60q0-14 89-14h25q6-6 6-7t-2-20q-4-13-10-19h-17q-41 2-151 2H86Q52 2 48 1z"/><path id="f" d="M21 287q1 6 3 16t12 38 20 47 32 37 44 17 43-7 30-18 16-22 8-19l2-7q0-2 1-2l11 11q60 64 141 64 17 0 31-2t26-7 19-10 15-12 10-13 8-13 4-12 3-9 2-7l8 10q63 75 149 75 54 0 87-27t34-79q0-51-38-158T704 50q1-14 5-19t15-5q28 0 52 30t39 82q3 11 6 13t16 2q20 0 20-8 0-1-4-15-8-29-22-57t-46-56-69-27q-47 0-68 27t-21 56q0 19 36 120t37 152q0 59-44 59h-5q-86 0-145-101l-7-12-33-134Q433 26 428 16q-13-27-43-27-13 0-21 7T353 8t-3 10q0 11 34 143l36 146q3 15 3 38 0 59-44 59h-5q-86 0-145-101l-7-12-33-134Q156 26 151 16q-13-27-43-27-13 0-21 6T76 7t-2 10q0 13 38 164 39 154 39 161 3 15 3 27 0 36-25 36-22 0-37-28t-23-61-12-36q-2-2-16-2H27q-6 6-6 9z"/><path id="g" d="M33 157q0 101 76 192t171 92q51 0 90-49 16 30 46 30 13 0 23-8t10-20q0-13-37-160T374 68q0-25 7-33t21-9q9 1 20 9 21 20 41 96 6 20 10 21 2 1 10 1h4q19 0 19-9 0-6-5-27t-20-54-32-50Q436 0 417-8q-8-2-24-2-34 0-57 15t-30 31l-6 15q-1 1-4-1l-4-4q-59-56-120-56-55 0-97 40T33 157zm318 171q0 6-5 22t-23 35-46 20q-35 0-67-31t-50-81q-29-79-41-164v-11q0-8-1-12 0-45 18-62t43-18q38 0 75 33t44 51q2 4 27 107t26 111z"/><path id="h" d="M52 289q7 42 54 97t116 56q35 0 64-18t43-45q42 63 101 63 37 0 64-22t28-59q0-29-14-47t-27-22-23-4q-19 0-31 11t-12 29q0 46 50 63-11 13-40 13-13 0-19-2-38-16-56-66-60-221-60-258 0-28 16-40t35-12q37 0 73 33t49 81q3 10 6 11t16 2h4q15 0 15-8 0-1-2-11-16-57-62-101T333-11q-70 0-106 63-41-62-94-62h-6q-49 0-70 26T35 71q0 32 19 52t45 20q43 0 43-42 0-20-12-35t-23-20-13-5l-3-1q0-1 6-4t16-7 19-3q36 0 62 45 9 16 23 68t28 108 16 66q5 27 5 39 0 28-15 40t-34 12q-40 0-75-32t-49-82q-2-9-5-10t-16-2H58q-6 6-6 11z"/><path id="i" d="M434-231q0-13-6-19h-18q-129 0-180 66-5 7-8 12t-5 11-4 13-2 15-1 22-1 27 0 37 0 47v53q-1 89-5 100-1 1-1 2-14 36-50 56t-71 20q-11 0-14 3t-3 16 3 16 14 3q34 0 70 20t51 56q5 11 5 32t1 152v50q0 55 6 77t29 42q26 26 80 42 37 8 53 9h13q11 0 18 1h20q6-6 6-18 0-13-3-16-2-3-16-3-53-3-83-24t-36-42q-5-13-5-148v-82q0-47-3-64t-17-39q-31-43-87-59l-14-5 14-5q18-6 36-15t42-34 28-59q1-6 1-136 0-135 5-148 10-27 43-45t76-21q14 0 16-3 3-3 3-15z"/><path id="j" d="M287 628q0 7-57 9-24 0-31 1t-7 10q0 1 2 11 6 20 9 22t194 2q190-1 203-3 64-11 107-49t44-101q0-77-66-141-69-68-178-86-7-1-105-2h-95l-30-119Q247 66 247 59q0-4 1-5t7-4 17-2 33-2h31q6-9 6-11 0-16-7-30-5-5-16-5-3 0-37 1T182 2H87Q54 2 51 1 33 1 33 11q0 2 3 14 4 16 8 18t23 3q27 0 60 3 14 3 19 12 3 4 72 278t69 289zm358-74q0 13-2 21t-9 22-25 22-49 16q-7 1-80 2h-35q-18 0-29-1t-12 0q-13-1-18-9-2-6-19-77t-35-138-18-68q0-2 81-2h35q112 0 160 50 27 27 41 79t14 83z"/><path id="b" d="M56 347q0 13 14 20h637q15-8 15-20 0-11-14-19l-318-1H72q-16 5-16 20zm0-194q0 15 16 20h636q14-10 14-20 0-13-15-20H70q-14 7-14 20z"/><path id="l" d="M56 237v13l14 20h299v150l1 150q10 13 19 13 13 0 20-15V270h298q15-8 15-20t-15-20H409V-68q-8-14-18-14h-4q-12 0-18 14v298H70q-14 7-14 20z"/><path id="m" d="M94 250q0 69 10 131t23 107 37 88 38 67 42 52 33 34 25 21h17q14 0 14-9 0-3-17-21t-41-53-49-86-42-138-17-193 17-192 41-139 49-86 42-53 17-21q0-9-15-9h-16l-28 24q-94 85-137 212T94 250z"/><path id="n" d="M399-80q0 33 1 50t2 19v4l-15-4q-46-11-84-11-95 0-165 57T51 201q-1 8-1 43 0 102 48 194t129 163q124 103 249 103 38 0 48-1 97-14 156-86t60-182q0-180-148-328-63-60-131-91l-17-8V3q0-1 5-27t21-42 46-16q35 0 67 22t42 57q6 14 13 14 9 0 11-9 0-8-10-36t-28-66-54-65-76-29q-82 0-82 107v7zm237 548q0 55-15 96t-41 61-50 30-53 10q-48 0-98-25-102-49-164-176t-62-248q0-106 54-157 24-21 29-21v8q0 40 33 74t78 35q25 0 43-11t27-30 12-32 6-27l13 9q64 44 109 121t62 149 17 134zM314 18q48 0 90 21l-1 10q-4 55-37 66-12 2-19 2h-6q-3 0-4 1-20 0-41-20t-22-46q0-34 40-34z"/><path id="o" d="m60 749 4 1h22l28-24q94-85 137-212t43-264q0-68-10-131T261 12t-37-88-38-67-41-51-32-33-23-19l-4-4H63q-3 0-5 3t-3 9q1 1 11 13Q221-64 221 250T66 725q-10 12-11 13 0 8 5 11z"/><path id="p" d="M39 168q0 57 19 104t49 78 67 52 70 31 63 9h3q45 0 78-22t33-65q0-90-111-118-49-13-134-14-37 0-38-2 0-2-6-35t-7-58q0-47 21-74t63-28 93 19 92 66q9 10 12 10 4 0 13-9t10-14-9-16-30-27-46-31-63-25-76-10q-79 0-122 53T39 168zm334 185q-6 52-68 52-33 0-61-14t-45-34-29-41-16-36-5-19q0-1 20-1 113 0 158 24t46 69z"/><path id="q" d="M78 370q0 24 17 42t43 18q24 0 42-16t19-43q0-25-17-43t-43-18-43 17-18 43zm0-310q0 25 16 43t43 18q65 0 65-113 0-52-19-102t-39-75-26-25q-3 0-12 8t-11 12q-1 3 12 19t30 48 23 69q1 6 2 16t3 18 0 8q0 1-4 0t-19-4q-32 0-48 18T78 60z"/><path id="r" d="M139-249h-2q-12 0-18 14v486l1 486q10 13 19 13 13 0 20-15v-970q-8-14-18-14h-2z"/><path id="s" d="M65 731q0 14 3 16t20 3q83 0 128-25t63-55q9-21 10-35t2-134q1-139 2-144 13-45 52-66t72-22q11 0 14-3t3-16-3-16-14-3q-37 0-72-21t-47-53q-5-14-6-36t-1-149v-51q0-55-6-77t-29-42q-54-52-167-52-18 0-21 3t-3 17v7q0 1 1 5t3 4 8 1q14 0 31 3t38 10 37 23 24 38q1 5 2 142l1 136q13 57 70 91 35 17 50 20-25 7-50 20-55 34-68 82l-2 10-1 136q-1 137-2 142-12 40-53 56t-77 17q-9 0-10 3t-2 15z"/></defs><g data-mml-node="math" stroke="currentColor" fill="currentColor" stroke-width="0"><g data-mml-node="msup"><use xlink:href="#a" data-mml-node="mi" transform="scale(1 -1)"/><text data-variant="normal" transform="matrix(.707 0 0 .707 1117.2 -413)" font-size="884" font-family="serif" data-mml-node="mo">р</text></g><use xlink:href="#b" data-mml-node="mo" transform="matrix(1 0 0 -1 1757.5 0)"/><g data-mml-node="msub"><use xlink:href="#c" data-mml-node="mi" transform="matrix(1 0 0 -1 2813.3 0)"/><g data-mml-node="TeXAtom"><use xlink:href="#d" data-mml-node="mi" transform="matrix(.707 0 0 -.707 3528.3 150)"/></g></g><use xlink:href="#e" data-mml-node="mtext" transform="matrix(1 0 0 -1 4107.9 0)"/><use xlink:href="#f" data-mml-node="mi" transform="matrix(1 0 0 -1 4357.9 0)"/><use xlink:href="#g" data-mml-node="mi" transform="matrix(1 0 0 -1 5235.9 0)"/><use xlink:href="#h" data-mml-node="mi" transform="matrix(1 0 0 -1 5764.9 0)"/><use xlink:href="#i" data-mml-node="mo" transform="matrix(1 0 0 -1 6336.9 0)"/><g data-mml-node="msubsup"><use xlink:href="#j" data-mml-node="mi" transform="matrix(1 0 0 -1 6836.9 0)"/><text data-variant="normal" transform="matrix(.707 0 0 .707 7659.7 -530.4)" font-size="884" font-family="serif" data-mml-node="mo">р</text><g data-mml-node="TeXAtom"><text data-variant="normal" transform="matrix(.707 0 0 .707 7478.9 356.7)" font-size="884" font-family="serif" data-mml-node="mo">б</text></g></g><use xlink:href="#e" data-mml-node="mtext" transform="matrix(1 0 0 -1 8022.3 0)"/><use xlink:href="#k" data-mml-node="mi" transform="matrix(1 0 0 -1 8272.3 0)"/><use xlink:href="#l" data-mml-node="mo" transform="matrix(1 0 0 -1 8923.5 0)"/><use xlink:href="#m" data-mml-node="mo" transform="matrix(1 0 0 -1 9923.7 0)"/><g data-mml-node="msub"><use xlink:href="#n" data-mml-node="mi" transform="matrix(1 0 0 -1 10312.7 0)"/><g data-mml-node="TeXAtom"><text data-variant="normal" transform="matrix(.707 0 0 .707 11103.7 176.7)" font-size="884" font-family="serif" data-mml-node="mo">Д</text></g></g><use xlink:href="#l" data-mml-node="mo" transform="matrix(1 0 0 -1 11802.5 0)"/><g data-mml-node="msub"><use xlink:href="#n" data-mml-node="mi" transform="matrix(1 0 0 -1 12802.7 0)"/><g data-mml-node="TeXAtom"><use xlink:href="#d" data-mml-node="mi" transform="matrix(.707 0 0 -.707 13593.7 150)"/><use xlink:href="#a" data-mml-node="mi" transform="matrix(.707 0 0 -.707 14123.243 150)"/></g></g><use xlink:href="#o" data-mml-node="mo" transform="matrix(1 0 0 -1 14916.5 0)"/><use xlink:href="#p" data-mml-node="mi" transform="matrix(1 0 0 -1 15305.5 0)"/><use xlink:href="#q" data-mml-node="mo" transform="matrix(1 0 0 -1 15771.5 0)"/><use xlink:href="#e" data-mml-node="mtext" transform="matrix(1 0 0 -1 16216.2 0)"/><g data-mml-node="TeXAtom"><use xlink:href="#r" data-mml-node="mo" transform="matrix(1 0 0 -1 16466.2 0)"/></g><g data-mml-node="msub"><use xlink:href="#n" data-mml-node="mi" transform="matrix(1 0 0 -1 16744.2 0)"/><g data-mml-node="TeXAtom"><text data-variant="normal" transform="matrix(.707 0 0 .707 17535.2 176.7)" font-size="884" font-family="serif" data-mml-node="mo">Д</text></g></g><use xlink:href="#l" data-mml-node="mo" transform="matrix(1 0 0 -1 18234 0)"/><g data-mml-node="msub"><use xlink:href="#n" data-mml-node="mi" transform="matrix(1 0 0 -1 19234.2 0)"/><g data-mml-node="TeXAtom"><use xlink:href="#d" data-mml-node="mi" transform="matrix(.707 0 0 -.707 20025.2 150)"/><use xlink:href="#a" data-mml-node="mi" transform="matrix(.707 0 0 -.707 20554.743 150)"/></g></g><g data-mml-node="TeXAtom"><use xlink:href="#r" data-mml-node="mo" transform="matrix(1 0 0 -1 21348 0)"/></g><use xlink:href="#p" data-mml-node="mi" transform="matrix(1 0 0 -1 21626 0)"/><use xlink:href="#s" data-mml-node="mo" transform="matrix(1 0 0 -1 22092 0)"/></g></svg>