<svg xmlns="http://www.w3.org/2000/svg" width="158.416" height="28.856" viewBox="0 -1060.7 8752.3 1594.2" xmlns:xlink="http://www.w3.org/1999/xlink"><defs><path id="a" d="M287 628q0 7-57 9-24 0-31 1t-7 10q0 1 2 11 6 20 9 22t194 2q190-1 203-3 64-11 107-49t44-101q0-77-66-141-69-68-178-86-7-1-105-2h-95l-30-119Q247 66 247 59q0-4 1-5t7-4 17-2 33-2h31q6-9 6-11 0-16-7-30-5-5-16-5-3 0-37 1T182 2H87Q54 2 51 1 33 1 33 11q0 2 3 14 4 16 8 18t23 3q27 0 60 3 14 3 19 12 3 4 72 278t69 289zm358-74q0 13-2 21t-9 22-25 22-49 16q-7 1-80 2h-35q-18 0-29-1t-12 0q-13-1-18-9-2-6-19-77t-35-138-18-68q0-2 81-2h35q112 0 160 50 27 27 41 79t14 83z"/><path id="b" d="M56 347q0 13 14 20h637q15-8 15-20 0-11-14-19l-318-1H72q-16 5-16 20zm0-194q0 15 16 20h636q14-10 14-20 0-13-15-20H70q-14 7-14 20z"/><path id="c" d="M21 287q1 6 3 16t12 38 20 47 32 37 44 17 43-7 30-18 16-22 8-19l2-7q0-2 1-2l11 11q60 64 141 64 17 0 31-2t26-7 19-10 15-12 10-13 8-13 4-12 3-9 2-7l8 10q63 75 149 75 54 0 87-27t34-79q0-51-38-158T704 50q1-14 5-19t15-5q28 0 52 30t39 82q3 11 6 13t16 2q20 0 20-8 0-1-4-15-8-29-22-57t-46-56-69-27q-47 0-68 27t-21 56q0 19 36 120t37 152q0 59-44 59h-5q-86 0-145-101l-7-12-33-134Q433 26 428 16q-13-27-43-27-13 0-21 7T353 8t-3 10q0 11 34 143l36 146q3 15 3 38 0 59-44 59h-5q-86 0-145-101l-7-12-33-134Q156 26 151 16q-13-27-43-27-13 0-21 6T76 7t-2 10q0 13 38 164 39 154 39 161 3 15 3 27 0 36-25 36-22 0-37-28t-23-61-12-36q-2-2-16-2H27q-6 6-6 9z"/><path id="d" d="M33 157q0 101 76 192t171 92q51 0 90-49 16 30 46 30 13 0 23-8t10-20q0-13-37-160T374 68q0-25 7-33t21-9q9 1 20 9 21 20 41 96 6 20 10 21 2 1 10 1h4q19 0 19-9 0-6-5-27t-20-54-32-50Q436 0 417-8q-8-2-24-2-34 0-57 15t-30 31l-6 15q-1 1-4-1l-4-4q-59-56-120-56-55 0-97 40T33 157zm318 171q0 6-5 22t-23 35-46 20q-35 0-67-31t-50-81q-29-79-41-164v-11q0-8-1-12 0-45 18-62t43-18q38 0 75 33t44 51q2 4 27 107t26 111z"/><path id="e" d="M52 289q7 42 54 97t116 56q35 0 64-18t43-45q42 63 101 63 37 0 64-22t28-59q0-29-14-47t-27-22-23-4q-19 0-31 11t-12 29q0 46 50 63-11 13-40 13-13 0-19-2-38-16-56-66-60-221-60-258 0-28 16-40t35-12q37 0 73 33t49 81q3 10 6 11t16 2h4q15 0 15-8 0-1-2-11-16-57-62-101T333-11q-70 0-106 63-41-62-94-62h-6q-49 0-70 26T35 71q0 32 19 52t45 20q43 0 43-42 0-20-12-35t-23-20-13-5l-3-1q0-1 6-4t16-7 19-3q36 0 62 45 9 16 23 68t28 108 16 66q5 27 5 39 0 28-15 40t-34 12q-40 0-75-32t-49-82q-2-9-5-10t-16-2H58q-6 6-6 11z"/><path id="f" d="M434-231q0-13-6-19h-18q-129 0-180 66-5 7-8 12t-5 11-4 13-2 15-1 22-1 27 0 37 0 47v53q-1 89-5 100-1 1-1 2-14 36-50 56t-71 20q-11 0-14 3t-3 16 3 16 14 3q34 0 70 20t51 56q5 11 5 32t1 152v50q0 55 6 77t29 42q26 26 80 42 37 8 53 9h13q11 0 18 1h20q6-6 6-18 0-13-3-16-2-3-16-3-53-3-83-24t-36-42q-5-13-5-148v-82q0-47-3-64t-17-39q-31-43-87-59l-14-5 14-5q18-6 36-15t42-34 28-59q1-6 1-136 0-135 5-148 10-27 43-45t76-21q14 0 16-3 3-3 3-15z"/><path id="g" d="m213 578-13-5q-14-5-40-10t-58-7H83v46h19q47 2 87 15t56 24 28 22q2 3 12 3 9 0 17-6V361l1-300q7-7 12-9t24-4 62-2h26V0h-11q-21 3-159 3-136 0-157-3H88v46h64q16 0 25 1t16 3 8 2 6 5 6 4v517z"/><path id="h" d="M78 370q0 24 17 42t43 18q24 0 42-16t19-43q0-25-17-43t-43-18-43 17-18 43zm0-310q0 25 16 43t43 18q65 0 65-113 0-52-19-102t-39-75-26-25q-3 0-12 8t-11 12q-1 3 12 19t30 48 23 69q1 6 2 16t3 18 0 8q0 1-4 0t-19-4q-32 0-48 18T78 60z"/><path id="i" d="M109 429q-27 0-43 18t-16 44q0 71 53 123t132 52q91 0 152-56t62-145q0-43-20-82t-48-68-80-74q-36-31-100-92l-59-56 76-1q157 0 167 5 7 2 24 89v3h40v-3q-1-3-13-91T421 3V0H50v31q0 7 6 15t30 35q29 32 50 56 9 10 34 37t34 37 29 33 28 34 23 30 21 32 15 29 13 32 7 30 3 33q0 63-34 109t-97 46q-33 0-58-17t-35-33-10-19q0-1 5-1 18 0 37-14t19-46q0-25-16-42t-45-18z"/><path id="j" d="M65 731q0 14 3 16t20 3q83 0 128-25t63-55q9-21 10-35t2-134q1-139 2-144 13-45 52-66t72-22q11 0 14-3t3-16-3-16-14-3q-37 0-72-21t-47-53q-5-14-6-36t-1-149v-51q0-55-6-77t-29-42q-54-52-167-52-18 0-21 3t-3 17v7q0 1 1 5t3 4 8 1q14 0 31 3t38 10 37 23 24 38q1 5 2 142l1 136q13 57 70 91 35 17 50 20-25 7-50 20-55 34-68 82l-2 10-1 136q-1 137-2 142-12 40-53 56t-77 17q-9 0-10 3t-2 15z"/></defs><g data-mml-node="math" stroke="currentColor" fill="currentColor" stroke-width="0"><g data-mml-node="msubsup"><use xlink:href="#a" data-mml-node="mi" transform="scale(1 -1)"/><text data-variant="normal" transform="matrix(.707 0 0 .707 822.8 -530.4)" font-size="884" font-family="serif" data-mml-node="mo">м</text><g data-mml-node="TeXAtom"><text data-variant="normal" transform="matrix(.707 0 0 .707 642 356.7)" font-size="884" font-family="serif" data-mml-node="mo">б</text></g></g><use xlink:href="#b" data-mml-node="mo" transform="matrix(1 0 0 -1 1545.8 0)"/><use xlink:href="#c" data-mml-node="mi" transform="matrix(1 0 0 -1 2601.6 0)"/><use xlink:href="#d" data-mml-node="mi" transform="matrix(1 0 0 -1 3479.6 0)"/><use xlink:href="#e" data-mml-node="mi" transform="matrix(1 0 0 -1 4008.6 0)"/><use xlink:href="#f" data-mml-node="mo" transform="matrix(1 0 0 -1 4580.6 0)"/><g data-mml-node="msub"><use xlink:href="#a" data-mml-node="mi" transform="matrix(1 0 0 -1 5080.6 0)"/><g data-mml-node="TeXAtom"><text data-variant="normal" transform="matrix(.707 0 0 .707 5722.6 176.7)" font-size="884" font-family="serif" data-mml-node="mo">б</text><use xlink:href="#g" data-mml-node="mn" transform="matrix(.707 0 0 -.707 6040.538 176.7)"/></g></g><use xlink:href="#h" data-mml-node="mo" transform="matrix(1 0 0 -1 6444.1 0)"/><g data-mml-node="msub"><use xlink:href="#a" data-mml-node="mi" transform="matrix(1 0 0 -1 6888.7 0)"/><g data-mml-node="TeXAtom"><text data-variant="normal" transform="matrix(.707 0 0 .707 7530.7 176.7)" font-size="884" font-family="serif" data-mml-node="mo">б</text><use xlink:href="#i" data-mml-node="mn" transform="matrix(.707 0 0 -.707 7848.638 176.7)"/></g></g><use xlink:href="#j" data-mml-node="mo" transform="matrix(1 0 0 -1 8252.3 0)"/></g></svg>