<svg xmlns="http://www.w3.org/2000/svg" width="226.832" height="28.856" viewBox="0 -1060.7 12532.4 1594.2" xmlns:xlink="http://www.w3.org/1999/xlink"><defs><path id="i" d="M96 585q56 81 153 81 48 0 96-26t78-92q37-83 37-228 0-155-43-237-20-42-55-67t-61-31-51-7q-26 0-52 6t-61 32-55 67q-43 82-43 237 0 174 57 265zm225 12q-30 32-71 32-42 0-72-32-25-26-33-72t-8-192q0-158 8-208t36-79q28-30 69-30 40 0 68 30 29 30 36 84t8 203q0 145-8 191t-33 73z"/><path id="a" d="M287 628q0 7-57 9-24 0-31 1t-7 10q0 1 2 11 6 20 9 22t194 2q190-1 203-3 64-11 107-49t44-101q0-77-66-141-69-68-178-86-7-1-105-2h-95l-30-119Q247 66 247 59q0-4 1-5t7-4 17-2 33-2h31q6-9 6-11 0-16-7-30-5-5-16-5-3 0-37 1T182 2H87Q54 2 51 1 33 1 33 11q0 2 3 14 4 16 8 18t23 3q27 0 60 3 14 3 19 12 3 4 72 278t69 289zm358-74q0 13-2 21t-9 22-25 22-49 16q-7 1-80 2h-35q-18 0-29-1t-12 0q-13-1-18-9-2-6-19-77t-35-138-18-68q0-2 81-2h35q112 0 160 50 27 27 41 79t14 83z"/><path id="c" d="M56 347q0 13 14 20h637q15-8 15-20 0-11-14-19l-318-1H72q-16 5-16 20zm0-194q0 15 16 20h636q14-10 14-20 0-13-15-20H70q-14 7-14 20z"/><path id="d" d="M21 287q1 6 3 16t12 38 20 47 32 37 44 17 43-7 30-18 16-22 8-19l2-7q0-2 1-2l11 11q60 64 141 64 17 0 31-2t26-7 19-10 15-12 10-13 8-13 4-12 3-9 2-7l8 10q63 75 149 75 54 0 87-27t34-79q0-51-38-158T704 50q1-14 5-19t15-5q28 0 52 30t39 82q3 11 6 13t16 2q20 0 20-8 0-1-4-15-8-29-22-57t-46-56-69-27q-47 0-68 27t-21 56q0 19 36 120t37 152q0 59-44 59h-5q-86 0-145-101l-7-12-33-134Q433 26 428 16q-13-27-43-27-13 0-21 7T353 8t-3 10q0 11 34 143l36 146q3 15 3 38 0 59-44 59h-5q-86 0-145-101l-7-12-33-134Q156 26 151 16q-13-27-43-27-13 0-21 6T76 7t-2 10q0 13 38 164 39 154 39 161 3 15 3 27 0 36-25 36-22 0-37-28t-23-61-12-36q-2-2-16-2H27q-6 6-6 9z"/><path id="e" d="M33 157q0 101 76 192t171 92q51 0 90-49 16 30 46 30 13 0 23-8t10-20q0-13-37-160T374 68q0-25 7-33t21-9q9 1 20 9 21 20 41 96 6 20 10 21 2 1 10 1h4q19 0 19-9 0-6-5-27t-20-54-32-50Q436 0 417-8q-8-2-24-2-34 0-57 15t-30 31l-6 15q-1 1-4-1l-4-4q-59-56-120-56-55 0-97 40T33 157zm318 171q0 6-5 22t-23 35-46 20q-35 0-67-31t-50-81q-29-79-41-164v-11q0-8-1-12 0-45 18-62t43-18q38 0 75 33t44 51q2 4 27 107t26 111z"/><path id="f" d="M52 289q7 42 54 97t116 56q35 0 64-18t43-45q42 63 101 63 37 0 64-22t28-59q0-29-14-47t-27-22-23-4q-19 0-31 11t-12 29q0 46 50 63-11 13-40 13-13 0-19-2-38-16-56-66-60-221-60-258 0-28 16-40t35-12q37 0 73 33t49 81q3 10 6 11t16 2h4q15 0 15-8 0-1-2-11-16-57-62-101T333-11q-70 0-106 63-41-62-94-62h-6q-49 0-70 26T35 71q0 32 19 52t45 20q43 0 43-42 0-20-12-35t-23-20-13-5l-3-1q0-1 6-4t16-7 19-3q36 0 62 45 9 16 23 68t28 108 16 66q5 27 5 39 0 28-15 40t-34 12q-40 0-75-32t-49-82q-2-9-5-10t-16-2H58q-6 6-6 11z"/><path id="g" d="M434-231q0-13-6-19h-18q-129 0-180 66-5 7-8 12t-5 11-4 13-2 15-1 22-1 27 0 37 0 47v53q-1 89-5 100-1 1-1 2-14 36-50 56t-71 20q-11 0-14 3t-3 16 3 16 14 3q34 0 70 20t51 56q5 11 5 32t1 152v50q0 55 6 77t29 42q26 26 80 42 37 8 53 9h13q11 0 18 1h20q6-6 6-18 0-13-3-16-2-3-16-3-53-3-83-24t-36-42q-5-13-5-148v-82q0-47-3-64t-17-39q-31-43-87-59l-14-5 14-5q18-6 36-15t42-34 28-59q1-6 1-136 0-135 5-148 10-27 43-45t76-21q14 0 16-3 3-3 3-15z"/><path id="h" d="M78 370q0 24 17 42t43 18q24 0 42-16t19-43q0-25-17-43t-43-18-43 17-18 43zm0-310q0 25 16 43t43 18q65 0 65-113 0-52-19-102t-39-75-26-25q-3 0-12 8t-11 12q-1 3 12 19t30 48 23 69q1 6 2 16t3 18 0 8q0 1-4 0t-19-4q-32 0-48 18T78 60z"/><path id="b" d="M109 429q-27 0-43 18t-16 44q0 71 53 123t132 52q91 0 152-56t62-145q0-43-20-82t-48-68-80-74q-36-31-100-92l-59-56 76-1q157 0 167 5 7 2 24 89v3h40v-3q-1-3-13-91T421 3V0H50v31q0 7 6 15t30 35q29 32 50 56 9 10 34 37t34 37 29 33 28 34 23 30 21 32 15 29 13 32 7 30 3 33q0 63-34 109t-97 46q-33 0-58-17t-35-33-10-19q0-1 5-1 18 0 37-14t19-46q0-25-16-42t-45-18z"/><path id="j" d="M78 35v25l16 43 43 18q28 0 50-25t23-88q0-35-9-68t-21-57-26-41-24-27-13-9q-4 0-13 9t-9 13q0 4 11 16t25 30 26 50 16 73V9l-1-1q-2-1-5-2t-6-3-9-2-12-1q-27 0-44 17z"/><path id="k" d="M462 0q-18 3-129 3-116 0-134-3h-9v46h58q7 0 17 2t14 5 7 8q1 2 1 54v50H28v46l151 231q153 232 155 233 2 2 21 2h18l6-6V211h92v-46h-92V66q0-7 6-12 8-7 57-8h29V0h-9zM293 211v334L74 212l109-1h110z"/><path id="m" d="M208 74q0-24 46-28 18 0 18-11 0-1-2-13-3-14-6-18t-13-4h-12q-10 0-34 1t-64 1Q70 2 50 0h-8q-7 7-7 11 2 27 13 35h14q70 3 102 50 6 6 181 305t178 303q7 12 24 12h25q6-9 6-10l28-323q28-323 30-326 5-11 65-11 25 0 25-10 0-2-3-14-3-15-5-18t-14-4h-14q-11 0-39 1t-73 1q-94 0-123-2h-12q-6 6-6 9t2 18q4 13 6 16l4 3h20q54 3 64 17l-12 150H283l-34-58q-41-69-41-81zm308 186q0 11-12 156t-14 146l-27-43q-16-27-63-107l-90-152 103-1q103 0 103 1z"/><path id="n" d="M118-250V750h137v-40h-97v-920h97v-40H118z"/><path id="o" d="M184-11q-68 0-110 45T31 147q0 100 73 186t170 97q1 1 140 1h138q1-1 3-2t4-2 3-2 3-3 2-2 2-4 1-4 1-5 1-6q0-44-65-44h-17q-10 0-14 1h-60l5-10q18-38 18-85 0-110-80-192T184-11zm177 289q0 80-85 80-124 0-161-174-1-4-1-6-8-37-8-61 0-50 25-70t57-21q54 0 99 47 29 30 47 80t22 80 5 45z"/><path id="p" d="M22 710v40h137V-250H22v40h97v920H22z"/><path id="q" d="M65 731q0 14 3 16t20 3q83 0 128-25t63-55q9-21 10-35t2-134q1-139 2-144 13-45 52-66t72-22q11 0 14-3t3-16-3-16-14-3q-37 0-72-21t-47-53q-5-14-6-36t-1-149v-51q0-55-6-77t-29-42q-54-52-167-52-18 0-21 3t-3 17v7q0 1 1 5t3 4 8 1q14 0 31 3t38 10 37 23 24 38q1 5 2 142l1 136q13 57 70 91 35 17 50 20-25 7-50 20-55 34-68 82l-2 10-1 136q-1 137-2 142-12 40-53 56t-77 17q-9 0-10 3t-2 15z"/></defs><g data-mml-node="math" stroke="currentColor" fill="currentColor" stroke-width="0"><g data-mml-node="msub"><use xlink:href="#a" data-mml-node="mi" transform="scale(1 -1)"/><g data-mml-node="TeXAtom"><text data-variant="normal" transform="matrix(.707 0 0 .707 642 176.7)" font-size="884" font-family="serif" data-mml-node="mo">б</text><use xlink:href="#b" data-mml-node="mn" transform="matrix(.707 0 0 -.707 959.938 176.7)"/></g></g><use xlink:href="#c" data-mml-node="mo" transform="matrix(1 0 0 -1 1641.3 0)"/><use xlink:href="#d" data-mml-node="mi" transform="matrix(1 0 0 -1 2697.1 0)"/><use xlink:href="#e" data-mml-node="mi" transform="matrix(1 0 0 -1 3575.1 0)"/><use xlink:href="#f" data-mml-node="mi" transform="matrix(1 0 0 -1 4104.1 0)"/><use xlink:href="#g" data-mml-node="mo" transform="matrix(1 0 0 -1 4676.1 0)"/><g data-mml-node="msub"><use xlink:href="#a" data-mml-node="mi" transform="matrix(1 0 0 -1 5176.1 0)"/><g data-mml-node="TeXAtom"><g data-mml-node="mo" font-size="884" font-family="serif"><text data-variant="normal" transform="matrix(.707 0 0 .707 5818.1 176.7)">о</text><text data-variant="normal" transform="matrix(.707 0 0 .707 6130.594 176.7)">б</text><text data-variant="normal" transform="matrix(.707 0 0 .707 6448.532 176.7)">ж</text></g></g></g><use xlink:href="#h" data-mml-node="mo" transform="matrix(1 0 0 -1 7000.6 0)"/><use xlink:href="#i" data-mml-node="mn" transform="matrix(1 0 0 -1 7445.3 0)"/><use xlink:href="#j" data-mml-node="mo" transform="matrix(1 0 0 -1 7945.3 0)"/><use xlink:href="#k" data-mml-node="mn" transform="matrix(1 0 0 -1 8389.9 0)"/><use xlink:href="#l" data-mml-node="mtext" transform="matrix(1 0 0 -1 8889.9 0)"/><g data-mml-node="msub"><use xlink:href="#m" data-mml-node="mi" transform="matrix(1 0 0 -1 9139.9 0)"/><g data-mml-node="TeXAtom"><text data-variant="normal" transform="matrix(.707 0 0 .707 9889.9 176.7)" font-size="884" font-family="serif" data-mml-node="mo">б</text></g></g><use xlink:href="#l" data-mml-node="mtext" transform="matrix(1 0 0 -1 10257.9 0)"/><use xlink:href="#n" data-mml-node="mo" transform="matrix(1 0 0 -1 10507.9 0)"/><use xlink:href="#o" data-mml-node="mi" transform="matrix(1 0 0 -1 10785.9 0)"/><g data-mml-node="msubsup"><use xlink:href="#p" data-mml-node="mo" transform="matrix(1 0 0 -1 11356.9 0)"/><text data-variant="normal" transform="matrix(.707 0 0 .707 11634.9 -530.4)" font-size="884" font-family="serif" data-mml-node="mo">б</text><g data-mml-node="TeXAtom"><text data-variant="normal" transform="matrix(.707 0 0 .707 11634.9 356.7)" font-size="884" font-family="serif" data-mml-node="mo">н</text></g></g><use xlink:href="#q" data-mml-node="mo" transform="matrix(1 0 0 -1 12032.4 0)"/></g></svg>