<svg xmlns="http://www.w3.org/2000/svg" width="153.008" height="19.96" viewBox="0 -749.5 8453.8 1103" xmlns:xlink="http://www.w3.org/1999/xlink"><defs><path id="a" d="M230 637q-27 0-32 1t-5 11q0 27 11 33 2 1 174 1 172-1 186-3 56-8 94-28t54-46 21-43 6-34q0-45-29-84t-67-60-67-34-38-13l7-5q67-38 67-110 0-11-5-61t-5-82v-9q0-18 1-28t11-18 26-9q28 0 46 22t26 47q5 14 8 17t15 3q20 0 20-12 0-18-24-57-38-57-90-57h-9q-61 0-101 25t-44 78q0 27 15 84t15 73q0 51-43 74-15 7-25 8t-71 2h-69l-32-130Q244 61 244 59q0-4 1-5t7-4 17-2 33-2h31q6-8 6-9t-3-18q-4-13-10-19h-15q-36 2-131 2H71Q54 2 50 1q-17 0-17 9 0 2 3 14 5 19 10 21 4 1 15 1h6q27 0 60 3 14 3 19 12 3 4 72 278t69 289q0 7-57 9zm400-83q0 32-21 54t-86 28h-23q-21 0-38 1h-22q-47 0-54-10-1-3-34-133t-33-133q0-1 69-1 78 1 104 7 64 10 100 59 16 23 27 60t11 68z"/><path id="b" d="M56 347q0 13 14 20h637q15-8 15-20 0-11-14-19l-318-1H72q-16 5-16 20zm0-194q0 15 16 20h636q14-10 14-20 0-13-15-20H70q-14 7-14 20z"/><path id="c" d="M132-11q-34 0-34 33v11l13 28q75 158 109 273l8 24h-32q-38 0-54-3t-39-19q-11-7-22-18t-19-21-9-12q-2-1-15-1-19 0-19 10 0 6 19 35t55 62 71 38q7 2 225 2 160 0 164-1 20-7 20-28 0-31-32-42-6-2-69-2h-64l-3-17q-12-72-12-119 0-52 9-93t19-64 10-28q0-17-14-32t-36-15q-11 0-18 3t-16 24-16 60q-1 9-1 44 0 49 9 105t18 92 10 40h-98l-1-4q0-3-19-79t-43-161-31-97q-11-28-43-28z"/><path id="e" d="M287 628q0 7-57 9-23 0-30 1t-7 9q0 8 4 20t7 15q2 1 199 1 167-1 187-1t40-6q72-17 122-79t51-166q0-156-107-280T444 3l-14-2-194-1H72Q48 0 41 2t-8 9q0 2 3 14 4 16 8 18t23 3q27 0 60 3 14 3 19 12 3 4 72 278t69 289zm416-159q0 38-11 68t-26 47-37 29-39 16-35 7h-43q-17 0-33 1h-43q-44 0-50-10-2-4-73-288T242 52q0-4 11-4t77-1h19q14 0 24-1 126 0 208 82 36 36 59 84t43 127 20 130z"/><path id="f" d="M73 647q0 10 4 23t12 13q1 0 72 5t73 6q12 0 12-9t-34-143q-8-34-17-70t-15-54l-4-19q0-3 6 3 49 40 101 40 62 0 100-46t39-116q0-111-79-201T173-11q-50 0-91 38T40 150v9q0 21 8 58t49 197q50 197 50 209t-38 14H83q-3 0-7 3t-3 7zm263-322v6q0 74-61 74-17 0-35-8t-33-21-26-24-18-22l-6-8-21-86q-22-86-22-122 0-48 24-72 16-16 40-16 33 0 67 32 25 23 40 56t33 105q18 72 18 106z"/><path id="g" d="M96 585q56 81 153 81 48 0 96-26t78-92q37-83 37-228 0-155-43-237-20-42-55-67t-61-31-51-7q-26 0-52 6t-61 32-55 67q-43 82-43 237 0 174 57 265zm225 12q-30 32-71 32-42 0-72-32-25-26-33-72t-8-192q0-158 8-208t36-79q28-30 69-30 40 0 68 30 29 30 36 84t8 203q0 145-8 191t-33 73z"/><path id="h" d="M21 287q1 6 3 16t12 38 20 47 32 37 44 17 43-7 30-18 16-22 8-19l2-7q0-2 1-2l11 11q60 64 141 64 17 0 31-2t26-7 19-10 15-12 10-13 8-13 4-12 3-9 2-7l8 10q63 75 149 75 54 0 87-27t34-79q0-51-38-158T704 50q1-14 5-19t15-5q28 0 52 30t39 82q3 11 6 13t16 2q20 0 20-8 0-1-4-15-8-29-22-57t-46-56-69-27q-47 0-68 27t-21 56q0 19 36 120t37 152q0 59-44 59h-5q-86 0-145-101l-7-12-33-134Q433 26 428 16q-13-27-43-27-13 0-21 7T353 8t-3 10q0 11 34 143l36 146q3 15 3 38 0 59-44 59h-5q-86 0-145-101l-7-12-33-134Q156 26 151 16q-13-27-43-27-13 0-21 6T76 7t-2 10q0 13 38 164 39 154 39 161 3 15 3 27 0 36-25 36-22 0-37-28t-23-61-12-36q-2-2-16-2H27q-6 6-6 9z"/><path id="i" d="M139-249h-2q-12 0-18 14v486l1 486q10 13 19 13 13 0 20-15v-970q-8-14-18-14h-2z"/><path id="j" d="M23 287q1 3 2 8t5 22 10 31 15 33 20 30 26 22 33 9q75 0 96-64l10 9q62 55 118 55 65 0 102-47t37-114q0-108-76-199T249-10q-22 0-39 6-11 5-23 15t-19 17l-7 8q-1-1-22-87t-21-87q0-6 8-7t37-3h25q6-7 6-9t-3-18q-3-12-6-15t-13-4h-11q-9 0-34 1t-62 1q-70 0-89-2h-8q-7 7-7 11 2 27 13 35h20q34 1 39 12 3 6 61 239t61 247q1 5 1 14 0 41-25 41-22 0-37-28t-23-61-12-36q-2-2-16-2H29q-6 6-6 9zm155-185q22-76 74-76 30 0 58 23t46 58q18 34 36 108t19 110v6q0 74-61 74-11 0-22-3t-22-9-20-13-17-15-15-15-11-14-8-10l-3-4q0-1-3-14t-11-44-14-52q-26-106-26-110z"/><path id="k" d="M139-249h-2q-12 0-18 14v486l1 486q10 13 19 13 13 0 20-15v-970q-8-14-18-14h-2z"/></defs><g data-mml-node="math" stroke="currentColor" fill="currentColor" stroke-width="0"><g data-mml-node="msub"><use xlink:href="#a" data-mml-node="mi" transform="scale(1 -1)"/><g data-mml-node="TeXAtom"><text data-variant="normal" transform="matrix(.707 0 0 .707 759 176.7)" font-size="884" font-family="serif" data-mml-node="mo">П</text></g></g><use xlink:href="#b" data-mml-node="mo" transform="matrix(1 0 0 -1 1550.2 0)"/><use xlink:href="#c" data-mml-node="mi" transform="matrix(1 0 0 -1 2605.9 0)"/><use xlink:href="#d" data-mml-node="mtext" transform="matrix(1 0 0 -1 3175.9 0)"/><g data-mml-node="msub"><use xlink:href="#e" data-mml-node="mi" transform="matrix(1 0 0 -1 3425.9 0)"/><g data-mml-node="TeXAtom"><g data-mml-node="mo" font-size="884" font-family="serif"><text data-variant="normal" transform="matrix(.707 0 0 .707 4253.9 176.7)">С</text><text data-variant="normal" transform="matrix(.707 0 0 .707 4670.747 176.7)">П</text></g></g></g><use xlink:href="#d" data-mml-node="mtext" transform="matrix(1 0 0 -1 5184.2 0)"/><g data-mml-node="msub"><use xlink:href="#f" data-mml-node="mi" transform="matrix(1 0 0 -1 5434.2 0)"/><g data-mml-node="TeXAtom"><use xlink:href="#g" data-mml-node="mn" transform="matrix(.707 0 0 -.707 5863.2 150)"/></g></g><use xlink:href="#d" data-mml-node="mtext" transform="matrix(1 0 0 -1 6266.8 0)"/><use xlink:href="#h" data-mml-node="mi" transform="matrix(1 0 0 -1 6516.8 0)"/><g data-mml-node="TeXAtom"><use xlink:href="#i" data-mml-node="mo" transform="matrix(1 0 0 -1 7394.8 0)"/></g><use xlink:href="#j" data-mml-node="mi" transform="matrix(1 0 0 -1 7672.8 0)"/><use xlink:href="#k" data-mml-node="mo" transform="matrix(1 0 0 -1 8175.8 0)"/></g></svg>