<svg xmlns="http://www.w3.org/2000/svg" width="71.88" height="19.16" viewBox="0 -705 3971.4 1058.5" xmlns:xlink="http://www.w3.org/1999/xlink"><defs><path id="a" d="M308 24q59 0 108 52t50 121q0 63-52 87-106 27-136 37t-42 20q-60 42-60 121 0 61 32 111t65 75q29 25 70 40t64 16h18q96 0 139-64 1 0 13 13t26 29 20 22h4q3 0 5 1 13 0 13-7t-28-121-32-118-16-3q-20 0-20 9 0 6 1 10 0 3 1 19t2 26q0 34-9 59t-18 37-25 25q-36 21-82 21-57 0-106-46t-50-106q0-30 15-52t41-31q4-2 70-19t67-18q34-11 66-48t32-100q0-26-8-56-5-22-18-49t-36-59-66-60-94-38q-12-2-34-2-99 0-154 55l-10 11-28-31Q83-14 78-18t-13-4q-13 0-13 8 0 3 58 235 2 6 20 6h13q6-6 6-11 0-2-1-9t-4-21-2-33q2-39 18-66t43-40 52-18 53-5z"/><path id="b" d="M56 347q0 13 14 20h637q15-8 15-20 0-11-14-19l-318-1H72q-16 5-16 20zm0-194q0 15 16 20h636q14-10 14-20 0-13-15-20H70q-14 7-14 20z"/><path id="c" d="M268 632q0 72 28 72 18 0 18-17 0-5-3-23t-3-29 1-15v-4h6q27 3 45 3 83 0 83-33-4-38-85-40h-14q-18 0-27 3t-27 17q-33-16-64-61t-31-100q0-24 6-41t10-22 7-5q48 10 80 10 77 0 77-33-1-17-16-26t-32-11-47-2q-46 0-72 8l-13 3q-46-26-76-72t-31-84q0-14 2-22 11-29 39-45t100-43q9-3 14-5 94-36 111-48 29-20 29-61 0-43-32-77t-78-34q-33 0-71 15t-44 23q-2 4-2 8 0 8 5 13t15 6q6 0 13-3 43-25 85-25 12 0 18 3 21 14 21 36 0 17-12 25t-69 29q-18 7-28 11-6 2-33 12t-35 14-29 14T78-8 56 12 36 37 26 66t-5 37q0 46 34 103t90 95l9 6-6 6q-7 6-12 10t-12 15-13 20-8 24-4 31q0 58 44 111t116 78l12 5q-3 11-3 25z"/><path id="e" d="M96 585q56 81 153 81 48 0 96-26t78-92q37-83 37-228 0-155-43-237-20-42-55-67t-61-31-51-7q-26 0-52 6t-61 32-55 67q-43 82-43 237 0 174 57 265zm225 12q-30 32-71 32-42 0-72-32-25-26-33-72t-8-192q0-158 8-208t36-79q28-30 69-30 40 0 68 30 29 30 36 84t8 203q0 145-8 191t-33 73z"/></defs><g data-mml-node="math" stroke="currentColor" fill="currentColor" stroke-width="0"><g data-mml-node="msub"><use xlink:href="#a" data-mml-node="mi" transform="scale(1 -1)"/><g data-mml-node="TeXAtom"><text data-variant="normal" transform="matrix(.707 0 0 .707 613 176.7)" font-size="884" font-family="serif" data-mml-node="mo">э</text></g></g><use xlink:href="#b" data-mml-node="mo" transform="matrix(1 0 0 -1 1211.1 0)"/><use xlink:href="#c" data-mml-node="mi" transform="matrix(1 0 0 -1 2266.9 0)"/><use xlink:href="#d" data-mml-node="mtext" transform="matrix(1 0 0 -1 2704.9 0)"/><g data-mml-node="msub"><use xlink:href="#a" data-mml-node="mi" transform="matrix(1 0 0 -1 2954.9 0)"/><g data-mml-node="TeXAtom"><use xlink:href="#e" data-mml-node="mn" transform="matrix(.707 0 0 -.707 3567.9 150)"/></g></g></g></svg>