<svg xmlns="http://www.w3.org/2000/svg" width="243.552" height="52.808" viewBox="0 -1957.5 13456 2917.5" xmlns:xlink="http://www.w3.org/1999/xlink"><defs><path id="m" d="M56 237v13l14 20h299v150l1 150q10 13 19 13 13 0 20-15V270h298q15-8 15-20t-15-20H409V-68q-8-14-18-14h-4q-12 0-18 14v298H70q-14 7-14 20z"/><path id="a" d="M184-11q-68 0-110 45T31 147q0 100 73 186t170 97q1 1 140 1h138q1-1 3-2t4-2 3-2 3-3 2-2 2-4 1-4 1-5 1-6q0-44-65-44h-17q-10 0-14 1h-60l5-10q18-38 18-85 0-110-80-192T184-11zm177 289q0 80-85 80-124 0-161-174-1-4-1-6-8-37-8-61 0-50 25-70t57-21q54 0 99 47 29 30 47 80t22 80 5 45z"/><path id="c" d="m213 578-13-5q-14-5-40-10t-58-7H83v46h19q47 2 87 15t56 24 28 22q2 3 12 3 9 0 17-6V361l1-300q7-7 12-9t24-4 62-2h26V0h-11q-21 3-159 3-136 0-157-3H88v46h64q16 0 25 1t16 3 8 2 6 5 6 4v517z"/><path id="d" d="M56 347q0 13 14 20h637q15-8 15-20 0-11-14-19l-318-1H72q-16 5-16 20zm0-194q0 15 16 20h636q14-10 14-20 0-13-15-20H70q-14 7-14 20z"/><path id="e" d="M96 585q56 81 153 81 48 0 96-26t78-92q37-83 37-228 0-155-43-237-20-42-55-67t-61-31-51-7q-26 0-52 6t-61 32-55 67q-43 82-43 237 0 174 57 265zm225 12q-30 32-71 32-42 0-72-32-25-26-33-72t-8-192q0-158 8-208t36-79q28-30 69-30 40 0 68 30 29 30 36 84t8 203q0 145-8 191t-33 73z"/><path id="f" d="M78 35v25l16 43 43 18q28 0 50-25t23-88q0-35-9-68t-21-57-26-41-24-27-13-9q-4 0-13 9t-9 13q0 4 11 16t25 30 26 50 16 73V9l-1-1q-2-1-5-2t-6-3-9-2-12-1q-27 0-44 17z"/><path id="g" d="M55 458q1 2 17 109l16 107q0 2 20 2h20v-4q0-10 15-17t52-9 169-2h121v-39l-68-93-30-40q-21-28-27-37t-21-32-20-36-14-37-13-46-8-54-6-68-3-82V52q0-14-1-24v-9q-4-17-19-29t-34-12q-11 0-21 3T179 0t-11 40q0 158 97 328 20 32 84 121l46 63h-93q-174 0-183-6-6-3-11-24t-10-43l-3-21v-3H55v3z"/><path id="h" d="M70 417v77l54 124 124 48q71 0 126-42t55-109q0-30-11-56t-26-42-31-28-26-18-11-8l14-9 28-20q14-10 16-11 75-59 75-149 0-79-58-137T249-22q-90 0-148 51T43 155q0 108 129 180l-18 13q-21 13-27 20-57 49-57 126zm216-31 6 4 9 6q3 2 10 7t12 10 11 12 11 13 10 16 9 17 5 20 2 22q0 43-29 73t-67 38q-7 1-33 1-41 0-77-26t-37-65q0-23 13-42t26-29 50-32q7-5 11-7l58-38zM250 21q58 0 100 34t42 82q0 17-5 32t-12 25-22 22-23 18-29 19-27 17q-14 9-30 19t-26 17l-8 5q-6 0-29-17t-48-55-26-82q0-59 43-97t100-39z"/><path id="i" d="M164 157q0-24-16-40t-39-16h-7q46-79 122-79 70 0 102 60 19 33 19 128 0 103-27 139-26 33-58 33h-6q-78 0-118-68-4-7-7-8t-15-2q-17 0-19 6-2 4-2 175v129q0 50 5 50 2 2 4 2 1 0 21-8t55-16 75-8q71 0 136 28 8 4 13 4 8 0 8-18v-13q-82-97-205-97-31 0-56 6l-10 2V374q19 14 30 22t36 16 51 8q81 0 137-65t56-154q0-92-64-157T229-22q-81 0-130 54T50 154q0 24 11 38t23 18 23 4q25 0 41-17t16-40z"/><path id="k" d="M287 628q0 7-57 9-23 0-30 1t-7 9q0 8 4 20t7 15q2 1 199 1 167-1 187-1t40-6q72-17 122-79t51-166q0-156-107-280T444 3l-14-2-194-1H72Q48 0 41 2t-8 9q0 2 3 14 4 16 8 18t23 3q27 0 60 3 14 3 19 12 3 4 72 278t69 289zm416-159q0 38-11 68t-26 47-37 29-39 16-35 7h-43q-17 0-33 1h-43q-44 0-50-10-2-4-73-288T242 52q0-4 11-4t77-1h19q14 0 24-1 126 0 208 82 36 36 59 84t43 127 20 130z"/><path id="l" d="M109 429q-27 0-43 18t-16 44q0 71 53 123t132 52q91 0 152-56t62-145q0-43-20-82t-48-68-80-74q-36-31-100-92l-59-56 76-1q157 0 167 5 7 2 24 89v3h40v-3q-1-3-13-91T421 3V0H50v31q0 7 6 15t30 35q29 32 50 56 9 10 34 37t34 37 29 33 28 34 23 30 21 32 15 29 13 32 7 30 3 33q0 63-34 109t-97 46q-33 0-58-17t-35-33-10-19q0-1 5-1 18 0 37-14t19-46q0-25-16-42t-45-18z"/><path id="b" d="M23 287q1 3 2 8t5 22 10 31 15 33 20 30 26 22 33 9q75 0 96-64l10 9q62 55 118 55 65 0 102-47t37-114q0-108-76-199T249-10q-22 0-39 6-11 5-23 15t-19 17l-7 8q-1-1-22-87t-21-87q0-6 8-7t37-3h25q6-7 6-9t-3-18q-3-12-6-15t-13-4h-11q-9 0-34 1t-62 1q-70 0-89-2h-8q-7 7-7 11 2 27 13 35h20q34 1 39 12 3 6 61 239t61 247q1 5 1 14 0 41-25 41-22 0-37-28t-23-61-12-36q-2-2-16-2H29q-6 6-6 9zm155-185q22-76 74-76 30 0 58 23t46 58q18 34 36 108t19 110v6q0 74-61 74-11 0-22-3t-22-9-20-13-17-15-15-15-11-14-8-10l-3-4q0-1-3-14t-11-44-14-52q-26-106-26-110z"/><path id="n" d="M48 1Q31 1 31 11q0 2 3 14 4 16 8 18t23 3q27 0 60 3 14 3 19 12 2 5 71 281t70 280q0 7-4 7-8 3-53 5h-31q-6 6-6 8t2 17q4 17 10 21h539q7-4 7-11 0-5-13-112t-14-110q-2-7-20-7h-12q-7 5-7 13 0 1 3 24t3 53q0 30-7 49t-19 31-37 16-51 7-72 1h-23q-82-1-87-3t-7-8q-1-1-34-131l-32-129h78q20 0 28 1t22 3 24 7 17 12q13 12 22 33t13 38 5 18q3 5 19 5h12q7-5 7-10 0-3-31-131t-34-132q-2-7-20-7h-12q-7 6-7 12 0 3 5 22t5 40q0 29-20 36t-89 7h-55l-32-127Q245 66 245 60q0-14 89-14h25q6-6 6-7t-2-20q-4-13-10-19h-17q-41 2-151 2H86Q52 2 48 1z"/><path id="o" d="M56 320v13l14 20h299v149q0 149 2 153 5 11 17 11 14 0 17-12t4-58V353h298q15-8 15-20 0-13-15-20H409V40h298q15-8 15-20T707 0H70Q56 7 56 20t14 20h299v273H70q-14 7-14 20z"/><path id="p" d="M462 0q-18 3-129 3-116 0-134-3h-9v46h58q7 0 17 2t14 5 7 8q1 2 1 54v50H28v46l151 231q153 232 155 233 2 2 21 2h18l6-6V211h92v-46h-92V66q0-7 6-12 8-7 57-8h29V0h-9zM293 211v334L74 212l109-1h110z"/><path id="q" d="M139-249h-2q-12 0-18 14v486l1 486q10 13 19 13 13 0 20-15v-970q-8-14-18-14h-2z"/><path id="r" d="M289 629q0 6-57 8-24 0-31 1t-7 10q0 1 2 11 1 3 2 7t1 5 2 5 2 3 4 2 5 2 8 0 12 1h30q24 0 45-1h91q12 0 16-5 1-4 37-282l36-279 23 37q24 36 64 100t88 140q175 279 177 281l3 3q2 2 4 3l6 2h136q23 0 29 1 34 0 34-11 0-5-3-17t-3-13q-4-6-37-6-40-1-51-3t-18-11q-3-5-72-283T797 59q0-4 1-5t7-4 17-2 33-2h31q6-9 6-11 0-16-7-30-5-5-16-5-5 0-41 1t-92 1h-92q-31 0-35-1-17 0-17 10 0 2 2 14 4 16 8 18t23 3q27 0 60 3 14 3 19 12 2 4 38 146t71 283 35 141L654 322Q458 10 453 5l-4-2q-5-3-16-3-15 0-18 7-2 4-41 310l-39 307-68-270Q200 88 200 79q6-33 72-33h10q6-5 7-9t-3-18q-4-16-8-18-4-1-11-1h-12q-10 0-34 1t-64 1q-30 0-62-1T58 0Q43 0 39 2t-4 9q0 2 3 14t5 15q2 6 22 6 70 0 89 40 4 6 69 268t66 275z"/><path id="s" d="M308 24q59 0 108 52t50 121q0 63-52 87-106 27-136 37t-42 20q-60 42-60 121 0 61 32 111t65 75q29 25 70 40t64 16h18q96 0 139-64 1 0 13 13t26 29 20 22h4q3 0 5 1 13 0 13-7t-28-121-32-118-16-3q-20 0-20 9 0 6 1 10 0 3 1 19t2 26q0 34-9 59t-18 37-25 25q-36 21-82 21-57 0-106-46t-50-106q0-30 15-52t41-31q4-2 70-19t67-18q34-11 66-48t32-100q0-26-8-56-5-22-18-49t-36-59-66-60-94-38q-12-2-34-2-99 0-154 55l-10 11-28-31Q83-14 78-18t-13-4q-13 0-13 8 0 3 58 235 2 6 20 6h13q6-6 6-11 0-2-1-9t-4-21-2-33q2-39 18-66t43-40 52-18 53-5z"/><path id="t" d="M132-11q-34 0-34 33v11l13 28q75 158 109 273l8 24h-32q-38 0-54-3t-39-19q-11-7-22-18t-19-21-9-12q-2-1-15-1-19 0-19 10 0 6 19 35t55 62 71 38q7 2 225 2 160 0 164-1 20-7 20-28 0-31-32-42-6-2-69-2h-64l-3-17q-12-72-12-119 0-52 9-93t19-64 10-28q0-17-14-32t-36-15q-11 0-18 3t-16 24-16 60q-1 9-1 44 0 49 9 105t18 92 10 40h-98l-1-4q0-3-19-79t-43-161-31-97q-11-28-43-28z"/><path id="u" d="M94 250q0 69 10 131t23 107 37 88 38 67 42 52 33 34 25 21h17q14 0 14-9 0-3-17-21t-41-53-49-86-42-138-17-193 17-192 41-139 49-86 42-53 17-21q0-9-15-9h-16l-28 24q-94 85-137 212T94 250z"/><path id="v" d="m60 749 4 1h22l28-24q94-85 137-212t43-264q0-68-10-131T261 12t-37-88-38-67-41-51-32-33-23-19l-4-4H63q-3 0-5 3t-3 9q1 1 11 13Q221-64 221 250T66 725q-10 12-11 13 0 8 5 11z"/><path id="w" d="M84 237v13l14 20h581q15-8 15-20t-15-20H98q-14 7-14 20z"/><path id="x" d="M34 159q0 109 86 196t186 87q56 0 88-24t33-63q0-29-19-49t-48-21q-19 0-30 10t-11 30 11 34 22 21 14 6h1q0 2-6 6t-21 8-34 4q-30 0-57-14-21-9-43-31-44-44-64-124t-21-116q0-46 26-69 22-24 58-24h4q112 0 185 85 9 10 12 10 4 0 13-9t10-14-9-15-29-28-45-30-64-25-80-11q-75 0-121 48T34 159z"/></defs><g data-mml-node="math" stroke="currentColor" fill="currentColor" stroke-width="0"><g data-mml-node="msubsup"><use xlink:href="#a" data-mml-node="mi" transform="scale(1 -1)"/><use xlink:href="#b" data-mml-node="mi" transform="matrix(.707 0 0 -.707 571 -490.8)"/><g data-mml-node="TeXAtom"><use xlink:href="#c" data-mml-node="mn" transform="matrix(.707 0 0 -.707 571 356.7)"/><g data-mml-node="mo" font-size="884" font-family="serif"><text data-variant="normal" transform="matrix(.707 0 0 .707 924.5 356.7)">м</text><text data-variant="normal" transform="matrix(.707 0 0 .707 1319.642 356.7)">м</text></g></g></g><use xlink:href="#d" data-mml-node="mo" transform="matrix(1 0 0 -1 2042.7 0)"/><g data-mml-node="mfrac"><g data-mml-node="mrow"><use xlink:href="#e" data-mml-node="mn" transform="matrix(1 0 0 -1 3318.5 -911.1)"/><use xlink:href="#f" data-mml-node="mo" transform="matrix(1 0 0 -1 3818.5 -911.1)"/><g data-mml-node="mn" transform="matrix(1 0 0 -1 4263.2 -911.1)"><use xlink:href="#g"/><use xlink:href="#h" transform="translate(500)"/><use xlink:href="#i" transform="translate(1000)"/></g><use xlink:href="#j" data-mml-node="mtext" transform="matrix(1 0 0 -1 5763.2 -911.1)"/><g data-mml-node="msup"><use xlink:href="#k" data-mml-node="mi" transform="matrix(1 0 0 -1 6013.2 -911.1)"/><use xlink:href="#l" data-mml-node="mn" transform="matrix(.707 0 0 -.707 6841.2 -1274.1)"/></g><use xlink:href="#b" data-mml-node="mi" transform="matrix(1 0 0 -1 7244.7 -911.1)"/><use xlink:href="#m" data-mml-node="mo" transform="matrix(1 0 0 -1 7969.9 -911.1)"/><use xlink:href="#n" data-mml-node="mi" transform="matrix(1 0 0 -1 8970.2 -911.1)"/><use xlink:href="#o" data-mml-node="mo" transform="matrix(1 0 0 -1 9941.4 -911.1)"/><g data-mml-node="mfrac"><g data-mml-node="mrow"><use xlink:href="#p" data-mml-node="mn" transform="matrix(.707 0 0 -.707 11255.5 -1427.5)"/><use xlink:href="#j" data-mml-node="mtext" transform="matrix(.707 0 0 -.707 11609 -1427.5)"/><g data-mml-node="TeXAtom"><use xlink:href="#q" data-mml-node="mo" transform="matrix(.707 0 0 -.707 11785.75 -1427.5)"/></g><use xlink:href="#r" data-mml-node="mi" transform="matrix(.707 0 0 -.707 11982.296 -1427.5)"/><use xlink:href="#q" data-mml-node="mo" transform="matrix(.707 0 0 -.707 12725.353 -1427.5)"/></g><g data-mml-node="mrow"><use xlink:href="#k" data-mml-node="mi" transform="matrix(.707 0 0 -.707 11161.6 -566.1)"/><use xlink:href="#m" data-mml-node="mo" transform="matrix(.707 0 0 -.707 11746.996 -566.1)"/><g data-mml-node="msub"><use xlink:href="#s" data-mml-node="mi" transform="matrix(.707 0 0 -.707 12297.042 -566.1)"/><g data-mml-node="TeXAtom"><use xlink:href="#c" data-mml-node="mn" transform="matrix(.49985 0 0 -.49985 12730.433 -460.05)"/></g></g></g><path stroke="none" d="M11061.6-1131.1H13116v-60h-2054.4z"/></g></g><g data-mml-node="mrow"><use xlink:href="#t" data-mml-node="mi" transform="matrix(1 0 0 -1 4219.8 710)"/><use xlink:href="#j" data-mml-node="mtext" transform="matrix(1 0 0 -1 4789.8 710)"/><use xlink:href="#u" data-mml-node="mo" transform="matrix(1 0 0 -1 5039.8 710)"/><use xlink:href="#k" data-mml-node="mi" transform="matrix(1 0 0 -1 5428.8 710)"/><use xlink:href="#m" data-mml-node="mo" transform="matrix(1 0 0 -1 6479 710)"/><g data-mml-node="msub"><use xlink:href="#s" data-mml-node="mi" transform="matrix(1 0 0 -1 7479.2 710)"/><g data-mml-node="TeXAtom"><use xlink:href="#c" data-mml-node="mn" transform="matrix(.707 0 0 -.707 8092.2 860)"/></g></g><use xlink:href="#v" data-mml-node="mo" transform="matrix(1 0 0 -1 8495.8 710)"/><use xlink:href="#u" data-mml-node="mo" transform="matrix(1 0 0 -1 8884.8 710)"/><g data-mml-node="msub"><use xlink:href="#s" data-mml-node="mi" transform="matrix(1 0 0 -1 9273.8 710)"/><g data-mml-node="TeXAtom"><use xlink:href="#c" data-mml-node="mn" transform="matrix(.707 0 0 -.707 9886.8 860)"/></g></g><use xlink:href="#w" data-mml-node="mo" transform="matrix(1 0 0 -1 10512.6 710)"/><use xlink:href="#x" data-mml-node="mi" transform="matrix(1 0 0 -1 11512.8 710)"/><use xlink:href="#v" data-mml-node="mo" transform="matrix(1 0 0 -1 11945.8 710)"/></g><path stroke="none" d="M3218.5-220H13336v-60H3218.5z"/></g></g></svg>