<svg xmlns="http://www.w3.org/2000/svg" width="75.984" height="28.856" viewBox="0 -1060.7 4198.3 1594.2" xmlns:xlink="http://www.w3.org/1999/xlink"><defs><path id="a" d="M184-11q-68 0-110 45T31 147q0 100 73 186t170 97q1 1 140 1h138q1-1 3-2t4-2 3-2 3-3 2-2 2-4 1-4 1-5 1-6q0-44-65-44h-17q-10 0-14 1h-60l5-10q18-38 18-85 0-110-80-192T184-11zm177 289q0 80-85 80-124 0-161-174-1-4-1-6-8-37-8-61 0-50 25-70t57-21q54 0 99 47 29 30 47 80t22 80 5 45z"/><path id="b" d="m213 578-13-5q-14-5-40-10t-58-7H83v46h19q47 2 87 15t56 24 28 22q2 3 12 3 9 0 17-6V361l1-300q7-7 12-9t24-4 62-2h26V0h-11q-21 3-159 3-136 0-157-3H88v46h64q16 0 25 1t16 3 8 2 6 5 6 4v517z"/><path id="c" d="M674 636q8 0 14-6t6-15-7-14q-1-1-270-129L151 346l248-118Q687 92 691 87q3-6 3-11 0-18-18-20h-6L382 192Q92 329 90 331q-7 5-7 17 1 11 13 17 8 4 286 135t283 134q4 2 9 2zM84-118q0 10 15 20h579q16-6 16-20 0-12-15-20H98q-14 7-14 20z"/><path id="d" d="M118-250V750h137v-40h-97v-920h97v-40H118z"/><path id="e" d="M22 710v40h137V-250H22v40h97v920H22z"/></defs><g data-mml-node="math" stroke="currentColor" fill="currentColor" stroke-width="0"><g data-mml-node="msub"><use xlink:href="#a" data-mml-node="mi" transform="scale(1 -1)"/><g data-mml-node="TeXAtom"><text data-variant="normal" transform="matrix(.707 0 0 .707 571 176.7)" font-size="884" font-family="serif" data-mml-node="mo">б</text><use xlink:href="#b" data-mml-node="mn" transform="matrix(.707 0 0 -.707 888.938 176.7)"/></g></g><use xlink:href="#c" data-mml-node="mo" transform="matrix(1 0 0 -1 1570.3 0)"/><use xlink:href="#d" data-mml-node="mo" transform="matrix(1 0 0 -1 2626.1 0)"/><use xlink:href="#a" data-mml-node="mi" transform="matrix(1 0 0 -1 2904.1 0)"/><g data-mml-node="msubsup"><use xlink:href="#e" data-mml-node="mo" transform="matrix(1 0 0 -1 3475.1 0)"/><text data-variant="normal" transform="matrix(.707 0 0 .707 3753.1 -530.4)" font-size="884" font-family="serif" data-mml-node="mo">б</text><g data-mml-node="TeXAtom"><text data-variant="normal" transform="matrix(.707 0 0 .707 3753.1 356.7)" font-size="884" font-family="serif" data-mml-node="mo">м</text></g></g></g></svg>