<svg xmlns="http://www.w3.org/2000/svg" width="131.488" height="44.856" viewBox="0 -1381 7264.6 2478.4" xmlns:xlink="http://www.w3.org/1999/xlink"><defs><path id="h" d="M29-194q-6 6-6 8 0 3 79 320t84 331q22 68 57 119t66 74q56 47 120 47h2q62 0 102-38t40-97q0-105-104-174l13-13q51-51 51-131 0-113-85-187T257-10q-30 0-54 8t-38 19-22 23-12 19-5 6L62-188q-2-6-20-6H29zm324 625q39 0 74-12l5 3 7 7 10 10q7 7 12 14t11 18 12 24 9 29 8 36q2 9 2 33 0 18-1 23-15 51-76 51-42 0-79-24t-61-61-39-68-23-59q-5-16-38-147t-34-140q-1-5-1-21 0-48 22-79 31-42 87-42 42 0 89 25t76 86q16 34 24 77t8 65q0 58-35 93-42-14-75-14h-10q-79 0-79 31 0 7 3 14 14 28 92 28z"/><path id="a" d="M21 287q0 14 15 48t48 71 74 36q41 0 66-23t26-64q-2-19-3-21 0-3-16-46t-33-97-16-86q0-43 14-60t42-18q23 0 43 11t31 23 27 33q0 1 5 20t14 59 19 74q38 150 42 157 13 27 43 27 13 0 21-7t11-12 2-9q0-13-49-210T391-23q-28-83-97-132t-138-50q-45 0-79 22t-34 66q0 22 7 37t19 22 20 10 17 3q44 0 44-42 0-20-12-35t-23-20-13-5l-3-1q2-5 19-12t34-7h8q17 0 26 2 33 9 61 38t43 62 23 56 8 30l-6-4q-6-4-19-11T270-6q-20-5-39-5-46 0-81 22t-46 71q-1 7-1 31 0 57 35 149t35 117v14q0 3-4 7t-11 4h-4q-23 0-42-19t-30-41-17-42-8-22q-2-2-16-2H27q-6 6-6 9z"/><path id="c" d="M96 585q56 81 153 81 48 0 96-26t78-92q37-83 37-228 0-155-43-237-20-42-55-67t-61-31-51-7q-26 0-52 6t-61 32-55 67q-43 82-43 237 0 174 57 265zm225 12q-30 32-71 32-42 0-72-32-25-26-33-72t-8-192q0-158 8-208t36-79q28-30 69-30 40 0 68 30 29 30 36 84t8 203q0 145-8 191t-33 73z"/><path id="d" d="M78 35v25l16 43 43 18q28 0 50-25t23-88q0-35-9-68t-21-57-26-41-24-27-13-9q-4 0-13 9t-9 13q0 4 11 16t25 30 26 50 16 73V9l-1-1q-2-1-5-2t-6-3-9-2-12-1q-27 0-44 17z"/><path id="e" d="M352 287q-48-76-120-76-78 0-128 59T44 396q-2 16-2 40v8q0 93 69 162 60 60 132 60h6q4 0 8-1h4q12 0 25-2t37-12 47-32 43-59q43-88 43-226 0-140-60-237-35-56-84-87T208-22q-61 0-100 29T68 93t53 56q22 0 37-14t15-39q0-18-9-31t-16-16-13-5l-4-1q0-2 7-6t26-10 42-5h6q60 0 101 64 39 56 39 194v7zm-108-39q48 0 77 49t30 133q0 78-8 112-2 10-6 20t-14 26-30 27-47 10q-38 0-65-27-21-22-27-52t-7-105q0-83 5-112t20-47q25-34 72-34z"/><path id="f" d="m213 578-13-5q-14-5-40-10t-58-7H83v46h19q47 2 87 15t56 24 28 22q2 3 12 3 9 0 17-6V361l1-300q7-7 12-9t24-4 62-2h26V0h-11q-21 3-159 3-136 0-157-3H88v46h64q16 0 25 1t16 3 8 2 6 5 6 4v517z"/><path id="b" d="M56 347q0 13 14 20h637q15-8 15-20 0-11-14-19l-318-1H72q-16 5-16 20zm0-194q0 15 16 20h636q14-10 14-20 0-13-15-20H70q-14 7-14 20z"/><path id="i" d="M52 648q0 22 13 35h11q42-3 105-3 118 0 139 3h10q6-6 6-9t-2-18q-5-15-9-19h-21q-22-2-30-2-29-5-32-15 0-2 29-251t30-251l73 117q73 117 146 236t75 123q4 7 4 15 0 24-44 28-18 0-18 11 0 1 2 13 3 14 6 18t13 4h12q10 0 34-1t64-1q69 0 87 2h7q7-7 7-11 0-17-9-32-3-3-17-3-13-1-24-2t-21-5-16-7-12-8-10-7-8-9-7-7L452 282Q272-9 266-16q-3-2-7-5l-18-1h-7q-18 0-18 7-3 6-39 320-38 318-39 321-5 11-62 11H59q-7 5-7 11z"/><path id="j" d="M492 213q-20 0-20 13 0 4 5 24t5 35q0 31-21 38t-97 7h-52q-1-2-35-138T243 52q0-4 11-4t80-2q94 0 124 2t60 13q49 16 81 56t71 131q10 22 13 24 7 2 15 2 20 0 20-13Q613 7 608 2q-3-2-286-2H133Q31 0 31 11q0 2 3 14 4 16 8 18t23 3q27 0 60 3 14 3 19 12 2 5 71 281t70 280q0 7-4 7-8 3-53 5h-31q-6 6-6 8t2 17q4 17 10 21h554q7-4 7-11 0-5-13-112t-14-110q-2-7-20-7h-12q-7 5-7 13l3 23q3 24 3 52 0 30-7 50t-19 31-35 16-47 7-64 2h-47q-88-1-93-3-4-2-6-9-1-3-31-123t-31-122q23-1 48-1h26q66 0 91 15t45 81q4 16 6 18t17 3h8q3 0 5-1t2-1 2-4 3-4l-33-132q-33-133-36-135-3-3-16-3z"/><path id="k" d="M109 429q-27 0-43 18t-16 44q0 71 53 123t132 52q91 0 152-56t62-145q0-43-20-82t-48-68-80-74q-36-31-100-92l-59-56 76-1q157 0 167 5 7 2 24 89v3h40v-3q-1-3-13-91T421 3V0H50v31q0 7 6 15t30 35q29 32 50 56 9 10 34 37t34 37 29 33 28 34 23 30 21 32 15 29 13 32 7 30 3 33q0 63-34 109t-97 46q-33 0-58-17t-35-33-10-19q0-1 5-1 18 0 37-14t19-46q0-25-16-42t-45-18z"/><path id="l" d="M166 673q0 12 17 21h19q90-3 114-50 6-15 57-158t101-279 50-140q7-20 13-33t9-19 5-9 4-4 1-4-6-9h-68q-25 14-32 29t-51 134l-45 125-14-15q-13-16-47-55t-57-66q-25-29-62-72-51-60-63-70T83-12q-36 0-36 32 0 17 14 32t138 135q30 29 67 65t55 54l17 16q0 1-50 140t-54 150q-20 45-51 45-17 0-17 16z"/><path id="m" d="M308 24q59 0 108 52t50 121q0 63-52 87-106 27-136 37t-42 20q-60 42-60 121 0 61 32 111t65 75q29 25 70 40t64 16h18q96 0 139-64 1 0 13 13t26 29 20 22h4q3 0 5 1 13 0 13-7t-28-121-32-118-16-3q-20 0-20 9 0 6 1 10 0 3 1 19t2 26q0 34-9 59t-18 37-25 25q-36 21-82 21-57 0-106-46t-50-106q0-30 15-52t41-31q4-2 70-19t67-18q34-11 66-48t32-100q0-26-8-56-5-22-18-49t-36-59-66-60-94-38q-12-2-34-2-99 0-154 55l-10 11-28-31Q83-14 78-18t-13-4q-13 0-13 8 0 3 58 235 2 6 20 6h13q6-6 6-11 0-2-1-9t-4-21-2-33q2-39 18-66t43-40 52-18 53-5z"/><path id="n" d="M117 59q0-33 25-33 37 0 63 105 6 20 10 21 2 1 10 1h16q3 0 5-2t2-7q-1-6-3-16t-11-38-20-47-31-37-46-17q-36 0-67 22T38 85q0 12 1 17l65 258q63 255 63 263 0 3-1 5t-4 4-5 2-8 1-8 1-9 1-10 0h-13q-3 0-8 1t-6 3-1 6q0 2 2 14 5 19 11 21t72 6q15 1 34 2t30 3 11 1q12 0 12-8 0-11-73-300T118 83v-8q0-6-1-10v-6z"/></defs><g data-mml-node="math" stroke="currentColor" fill="currentColor" stroke-width="0"><g data-mml-node="msub"><use xlink:href="#a" data-mml-node="mi" transform="scale(1 -1)"/><g data-mml-node="TeXAtom"><text data-variant="normal" transform="matrix(.707 0 0 .707 490 176.7)" font-size="884" font-family="serif" data-mml-node="mo">ф</text></g></g><use xlink:href="#b" data-mml-node="mo" transform="matrix(1 0 0 -1 1222.6 0)"/><g data-mml-node="mfrac"><g data-mml-node="mrow"><use xlink:href="#c" data-mml-node="mn" transform="matrix(1 0 0 -1 3094.3 -676)"/><use xlink:href="#d" data-mml-node="mo" transform="matrix(1 0 0 -1 3594.3 -676)"/><g data-mml-node="mn" transform="matrix(1 0 0 -1 4039 -676)"><use xlink:href="#e"/><use xlink:href="#f" transform="translate(500)"/></g><use xlink:href="#g" data-mml-node="mtext" transform="matrix(1 0 0 -1 5039 -676)"/><g data-mml-node="msub"><use xlink:href="#h" data-mml-node="mi" transform="matrix(1 0 0 -1 5289 -676)"/><g data-mml-node="TeXAtom"><use xlink:href="#i" data-mml-node="mi" transform="matrix(.707 0 0 -.707 5855 -526)"/></g></g></g><g data-mml-node="mrow"><g data-mml-node="msup"><use xlink:href="#j" data-mml-node="mi" transform="matrix(1 0 0 -1 2498.4 793.9)"/><g data-mml-node="TeXAtom"><g data-mml-node="mn" transform="matrix(.707 0 0 -.707 3236.4 430.9)"><use xlink:href="#k"/><use xlink:href="#c" transform="translate(500)"/></g></g></g><use xlink:href="#g" data-mml-node="mtext" transform="matrix(1 0 0 -1 3993.5 793.9)"/><use xlink:href="#l" data-mml-node="mi" transform="matrix(1 0 0 -1 4243.5 793.9)"/><use xlink:href="#g" data-mml-node="mtext" transform="matrix(1 0 0 -1 4826.5 793.9)"/><g data-mml-node="msubsup"><use xlink:href="#m" data-mml-node="mi" transform="matrix(1 0 0 -1 5076.5 793.9)"/><use xlink:href="#k" data-mml-node="mn" transform="matrix(.707 0 0 -.707 5689.5 430.9)"/><g data-mml-node="TeXAtom"><use xlink:href="#c" data-mml-node="mn" transform="matrix(.707 0 0 -.707 5689.5 1081.8)"/></g></g><use xlink:href="#g" data-mml-node="mtext" transform="matrix(1 0 0 -1 6093.1 793.9)"/><g data-mml-node="msub"><use xlink:href="#n" data-mml-node="mi" transform="matrix(1 0 0 -1 6343.1 793.9)"/><g data-mml-node="TeXAtom"><use xlink:href="#c" data-mml-node="mn" transform="matrix(.707 0 0 -.707 6641.1 943.9)"/></g></g></g><path stroke="none" d="M2398.4-220h4746.2v-60H2398.4z"/></g></g></svg>